ISO-10303-21;
HEADER;
/* Generated by software containing ST-Developer
 * from STEP Tools, Inc. (www.steptools.com) 
 */
/* OPTION: using custom renumber hook */

FILE_DESCRIPTION(
/* description */ ('STEP AP242 Edition 2',
'CAx-IF Rec.Pracs.---Representation and Presentation of Product Manufa
cturing Information (PMI)---4.0---2014-10-13',
'CAx-IF Rec.Pracs.---3D Tessellated Geometry---0.4---2014-09-14','2;1',
'CAx-IF Rec.Pracs.---User Defined Attributes---1.5---2016-08-15'),
/* implementation_level */ '2;1');

FILE_NAME(
/* name */ 'Back1',
/* time_stamp */ '2026-09-09T01:30:54Z',
/* author */ (''),
/* organization */ (''),
/* preprocessor_version */ 'ST-DEVELOPER v20',
/* originating_system */ 'ONSHAPE BY PTC INC, 1.220',
/* authorisation */ '  ');

FILE_SCHEMA (('AP242_MANAGED_MODEL_BASED_3D_ENGINEERING_MIM_LF { 1 0 10303 442 3 1 4 }'));
ENDSEC;

DATA;
#10=SHAPE_REPRESENTATION_RELATIONSHIP('','',#641,#11);
#11=ADVANCED_BREP_SHAPE_REPRESENTATION('',(#639),#995);
#12=ORIENTED_EDGE('',*,*,#180,.F.);
#13=ORIENTED_EDGE('',*,*,#181,.T.);
#14=ORIENTED_EDGE('',*,*,#182,.T.);
#15=ORIENTED_EDGE('',*,*,#183,.F.);
#16=ORIENTED_EDGE('',*,*,#184,.F.);
#17=ORIENTED_EDGE('',*,*,#185,.T.);
#18=ORIENTED_EDGE('',*,*,#186,.T.);
#19=ORIENTED_EDGE('',*,*,#187,.F.);
#20=ORIENTED_EDGE('',*,*,#188,.F.);
#21=ORIENTED_EDGE('',*,*,#189,.T.);
#22=ORIENTED_EDGE('',*,*,#190,.T.);
#23=ORIENTED_EDGE('',*,*,#191,.F.);
#24=ORIENTED_EDGE('',*,*,#192,.F.);
#25=ORIENTED_EDGE('',*,*,#193,.T.);
#26=ORIENTED_EDGE('',*,*,#194,.T.);
#27=ORIENTED_EDGE('',*,*,#195,.F.);
#28=ORIENTED_EDGE('',*,*,#196,.F.);
#29=ORIENTED_EDGE('',*,*,#197,.T.);
#30=ORIENTED_EDGE('',*,*,#198,.T.);
#31=ORIENTED_EDGE('',*,*,#199,.F.);
#32=ORIENTED_EDGE('',*,*,#200,.T.);
#33=ORIENTED_EDGE('',*,*,#201,.T.);
#34=ORIENTED_EDGE('',*,*,#202,.F.);
#35=ORIENTED_EDGE('',*,*,#203,.F.);
#36=ORIENTED_EDGE('',*,*,#204,.F.);
#37=ORIENTED_EDGE('',*,*,#205,.T.);
#38=ORIENTED_EDGE('',*,*,#206,.T.);
#39=ORIENTED_EDGE('',*,*,#207,.F.);
#40=ORIENTED_EDGE('',*,*,#208,.F.);
#41=ORIENTED_EDGE('',*,*,#209,.F.);
#42=ORIENTED_EDGE('',*,*,#210,.T.);
#43=ORIENTED_EDGE('',*,*,#211,.T.);
#44=ORIENTED_EDGE('',*,*,#200,.F.);
#45=ORIENTED_EDGE('',*,*,#212,.F.);
#46=ORIENTED_EDGE('',*,*,#184,.T.);
#47=ORIENTED_EDGE('',*,*,#213,.T.);
#48=ORIENTED_EDGE('',*,*,#203,.T.);
#49=ORIENTED_EDGE('',*,*,#214,.F.);
#50=ORIENTED_EDGE('',*,*,#181,.F.);
#51=ORIENTED_EDGE('',*,*,#215,.F.);
#52=ORIENTED_EDGE('',*,*,#216,.F.);
#53=ORIENTED_EDGE('',*,*,#217,.T.);
#54=ORIENTED_EDGE('',*,*,#185,.F.);
#55=ORIENTED_EDGE('',*,*,#212,.T.);
#56=ORIENTED_EDGE('',*,*,#202,.T.);
#57=ORIENTED_EDGE('',*,*,#218,.F.);
#58=ORIENTED_EDGE('',*,*,#182,.F.);
#59=ORIENTED_EDGE('',*,*,#214,.T.);
#60=ORIENTED_EDGE('',*,*,#201,.F.);
#61=ORIENTED_EDGE('',*,*,#213,.F.);
#62=ORIENTED_EDGE('',*,*,#183,.T.);
#63=ORIENTED_EDGE('',*,*,#218,.T.);
#64=ORIENTED_EDGE('',*,*,#196,.T.);
#65=ORIENTED_EDGE('',*,*,#219,.T.);
#66=ORIENTED_EDGE('',*,*,#220,.F.);
#67=ORIENTED_EDGE('',*,*,#221,.F.);
#68=ORIENTED_EDGE('',*,*,#221,.T.);
#69=ORIENTED_EDGE('',*,*,#222,.T.);
#70=ORIENTED_EDGE('',*,*,#223,.F.);
#71=ORIENTED_EDGE('',*,*,#197,.F.);
#72=ORIENTED_EDGE('',*,*,#223,.T.);
#73=ORIENTED_EDGE('',*,*,#224,.T.);
#74=ORIENTED_EDGE('',*,*,#225,.F.);
#75=ORIENTED_EDGE('',*,*,#198,.F.);
#76=ORIENTED_EDGE('',*,*,#199,.T.);
#77=ORIENTED_EDGE('',*,*,#225,.T.);
#78=ORIENTED_EDGE('',*,*,#226,.F.);
#79=ORIENTED_EDGE('',*,*,#219,.F.);
#80=ORIENTED_EDGE('',*,*,#204,.T.);
#81=ORIENTED_EDGE('',*,*,#227,.T.);
#82=ORIENTED_EDGE('',*,*,#228,.F.);
#83=ORIENTED_EDGE('',*,*,#229,.F.);
#84=ORIENTED_EDGE('',*,*,#229,.T.);
#85=ORIENTED_EDGE('',*,*,#230,.T.);
#86=ORIENTED_EDGE('',*,*,#231,.F.);
#87=ORIENTED_EDGE('',*,*,#205,.F.);
#88=ORIENTED_EDGE('',*,*,#231,.T.);
#89=ORIENTED_EDGE('',*,*,#232,.T.);
#90=ORIENTED_EDGE('',*,*,#233,.F.);
#91=ORIENTED_EDGE('',*,*,#206,.F.);
#92=ORIENTED_EDGE('',*,*,#207,.T.);
#93=ORIENTED_EDGE('',*,*,#233,.T.);
#94=ORIENTED_EDGE('',*,*,#234,.F.);
#95=ORIENTED_EDGE('',*,*,#227,.F.);
#96=ORIENTED_EDGE('',*,*,#192,.T.);
#97=ORIENTED_EDGE('',*,*,#235,.T.);
#98=ORIENTED_EDGE('',*,*,#236,.F.);
#99=ORIENTED_EDGE('',*,*,#237,.F.);
#100=ORIENTED_EDGE('',*,*,#237,.T.);
#101=ORIENTED_EDGE('',*,*,#238,.T.);
#102=ORIENTED_EDGE('',*,*,#239,.F.);
#103=ORIENTED_EDGE('',*,*,#193,.F.);
#104=ORIENTED_EDGE('',*,*,#239,.T.);
#105=ORIENTED_EDGE('',*,*,#240,.T.);
#106=ORIENTED_EDGE('',*,*,#241,.F.);
#107=ORIENTED_EDGE('',*,*,#194,.F.);
#108=ORIENTED_EDGE('',*,*,#195,.T.);
#109=ORIENTED_EDGE('',*,*,#241,.T.);
#110=ORIENTED_EDGE('',*,*,#242,.F.);
#111=ORIENTED_EDGE('',*,*,#235,.F.);
#112=ORIENTED_EDGE('',*,*,#208,.T.);
#113=ORIENTED_EDGE('',*,*,#243,.T.);
#114=ORIENTED_EDGE('',*,*,#244,.F.);
#115=ORIENTED_EDGE('',*,*,#245,.F.);
#116=ORIENTED_EDGE('',*,*,#209,.T.);
#117=ORIENTED_EDGE('',*,*,#245,.T.);
#118=ORIENTED_EDGE('',*,*,#246,.F.);
#119=ORIENTED_EDGE('',*,*,#247,.F.);
#120=ORIENTED_EDGE('',*,*,#247,.T.);
#121=ORIENTED_EDGE('',*,*,#248,.T.);
#122=ORIENTED_EDGE('',*,*,#249,.F.);
#123=ORIENTED_EDGE('',*,*,#210,.F.);
#124=ORIENTED_EDGE('',*,*,#249,.T.);
#125=ORIENTED_EDGE('',*,*,#250,.T.);
#126=ORIENTED_EDGE('',*,*,#243,.F.);
#127=ORIENTED_EDGE('',*,*,#211,.F.);
#128=ORIENTED_EDGE('',*,*,#180,.T.);
#129=ORIENTED_EDGE('',*,*,#251,.F.);
#130=ORIENTED_EDGE('',*,*,#252,.F.);
#131=ORIENTED_EDGE('',*,*,#215,.T.);
#132=ORIENTED_EDGE('',*,*,#187,.T.);
#133=ORIENTED_EDGE('',*,*,#253,.F.);
#134=ORIENTED_EDGE('',*,*,#254,.F.);
#135=ORIENTED_EDGE('',*,*,#251,.T.);
#136=ORIENTED_EDGE('',*,*,#186,.F.);
#137=ORIENTED_EDGE('',*,*,#217,.F.);
#138=ORIENTED_EDGE('',*,*,#255,.T.);
#139=ORIENTED_EDGE('',*,*,#253,.T.);
#140=ORIENTED_EDGE('',*,*,#246,.T.);
#141=ORIENTED_EDGE('',*,*,#244,.T.);
#142=ORIENTED_EDGE('',*,*,#250,.F.);
#143=ORIENTED_EDGE('',*,*,#248,.F.);
#144=ORIENTED_EDGE('',*,*,#242,.T.);
#145=ORIENTED_EDGE('',*,*,#240,.F.);
#146=ORIENTED_EDGE('',*,*,#238,.F.);
#147=ORIENTED_EDGE('',*,*,#236,.T.);
#148=ORIENTED_EDGE('',*,*,#222,.F.);
#149=ORIENTED_EDGE('',*,*,#220,.T.);
#150=ORIENTED_EDGE('',*,*,#226,.T.);
#151=ORIENTED_EDGE('',*,*,#224,.F.);
#152=ORIENTED_EDGE('',*,*,#232,.F.);
#153=ORIENTED_EDGE('',*,*,#230,.F.);
#154=ORIENTED_EDGE('',*,*,#228,.T.);
#155=ORIENTED_EDGE('',*,*,#234,.T.);
#156=ORIENTED_EDGE('',*,*,#252,.T.);
#157=ORIENTED_EDGE('',*,*,#254,.T.);
#158=ORIENTED_EDGE('',*,*,#255,.F.);
#159=ORIENTED_EDGE('',*,*,#216,.T.);
#160=ORIENTED_EDGE('',*,*,#189,.F.);
#161=ORIENTED_EDGE('',*,*,#256,.F.);
#162=ORIENTED_EDGE('',*,*,#257,.T.);
#163=ORIENTED_EDGE('',*,*,#258,.T.);
#164=ORIENTED_EDGE('',*,*,#188,.T.);
#165=ORIENTED_EDGE('',*,*,#259,.F.);
#166=ORIENTED_EDGE('',*,*,#260,.F.);
#167=ORIENTED_EDGE('',*,*,#256,.T.);
#168=ORIENTED_EDGE('',*,*,#191,.T.);
#169=ORIENTED_EDGE('',*,*,#261,.F.);
#170=ORIENTED_EDGE('',*,*,#262,.F.);
#171=ORIENTED_EDGE('',*,*,#259,.T.);
#172=ORIENTED_EDGE('',*,*,#190,.F.);
#173=ORIENTED_EDGE('',*,*,#258,.F.);
#174=ORIENTED_EDGE('',*,*,#263,.T.);
#175=ORIENTED_EDGE('',*,*,#261,.T.);
#176=ORIENTED_EDGE('',*,*,#257,.F.);
#177=ORIENTED_EDGE('',*,*,#260,.T.);
#178=ORIENTED_EDGE('',*,*,#262,.T.);
#179=ORIENTED_EDGE('',*,*,#263,.F.);
#180=EDGE_CURVE('',#264,#265,#320,.T.);
#181=EDGE_CURVE('',#264,#266,#321,.T.);
#182=EDGE_CURVE('',#266,#267,#322,.T.);
#183=EDGE_CURVE('',#268,#267,#323,.T.);
#184=EDGE_CURVE('',#269,#268,#324,.T.);
#185=EDGE_CURVE('',#269,#270,#325,.T.);
#186=EDGE_CURVE('',#270,#271,#326,.T.);
#187=EDGE_CURVE('',#265,#271,#327,.T.);
#188=EDGE_CURVE('',#272,#273,#328,.T.);
#189=EDGE_CURVE('',#272,#274,#329,.T.);
#190=EDGE_CURVE('',#274,#275,#330,.T.);
#191=EDGE_CURVE('',#273,#275,#331,.T.);
#192=EDGE_CURVE('',#276,#277,#332,.T.);
#193=EDGE_CURVE('',#276,#278,#333,.T.);
#194=EDGE_CURVE('',#278,#279,#334,.T.);
#195=EDGE_CURVE('',#277,#279,#335,.T.);
#196=EDGE_CURVE('',#280,#281,#336,.T.);
#197=EDGE_CURVE('',#280,#282,#337,.T.);
#198=EDGE_CURVE('',#282,#283,#338,.T.);
#199=EDGE_CURVE('',#281,#283,#339,.T.);
#200=EDGE_CURVE('',#284,#285,#340,.T.);
#201=EDGE_CURVE('',#285,#286,#341,.T.);
#202=EDGE_CURVE('',#287,#286,#342,.T.);
#203=EDGE_CURVE('',#284,#287,#343,.T.);
#204=EDGE_CURVE('',#288,#289,#344,.T.);
#205=EDGE_CURVE('',#288,#290,#345,.T.);
#206=EDGE_CURVE('',#290,#291,#346,.T.);
#207=EDGE_CURVE('',#289,#291,#347,.T.);
#208=EDGE_CURVE('',#292,#293,#348,.T.);
#209=EDGE_CURVE('',#294,#292,#349,.T.);
#210=EDGE_CURVE('',#294,#295,#350,.T.);
#211=EDGE_CURVE('',#295,#293,#351,.T.);
#212=EDGE_CURVE('',#269,#284,#352,.T.);
#213=EDGE_CURVE('',#268,#285,#353,.T.);
#214=EDGE_CURVE('',#266,#287,#354,.T.);
#215=EDGE_CURVE('',#296,#264,#355,.T.);
#216=EDGE_CURVE('',#297,#296,#356,.T.);
#217=EDGE_CURVE('',#297,#270,#357,.T.);
#218=EDGE_CURVE('',#267,#286,#358,.T.);
#219=EDGE_CURVE('',#281,#298,#359,.T.);
#220=EDGE_CURVE('',#299,#298,#360,.T.);
#221=EDGE_CURVE('',#280,#299,#361,.T.);
#222=EDGE_CURVE('',#299,#300,#362,.T.);
#223=EDGE_CURVE('',#282,#300,#363,.T.);
#224=EDGE_CURVE('',#300,#301,#364,.T.);
#225=EDGE_CURVE('',#283,#301,#365,.T.);
#226=EDGE_CURVE('',#298,#301,#366,.T.);
#227=EDGE_CURVE('',#289,#302,#367,.T.);
#228=EDGE_CURVE('',#303,#302,#368,.T.);
#229=EDGE_CURVE('',#288,#303,#369,.T.);
#230=EDGE_CURVE('',#303,#304,#370,.T.);
#231=EDGE_CURVE('',#290,#304,#371,.T.);
#232=EDGE_CURVE('',#304,#305,#372,.T.);
#233=EDGE_CURVE('',#291,#305,#373,.T.);
#234=EDGE_CURVE('',#302,#305,#374,.T.);
#235=EDGE_CURVE('',#277,#306,#375,.T.);
#236=EDGE_CURVE('',#307,#306,#376,.T.);
#237=EDGE_CURVE('',#276,#307,#377,.T.);
#238=EDGE_CURVE('',#307,#308,#378,.T.);
#239=EDGE_CURVE('',#278,#308,#379,.T.);
#240=EDGE_CURVE('',#308,#309,#380,.T.);
#241=EDGE_CURVE('',#279,#309,#381,.T.);
#242=EDGE_CURVE('',#306,#309,#382,.T.);
#243=EDGE_CURVE('',#293,#310,#383,.T.);
#244=EDGE_CURVE('',#311,#310,#384,.T.);
#245=EDGE_CURVE('',#292,#311,#385,.T.);
#246=EDGE_CURVE('',#312,#311,#386,.T.);
#247=EDGE_CURVE('',#294,#312,#387,.T.);
#248=EDGE_CURVE('',#312,#313,#388,.T.);
#249=EDGE_CURVE('',#295,#313,#389,.T.);
#250=EDGE_CURVE('',#313,#310,#390,.T.);
#251=EDGE_CURVE('',#314,#265,#391,.T.);
#252=EDGE_CURVE('',#296,#314,#392,.T.);
#253=EDGE_CURVE('',#315,#271,#393,.T.);
#254=EDGE_CURVE('',#314,#315,#394,.T.);
#255=EDGE_CURVE('',#297,#315,#395,.T.);
#256=EDGE_CURVE('',#316,#272,#396,.T.);
#257=EDGE_CURVE('',#316,#317,#397,.T.);
#258=EDGE_CURVE('',#317,#274,#398,.T.);
#259=EDGE_CURVE('',#318,#273,#399,.T.);
#260=EDGE_CURVE('',#316,#318,#400,.T.);
#261=EDGE_CURVE('',#319,#275,#401,.T.);
#262=EDGE_CURVE('',#318,#319,#402,.T.);
#263=EDGE_CURVE('',#317,#319,#403,.T.);
#264=VERTEX_POINT('',#825);
#265=VERTEX_POINT('',#826);
#266=VERTEX_POINT('',#828);
#267=VERTEX_POINT('',#830);
#268=VERTEX_POINT('',#832);
#269=VERTEX_POINT('',#834);
#270=VERTEX_POINT('',#836);
#271=VERTEX_POINT('',#838);
#272=VERTEX_POINT('',#841);
#273=VERTEX_POINT('',#842);
#274=VERTEX_POINT('',#844);
#275=VERTEX_POINT('',#846);
#276=VERTEX_POINT('',#850);
#277=VERTEX_POINT('',#851);
#278=VERTEX_POINT('',#853);
#279=VERTEX_POINT('',#855);
#280=VERTEX_POINT('',#858);
#281=VERTEX_POINT('',#859);
#282=VERTEX_POINT('',#861);
#283=VERTEX_POINT('',#863);
#284=VERTEX_POINT('',#866);
#285=VERTEX_POINT('',#867);
#286=VERTEX_POINT('',#869);
#287=VERTEX_POINT('',#871);
#288=VERTEX_POINT('',#874);
#289=VERTEX_POINT('',#875);
#290=VERTEX_POINT('',#877);
#291=VERTEX_POINT('',#879);
#292=VERTEX_POINT('',#882);
#293=VERTEX_POINT('',#883);
#294=VERTEX_POINT('',#885);
#295=VERTEX_POINT('',#887);
#296=VERTEX_POINT('',#895);
#297=VERTEX_POINT('',#897);
#298=VERTEX_POINT('',#904);
#299=VERTEX_POINT('',#906);
#300=VERTEX_POINT('',#910);
#301=VERTEX_POINT('',#914);
#302=VERTEX_POINT('',#920);
#303=VERTEX_POINT('',#922);
#304=VERTEX_POINT('',#926);
#305=VERTEX_POINT('',#930);
#306=VERTEX_POINT('',#936);
#307=VERTEX_POINT('',#938);
#308=VERTEX_POINT('',#942);
#309=VERTEX_POINT('',#946);
#310=VERTEX_POINT('',#952);
#311=VERTEX_POINT('',#954);
#312=VERTEX_POINT('',#958);
#313=VERTEX_POINT('',#962);
#314=VERTEX_POINT('',#968);
#315=VERTEX_POINT('',#972);
#316=VERTEX_POINT('',#979);
#317=VERTEX_POINT('',#981);
#318=VERTEX_POINT('',#985);
#319=VERTEX_POINT('',#989);
#320=LINE('',#824,#404);
#321=LINE('',#827,#405);
#322=LINE('',#829,#406);
#323=LINE('',#831,#407);
#324=LINE('',#833,#408);
#325=LINE('',#835,#409);
#326=LINE('',#837,#410);
#327=LINE('',#839,#411);
#328=LINE('',#840,#412);
#329=LINE('',#843,#413);
#330=LINE('',#845,#414);
#331=LINE('',#847,#415);
#332=LINE('',#849,#416);
#333=LINE('',#852,#417);
#334=LINE('',#854,#418);
#335=LINE('',#856,#419);
#336=LINE('',#857,#420);
#337=LINE('',#860,#421);
#338=LINE('',#862,#422);
#339=LINE('',#864,#423);
#340=LINE('',#865,#424);
#341=LINE('',#868,#425);
#342=LINE('',#870,#426);
#343=LINE('',#872,#427);
#344=LINE('',#873,#428);
#345=LINE('',#876,#429);
#346=LINE('',#878,#430);
#347=LINE('',#880,#431);
#348=LINE('',#881,#432);
#349=LINE('',#884,#433);
#350=LINE('',#886,#434);
#351=LINE('',#888,#435);
#352=LINE('',#890,#436);
#353=LINE('',#891,#437);
#354=LINE('',#893,#438);
#355=LINE('',#894,#439);
#356=LINE('',#896,#440);
#357=LINE('',#898,#441);
#358=LINE('',#900,#442);
#359=LINE('',#903,#443);
#360=LINE('',#905,#444);
#361=LINE('',#907,#445);
#362=LINE('',#909,#446);
#363=LINE('',#911,#447);
#364=LINE('',#913,#448);
#365=LINE('',#915,#449);
#366=LINE('',#917,#450);
#367=LINE('',#919,#451);
#368=LINE('',#921,#452);
#369=LINE('',#923,#453);
#370=LINE('',#925,#454);
#371=LINE('',#927,#455);
#372=LINE('',#929,#456);
#373=LINE('',#931,#457);
#374=LINE('',#933,#458);
#375=LINE('',#935,#459);
#376=LINE('',#937,#460);
#377=LINE('',#939,#461);
#378=LINE('',#941,#462);
#379=LINE('',#943,#463);
#380=LINE('',#945,#464);
#381=LINE('',#947,#465);
#382=LINE('',#949,#466);
#383=LINE('',#951,#467);
#384=LINE('',#953,#468);
#385=LINE('',#955,#469);
#386=LINE('',#957,#470);
#387=LINE('',#959,#471);
#388=LINE('',#961,#472);
#389=LINE('',#963,#473);
#390=LINE('',#965,#474);
#391=LINE('',#967,#475);
#392=LINE('',#969,#476);
#393=LINE('',#971,#477);
#394=LINE('',#973,#478);
#395=LINE('',#975,#479);
#396=LINE('',#978,#480);
#397=LINE('',#980,#481);
#398=LINE('',#982,#482);
#399=LINE('',#984,#483);
#400=LINE('',#986,#484);
#401=LINE('',#988,#485);
#402=LINE('',#990,#486);
#403=LINE('',#992,#487);
#404=VECTOR('',#678,1.);
#405=VECTOR('',#679,1.);
#406=VECTOR('',#680,1.);
#407=VECTOR('',#681,1.);
#408=VECTOR('',#682,1.);
#409=VECTOR('',#683,1.);
#410=VECTOR('',#684,1.);
#411=VECTOR('',#685,1.);
#412=VECTOR('',#686,1.);
#413=VECTOR('',#687,1.);
#414=VECTOR('',#688,1.);
#415=VECTOR('',#689,1.);
#416=VECTOR('',#692,1.);
#417=VECTOR('',#693,1.);
#418=VECTOR('',#694,1.);
#419=VECTOR('',#695,1.);
#420=VECTOR('',#696,1.);
#421=VECTOR('',#697,1.);
#422=VECTOR('',#698,1.);
#423=VECTOR('',#699,1.);
#424=VECTOR('',#700,1.);
#425=VECTOR('',#701,1.);
#426=VECTOR('',#702,1.);
#427=VECTOR('',#703,1.);
#428=VECTOR('',#704,1.);
#429=VECTOR('',#705,1.);
#430=VECTOR('',#706,1.);
#431=VECTOR('',#707,1.);
#432=VECTOR('',#708,1.);
#433=VECTOR('',#709,1.);
#434=VECTOR('',#710,1.);
#435=VECTOR('',#711,1.);
#436=VECTOR('',#714,1.);
#437=VECTOR('',#715,1.);
#438=VECTOR('',#718,1.);
#439=VECTOR('',#719,1.);
#440=VECTOR('',#720,1.);
#441=VECTOR('',#721,1.);
#442=VECTOR('',#724,1.);
#443=VECTOR('',#729,1.);
#444=VECTOR('',#730,1.);
#445=VECTOR('',#731,1.);
#446=VECTOR('',#734,1.);
#447=VECTOR('',#735,1.);
#448=VECTOR('',#738,1.);
#449=VECTOR('',#739,1.);
#450=VECTOR('',#742,1.);
#451=VECTOR('',#745,1.);
#452=VECTOR('',#746,1.);
#453=VECTOR('',#747,1.);
#454=VECTOR('',#750,1.);
#455=VECTOR('',#751,1.);
#456=VECTOR('',#754,1.);
#457=VECTOR('',#755,1.);
#458=VECTOR('',#758,1.);
#459=VECTOR('',#761,1.);
#460=VECTOR('',#762,1.);
#461=VECTOR('',#763,1.);
#462=VECTOR('',#766,1.);
#463=VECTOR('',#767,1.);
#464=VECTOR('',#770,1.);
#465=VECTOR('',#771,1.);
#466=VECTOR('',#774,1.);
#467=VECTOR('',#777,1.);
#468=VECTOR('',#778,1.);
#469=VECTOR('',#779,1.);
#470=VECTOR('',#782,1.);
#471=VECTOR('',#783,1.);
#472=VECTOR('',#786,1.);
#473=VECTOR('',#787,1.);
#474=VECTOR('',#790,1.);
#475=VECTOR('',#793,1.);
#476=VECTOR('',#794,1.);
#477=VECTOR('',#797,1.);
#478=VECTOR('',#798,1.);
#479=VECTOR('',#801,1.);
#480=VECTOR('',#806,1.);
#481=VECTOR('',#807,1.);
#482=VECTOR('',#808,1.);
#483=VECTOR('',#811,1.);
#484=VECTOR('',#812,1.);
#485=VECTOR('',#815,1.);
#486=VECTOR('',#816,1.);
#487=VECTOR('',#819,1.);
#488=EDGE_LOOP('',(#12,#13,#14,#15,#16,#17,#18,#19));
#489=EDGE_LOOP('',(#20,#21,#22,#23));
#490=EDGE_LOOP('',(#24,#25,#26,#27));
#491=EDGE_LOOP('',(#28,#29,#30,#31));
#492=EDGE_LOOP('',(#32,#33,#34,#35));
#493=EDGE_LOOP('',(#36,#37,#38,#39));
#494=EDGE_LOOP('',(#40,#41,#42,#43));
#495=EDGE_LOOP('',(#44,#45,#46,#47));
#496=EDGE_LOOP('',(#48,#49,#50,#51,#52,#53,#54,#55));
#497=EDGE_LOOP('',(#56,#57,#58,#59));
#498=EDGE_LOOP('',(#60,#61,#62,#63));
#499=EDGE_LOOP('',(#64,#65,#66,#67));
#500=EDGE_LOOP('',(#68,#69,#70,#71));
#501=EDGE_LOOP('',(#72,#73,#74,#75));
#502=EDGE_LOOP('',(#76,#77,#78,#79));
#503=EDGE_LOOP('',(#80,#81,#82,#83));
#504=EDGE_LOOP('',(#84,#85,#86,#87));
#505=EDGE_LOOP('',(#88,#89,#90,#91));
#506=EDGE_LOOP('',(#92,#93,#94,#95));
#507=EDGE_LOOP('',(#96,#97,#98,#99));
#508=EDGE_LOOP('',(#100,#101,#102,#103));
#509=EDGE_LOOP('',(#104,#105,#106,#107));
#510=EDGE_LOOP('',(#108,#109,#110,#111));
#511=EDGE_LOOP('',(#112,#113,#114,#115));
#512=EDGE_LOOP('',(#116,#117,#118,#119));
#513=EDGE_LOOP('',(#120,#121,#122,#123));
#514=EDGE_LOOP('',(#124,#125,#126,#127));
#515=EDGE_LOOP('',(#128,#129,#130,#131));
#516=EDGE_LOOP('',(#132,#133,#134,#135));
#517=EDGE_LOOP('',(#136,#137,#138,#139));
#518=EDGE_LOOP('',(#140,#141,#142,#143));
#519=EDGE_LOOP('',(#144,#145,#146,#147));
#520=EDGE_LOOP('',(#148,#149,#150,#151));
#521=EDGE_LOOP('',(#152,#153,#154,#155));
#522=EDGE_LOOP('',(#156,#157,#158,#159));
#523=EDGE_LOOP('',(#160,#161,#162,#163));
#524=EDGE_LOOP('',(#164,#165,#166,#167));
#525=EDGE_LOOP('',(#168,#169,#170,#171));
#526=EDGE_LOOP('',(#172,#173,#174,#175));
#527=EDGE_LOOP('',(#176,#177,#178,#179));
#528=FACE_BOUND('',#488,.T.);
#529=FACE_BOUND('',#489,.T.);
#530=FACE_BOUND('',#490,.T.);
#531=FACE_BOUND('',#491,.T.);
#532=FACE_BOUND('',#492,.T.);
#533=FACE_BOUND('',#493,.T.);
#534=FACE_BOUND('',#494,.T.);
#535=FACE_BOUND('',#495,.T.);
#536=FACE_BOUND('',#496,.T.);
#537=FACE_BOUND('',#497,.T.);
#538=FACE_BOUND('',#498,.T.);
#539=FACE_BOUND('',#499,.T.);
#540=FACE_BOUND('',#500,.T.);
#541=FACE_BOUND('',#501,.T.);
#542=FACE_BOUND('',#502,.T.);
#543=FACE_BOUND('',#503,.T.);
#544=FACE_BOUND('',#504,.T.);
#545=FACE_BOUND('',#505,.T.);
#546=FACE_BOUND('',#506,.T.);
#547=FACE_BOUND('',#507,.T.);
#548=FACE_BOUND('',#508,.T.);
#549=FACE_BOUND('',#509,.T.);
#550=FACE_BOUND('',#510,.T.);
#551=FACE_BOUND('',#511,.T.);
#552=FACE_BOUND('',#512,.T.);
#553=FACE_BOUND('',#513,.T.);
#554=FACE_BOUND('',#514,.T.);
#555=FACE_BOUND('',#515,.T.);
#556=FACE_BOUND('',#516,.T.);
#557=FACE_BOUND('',#517,.T.);
#558=FACE_BOUND('',#518,.T.);
#559=FACE_BOUND('',#519,.T.);
#560=FACE_BOUND('',#520,.T.);
#561=FACE_BOUND('',#521,.T.);
#562=FACE_BOUND('',#522,.T.);
#563=FACE_BOUND('',#523,.T.);
#564=FACE_BOUND('',#524,.T.);
#565=FACE_BOUND('',#525,.T.);
#566=FACE_BOUND('',#526,.T.);
#567=FACE_BOUND('',#527,.T.);
#568=PLANE('',#643);
#569=PLANE('',#644);
#570=PLANE('',#645);
#571=PLANE('',#646);
#572=PLANE('',#647);
#573=PLANE('',#648);
#574=PLANE('',#649);
#575=PLANE('',#650);
#576=PLANE('',#651);
#577=PLANE('',#652);
#578=PLANE('',#653);
#579=PLANE('',#654);
#580=PLANE('',#655);
#581=PLANE('',#656);
#582=PLANE('',#657);
#583=PLANE('',#658);
#584=PLANE('',#659);
#585=PLANE('',#660);
#586=PLANE('',#661);
#587=PLANE('',#662);
#588=PLANE('',#663);
#589=PLANE('',#664);
#590=PLANE('',#665);
#591=PLANE('',#666);
#592=PLANE('',#667);
#593=PLANE('',#668);
#594=PLANE('',#669);
#595=PLANE('',#670);
#596=PLANE('',#671);
#597=PLANE('',#672);
#598=PLANE('',#673);
#599=ADVANCED_FACE('',(#528,#529),#568,.T.);
#600=ADVANCED_FACE('',(#530,#531,#532,#533,#534),#569,.F.);
#601=ADVANCED_FACE('',(#535),#570,.T.);
#602=ADVANCED_FACE('',(#536),#571,.F.);
#603=ADVANCED_FACE('',(#537),#572,.F.);
#604=ADVANCED_FACE('',(#538),#573,.T.);
#605=ADVANCED_FACE('',(#539),#574,.T.);
#606=ADVANCED_FACE('',(#540),#575,.F.);
#607=ADVANCED_FACE('',(#541),#576,.F.);
#608=ADVANCED_FACE('',(#542),#577,.T.);
#609=ADVANCED_FACE('',(#543),#578,.T.);
#610=ADVANCED_FACE('',(#544),#579,.F.);
#611=ADVANCED_FACE('',(#545),#580,.F.);
#612=ADVANCED_FACE('',(#546),#581,.T.);
#613=ADVANCED_FACE('',(#547),#582,.T.);
#614=ADVANCED_FACE('',(#548),#583,.F.);
#615=ADVANCED_FACE('',(#549),#584,.F.);
#616=ADVANCED_FACE('',(#550),#585,.T.);
#617=ADVANCED_FACE('',(#551),#586,.T.);
#618=ADVANCED_FACE('',(#552),#587,.T.);
#619=ADVANCED_FACE('',(#553),#588,.F.);
#620=ADVANCED_FACE('',(#554),#589,.F.);
#621=ADVANCED_FACE('',(#555),#590,.F.);
#622=ADVANCED_FACE('',(#556),#591,.F.);
#623=ADVANCED_FACE('',(#557),#592,.T.);
#624=ADVANCED_FACE('',(#558,#559,#560,#561,#562),#593,.T.);
#625=ADVANCED_FACE('',(#563),#594,.T.);
#626=ADVANCED_FACE('',(#564),#595,.F.);
#627=ADVANCED_FACE('',(#565),#596,.F.);
#628=ADVANCED_FACE('',(#566),#597,.T.);
#629=ADVANCED_FACE('',(#567),#598,.T.);
#630=CLOSED_SHELL('',(#599,#600,#601,#602,#603,#604,#605,#606,#607,#608,
#609,#610,#611,#612,#613,#614,#615,#616,#617,#618,#619,#620,#621,#622,#623,
#624,#625,#626,#627,#628,#629));
#631=STYLED_ITEM('',(#632),#639);
#632=PRESENTATION_STYLE_ASSIGNMENT((#633));
#633=SURFACE_STYLE_USAGE(.BOTH.,#634);
#634=SURFACE_SIDE_STYLE('',(#635));
#635=SURFACE_STYLE_FILL_AREA(#636);
#636=FILL_AREA_STYLE('',(#637));
#637=FILL_AREA_STYLE_COLOUR('',#638);
#638=COLOUR_RGB('',0.796078431372549,0.905882352941176,0.745098039215686);
#639=MANIFOLD_SOLID_BREP('Part 1',#630);
#640=SHAPE_DEFINITION_REPRESENTATION(#1000,#641);
#641=SHAPE_REPRESENTATION('Part 1',(#642),#995);
#642=AXIS2_PLACEMENT_3D('',#822,#674,#675);
#643=AXIS2_PLACEMENT_3D('',#823,#676,#677);
#644=AXIS2_PLACEMENT_3D('',#848,#690,#691);
#645=AXIS2_PLACEMENT_3D('',#889,#712,#713);
#646=AXIS2_PLACEMENT_3D('',#892,#716,#717);
#647=AXIS2_PLACEMENT_3D('',#899,#722,#723);
#648=AXIS2_PLACEMENT_3D('',#901,#725,#726);
#649=AXIS2_PLACEMENT_3D('',#902,#727,#728);
#650=AXIS2_PLACEMENT_3D('',#908,#732,#733);
#651=AXIS2_PLACEMENT_3D('',#912,#736,#737);
#652=AXIS2_PLACEMENT_3D('',#916,#740,#741);
#653=AXIS2_PLACEMENT_3D('',#918,#743,#744);
#654=AXIS2_PLACEMENT_3D('',#924,#748,#749);
#655=AXIS2_PLACEMENT_3D('',#928,#752,#753);
#656=AXIS2_PLACEMENT_3D('',#932,#756,#757);
#657=AXIS2_PLACEMENT_3D('',#934,#759,#760);
#658=AXIS2_PLACEMENT_3D('',#940,#764,#765);
#659=AXIS2_PLACEMENT_3D('',#944,#768,#769);
#660=AXIS2_PLACEMENT_3D('',#948,#772,#773);
#661=AXIS2_PLACEMENT_3D('',#950,#775,#776);
#662=AXIS2_PLACEMENT_3D('',#956,#780,#781);
#663=AXIS2_PLACEMENT_3D('',#960,#784,#785);
#664=AXIS2_PLACEMENT_3D('',#964,#788,#789);
#665=AXIS2_PLACEMENT_3D('',#966,#791,#792);
#666=AXIS2_PLACEMENT_3D('',#970,#795,#796);
#667=AXIS2_PLACEMENT_3D('',#974,#799,#800);
#668=AXIS2_PLACEMENT_3D('',#976,#802,#803);
#669=AXIS2_PLACEMENT_3D('',#977,#804,#805);
#670=AXIS2_PLACEMENT_3D('',#983,#809,#810);
#671=AXIS2_PLACEMENT_3D('',#987,#813,#814);
#672=AXIS2_PLACEMENT_3D('',#991,#817,#818);
#673=AXIS2_PLACEMENT_3D('',#993,#820,#821);
#674=DIRECTION('',(0.,0.,1.));
#675=DIRECTION('',(1.,0.,0.));
#676=DIRECTION('',(0.,0.,1.));
#677=DIRECTION('',(1.,0.,0.));
#678=DIRECTION('',(0.,-1.,0.));
#679=DIRECTION('',(-1.,0.,0.));
#680=DIRECTION('',(0.,-1.,0.));
#681=DIRECTION('',(-1.,0.,0.));
#682=DIRECTION('',(0.,-1.,0.));
#683=DIRECTION('',(-1.,0.,0.));
#684=DIRECTION('',(0.,-1.,0.));
#685=DIRECTION('',(1.,0.,0.));
#686=DIRECTION('',(0.,-1.,0.));
#687=DIRECTION('',(1.,0.,0.));
#688=DIRECTION('',(0.,-1.,0.));
#689=DIRECTION('',(1.,0.,0.));
#690=DIRECTION('',(0.,0.,1.));
#691=DIRECTION('',(1.,0.,0.));
#692=DIRECTION('',(0.,-1.,0.));
#693=DIRECTION('',(-1.,0.,0.));
#694=DIRECTION('',(0.,-1.,0.));
#695=DIRECTION('',(-1.,0.,0.));
#696=DIRECTION('',(0.,-1.,0.));
#697=DIRECTION('',(-1.,0.,0.));
#698=DIRECTION('',(0.,-1.,0.));
#699=DIRECTION('',(-1.,0.,0.));
#700=DIRECTION('',(0.,-1.,0.));
#701=DIRECTION('',(-1.,0.,0.));
#702=DIRECTION('',(0.,-1.,0.));
#703=DIRECTION('',(-1.,0.,0.));
#704=DIRECTION('',(0.,-1.,0.));
#705=DIRECTION('',(-1.,0.,0.));
#706=DIRECTION('',(0.,-1.,0.));
#707=DIRECTION('',(-1.,0.,0.));
#708=DIRECTION('',(-1.,0.,0.));
#709=DIRECTION('',(0.,-1.,0.));
#710=DIRECTION('',(-1.,0.,0.));
#711=DIRECTION('',(0.,-1.,0.));
#712=DIRECTION('',(1.,0.,0.));
#713=DIRECTION('',(0.,-1.,0.));
#714=DIRECTION('',(0.,0.,-1.));
#715=DIRECTION('',(0.,0.,-1.));
#716=DIRECTION('',(0.,-1.,0.));
#717=DIRECTION('',(-1.,0.,0.));
#718=DIRECTION('',(0.,0.,-1.));
#719=DIRECTION('',(0.,0.,-1.));
#720=DIRECTION('',(-1.,0.,0.));
#721=DIRECTION('',(0.,0.,-1.));
#722=DIRECTION('',(1.,0.,0.));
#723=DIRECTION('',(0.,-1.,0.));
#724=DIRECTION('',(0.,0.,-1.));
#725=DIRECTION('',(0.,-1.,0.));
#726=DIRECTION('',(-1.,0.,0.));
#727=DIRECTION('',(-1.,0.,0.));
#728=DIRECTION('',(0.,1.,0.));
#729=DIRECTION('',(0.,0.,1.));
#730=DIRECTION('',(0.,-1.,0.));
#731=DIRECTION('',(0.,0.,1.));
#732=DIRECTION('',(0.,1.,0.));
#733=DIRECTION('',(1.,0.,0.));
#734=DIRECTION('',(-1.,0.,0.));
#735=DIRECTION('',(0.,0.,1.));
#736=DIRECTION('',(-1.,0.,0.));
#737=DIRECTION('',(0.,1.,0.));
#738=DIRECTION('',(0.,-1.,0.));
#739=DIRECTION('',(0.,0.,1.));
#740=DIRECTION('',(0.,1.,0.));
#741=DIRECTION('',(1.,0.,0.));
#742=DIRECTION('',(-1.,0.,0.));
#743=DIRECTION('',(-1.,0.,0.));
#744=DIRECTION('',(0.,1.,0.));
#745=DIRECTION('',(0.,0.,1.));
#746=DIRECTION('',(0.,-1.,0.));
#747=DIRECTION('',(0.,0.,1.));
#748=DIRECTION('',(0.,1.,0.));
#749=DIRECTION('',(1.,0.,0.));
#750=DIRECTION('',(-1.,0.,0.));
#751=DIRECTION('',(0.,0.,1.));
#752=DIRECTION('',(-1.,0.,0.));
#753=DIRECTION('',(0.,1.,0.));
#754=DIRECTION('',(0.,-1.,0.));
#755=DIRECTION('',(0.,0.,1.));
#756=DIRECTION('',(0.,1.,0.));
#757=DIRECTION('',(1.,0.,0.));
#758=DIRECTION('',(-1.,0.,0.));
#759=DIRECTION('',(-1.,0.,0.));
#760=DIRECTION('',(0.,1.,0.));
#761=DIRECTION('',(0.,0.,1.));
#762=DIRECTION('',(0.,-1.,0.));
#763=DIRECTION('',(0.,0.,1.));
#764=DIRECTION('',(0.,1.,0.));
#765=DIRECTION('',(1.,0.,0.));
#766=DIRECTION('',(-1.,0.,0.));
#767=DIRECTION('',(0.,0.,1.));
#768=DIRECTION('',(-1.,0.,0.));
#769=DIRECTION('',(0.,1.,0.));
#770=DIRECTION('',(0.,-1.,0.));
#771=DIRECTION('',(0.,0.,1.));
#772=DIRECTION('',(0.,1.,0.));
#773=DIRECTION('',(1.,0.,0.));
#774=DIRECTION('',(-1.,0.,0.));
#775=DIRECTION('',(0.,1.,0.));
#776=DIRECTION('',(1.,0.,0.));
#777=DIRECTION('',(0.,0.,1.));
#778=DIRECTION('',(-1.,0.,0.));
#779=DIRECTION('',(0.,0.,1.));
#780=DIRECTION('',(-1.,0.,0.));
#781=DIRECTION('',(0.,1.,0.));
#782=DIRECTION('',(0.,-1.,0.));
#783=DIRECTION('',(0.,0.,1.));
#784=DIRECTION('',(0.,1.,0.));
#785=DIRECTION('',(1.,0.,0.));
#786=DIRECTION('',(-1.,0.,0.));
#787=DIRECTION('',(0.,0.,1.));
#788=DIRECTION('',(-1.,0.,0.));
#789=DIRECTION('',(0.,1.,0.));
#790=DIRECTION('',(0.,-1.,0.));
#791=DIRECTION('',(1.,0.,0.));
#792=DIRECTION('',(0.,-1.,0.));
#793=DIRECTION('',(0.,0.,-1.));
#794=DIRECTION('',(0.,-1.,0.));
#795=DIRECTION('',(0.,1.,0.));
#796=DIRECTION('',(1.,0.,0.));
#797=DIRECTION('',(0.,0.,-1.));
#798=DIRECTION('',(1.,0.,0.));
#799=DIRECTION('',(1.,0.,0.));
#800=DIRECTION('',(0.,-1.,0.));
#801=DIRECTION('',(0.,-1.,0.));
#802=DIRECTION('',(0.,0.,1.));
#803=DIRECTION('',(1.,0.,0.));
#804=DIRECTION('',(0.,-1.,0.));
#805=DIRECTION('',(-1.,0.,0.));
#806=DIRECTION('',(0.,0.,1.));
#807=DIRECTION('',(1.,0.,0.));
#808=DIRECTION('',(0.,0.,1.));
#809=DIRECTION('',(-1.,0.,0.));
#810=DIRECTION('',(0.,1.,0.));
#811=DIRECTION('',(0.,0.,1.));
#812=DIRECTION('',(0.,-1.,0.));
#813=DIRECTION('',(0.,-1.,0.));
#814=DIRECTION('',(-1.,0.,0.));
#815=DIRECTION('',(0.,0.,1.));
#816=DIRECTION('',(1.,0.,0.));
#817=DIRECTION('',(-1.,0.,0.));
#818=DIRECTION('',(0.,1.,0.));
#819=DIRECTION('',(0.,-1.,0.));
#820=DIRECTION('',(0.,0.,1.));
#821=DIRECTION('',(1.,0.,0.));
#822=CARTESIAN_POINT('',(0.,0.,0.));
#823=CARTESIAN_POINT('',(0.,0.,0.0025));
#824=CARTESIAN_POINT('',(0.00515449605882168,0.03975,0.0025));
#825=CARTESIAN_POINT('',(0.00515449605882168,0.06875,0.0025));
#826=CARTESIAN_POINT('',(0.00515449605882168,0.01075,0.0025));
#827=CARTESIAN_POINT('',(0.,0.06875,0.0025));
#828=CARTESIAN_POINT('',(-0.07,0.06875,0.0025));
#829=CARTESIAN_POINT('',(-0.07,0.,0.0025));
#830=CARTESIAN_POINT('',(-0.07,-0.06875,0.0025));
#831=CARTESIAN_POINT('',(0.,-0.06875,0.0025));
#832=CARTESIAN_POINT('',(0.07,-0.06875,0.0025));
#833=CARTESIAN_POINT('',(0.07,0.,0.0025));
#834=CARTESIAN_POINT('',(0.07,0.06875,0.0025));
#835=CARTESIAN_POINT('',(0.,0.06875,0.0025));
#836=CARTESIAN_POINT('',(0.0575365200638771,0.06875,0.0025));
#837=CARTESIAN_POINT('',(0.0575365200638771,0.03975,0.0025));
#838=CARTESIAN_POINT('',(0.0575365200638771,0.01075,0.0025));
#839=CARTESIAN_POINT('',(0.0313455080613494,0.01075,0.0025));
#840=CARTESIAN_POINT('',(-0.0624227519705892,0.0363949606674214,0.0025));
#841=CARTESIAN_POINT('',(-0.0624227519705892,0.0563949606674213,0.0025));
#842=CARTESIAN_POINT('',(-0.0624227519705892,0.0163949606674214,0.0025));
#843=CARTESIAN_POINT('',(-0.0324227519705892,0.0563949606674213,0.0025));
#844=CARTESIAN_POINT('',(-0.00242275197058916,0.0563949606674214,0.0025));
#845=CARTESIAN_POINT('',(-0.00242275197058915,0.0167832595530456,0.0025));
#846=CARTESIAN_POINT('',(-0.00242275197058915,0.0163949606674214,0.0025));
#847=CARTESIAN_POINT('',(-0.0324227519705892,0.0163949606674214,0.0025));
#848=CARTESIAN_POINT('',(0.,0.,0.));
#849=CARTESIAN_POINT('',(0.0522705428302288,0.,0.));
#850=CARTESIAN_POINT('',(0.0522705428302288,0.0370873836874962,0.));
#851=CARTESIAN_POINT('',(0.0522705428302288,0.0167046664357186,0.));
#852=CARTESIAN_POINT('',(0.,0.0370873836874962,0.));
#853=CARTESIAN_POINT('',(0.0339944995939731,0.0370873836874962,0.));
#854=CARTESIAN_POINT('',(0.0339944995939731,0.,0.));
#855=CARTESIAN_POINT('',(0.0339944995939731,0.0167046664357186,0.));
#856=CARTESIAN_POINT('',(0.,0.0167046664357186,0.));
#857=CARTESIAN_POINT('',(0.0286965165287257,0.,0.));
#858=CARTESIAN_POINT('',(0.0286965165287257,0.0627953335642815,0.));
#859=CARTESIAN_POINT('',(0.0286965165287257,0.0424126163125038,0.));
#860=CARTESIAN_POINT('',(0.,0.0627953335642815,0.));
#861=CARTESIAN_POINT('',(0.01042047329247,0.0627953335642815,0.));
#862=CARTESIAN_POINT('',(0.01042047329247,0.,0.));
#863=CARTESIAN_POINT('',(0.01042047329247,0.0424126163125038,0.));
#864=CARTESIAN_POINT('',(0.,0.0424126163125038,0.));
#865=CARTESIAN_POINT('',(0.07,0.,0.));
#866=CARTESIAN_POINT('',(0.07,0.06875,0.));
#867=CARTESIAN_POINT('',(0.07,-0.06875,0.));
#868=CARTESIAN_POINT('',(0.,-0.06875,0.));
#869=CARTESIAN_POINT('',(-0.07,-0.06875,0.));
#870=CARTESIAN_POINT('',(-0.07,0.,0.));
#871=CARTESIAN_POINT('',(-0.07,0.06875,0.));
#872=CARTESIAN_POINT('',(0.,0.06875,0.));
#873=CARTESIAN_POINT('',(0.0522705428302288,0.,0.));
#874=CARTESIAN_POINT('',(0.0522705428302288,0.0627953335642815,0.));
#875=CARTESIAN_POINT('',(0.0522705428302288,0.0424126163125038,0.));
#876=CARTESIAN_POINT('',(0.,0.0627953335642815,0.));
#877=CARTESIAN_POINT('',(0.0339944995939731,0.0627953335642815,0.));
#878=CARTESIAN_POINT('',(0.0339944995939731,0.,0.));
#879=CARTESIAN_POINT('',(0.0339944995939731,0.0424126163125038,0.));
#880=CARTESIAN_POINT('',(0.,0.0424126163125038,0.));
#881=CARTESIAN_POINT('',(0.,0.0167046664357186,0.));
#882=CARTESIAN_POINT('',(0.0286965165287257,0.0167046664357186,0.));
#883=CARTESIAN_POINT('',(0.01042047329247,0.0167046664357186,0.));
#884=CARTESIAN_POINT('',(0.0286965165287257,0.,0.));
#885=CARTESIAN_POINT('',(0.0286965165287257,0.0370873836874962,0.));
#886=CARTESIAN_POINT('',(0.,0.0370873836874962,0.));
#887=CARTESIAN_POINT('',(0.01042047329247,0.0370873836874962,0.));
#888=CARTESIAN_POINT('',(0.01042047329247,0.,0.));
#889=CARTESIAN_POINT('',(0.07,0.,0.0025));
#890=CARTESIAN_POINT('',(0.07,0.06875,0.0025));
#891=CARTESIAN_POINT('',(0.07,-0.06875,0.0025));
#892=CARTESIAN_POINT('',(0.,0.06875,0.0025));
#893=CARTESIAN_POINT('',(-0.07,0.06875,0.0025));
#894=CARTESIAN_POINT('',(0.00515449605882168,0.06875,0.0045));
#895=CARTESIAN_POINT('',(0.00515449605882168,0.06875,0.0045));
#896=CARTESIAN_POINT('',(0.,0.06875,0.0045));
#897=CARTESIAN_POINT('',(0.0575365200638771,0.06875,0.0045));
#898=CARTESIAN_POINT('',(0.0575365200638771,0.06875,0.0045));
#899=CARTESIAN_POINT('',(-0.07,0.,0.0025));
#900=CARTESIAN_POINT('',(-0.07,-0.06875,0.0025));
#901=CARTESIAN_POINT('',(0.,-0.06875,0.0025));
#902=CARTESIAN_POINT('',(0.0286965165287257,0.0526039749383926,-0.0225));
#903=CARTESIAN_POINT('',(0.0286965165287257,0.0424126163125038,-0.0225));
#904=CARTESIAN_POINT('',(0.0286965165287257,0.0424126163125038,0.0045));
#905=CARTESIAN_POINT('',(0.0286965165287257,0.0526039749383926,0.0045));
#906=CARTESIAN_POINT('',(0.0286965165287257,0.0627953335642815,0.0045));
#907=CARTESIAN_POINT('',(0.0286965165287257,0.0627953335642815,-0.0225));
#908=CARTESIAN_POINT('',(0.0195584949105978,0.0627953335642815,-0.0225));
#909=CARTESIAN_POINT('',(0.0195584949105978,0.0627953335642815,0.0045));
#910=CARTESIAN_POINT('',(0.01042047329247,0.0627953335642815,0.0045));
#911=CARTESIAN_POINT('',(0.01042047329247,0.0627953335642815,-0.0225));
#912=CARTESIAN_POINT('',(0.01042047329247,0.0526039749383926,-0.0225));
#913=CARTESIAN_POINT('',(0.01042047329247,0.0526039749383926,0.0045));
#914=CARTESIAN_POINT('',(0.01042047329247,0.0424126163125038,0.0045));
#915=CARTESIAN_POINT('',(0.01042047329247,0.0424126163125038,-0.0225));
#916=CARTESIAN_POINT('',(0.0195584949105978,0.0424126163125038,-0.0225));
#917=CARTESIAN_POINT('',(0.0195584949105978,0.0424126163125038,0.0045));
#918=CARTESIAN_POINT('',(0.0522705428302288,0.0526039749383926,-0.0225));
#919=CARTESIAN_POINT('',(0.0522705428302288,0.0424126163125038,-0.0225));
#920=CARTESIAN_POINT('',(0.0522705428302288,0.0424126163125038,0.0045));
#921=CARTESIAN_POINT('',(0.0522705428302288,0.0526039749383926,0.0045));
#922=CARTESIAN_POINT('',(0.0522705428302288,0.0627953335642815,0.0045));
#923=CARTESIAN_POINT('',(0.0522705428302288,0.0627953335642815,-0.0225));
#924=CARTESIAN_POINT('',(0.043132521212101,0.0627953335642815,-0.0225));
#925=CARTESIAN_POINT('',(0.043132521212101,0.0627953335642815,0.0045));
#926=CARTESIAN_POINT('',(0.0339944995939731,0.0627953335642815,0.0045));
#927=CARTESIAN_POINT('',(0.0339944995939731,0.0627953335642815,-0.0225));
#928=CARTESIAN_POINT('',(0.0339944995939731,0.0526039749383926,-0.0225));
#929=CARTESIAN_POINT('',(0.0339944995939731,0.0526039749383926,0.0045));
#930=CARTESIAN_POINT('',(0.0339944995939731,0.0424126163125038,0.0045));
#931=CARTESIAN_POINT('',(0.0339944995939731,0.0424126163125038,-0.0225));
#932=CARTESIAN_POINT('',(0.043132521212101,0.0424126163125038,-0.0225));
#933=CARTESIAN_POINT('',(0.043132521212101,0.0424126163125038,0.0045));
#934=CARTESIAN_POINT('',(0.0522705428302288,0.0268960250616074,-0.0225));
#935=CARTESIAN_POINT('',(0.0522705428302288,0.0167046664357186,-0.0225));
#936=CARTESIAN_POINT('',(0.0522705428302288,0.0167046664357186,0.0045));
#937=CARTESIAN_POINT('',(0.0522705428302288,0.0268960250616074,0.0045));
#938=CARTESIAN_POINT('',(0.0522705428302288,0.0370873836874962,0.0045));
#939=CARTESIAN_POINT('',(0.0522705428302288,0.0370873836874962,-0.0225));
#940=CARTESIAN_POINT('',(0.043132521212101,0.0370873836874962,-0.0225));
#941=CARTESIAN_POINT('',(0.043132521212101,0.0370873836874962,0.0045));
#942=CARTESIAN_POINT('',(0.0339944995939731,0.0370873836874962,0.0045));
#943=CARTESIAN_POINT('',(0.0339944995939731,0.0370873836874962,-0.0225));
#944=CARTESIAN_POINT('',(0.0339944995939731,0.0268960250616074,-0.0225));
#945=CARTESIAN_POINT('',(0.0339944995939731,0.0268960250616074,0.0045));
#946=CARTESIAN_POINT('',(0.0339944995939731,0.0167046664357186,0.0045));
#947=CARTESIAN_POINT('',(0.0339944995939731,0.0167046664357186,-0.0225));
#948=CARTESIAN_POINT('',(0.043132521212101,0.0167046664357186,-0.0225));
#949=CARTESIAN_POINT('',(0.043132521212101,0.0167046664357186,0.0045));
#950=CARTESIAN_POINT('',(0.0195584949105978,0.0167046664357186,-0.0225));
#951=CARTESIAN_POINT('',(0.01042047329247,0.0167046664357186,-0.0225));
#952=CARTESIAN_POINT('',(0.01042047329247,0.0167046664357186,0.0045));
#953=CARTESIAN_POINT('',(0.0195584949105978,0.0167046664357186,0.0045));
#954=CARTESIAN_POINT('',(0.0286965165287257,0.0167046664357186,0.0045));
#955=CARTESIAN_POINT('',(0.0286965165287257,0.0167046664357186,-0.0225));
#956=CARTESIAN_POINT('',(0.0286965165287257,0.0268960250616074,-0.0225));
#957=CARTESIAN_POINT('',(0.0286965165287257,0.0268960250616074,0.0045));
#958=CARTESIAN_POINT('',(0.0286965165287257,0.0370873836874962,0.0045));
#959=CARTESIAN_POINT('',(0.0286965165287257,0.0370873836874962,-0.0225));
#960=CARTESIAN_POINT('',(0.0195584949105978,0.0370873836874962,-0.0225));
#961=CARTESIAN_POINT('',(0.0195584949105978,0.0370873836874962,0.0045));
#962=CARTESIAN_POINT('',(0.01042047329247,0.0370873836874962,0.0045));
#963=CARTESIAN_POINT('',(0.01042047329247,0.0370873836874962,-0.0225));
#964=CARTESIAN_POINT('',(0.01042047329247,0.0268960250616074,-0.0225));
#965=CARTESIAN_POINT('',(0.01042047329247,0.0268960250616074,0.0045));
#966=CARTESIAN_POINT('',(0.00515449605882168,0.03975,0.0045));
#967=CARTESIAN_POINT('',(0.00515449605882168,0.01075,0.0045));
#968=CARTESIAN_POINT('',(0.00515449605882168,0.01075,0.0045));
#969=CARTESIAN_POINT('',(0.00515449605882168,0.03975,0.0045));
#970=CARTESIAN_POINT('',(0.0313455080613494,0.01075,0.0045));
#971=CARTESIAN_POINT('',(0.0575365200638771,0.01075,0.0045));
#972=CARTESIAN_POINT('',(0.0575365200638771,0.01075,0.0045));
#973=CARTESIAN_POINT('',(0.0313455080613494,0.01075,0.0045));
#974=CARTESIAN_POINT('',(0.0575365200638771,0.03975,0.0045));
#975=CARTESIAN_POINT('',(0.0575365200638771,0.03975,0.0045));
#976=CARTESIAN_POINT('',(0.,0.,0.0045));
#977=CARTESIAN_POINT('',(-0.0324227519705892,0.0563949606674213,0.0005));
#978=CARTESIAN_POINT('',(-0.0624227519705892,0.0563949606674213,0.0005));
#979=CARTESIAN_POINT('',(-0.0624227519705892,0.0563949606674213,0.0005));
#980=CARTESIAN_POINT('',(-0.0324227519705892,0.0563949606674213,0.0005));
#981=CARTESIAN_POINT('',(-0.00242275197058916,0.0563949606674214,0.0005));
#982=CARTESIAN_POINT('',(-0.00242275197058916,0.0563949606674214,0.0005));
#983=CARTESIAN_POINT('',(-0.0624227519705892,0.0363949606674214,0.0005));
#984=CARTESIAN_POINT('',(-0.0624227519705892,0.0163949606674214,0.0005));
#985=CARTESIAN_POINT('',(-0.0624227519705892,0.0163949606674214,0.0005));
#986=CARTESIAN_POINT('',(-0.0624227519705892,0.0363949606674214,0.0005));
#987=CARTESIAN_POINT('',(-0.0324227519705892,0.0163949606674214,0.0005));
#988=CARTESIAN_POINT('',(-0.00242275197058915,0.0163949606674214,0.0005));
#989=CARTESIAN_POINT('',(-0.00242275197058915,0.0163949606674214,0.0005));
#990=CARTESIAN_POINT('',(-0.0324227519705892,0.0163949606674214,0.0005));
#991=CARTESIAN_POINT('',(-0.00242275197058915,0.0167832595530456,0.0005));
#992=CARTESIAN_POINT('',(-0.00242275197058915,0.0167832595530456,0.0005));
#993=CARTESIAN_POINT('',(-0.0324227519705892,0.03975,0.0005));
#994=MECHANICAL_DESIGN_GEOMETRIC_PRESENTATION_REPRESENTATION('',(#631),
#995);
#995=(
GEOMETRIC_REPRESENTATION_CONTEXT(3)
GLOBAL_UNCERTAINTY_ASSIGNED_CONTEXT((#996))
GLOBAL_UNIT_ASSIGNED_CONTEXT((#999,#998,#997))
REPRESENTATION_CONTEXT('Part 1','TOP_LEVEL_ASSEMBLY_PART')
);
#996=UNCERTAINTY_MEASURE_WITH_UNIT(LENGTH_MEASURE(1.E-8),#999,
'DISTANCE_ACCURACY_VALUE','Maximum Tolerance applied to model');
#997=(
NAMED_UNIT(*)
SI_UNIT($,.STERADIAN.)
SOLID_ANGLE_UNIT()
);
#998=(
NAMED_UNIT(*)
PLANE_ANGLE_UNIT()
SI_UNIT($,.RADIAN.)
);
#999=(
LENGTH_UNIT()
NAMED_UNIT(*)
SI_UNIT($,.METRE.)
);
#1000=PRODUCT_DEFINITION_SHAPE('','',#1001);
#1001=PRODUCT_DEFINITION('','',#1003,#1002);
#1002=PRODUCT_DEFINITION_CONTEXT('',#1009,'design');
#1003=PRODUCT_DEFINITION_FORMATION_WITH_SPECIFIED_SOURCE('','',#1005,
 .NOT_KNOWN.);
#1004=PRODUCT_RELATED_PRODUCT_CATEGORY('','',(#1005));
#1005=PRODUCT('Part 1','Part 1','Part 1',(#1007));
#1006=PRODUCT_CATEGORY('','');
#1007=PRODUCT_CONTEXT('',#1009,'mechanical');
#1008=APPLICATION_PROTOCOL_DEFINITION('international standard',
'ap242_managed_model_based_3d_engineering',2020,#1009);
#1009=APPLICATION_CONTEXT('managed model based 3d engineering');
ENDSEC;
END-ISO-10303-21;
