ISO-10303-21;
HEADER;
/* Generated by software containing ST-Developer
 * from STEP Tools, Inc. (www.steptools.com) 
 */
/* OPTION: using custom renumber hook */

FILE_DESCRIPTION(
/* description */ ('STEP AP242 Edition 2',
'CAx-IF Rec.Pracs.---Representation and Presentation of Product Manufa
cturing Information (PMI)---4.0---2014-10-13',
'CAx-IF Rec.Pracs.---3D Tessellated Geometry---0.4---2014-09-14','2;1',
'CAx-IF Rec.Pracs.---User Defined Attributes---1.5---2016-08-15'),
/* implementation_level */ '2;1');

FILE_NAME(
/* name */ 'Candle',
/* time_stamp */ '2026-09-09T01:30:52Z',
/* author */ (''),
/* organization */ (''),
/* preprocessor_version */ 'ST-DEVELOPER v20',
/* originating_system */ 'ONSHAPE BY PTC INC, 1.220',
/* authorisation */ '  ');

FILE_SCHEMA (('AP242_MANAGED_MODEL_BASED_3D_ENGINEERING_MIM_LF { 1 0 10303 442 3 1 4 }'));
ENDSEC;

DATA;
#10=SHAPE_REPRESENTATION_RELATIONSHIP('','',#135,#11);
#11=ADVANCED_BREP_SHAPE_REPRESENTATION('',(#133),#235);
#12=TOROIDAL_SURFACE('',#156,0.003129,0.000121);
#13=TOROIDAL_SURFACE('',#157,0.003121,0.000121);
#14=PLANE('',#140);
#15=PLANE('',#144);
#16=PLANE('',#145);
#17=PLANE('',#152);
#18=PLANE('',#155);
#19=ORIENTED_EDGE('',*,*,#39,.F.);
#20=ORIENTED_EDGE('',*,*,#40,.F.);
#21=ORIENTED_EDGE('',*,*,#41,.F.);
#22=ORIENTED_EDGE('',*,*,#39,.T.);
#23=ORIENTED_EDGE('',*,*,#42,.F.);
#24=ORIENTED_EDGE('',*,*,#41,.T.);
#25=ORIENTED_EDGE('',*,*,#42,.T.);
#26=ORIENTED_EDGE('',*,*,#40,.T.);
#27=ORIENTED_EDGE('',*,*,#43,.F.);
#28=ORIENTED_EDGE('',*,*,#44,.T.);
#29=ORIENTED_EDGE('',*,*,#43,.T.);
#30=ORIENTED_EDGE('',*,*,#45,.T.);
#31=ORIENTED_EDGE('',*,*,#46,.F.);
#32=ORIENTED_EDGE('',*,*,#47,.T.);
#33=ORIENTED_EDGE('',*,*,#48,.T.);
#34=ORIENTED_EDGE('',*,*,#46,.T.);
#35=ORIENTED_EDGE('',*,*,#47,.F.);
#36=ORIENTED_EDGE('',*,*,#45,.F.);
#37=ORIENTED_EDGE('',*,*,#44,.F.);
#38=ORIENTED_EDGE('',*,*,#48,.F.);
#39=EDGE_CURVE('',#49,#49,#59,.T.);
#40=EDGE_CURVE('',#50,#50,#60,.T.);
#41=EDGE_CURVE('',#51,#51,#61,.T.);
#42=EDGE_CURVE('',#52,#52,#62,.T.);
#43=EDGE_CURVE('',#53,#53,#63,.T.);
#44=EDGE_CURVE('',#54,#54,#64,.F.);
#45=EDGE_CURVE('',#55,#55,#65,.T.);
#46=EDGE_CURVE('',#56,#56,#66,.T.);
#47=EDGE_CURVE('',#57,#57,#67,.F.);
#48=EDGE_CURVE('',#58,#58,#68,.T.);
#49=VERTEX_POINT('',#205);
#50=VERTEX_POINT('',#207);
#51=VERTEX_POINT('',#210);
#52=VERTEX_POINT('',#213);
#53=VERTEX_POINT('',#217);
#54=VERTEX_POINT('',#220);
#55=VERTEX_POINT('',#223);
#56=VERTEX_POINT('',#225);
#57=VERTEX_POINT('',#228);
#58=VERTEX_POINT('',#230);
#59=CIRCLE('',#138,0.0025);
#60=CIRCLE('',#139,0.0025);
#61=CIRCLE('',#141,0.00025);
#62=CIRCLE('',#143,0.00025);
#63=CIRCLE('',#146,0.003);
#64=CIRCLE('',#148,0.003);
#65=CIRCLE('',#150,0.00325);
#66=CIRCLE('',#151,0.00325);
#67=CIRCLE('',#153,0.003129);
#68=CIRCLE('',#154,0.003121);
#69=EDGE_LOOP('',(#19));
#70=EDGE_LOOP('',(#20));
#71=EDGE_LOOP('',(#21));
#72=EDGE_LOOP('',(#22));
#73=EDGE_LOOP('',(#23));
#74=EDGE_LOOP('',(#24));
#75=EDGE_LOOP('',(#25));
#76=EDGE_LOOP('',(#26));
#77=EDGE_LOOP('',(#27));
#78=EDGE_LOOP('',(#28));
#79=EDGE_LOOP('',(#29));
#80=EDGE_LOOP('',(#30));
#81=EDGE_LOOP('',(#31));
#82=EDGE_LOOP('',(#32));
#83=EDGE_LOOP('',(#33));
#84=EDGE_LOOP('',(#34));
#85=EDGE_LOOP('',(#35));
#86=EDGE_LOOP('',(#36));
#87=EDGE_LOOP('',(#37));
#88=EDGE_LOOP('',(#38));
#89=FACE_BOUND('',#69,.T.);
#90=FACE_BOUND('',#70,.T.);
#91=FACE_BOUND('',#71,.T.);
#92=FACE_BOUND('',#72,.T.);
#93=FACE_BOUND('',#73,.T.);
#94=FACE_BOUND('',#74,.T.);
#95=FACE_BOUND('',#75,.T.);
#96=FACE_BOUND('',#76,.T.);
#97=FACE_BOUND('',#77,.T.);
#98=FACE_BOUND('',#78,.T.);
#99=FACE_BOUND('',#79,.T.);
#100=FACE_BOUND('',#80,.T.);
#101=FACE_BOUND('',#81,.T.);
#102=FACE_BOUND('',#82,.T.);
#103=FACE_BOUND('',#83,.T.);
#104=FACE_BOUND('',#84,.T.);
#105=FACE_BOUND('',#85,.T.);
#106=FACE_BOUND('',#86,.T.);
#107=FACE_BOUND('',#87,.T.);
#108=FACE_BOUND('',#88,.T.);
#109=CYLINDRICAL_SURFACE('',#137,0.0025);
#110=CYLINDRICAL_SURFACE('',#142,0.00025);
#111=CYLINDRICAL_SURFACE('',#147,0.003);
#112=CYLINDRICAL_SURFACE('',#149,0.00325);
#113=ADVANCED_FACE('',(#89,#90),#109,.T.);
#114=ADVANCED_FACE('',(#91,#92),#14,.T.);
#115=ADVANCED_FACE('',(#93,#94),#110,.T.);
#116=ADVANCED_FACE('',(#95),#15,.T.);
#117=ADVANCED_FACE('',(#96,#97),#16,.F.);
#118=ADVANCED_FACE('',(#98,#99),#111,.F.);
#119=ADVANCED_FACE('',(#100,#101),#112,.T.);
#120=ADVANCED_FACE('',(#102,#103),#17,.F.);
#121=ADVANCED_FACE('',(#104),#18,.F.);
#122=ADVANCED_FACE('',(#105,#106),#12,.T.);
#123=ADVANCED_FACE('',(#107,#108),#13,.T.);
#124=CLOSED_SHELL('',(#113,#114,#115,#116,#117,#118,#119,#120,#121,#122,
#123));
#125=STYLED_ITEM('',(#126),#133);
#126=PRESENTATION_STYLE_ASSIGNMENT((#127));
#127=SURFACE_STYLE_USAGE(.BOTH.,#128);
#128=SURFACE_SIDE_STYLE('',(#129));
#129=SURFACE_STYLE_FILL_AREA(#130);
#130=FILL_AREA_STYLE('',(#131));
#131=FILL_AREA_STYLE_COLOUR('',#132);
#132=DRAUGHTING_PRE_DEFINED_COLOUR('red');
#133=MANIFOLD_SOLID_BREP('Part 1',#124);
#134=SHAPE_DEFINITION_REPRESENTATION(#240,#135);
#135=SHAPE_REPRESENTATION('Part 1',(#136),#235);
#136=AXIS2_PLACEMENT_3D('',#202,#158,#159);
#137=AXIS2_PLACEMENT_3D('',#203,#160,#161);
#138=AXIS2_PLACEMENT_3D('',#204,#162,#163);
#139=AXIS2_PLACEMENT_3D('',#206,#164,#165);
#140=AXIS2_PLACEMENT_3D('',#208,#166,#167);
#141=AXIS2_PLACEMENT_3D('',#209,#168,#169);
#142=AXIS2_PLACEMENT_3D('',#211,#170,#171);
#143=AXIS2_PLACEMENT_3D('',#212,#172,#173);
#144=AXIS2_PLACEMENT_3D('',#214,#174,#175);
#145=AXIS2_PLACEMENT_3D('',#215,#176,#177);
#146=AXIS2_PLACEMENT_3D('',#216,#178,#179);
#147=AXIS2_PLACEMENT_3D('',#218,#180,#181);
#148=AXIS2_PLACEMENT_3D('',#219,#182,#183);
#149=AXIS2_PLACEMENT_3D('',#221,#184,#185);
#150=AXIS2_PLACEMENT_3D('',#222,#186,#187);
#151=AXIS2_PLACEMENT_3D('',#224,#188,#189);
#152=AXIS2_PLACEMENT_3D('',#226,#190,#191);
#153=AXIS2_PLACEMENT_3D('',#227,#192,#193);
#154=AXIS2_PLACEMENT_3D('',#229,#194,#195);
#155=AXIS2_PLACEMENT_3D('',#231,#196,#197);
#156=AXIS2_PLACEMENT_3D('',#232,#198,#199);
#157=AXIS2_PLACEMENT_3D('',#233,#200,#201);
#158=DIRECTION('',(0.,0.,1.));
#159=DIRECTION('',(1.,0.,0.));
#160=DIRECTION('',(0.,-1.,0.));
#161=DIRECTION('',(-1.,0.,0.));
#162=DIRECTION('',(0.,1.,0.));
#163=DIRECTION('',(1.,0.,0.));
#164=DIRECTION('',(0.,-1.,0.));
#165=DIRECTION('',(-1.,0.,0.));
#166=DIRECTION('',(0.,1.,0.));
#167=DIRECTION('',(1.,0.,0.));
#168=DIRECTION('',(0.,1.,0.));
#169=DIRECTION('',(1.,0.,0.));
#170=DIRECTION('',(0.,-1.,0.));
#171=DIRECTION('',(-1.,0.,0.));
#172=DIRECTION('',(0.,1.,0.));
#173=DIRECTION('',(1.,0.,0.));
#174=DIRECTION('',(0.,1.,0.));
#175=DIRECTION('',(1.,0.,0.));
#176=DIRECTION('',(0.,-1.,0.));
#177=DIRECTION('',(1.,0.,0.));
#178=DIRECTION('',(0.,-1.,0.));
#179=DIRECTION('',(-1.,0.,0.));
#180=DIRECTION('',(0.,-1.,0.));
#181=DIRECTION('',(-1.,0.,0.));
#182=DIRECTION('',(0.,-1.,0.));
#183=DIRECTION('',(-1.,0.,0.));
#184=DIRECTION('',(0.,-1.,0.));
#185=DIRECTION('',(-1.,0.,0.));
#186=DIRECTION('',(0.,-1.,0.));
#187=DIRECTION('',(-1.,0.,0.));
#188=DIRECTION('',(0.,-1.,0.));
#189=DIRECTION('',(-1.,0.,0.));
#190=DIRECTION('',(0.,-1.,0.));
#191=DIRECTION('',(1.,0.,0.));
#192=DIRECTION('',(0.,-1.,0.));
#193=DIRECTION('',(-1.,0.,0.));
#194=DIRECTION('',(0.,-1.,0.));
#195=DIRECTION('',(-1.,0.,0.));
#196=DIRECTION('',(0.,1.,0.));
#197=DIRECTION('',(1.,0.,0.));
#198=DIRECTION('',(0.,-1.,0.));
#199=DIRECTION('',(-1.,0.,0.));
#200=DIRECTION('',(0.,-1.,0.));
#201=DIRECTION('',(-1.,0.,0.));
#202=CARTESIAN_POINT('',(0.,0.,0.));
#203=CARTESIAN_POINT('',(0.,0.005,-1.5308084989342E-19));
#204=CARTESIAN_POINT('',(0.,0.005,-1.5308084989342E-19));
#205=CARTESIAN_POINT('',(0.0025,0.005,-1.5308084989342E-19));
#206=CARTESIAN_POINT('',(0.,0.0001,-1.5308084989342E-19));
#207=CARTESIAN_POINT('',(-0.0025,0.0001,-1.5308084989342E-19));
#208=CARTESIAN_POINT('',(0.,0.005,0.));
#209=CARTESIAN_POINT('',(0.,0.005,-1.68388934882761E-19));
#210=CARTESIAN_POINT('',(0.00025,0.005,-1.68388934882761E-19));
#211=CARTESIAN_POINT('',(0.,0.006,-1.68388934882761E-19));
#212=CARTESIAN_POINT('',(0.,0.006,-1.68388934882761E-19));
#213=CARTESIAN_POINT('',(0.00025,0.006,-1.68388934882761E-19));
#214=CARTESIAN_POINT('',(0.,0.006,0.));
#215=CARTESIAN_POINT('',(0.,0.0001,0.));
#216=CARTESIAN_POINT('',(0.,0.0001,1.83697019872103E-19));
#217=CARTESIAN_POINT('',(-0.003,0.0001,1.83697019872103E-19));
#218=CARTESIAN_POINT('',(0.,0.0003,1.83697019872103E-19));
#219=CARTESIAN_POINT('',(0.,0.000179,1.83697019872103E-19));
#220=CARTESIAN_POINT('',(-0.003,0.000179,1.83697019872103E-19));
#221=CARTESIAN_POINT('',(0.,0.0003,1.99005104861445E-19));
#222=CARTESIAN_POINT('',(0.,0.000179,1.99005104861445E-19));
#223=CARTESIAN_POINT('',(-0.00325,0.000179,1.99005104861445E-19));
#224=CARTESIAN_POINT('',(0.,0.,1.99005104861445E-19));
#225=CARTESIAN_POINT('',(-0.00325,0.,1.99005104861445E-19));
#226=CARTESIAN_POINT('',(0.,0.0003,0.));
#227=CARTESIAN_POINT('',(0.,0.0003,1.99005104861445E-19));
#228=CARTESIAN_POINT('',(-0.003129,0.0003,1.99005104861445E-19));
#229=CARTESIAN_POINT('',(0.,0.0003,1.83697019872103E-19));
#230=CARTESIAN_POINT('',(-0.003121,0.0003,1.83697019872103E-19));
#231=CARTESIAN_POINT('',(0.,0.,0.));
#232=CARTESIAN_POINT('',(0.,0.000179,1.99005104861445E-19));
#233=CARTESIAN_POINT('',(0.,0.000179,1.83697019872103E-19));
#234=MECHANICAL_DESIGN_GEOMETRIC_PRESENTATION_REPRESENTATION('',(#125),
#235);
#235=(
GEOMETRIC_REPRESENTATION_CONTEXT(3)
GLOBAL_UNCERTAINTY_ASSIGNED_CONTEXT((#236))
GLOBAL_UNIT_ASSIGNED_CONTEXT((#239,#238,#237))
REPRESENTATION_CONTEXT('Part 1','TOP_LEVEL_ASSEMBLY_PART')
);
#236=UNCERTAINTY_MEASURE_WITH_UNIT(LENGTH_MEASURE(1.E-8),#239,
'DISTANCE_ACCURACY_VALUE','Maximum Tolerance applied to model');
#237=(
NAMED_UNIT(*)
SI_UNIT($,.STERADIAN.)
SOLID_ANGLE_UNIT()
);
#238=(
NAMED_UNIT(*)
PLANE_ANGLE_UNIT()
SI_UNIT($,.RADIAN.)
);
#239=(
LENGTH_UNIT()
NAMED_UNIT(*)
SI_UNIT($,.METRE.)
);
#240=PRODUCT_DEFINITION_SHAPE('','',#241);
#241=PRODUCT_DEFINITION('','',#243,#242);
#242=PRODUCT_DEFINITION_CONTEXT('',#249,'design');
#243=PRODUCT_DEFINITION_FORMATION_WITH_SPECIFIED_SOURCE('','',#245,
 .NOT_KNOWN.);
#244=PRODUCT_RELATED_PRODUCT_CATEGORY('','',(#245));
#245=PRODUCT('Part 1','Part 1','Part 1',(#247));
#246=PRODUCT_CATEGORY('','');
#247=PRODUCT_CONTEXT('',#249,'mechanical');
#248=APPLICATION_PROTOCOL_DEFINITION('international standard',
'ap242_managed_model_based_3d_engineering',2020,#249);
#249=APPLICATION_CONTEXT('managed model based 3d engineering');
ENDSEC;
END-ISO-10303-21;
