ISO-10303-21;
HEADER;
/* Generated by software containing ST-Developer
 * from STEP Tools, Inc. (www.steptools.com) 
 */
/* OPTION: using custom renumber hook */

FILE_DESCRIPTION(
/* description */ ('STEP AP242 Edition 2',
'CAx-IF Rec.Pracs.---Representation and Presentation of Product Manufa
cturing Information (PMI)---4.0---2014-10-13',
'CAx-IF Rec.Pracs.---3D Tessellated Geometry---0.4---2014-09-14','2;1',
'CAx-IF Rec.Pracs.---User Defined Attributes---1.5---2016-08-15'),
/* implementation_level */ '2;1');

FILE_NAME(
/* name */ 'Chair',
/* time_stamp */ '2026-09-09T01:30:38Z',
/* author */ (''),
/* organization */ (''),
/* preprocessor_version */ 'ST-DEVELOPER v20',
/* originating_system */ 'ONSHAPE BY PTC INC, 1.220',
/* authorisation */ '  ');

FILE_SCHEMA (('AP242_MANAGED_MODEL_BASED_3D_ENGINEERING_MIM_LF { 1 0 10303 442 3 1 4 }'));
ENDSEC;

DATA;
#10=SHAPE_REPRESENTATION_RELATIONSHIP('','',#1005,#11);
#11=ADVANCED_BREP_SHAPE_REPRESENTATION('',(#1003),#1829);
#12=(
BOUNDED_SURFACE()
B_SPLINE_SURFACE(3,2,((#1730,#1731,#1732),(#1733,#1734,#1735),(#1736,#1737,
#1738),(#1739,#1740,#1741),(#1742,#1743,#1744)),.UNSPECIFIED.,.F.,.F.,.F.)
B_SPLINE_SURFACE_WITH_KNOTS((4,1,4),(3,3),(1.58634475700464,1.97126962359849,
2.35619449019235),(0.,1.),.UNSPECIFIED.)
GEOMETRIC_REPRESENTATION_ITEM()
RATIONAL_B_SPLINE_SURFACE(((1.,0.999974457450044,1.),(1.,0.999552923105807,
1.),(1.,0.987827866637376,1.),(1.,0.960030112696278,1.),(1.,0.945694225052372,
1.)))
REPRESENTATION_ITEM('')
SURFACE()
);
#13=(
BOUNDED_SURFACE()
B_SPLINE_SURFACE(3,2,((#1746,#1747,#1748),(#1749,#1750,#1751),(#1752,#1753,
#1754),(#1755,#1756,#1757)),.UNSPECIFIED.,.F.,.F.,.F.)
B_SPLINE_SURFACE_WITH_KNOTS((4,4),(3,3),(2.6179938779915,2.87979326579064),
(0.,1.),.PIECEWISE_BEZIER_KNOTS.)
GEOMETRIC_REPRESENTATION_ITEM()
RATIONAL_B_SPLINE_SURFACE(((1.,0.923879532511287,1.),(1.,0.933519962609184,
1.),(1.,0.940819083331265,1.),(1.,0.945694225052372,1.)))
REPRESENTATION_ITEM('')
SURFACE()
);
#14=(
BOUNDED_SURFACE()
B_SPLINE_SURFACE(3,2,((#1765,#1766,#1767),(#1768,#1769,#1770),(#1771,#1772,
#1773),(#1774,#1775,#1776)),.UNSPECIFIED.,.F.,.F.,.F.)
B_SPLINE_SURFACE_WITH_KNOTS((4,4),(3,3),(3.40339204138894,3.66519142918809),
(0.,1.),.PIECEWISE_BEZIER_KNOTS.)
GEOMETRIC_REPRESENTATION_ITEM()
RATIONAL_B_SPLINE_SURFACE(((1.,0.945694225052372,1.),(1.,0.940819083331134,
1.),(1.,0.933519962609184,1.),(1.,0.923879532511287,1.)))
REPRESENTATION_ITEM('')
SURFACE()
);
#15=(
BOUNDED_SURFACE()
B_SPLINE_SURFACE(3,2,((#1778,#1779,#1780),(#1781,#1782,#1783),(#1784,#1785,
#1786),(#1787,#1788,#1789),(#1790,#1791,#1792)),.UNSPECIFIED.,.F.,.F.,.F.)
B_SPLINE_SURFACE_WITH_KNOTS((4,1,4),(3,3),(4.72793741059443,5.11286227718829,
5.49778714378214),(0.,1.),.UNSPECIFIED.)
GEOMETRIC_REPRESENTATION_ITEM()
RATIONAL_B_SPLINE_SURFACE(((1.,0.999974457450044,1.),(1.,0.999552923105806,
1.),(1.,0.987827866637444,1.),(1.,0.960030112696143,1.),(1.,0.945694225052372,
1.)))
REPRESENTATION_ITEM('')
SURFACE()
);
#16=TOROIDAL_SURFACE('',#1076,0.0013,0.001);
#17=TOROIDAL_SURFACE('',#1078,0.0027,0.001);
#18=TOROIDAL_SURFACE('',#1083,0.0013,0.001);
#19=TOROIDAL_SURFACE('',#1085,0.0027,0.001);
#20=DEGENERATE_TOROIDAL_SURFACE('',#1070,0.0007,0.001,.T.);
#21=DEGENERATE_TOROIDAL_SURFACE('',#1093,0.0007,0.001,.T.);
#22=SPHERICAL_SURFACE('',#1068,0.001);
#23=SPHERICAL_SURFACE('',#1091,0.001);
#24=B_SPLINE_CURVE_WITH_KNOTS('',3,(#1603,#1604,#1605,#1606),
 .UNSPECIFIED.,.F.,.F.,(4,4),(0.,0.00147692892352533),.UNSPECIFIED.);
#25=B_SPLINE_CURVE_WITH_KNOTS('',3,(#1608,#1609,#1610,#1611),
 .UNSPECIFIED.,.F.,.F.,(4,4),(0.,0.00193933198845641),.UNSPECIFIED.);
#26=B_SPLINE_CURVE_WITH_KNOTS('',3,(#1612,#1613,#1614,#1615),
 .UNSPECIFIED.,.F.,.F.,(4,4),(0.,0.0003550600444775),.UNSPECIFIED.);
#27=B_SPLINE_CURVE_WITH_KNOTS('',3,(#1622,#1623,#1624,#1625),
 .UNSPECIFIED.,.F.,.F.,(4,4),(0.,0.00193933198845641),.UNSPECIFIED.);
#28=B_SPLINE_CURVE_WITH_KNOTS('',3,(#1627,#1628,#1629,#1630),
 .UNSPECIFIED.,.F.,.F.,(4,4),(0.,0.00147692892352532),.UNSPECIFIED.);
#29=B_SPLINE_CURVE_WITH_KNOTS('',3,(#1632,#1633,#1634,#1635),
 .UNSPECIFIED.,.F.,.F.,(4,4),(0.,0.0003550600444775),.UNSPECIFIED.);
#30=B_SPLINE_CURVE_WITH_KNOTS('',3,(#1643,#1644,#1645,#1646,#1647),
 .UNSPECIFIED.,.F.,.F.,(4,1,4),(-0.000439033326047059,0.0012277577313942,
0.00289454878883545),.UNSPECIFIED.);
#31=B_SPLINE_CURVE_WITH_KNOTS('',3,(#1650,#1651,#1652,#1653,#1654),
 .UNSPECIFIED.,.F.,.F.,(4,1,4),(-0.000439033326047061,0.0012277577313942,
0.00289454878883546),.UNSPECIFIED.);
#32=B_SPLINE_CURVE_WITH_KNOTS('',3,(#1710,#1711,#1712,#1713),
 .UNSPECIFIED.,.F.,.F.,(4,4),(4.67088590647017E-18,0.000106909101653917),
 .UNSPECIFIED.);
#33=B_SPLINE_CURVE_WITH_KNOTS('',3,(#1717,#1718,#1719,#1720),
 .UNSPECIFIED.,.F.,.F.,(4,4),(5.20417042793042E-18,0.000107254376012377),
 .UNSPECIFIED.);
#34=B_SPLINE_CURVE_WITH_KNOTS('',3,(#1808,#1809,#1810,#1811,#1812,#1813,
#1814),.UNSPECIFIED.,.F.,.F.,(4,1,1,1,4),(0.,0.000407513977782349,0.000815027955564698,
0.00122254193334705,0.0016300559111294),.UNSPECIFIED.);
#35=B_SPLINE_CURVE_WITH_KNOTS('',3,(#1817,#1818,#1819,#1820,#1821,#1822,
#1823),.UNSPECIFIED.,.F.,.F.,(4,1,1,1,4),(0.,0.00040751397778235,0.0008150279555647,
0.00122254193334705,0.0016300559111294),.UNSPECIFIED.);
#36=CYLINDRICAL_SURFACE('',#1045,0.0017);
#37=CYLINDRICAL_SURFACE('',#1047,0.0017);
#38=CYLINDRICAL_SURFACE('',#1049,0.0017);
#39=CYLINDRICAL_SURFACE('',#1051,0.0017);
#40=CYLINDRICAL_SURFACE('',#1053,0.0023);
#41=CYLINDRICAL_SURFACE('',#1055,0.0023);
#42=CYLINDRICAL_SURFACE('',#1057,0.001);
#43=CYLINDRICAL_SURFACE('',#1059,0.001);
#44=CYLINDRICAL_SURFACE('',#1065,0.001);
#45=CYLINDRICAL_SURFACE('',#1072,0.001);
#46=CYLINDRICAL_SURFACE('',#1074,0.001);
#47=CYLINDRICAL_SURFACE('',#1080,0.001);
#48=CYLINDRICAL_SURFACE('',#1087,0.001);
#49=CYLINDRICAL_SURFACE('',#1089,0.001);
#50=CYLINDRICAL_SURFACE('',#1095,0.001);
#51=CYLINDRICAL_SURFACE('',#1096,0.00364112135536323);
#52=CYLINDRICAL_SURFACE('',#1100,0.00364112135536323);
#53=CYLINDRICAL_SURFACE('',#1102,0.00364112135536323);
#54=CYLINDRICAL_SURFACE('',#1105,0.00364112135536323);
#55=CYLINDRICAL_SURFACE('',#1110,0.00485482847381765);
#56=CYLINDRICAL_SURFACE('',#1112,0.00485482847381765);
#57=CYLINDRICAL_SURFACE('',#1114,0.00485482847381765);
#58=CYLINDRICAL_SURFACE('',#1120,0.00485483);
#59=CYLINDRICAL_SURFACE('',#1122,0.00485483);
#60=CYLINDRICAL_SURFACE('',#1124,0.00485483);
#61=CYLINDRICAL_SURFACE('',#1125,0.0006);
#62=CYLINDRICAL_SURFACE('',#1126,0.0006);
#63=ELLIPSE('',#1015,0.00240416305603427,0.0017);
#64=ELLIPSE('',#1029,0.00630660718401315,0.00364112135536323);
#65=ELLIPSE('',#1031,0.0147154167626974,0.00849594982918087);
#66=ELLIPSE('',#1032,0.0147154167626974,0.00849594982918087);
#67=ELLIPSE('',#1034,0.00630660718401315,0.00364112135536323);
#68=ELLIPSE('',#1037,0.00240416305603427,0.0017);
#69=ELLIPSE('',#1039,0.00240416305603426,0.0017);
#70=ELLIPSE('',#1041,0.00240416305603426,0.0017);
#71=ELLIPSE('',#1042,0.00240416305603426,0.0017);
#72=ELLIPSE('',#1044,0.00240416305603426,0.0017);
#73=ELLIPSE('',#1097,0.0125546840551405,0.00364112135536323);
#74=ELLIPSE('',#1098,0.00570952267646209,0.00364112135536323);
#75=ELLIPSE('',#1099,0.00792063231510237,0.00364112135536323);
#76=ELLIPSE('',#1101,0.00792063231510237,0.00364112135536323);
#77=ELLIPSE('',#1103,0.00570952267646209,0.00364112135536323);
#78=ELLIPSE('',#1104,0.0125546840551405,0.00364112135536323);
#79=ELLIPSE('',#1106,0.00570952267646209,0.00364112135536323);
#80=ELLIPSE('',#1107,0.00570952267646209,0.00364112135536323);
#81=ELLIPSE('',#1111,0.00686576427066799,0.00485482847381765);
#82=ELLIPSE('',#1113,0.00686576427066799,0.00485482847381765);
#83=ELLIPSE('',#1121,0.00686576642901577,0.00485483);
#84=ELLIPSE('',#1123,0.00686576642901577,0.00485483);
#85=CIRCLE('',#1009,0.0006);
#86=CIRCLE('',#1010,0.00485483);
#87=CIRCLE('',#1011,0.0023);
#88=CIRCLE('',#1017,0.0013);
#89=CIRCLE('',#1018,0.0027);
#90=CIRCLE('',#1019,0.0007);
#91=CIRCLE('',#1021,0.00485483);
#92=CIRCLE('',#1023,0.00485483);
#93=CIRCLE('',#1025,0.00485483);
#94=CIRCLE('',#1026,0.0006);
#95=CIRCLE('',#1027,0.0023);
#96=CIRCLE('',#1046,0.0017);
#97=CIRCLE('',#1048,0.0017);
#98=CIRCLE('',#1050,0.0017);
#99=CIRCLE('',#1052,0.0017);
#100=CIRCLE('',#1054,0.0023);
#101=CIRCLE('',#1056,0.0023);
#102=CIRCLE('',#1058,0.001);
#103=CIRCLE('',#1060,0.001);
#104=CIRCLE('',#1062,0.0007);
#105=CIRCLE('',#1063,0.0027);
#106=CIRCLE('',#1064,0.0013);
#107=CIRCLE('',#1066,0.001);
#108=CIRCLE('',#1067,0.001);
#109=CIRCLE('',#1069,0.001);
#110=CIRCLE('',#1071,0.001);
#111=CIRCLE('',#1073,0.001);
#112=CIRCLE('',#1075,0.001);
#113=CIRCLE('',#1077,0.001);
#114=CIRCLE('',#1079,0.001);
#115=CIRCLE('',#1081,0.001);
#116=CIRCLE('',#1082,0.001);
#117=CIRCLE('',#1084,0.001);
#118=CIRCLE('',#1086,0.001);
#119=CIRCLE('',#1088,0.001);
#120=CIRCLE('',#1090,0.001);
#121=CIRCLE('',#1092,0.001);
#122=CIRCLE('',#1094,0.001);
#123=CIRCLE('',#1108,0.00485482847381765);
#124=CIRCLE('',#1109,0.00485482847381765);
#125=CIRCLE('',#1115,0.00485482847381765);
#126=CIRCLE('',#1116,0.00485482847381765);
#127=ORIENTED_EDGE('',*,*,#419,.T.);
#128=ORIENTED_EDGE('',*,*,#420,.T.);
#129=ORIENTED_EDGE('',*,*,#421,.T.);
#130=ORIENTED_EDGE('',*,*,#422,.T.);
#131=ORIENTED_EDGE('',*,*,#423,.T.);
#132=ORIENTED_EDGE('',*,*,#424,.T.);
#133=ORIENTED_EDGE('',*,*,#425,.T.);
#134=ORIENTED_EDGE('',*,*,#426,.F.);
#135=ORIENTED_EDGE('',*,*,#427,.T.);
#136=ORIENTED_EDGE('',*,*,#428,.F.);
#137=ORIENTED_EDGE('',*,*,#429,.T.);
#138=ORIENTED_EDGE('',*,*,#430,.T.);
#139=ORIENTED_EDGE('',*,*,#431,.T.);
#140=ORIENTED_EDGE('',*,*,#432,.T.);
#141=ORIENTED_EDGE('',*,*,#433,.T.);
#142=ORIENTED_EDGE('',*,*,#434,.T.);
#143=ORIENTED_EDGE('',*,*,#435,.T.);
#144=ORIENTED_EDGE('',*,*,#436,.T.);
#145=ORIENTED_EDGE('',*,*,#437,.T.);
#146=ORIENTED_EDGE('',*,*,#438,.T.);
#147=ORIENTED_EDGE('',*,*,#439,.T.);
#148=ORIENTED_EDGE('',*,*,#440,.T.);
#149=ORIENTED_EDGE('',*,*,#441,.T.);
#150=ORIENTED_EDGE('',*,*,#442,.T.);
#151=ORIENTED_EDGE('',*,*,#443,.T.);
#152=ORIENTED_EDGE('',*,*,#444,.T.);
#153=ORIENTED_EDGE('',*,*,#445,.T.);
#154=ORIENTED_EDGE('',*,*,#446,.T.);
#155=ORIENTED_EDGE('',*,*,#447,.T.);
#156=ORIENTED_EDGE('',*,*,#423,.F.);
#157=ORIENTED_EDGE('',*,*,#448,.T.);
#158=ORIENTED_EDGE('',*,*,#449,.T.);
#159=ORIENTED_EDGE('',*,*,#450,.T.);
#160=ORIENTED_EDGE('',*,*,#451,.T.);
#161=ORIENTED_EDGE('',*,*,#452,.T.);
#162=ORIENTED_EDGE('',*,*,#453,.T.);
#163=ORIENTED_EDGE('',*,*,#454,.T.);
#164=ORIENTED_EDGE('',*,*,#455,.T.);
#165=ORIENTED_EDGE('',*,*,#456,.T.);
#166=ORIENTED_EDGE('',*,*,#457,.T.);
#167=ORIENTED_EDGE('',*,*,#458,.T.);
#168=ORIENTED_EDGE('',*,*,#451,.F.);
#169=ORIENTED_EDGE('',*,*,#459,.T.);
#170=ORIENTED_EDGE('',*,*,#460,.T.);
#171=ORIENTED_EDGE('',*,*,#461,.T.);
#172=ORIENTED_EDGE('',*,*,#462,.T.);
#173=ORIENTED_EDGE('',*,*,#463,.T.);
#174=ORIENTED_EDGE('',*,*,#464,.T.);
#175=ORIENTED_EDGE('',*,*,#465,.T.);
#176=ORIENTED_EDGE('',*,*,#466,.T.);
#177=ORIENTED_EDGE('',*,*,#467,.T.);
#178=ORIENTED_EDGE('',*,*,#468,.T.);
#179=ORIENTED_EDGE('',*,*,#469,.T.);
#180=ORIENTED_EDGE('',*,*,#470,.T.);
#181=ORIENTED_EDGE('',*,*,#471,.T.);
#182=ORIENTED_EDGE('',*,*,#472,.T.);
#183=ORIENTED_EDGE('',*,*,#473,.T.);
#184=ORIENTED_EDGE('',*,*,#474,.T.);
#185=ORIENTED_EDGE('',*,*,#475,.T.);
#186=ORIENTED_EDGE('',*,*,#476,.T.);
#187=ORIENTED_EDGE('',*,*,#477,.T.);
#188=ORIENTED_EDGE('',*,*,#478,.T.);
#189=ORIENTED_EDGE('',*,*,#479,.T.);
#190=ORIENTED_EDGE('',*,*,#480,.T.);
#191=ORIENTED_EDGE('',*,*,#481,.T.);
#192=ORIENTED_EDGE('',*,*,#482,.T.);
#193=ORIENTED_EDGE('',*,*,#483,.T.);
#194=ORIENTED_EDGE('',*,*,#484,.T.);
#195=ORIENTED_EDGE('',*,*,#485,.T.);
#196=ORIENTED_EDGE('',*,*,#486,.F.);
#197=ORIENTED_EDGE('',*,*,#487,.T.);
#198=ORIENTED_EDGE('',*,*,#465,.F.);
#199=ORIENTED_EDGE('',*,*,#486,.T.);
#200=ORIENTED_EDGE('',*,*,#488,.T.);
#201=ORIENTED_EDGE('',*,*,#489,.F.);
#202=ORIENTED_EDGE('',*,*,#490,.T.);
#203=ORIENTED_EDGE('',*,*,#480,.F.);
#204=ORIENTED_EDGE('',*,*,#491,.T.);
#205=ORIENTED_EDGE('',*,*,#489,.T.);
#206=ORIENTED_EDGE('',*,*,#492,.T.);
#207=ORIENTED_EDGE('',*,*,#493,.T.);
#208=ORIENTED_EDGE('',*,*,#475,.F.);
#209=ORIENTED_EDGE('',*,*,#494,.T.);
#210=ORIENTED_EDGE('',*,*,#421,.F.);
#211=ORIENTED_EDGE('',*,*,#495,.T.);
#212=ORIENTED_EDGE('',*,*,#496,.T.);
#213=ORIENTED_EDGE('',*,*,#438,.F.);
#214=ORIENTED_EDGE('',*,*,#497,.T.);
#215=ORIENTED_EDGE('',*,*,#463,.F.);
#216=ORIENTED_EDGE('',*,*,#498,.T.);
#217=ORIENTED_EDGE('',*,*,#479,.F.);
#218=ORIENTED_EDGE('',*,*,#499,.T.);
#219=ORIENTED_EDGE('',*,*,#461,.F.);
#220=ORIENTED_EDGE('',*,*,#487,.F.);
#221=ORIENTED_EDGE('',*,*,#491,.F.);
#222=ORIENTED_EDGE('',*,*,#474,.F.);
#223=ORIENTED_EDGE('',*,*,#500,.T.);
#224=ORIENTED_EDGE('',*,*,#477,.F.);
#225=ORIENTED_EDGE('',*,*,#490,.F.);
#226=ORIENTED_EDGE('',*,*,#494,.F.);
#227=ORIENTED_EDGE('',*,*,#501,.T.);
#228=ORIENTED_EDGE('',*,*,#502,.T.);
#229=ORIENTED_EDGE('',*,*,#432,.F.);
#230=ORIENTED_EDGE('',*,*,#503,.T.);
#231=ORIENTED_EDGE('',*,*,#472,.F.);
#232=ORIENTED_EDGE('',*,*,#504,.T.);
#233=ORIENTED_EDGE('',*,*,#481,.F.);
#234=ORIENTED_EDGE('',*,*,#431,.F.);
#235=ORIENTED_EDGE('',*,*,#505,.T.);
#236=ORIENTED_EDGE('',*,*,#448,.F.);
#237=ORIENTED_EDGE('',*,*,#427,.F.);
#238=ORIENTED_EDGE('',*,*,#506,.F.);
#239=ORIENTED_EDGE('',*,*,#456,.F.);
#240=ORIENTED_EDGE('',*,*,#507,.T.);
#241=ORIENTED_EDGE('',*,*,#429,.F.);
#242=ORIENTED_EDGE('',*,*,#508,.F.);
#243=ORIENTED_EDGE('',*,*,#459,.F.);
#244=ORIENTED_EDGE('',*,*,#454,.F.);
#245=ORIENTED_EDGE('',*,*,#509,.T.);
#246=ORIENTED_EDGE('',*,*,#419,.F.);
#247=ORIENTED_EDGE('',*,*,#510,.T.);
#248=ORIENTED_EDGE('',*,*,#511,.T.);
#249=ORIENTED_EDGE('',*,*,#450,.F.);
#250=ORIENTED_EDGE('',*,*,#512,.T.);
#251=ORIENTED_EDGE('',*,*,#434,.F.);
#252=ORIENTED_EDGE('',*,*,#513,.T.);
#253=ORIENTED_EDGE('',*,*,#514,.T.);
#254=ORIENTED_EDGE('',*,*,#515,.T.);
#255=ORIENTED_EDGE('',*,*,#516,.T.);
#256=ORIENTED_EDGE('',*,*,#517,.T.);
#257=ORIENTED_EDGE('',*,*,#518,.T.);
#258=ORIENTED_EDGE('',*,*,#519,.T.);
#259=ORIENTED_EDGE('',*,*,#520,.F.);
#260=ORIENTED_EDGE('',*,*,#435,.F.);
#261=ORIENTED_EDGE('',*,*,#521,.F.);
#262=ORIENTED_EDGE('',*,*,#444,.F.);
#263=ORIENTED_EDGE('',*,*,#521,.T.);
#264=ORIENTED_EDGE('',*,*,#512,.F.);
#265=ORIENTED_EDGE('',*,*,#522,.F.);
#266=ORIENTED_EDGE('',*,*,#520,.T.);
#267=ORIENTED_EDGE('',*,*,#443,.F.);
#268=ORIENTED_EDGE('',*,*,#523,.F.);
#269=ORIENTED_EDGE('',*,*,#503,.F.);
#270=ORIENTED_EDGE('',*,*,#522,.T.);
#271=ORIENTED_EDGE('',*,*,#449,.F.);
#272=ORIENTED_EDGE('',*,*,#524,.F.);
#273=ORIENTED_EDGE('',*,*,#445,.F.);
#274=ORIENTED_EDGE('',*,*,#523,.T.);
#275=ORIENTED_EDGE('',*,*,#442,.F.);
#276=ORIENTED_EDGE('',*,*,#525,.F.);
#277=ORIENTED_EDGE('',*,*,#473,.F.);
#278=ORIENTED_EDGE('',*,*,#524,.T.);
#279=ORIENTED_EDGE('',*,*,#505,.F.);
#280=ORIENTED_EDGE('',*,*,#526,.F.);
#281=ORIENTED_EDGE('',*,*,#439,.F.);
#282=ORIENTED_EDGE('',*,*,#525,.T.);
#283=ORIENTED_EDGE('',*,*,#441,.F.);
#284=ORIENTED_EDGE('',*,*,#527,.F.);
#285=ORIENTED_EDGE('',*,*,#500,.F.);
#286=ORIENTED_EDGE('',*,*,#518,.F.);
#287=ORIENTED_EDGE('',*,*,#528,.F.);
#288=ORIENTED_EDGE('',*,*,#478,.F.);
#289=ORIENTED_EDGE('',*,*,#527,.T.);
#290=ORIENTED_EDGE('',*,*,#440,.F.);
#291=ORIENTED_EDGE('',*,*,#526,.T.);
#292=ORIENTED_EDGE('',*,*,#430,.F.);
#293=ORIENTED_EDGE('',*,*,#529,.F.);
#294=ORIENTED_EDGE('',*,*,#529,.T.);
#295=ORIENTED_EDGE('',*,*,#507,.F.);
#296=ORIENTED_EDGE('',*,*,#530,.F.);
#297=ORIENTED_EDGE('',*,*,#519,.F.);
#298=ORIENTED_EDGE('',*,*,#528,.T.);
#299=ORIENTED_EDGE('',*,*,#517,.F.);
#300=ORIENTED_EDGE('',*,*,#531,.F.);
#301=ORIENTED_EDGE('',*,*,#499,.F.);
#302=ORIENTED_EDGE('',*,*,#530,.T.);
#303=ORIENTED_EDGE('',*,*,#455,.F.);
#304=ORIENTED_EDGE('',*,*,#532,.F.);
#305=ORIENTED_EDGE('',*,*,#513,.F.);
#306=ORIENTED_EDGE('',*,*,#531,.T.);
#307=ORIENTED_EDGE('',*,*,#516,.F.);
#308=ORIENTED_EDGE('',*,*,#533,.F.);
#309=ORIENTED_EDGE('',*,*,#462,.F.);
#310=ORIENTED_EDGE('',*,*,#532,.T.);
#311=ORIENTED_EDGE('',*,*,#510,.F.);
#312=ORIENTED_EDGE('',*,*,#534,.F.);
#313=ORIENTED_EDGE('',*,*,#533,.T.);
#314=ORIENTED_EDGE('',*,*,#515,.F.);
#315=ORIENTED_EDGE('',*,*,#535,.F.);
#316=ORIENTED_EDGE('',*,*,#498,.F.);
#317=ORIENTED_EDGE('',*,*,#534,.T.);
#318=ORIENTED_EDGE('',*,*,#422,.F.);
#319=ORIENTED_EDGE('',*,*,#535,.T.);
#320=ORIENTED_EDGE('',*,*,#514,.F.);
#321=ORIENTED_EDGE('',*,*,#536,.T.);
#322=ORIENTED_EDGE('',*,*,#537,.T.);
#323=ORIENTED_EDGE('',*,*,#538,.F.);
#324=ORIENTED_EDGE('',*,*,#482,.F.);
#325=ORIENTED_EDGE('',*,*,#504,.F.);
#326=ORIENTED_EDGE('',*,*,#476,.F.);
#327=ORIENTED_EDGE('',*,*,#493,.F.);
#328=ORIENTED_EDGE('',*,*,#496,.F.);
#329=ORIENTED_EDGE('',*,*,#539,.T.);
#330=ORIENTED_EDGE('',*,*,#501,.F.);
#331=ORIENTED_EDGE('',*,*,#483,.F.);
#332=ORIENTED_EDGE('',*,*,#538,.T.);
#333=ORIENTED_EDGE('',*,*,#540,.T.);
#334=ORIENTED_EDGE('',*,*,#541,.F.);
#335=ORIENTED_EDGE('',*,*,#542,.T.);
#336=ORIENTED_EDGE('',*,*,#543,.F.);
#337=ORIENTED_EDGE('',*,*,#436,.F.);
#338=ORIENTED_EDGE('',*,*,#543,.T.);
#339=ORIENTED_EDGE('',*,*,#544,.T.);
#340=ORIENTED_EDGE('',*,*,#545,.T.);
#341=ORIENTED_EDGE('',*,*,#484,.F.);
#342=ORIENTED_EDGE('',*,*,#464,.F.);
#343=ORIENTED_EDGE('',*,*,#497,.F.);
#344=ORIENTED_EDGE('',*,*,#437,.F.);
#345=ORIENTED_EDGE('',*,*,#541,.T.);
#346=ORIENTED_EDGE('',*,*,#546,.T.);
#347=ORIENTED_EDGE('',*,*,#466,.F.);
#348=ORIENTED_EDGE('',*,*,#547,.T.);
#349=ORIENTED_EDGE('',*,*,#542,.F.);
#350=ORIENTED_EDGE('',*,*,#547,.F.);
#351=ORIENTED_EDGE('',*,*,#548,.F.);
#352=ORIENTED_EDGE('',*,*,#544,.F.);
#353=ORIENTED_EDGE('',*,*,#548,.T.);
#354=ORIENTED_EDGE('',*,*,#471,.F.);
#355=ORIENTED_EDGE('',*,*,#549,.F.);
#356=ORIENTED_EDGE('',*,*,#545,.F.);
#357=ORIENTED_EDGE('',*,*,#549,.T.);
#358=ORIENTED_EDGE('',*,*,#470,.F.);
#359=ORIENTED_EDGE('',*,*,#550,.F.);
#360=ORIENTED_EDGE('',*,*,#485,.F.);
#361=ORIENTED_EDGE('',*,*,#550,.T.);
#362=ORIENTED_EDGE('',*,*,#469,.F.);
#363=ORIENTED_EDGE('',*,*,#551,.F.);
#364=ORIENTED_EDGE('',*,*,#488,.F.);
#365=ORIENTED_EDGE('',*,*,#551,.T.);
#366=ORIENTED_EDGE('',*,*,#468,.F.);
#367=ORIENTED_EDGE('',*,*,#552,.F.);
#368=ORIENTED_EDGE('',*,*,#492,.F.);
#369=ORIENTED_EDGE('',*,*,#552,.T.);
#370=ORIENTED_EDGE('',*,*,#467,.F.);
#371=ORIENTED_EDGE('',*,*,#553,.F.);
#372=ORIENTED_EDGE('',*,*,#536,.F.);
#373=ORIENTED_EDGE('',*,*,#540,.F.);
#374=ORIENTED_EDGE('',*,*,#537,.F.);
#375=ORIENTED_EDGE('',*,*,#553,.T.);
#376=ORIENTED_EDGE('',*,*,#546,.F.);
#377=ORIENTED_EDGE('',*,*,#554,.T.);
#378=ORIENTED_EDGE('',*,*,#555,.T.);
#379=ORIENTED_EDGE('',*,*,#556,.F.);
#380=ORIENTED_EDGE('',*,*,#428,.T.);
#381=ORIENTED_EDGE('',*,*,#556,.T.);
#382=ORIENTED_EDGE('',*,*,#557,.T.);
#383=ORIENTED_EDGE('',*,*,#460,.F.);
#384=ORIENTED_EDGE('',*,*,#508,.T.);
#385=ORIENTED_EDGE('',*,*,#426,.T.);
#386=ORIENTED_EDGE('',*,*,#558,.T.);
#387=ORIENTED_EDGE('',*,*,#554,.F.);
#388=ORIENTED_EDGE('',*,*,#506,.T.);
#389=ORIENTED_EDGE('',*,*,#425,.F.);
#390=ORIENTED_EDGE('',*,*,#559,.T.);
#391=ORIENTED_EDGE('',*,*,#560,.F.);
#392=ORIENTED_EDGE('',*,*,#558,.F.);
#393=ORIENTED_EDGE('',*,*,#420,.F.);
#394=ORIENTED_EDGE('',*,*,#509,.F.);
#395=ORIENTED_EDGE('',*,*,#453,.F.);
#396=ORIENTED_EDGE('',*,*,#561,.T.);
#397=ORIENTED_EDGE('',*,*,#562,.F.);
#398=ORIENTED_EDGE('',*,*,#555,.F.);
#399=ORIENTED_EDGE('',*,*,#560,.T.);
#400=ORIENTED_EDGE('',*,*,#563,.T.);
#401=ORIENTED_EDGE('',*,*,#446,.F.);
#402=ORIENTED_EDGE('',*,*,#511,.F.);
#403=ORIENTED_EDGE('',*,*,#433,.F.);
#404=ORIENTED_EDGE('',*,*,#502,.F.);
#405=ORIENTED_EDGE('',*,*,#539,.F.);
#406=ORIENTED_EDGE('',*,*,#495,.F.);
#407=ORIENTED_EDGE('',*,*,#562,.T.);
#408=ORIENTED_EDGE('',*,*,#564,.T.);
#409=ORIENTED_EDGE('',*,*,#457,.F.);
#410=ORIENTED_EDGE('',*,*,#557,.F.);
#411=ORIENTED_EDGE('',*,*,#458,.F.);
#412=ORIENTED_EDGE('',*,*,#564,.F.);
#413=ORIENTED_EDGE('',*,*,#561,.F.);
#414=ORIENTED_EDGE('',*,*,#452,.F.);
#415=ORIENTED_EDGE('',*,*,#563,.F.);
#416=ORIENTED_EDGE('',*,*,#559,.F.);
#417=ORIENTED_EDGE('',*,*,#424,.F.);
#418=ORIENTED_EDGE('',*,*,#447,.F.);
#419=EDGE_CURVE('',#565,#566,#653,.T.);
#420=EDGE_CURVE('',#566,#567,#654,.T.);
#421=EDGE_CURVE('',#567,#568,#655,.F.);
#422=EDGE_CURVE('',#568,#565,#656,.F.);
#423=EDGE_CURVE('',#569,#570,#657,.T.);
#424=EDGE_CURVE('',#570,#571,#85,.F.);
#425=EDGE_CURVE('',#571,#572,#86,.F.);
#426=EDGE_CURVE('',#573,#572,#658,.T.);
#427=EDGE_CURVE('',#573,#569,#87,.F.);
#428=EDGE_CURVE('',#574,#575,#659,.T.);
#429=EDGE_CURVE('',#574,#576,#660,.F.);
#430=EDGE_CURVE('',#576,#577,#661,.F.);
#431=EDGE_CURVE('',#577,#575,#662,.T.);
#432=EDGE_CURVE('',#578,#579,#663,.T.);
#433=EDGE_CURVE('',#579,#580,#664,.T.);
#434=EDGE_CURVE('',#580,#581,#665,.F.);
#435=EDGE_CURVE('',#581,#578,#666,.F.);
#436=EDGE_CURVE('',#582,#583,#667,.F.);
#437=EDGE_CURVE('',#583,#584,#668,.F.);
#438=EDGE_CURVE('',#584,#582,#63,.F.);
#439=EDGE_CURVE('',#585,#586,#88,.F.);
#440=EDGE_CURVE('',#586,#587,#669,.T.);
#441=EDGE_CURVE('',#587,#588,#89,.T.);
#442=EDGE_CURVE('',#588,#589,#670,.T.);
#443=EDGE_CURVE('',#589,#590,#90,.F.);
#444=EDGE_CURVE('',#590,#591,#671,.T.);
#445=EDGE_CURVE('',#591,#585,#672,.T.);
#446=EDGE_CURVE('',#592,#593,#91,.T.);
#447=EDGE_CURVE('',#593,#570,#673,.T.);
#448=EDGE_CURVE('',#569,#594,#674,.F.);
#449=EDGE_CURVE('',#594,#595,#675,.F.);
#450=EDGE_CURVE('',#595,#592,#676,.T.);
#451=EDGE_CURVE('',#596,#597,#677,.T.);
#452=EDGE_CURVE('',#597,#598,#678,.F.);
#453=EDGE_CURVE('',#598,#599,#92,.F.);
#454=EDGE_CURVE('',#599,#600,#679,.F.);
#455=EDGE_CURVE('',#600,#601,#680,.T.);
#456=EDGE_CURVE('',#601,#596,#681,.T.);
#457=EDGE_CURVE('',#602,#603,#93,.F.);
#458=EDGE_CURVE('',#603,#597,#94,.F.);
#459=EDGE_CURVE('',#596,#604,#95,.F.);
#460=EDGE_CURVE('',#604,#602,#682,.T.);
#461=EDGE_CURVE('',#605,#606,#683,.F.);
#462=EDGE_CURVE('',#606,#607,#684,.T.);
#463=EDGE_CURVE('',#607,#608,#685,.T.);
#464=EDGE_CURVE('',#608,#609,#64,.T.);
#465=EDGE_CURVE('',#609,#605,#686,.T.);
#466=EDGE_CURVE('',#610,#611,#687,.T.);
#467=EDGE_CURVE('',#611,#612,#65,.T.);
#468=EDGE_CURVE('',#612,#613,#688,.T.);
#469=EDGE_CURVE('',#613,#614,#689,.T.);
#470=EDGE_CURVE('',#614,#615,#690,.F.);
#471=EDGE_CURVE('',#615,#610,#66,.T.);
#472=EDGE_CURVE('',#616,#617,#691,.F.);
#473=EDGE_CURVE('',#617,#618,#692,.F.);
#474=EDGE_CURVE('',#618,#619,#693,.T.);
#475=EDGE_CURVE('',#619,#620,#694,.T.);
#476=EDGE_CURVE('',#620,#616,#67,.F.);
#477=EDGE_CURVE('',#621,#622,#695,.F.);
#478=EDGE_CURVE('',#622,#623,#696,.F.);
#479=EDGE_CURVE('',#623,#624,#697,.T.);
#480=EDGE_CURVE('',#624,#621,#698,.T.);
#481=EDGE_CURVE('',#625,#626,#68,.F.);
#482=EDGE_CURVE('',#626,#627,#699,.T.);
#483=EDGE_CURVE('',#627,#625,#700,.F.);
#484=EDGE_CURVE('',#609,#628,#701,.F.);
#485=EDGE_CURVE('',#628,#629,#702,.F.);
#486=EDGE_CURVE('',#630,#629,#703,.T.);
#487=EDGE_CURVE('',#630,#605,#69,.T.);
#488=EDGE_CURVE('',#629,#631,#704,.F.);
#489=EDGE_CURVE('',#632,#631,#705,.F.);
#490=EDGE_CURVE('',#632,#621,#70,.F.);
#491=EDGE_CURVE('',#624,#630,#71,.F.);
#492=EDGE_CURVE('',#631,#633,#706,.F.);
#493=EDGE_CURVE('',#633,#620,#707,.F.);
#494=EDGE_CURVE('',#619,#632,#72,.F.);
#495=EDGE_CURVE('',#567,#634,#24,.F.);
#496=EDGE_CURVE('',#634,#582,#25,.F.);
#497=EDGE_CURVE('',#584,#608,#26,.T.);
#498=EDGE_CURVE('',#607,#568,#96,.T.);
#499=EDGE_CURVE('',#623,#606,#97,.F.);
#500=EDGE_CURVE('',#618,#622,#98,.F.);
#501=EDGE_CURVE('',#625,#635,#27,.T.);
#502=EDGE_CURVE('',#635,#579,#28,.T.);
#503=EDGE_CURVE('',#578,#617,#99,.T.);
#504=EDGE_CURVE('',#616,#626,#29,.T.);
#505=EDGE_CURVE('',#577,#594,#100,.T.);
#506=EDGE_CURVE('',#575,#573,#708,.T.);
#507=EDGE_CURVE('',#601,#576,#101,.T.);
#508=EDGE_CURVE('',#604,#574,#709,.F.);
#509=EDGE_CURVE('',#599,#566,#30,.T.);
#510=EDGE_CURVE('',#565,#600,#102,.F.);
#511=EDGE_CURVE('',#580,#592,#31,.F.);
#512=EDGE_CURVE('',#595,#581,#103,.T.);
#513=EDGE_CURVE('',#636,#637,#710,.F.);
#514=EDGE_CURVE('',#637,#638,#711,.T.);
#515=EDGE_CURVE('',#638,#639,#104,.F.);
#516=EDGE_CURVE('',#639,#640,#712,.F.);
#517=EDGE_CURVE('',#640,#641,#105,.T.);
#518=EDGE_CURVE('',#641,#642,#713,.T.);
#519=EDGE_CURVE('',#642,#636,#106,.F.);
#520=EDGE_CURVE('',#578,#590,#107,.T.);
#521=EDGE_CURVE('',#591,#581,#108,.T.);
#522=EDGE_CURVE('',#591,#595,#109,.T.);
#523=EDGE_CURVE('',#617,#589,#110,.T.);
#524=EDGE_CURVE('',#585,#594,#111,.T.);
#525=EDGE_CURVE('',#618,#588,#112,.T.);
#526=EDGE_CURVE('',#586,#577,#113,.T.);
#527=EDGE_CURVE('',#622,#587,#114,.T.);
#528=EDGE_CURVE('',#623,#641,#115,.T.);
#529=EDGE_CURVE('',#642,#576,#116,.T.);
#530=EDGE_CURVE('',#636,#601,#117,.T.);
#531=EDGE_CURVE('',#606,#640,#118,.T.);
#532=EDGE_CURVE('',#637,#600,#119,.T.);
#533=EDGE_CURVE('',#607,#639,#120,.T.);
#534=EDGE_CURVE('',#637,#565,#121,.T.);
#535=EDGE_CURVE('',#568,#638,#122,.T.);
#536=EDGE_CURVE('',#633,#643,#73,.T.);
#537=EDGE_CURVE('',#643,#644,#74,.T.);
#538=EDGE_CURVE('',#627,#644,#75,.F.);
#539=EDGE_CURVE('',#634,#635,#714,.T.);
#540=EDGE_CURVE('',#644,#645,#32,.T.);
#541=EDGE_CURVE('',#646,#645,#715,.F.);
#542=EDGE_CURVE('',#646,#647,#33,.T.);
#543=EDGE_CURVE('',#583,#647,#76,.T.);
#544=EDGE_CURVE('',#647,#648,#77,.F.);
#545=EDGE_CURVE('',#648,#628,#78,.T.);
#546=EDGE_CURVE('',#645,#611,#79,.F.);
#547=EDGE_CURVE('',#610,#646,#80,.T.);
#548=EDGE_CURVE('',#648,#610,#123,.T.);
#549=EDGE_CURVE('',#628,#615,#124,.T.);
#550=EDGE_CURVE('',#629,#614,#81,.T.);
#551=EDGE_CURVE('',#631,#613,#82,.F.);
#552=EDGE_CURVE('',#633,#612,#125,.T.);
#553=EDGE_CURVE('',#643,#611,#126,.T.);
#554=EDGE_CURVE('',#575,#649,#716,.T.);
#555=EDGE_CURVE('',#649,#650,#717,.F.);
#556=EDGE_CURVE('',#574,#650,#718,.T.);
#557=EDGE_CURVE('',#650,#602,#719,.F.);
#558=EDGE_CURVE('',#572,#649,#720,.T.);
#559=EDGE_CURVE('',#571,#651,#721,.F.);
#560=EDGE_CURVE('',#649,#651,#83,.F.);
#561=EDGE_CURVE('',#598,#652,#34,.F.);
#562=EDGE_CURVE('',#650,#652,#84,.F.);
#563=EDGE_CURVE('',#651,#593,#35,.T.);
#564=EDGE_CURVE('',#652,#603,#722,.F.);
#565=VERTEX_POINT('',#1442);
#566=VERTEX_POINT('',#1443);
#567=VERTEX_POINT('',#1445);
#568=VERTEX_POINT('',#1447);
#569=VERTEX_POINT('',#1451);
#570=VERTEX_POINT('',#1452);
#571=VERTEX_POINT('',#1454);
#572=VERTEX_POINT('',#1456);
#573=VERTEX_POINT('',#1458);
#574=VERTEX_POINT('',#1462);
#575=VERTEX_POINT('',#1463);
#576=VERTEX_POINT('',#1465);
#577=VERTEX_POINT('',#1467);
#578=VERTEX_POINT('',#1471);
#579=VERTEX_POINT('',#1472);
#580=VERTEX_POINT('',#1474);
#581=VERTEX_POINT('',#1476);
#582=VERTEX_POINT('',#1480);
#583=VERTEX_POINT('',#1481);
#584=VERTEX_POINT('',#1483);
#585=VERTEX_POINT('',#1487);
#586=VERTEX_POINT('',#1488);
#587=VERTEX_POINT('',#1490);
#588=VERTEX_POINT('',#1492);
#589=VERTEX_POINT('',#1494);
#590=VERTEX_POINT('',#1496);
#591=VERTEX_POINT('',#1498);
#592=VERTEX_POINT('',#1502);
#593=VERTEX_POINT('',#1503);
#594=VERTEX_POINT('',#1506);
#595=VERTEX_POINT('',#1508);
#596=VERTEX_POINT('',#1512);
#597=VERTEX_POINT('',#1513);
#598=VERTEX_POINT('',#1515);
#599=VERTEX_POINT('',#1517);
#600=VERTEX_POINT('',#1519);
#601=VERTEX_POINT('',#1521);
#602=VERTEX_POINT('',#1525);
#603=VERTEX_POINT('',#1526);
#604=VERTEX_POINT('',#1529);
#605=VERTEX_POINT('',#1533);
#606=VERTEX_POINT('',#1534);
#607=VERTEX_POINT('',#1536);
#608=VERTEX_POINT('',#1538);
#609=VERTEX_POINT('',#1540);
#610=VERTEX_POINT('',#1544);
#611=VERTEX_POINT('',#1545);
#612=VERTEX_POINT('',#1547);
#613=VERTEX_POINT('',#1549);
#614=VERTEX_POINT('',#1551);
#615=VERTEX_POINT('',#1553);
#616=VERTEX_POINT('',#1557);
#617=VERTEX_POINT('',#1558);
#618=VERTEX_POINT('',#1560);
#619=VERTEX_POINT('',#1562);
#620=VERTEX_POINT('',#1564);
#621=VERTEX_POINT('',#1568);
#622=VERTEX_POINT('',#1569);
#623=VERTEX_POINT('',#1571);
#624=VERTEX_POINT('',#1573);
#625=VERTEX_POINT('',#1577);
#626=VERTEX_POINT('',#1578);
#627=VERTEX_POINT('',#1580);
#628=VERTEX_POINT('',#1584);
#629=VERTEX_POINT('',#1586);
#630=VERTEX_POINT('',#1588);
#631=VERTEX_POINT('',#1592);
#632=VERTEX_POINT('',#1594);
#633=VERTEX_POINT('',#1599);
#634=VERTEX_POINT('',#1607);
#635=VERTEX_POINT('',#1626);
#636=VERTEX_POINT('',#1658);
#637=VERTEX_POINT('',#1659);
#638=VERTEX_POINT('',#1661);
#639=VERTEX_POINT('',#1663);
#640=VERTEX_POINT('',#1665);
#641=VERTEX_POINT('',#1667);
#642=VERTEX_POINT('',#1669);
#643=VERTEX_POINT('',#1704);
#644=VERTEX_POINT('',#1706);
#645=VERTEX_POINT('',#1714);
#646=VERTEX_POINT('',#1716);
#647=VERTEX_POINT('',#1721);
#648=VERTEX_POINT('',#1725);
#649=VERTEX_POINT('',#1795);
#650=VERTEX_POINT('',#1797);
#651=VERTEX_POINT('',#1805);
#652=VERTEX_POINT('',#1815);
#653=LINE('',#1441,#723);
#654=LINE('',#1444,#724);
#655=LINE('',#1446,#725);
#656=LINE('',#1448,#726);
#657=LINE('',#1450,#727);
#658=LINE('',#1457,#728);
#659=LINE('',#1461,#729);
#660=LINE('',#1464,#730);
#661=LINE('',#1466,#731);
#662=LINE('',#1468,#732);
#663=LINE('',#1470,#733);
#664=LINE('',#1473,#734);
#665=LINE('',#1475,#735);
#666=LINE('',#1477,#736);
#667=LINE('',#1479,#737);
#668=LINE('',#1482,#738);
#669=LINE('',#1489,#739);
#670=LINE('',#1493,#740);
#671=LINE('',#1497,#741);
#672=LINE('',#1499,#742);
#673=LINE('',#1504,#743);
#674=LINE('',#1505,#744);
#675=LINE('',#1507,#745);
#676=LINE('',#1509,#746);
#677=LINE('',#1511,#747);
#678=LINE('',#1514,#748);
#679=LINE('',#1518,#749);
#680=LINE('',#1520,#750);
#681=LINE('',#1522,#751);
#682=LINE('',#1530,#752);
#683=LINE('',#1532,#753);
#684=LINE('',#1535,#754);
#685=LINE('',#1537,#755);
#686=LINE('',#1541,#756);
#687=LINE('',#1543,#757);
#688=LINE('',#1548,#758);
#689=LINE('',#1550,#759);
#690=LINE('',#1552,#760);
#691=LINE('',#1556,#761);
#692=LINE('',#1559,#762);
#693=LINE('',#1561,#763);
#694=LINE('',#1563,#764);
#695=LINE('',#1567,#765);
#696=LINE('',#1570,#766);
#697=LINE('',#1572,#767);
#698=LINE('',#1574,#768);
#699=LINE('',#1579,#769);
#700=LINE('',#1581,#770);
#701=LINE('',#1583,#771);
#702=LINE('',#1585,#772);
#703=LINE('',#1587,#773);
#704=LINE('',#1591,#774);
#705=LINE('',#1593,#775);
#706=LINE('',#1598,#776);
#707=LINE('',#1600,#777);
#708=LINE('',#1638,#778);
#709=LINE('',#1641,#779);
#710=LINE('',#1657,#780);
#711=LINE('',#1660,#781);
#712=LINE('',#1664,#782);
#713=LINE('',#1668,#783);
#714=LINE('',#1709,#784);
#715=LINE('',#1715,#785);
#716=LINE('',#1794,#786);
#717=LINE('',#1796,#787);
#718=LINE('',#1798,#788);
#719=LINE('',#1800,#789);
#720=LINE('',#1802,#790);
#721=LINE('',#1804,#791);
#722=LINE('',#1825,#792);
#723=VECTOR('',#1131,1.);
#724=VECTOR('',#1132,1.);
#725=VECTOR('',#1133,1.);
#726=VECTOR('',#1134,1.);
#727=VECTOR('',#1137,1.);
#728=VECTOR('',#1142,1.);
#729=VECTOR('',#1147,1.);
#730=VECTOR('',#1148,1.);
#731=VECTOR('',#1149,1.);
#732=VECTOR('',#1150,1.);
#733=VECTOR('',#1153,1.);
#734=VECTOR('',#1154,1.);
#735=VECTOR('',#1155,1.);
#736=VECTOR('',#1156,1.);
#737=VECTOR('',#1159,1.);
#738=VECTOR('',#1160,1.);
#739=VECTOR('',#1167,1.);
#740=VECTOR('',#1170,1.);
#741=VECTOR('',#1173,1.);
#742=VECTOR('',#1174,1.);
#743=VECTOR('',#1179,1.);
#744=VECTOR('',#1180,1.);
#745=VECTOR('',#1181,1.);
#746=VECTOR('',#1182,1.);
#747=VECTOR('',#1185,1.);
#748=VECTOR('',#1186,1.);
#749=VECTOR('',#1189,1.);
#750=VECTOR('',#1190,1.);
#751=VECTOR('',#1191,1.);
#752=VECTOR('',#1200,1.);
#753=VECTOR('',#1203,1.);
#754=VECTOR('',#1204,1.);
#755=VECTOR('',#1205,1.);
#756=VECTOR('',#1208,1.);
#757=VECTOR('',#1211,1.);
#758=VECTOR('',#1214,1.);
#759=VECTOR('',#1215,1.);
#760=VECTOR('',#1216,1.);
#761=VECTOR('',#1221,1.);
#762=VECTOR('',#1222,1.);
#763=VECTOR('',#1223,1.);
#764=VECTOR('',#1224,1.);
#765=VECTOR('',#1229,1.);
#766=VECTOR('',#1230,1.);
#767=VECTOR('',#1231,1.);
#768=VECTOR('',#1232,1.);
#769=VECTOR('',#1237,1.);
#770=VECTOR('',#1238,1.);
#771=VECTOR('',#1241,1.);
#772=VECTOR('',#1242,1.);
#773=VECTOR('',#1243,1.);
#774=VECTOR('',#1248,1.);
#775=VECTOR('',#1249,1.);
#776=VECTOR('',#1256,1.);
#777=VECTOR('',#1257,1.);
#778=VECTOR('',#1280,1.);
#779=VECTOR('',#1285,1.);
#780=VECTOR('',#1296,1.);
#781=VECTOR('',#1297,1.);
#782=VECTOR('',#1300,1.);
#783=VECTOR('',#1303,1.);
#784=VECTOR('',#1378,1.);
#785=VECTOR('',#1379,1.);
#786=VECTOR('',#1414,1.);
#787=VECTOR('',#1415,1.);
#788=VECTOR('',#1416,1.);
#789=VECTOR('',#1419,1.);
#790=VECTOR('',#1422,1.);
#791=VECTOR('',#1425,1.);
#792=VECTOR('',#1434,1.);
#793=EDGE_LOOP('',(#127,#128,#129,#130));
#794=EDGE_LOOP('',(#131,#132,#133,#134,#135));
#795=EDGE_LOOP('',(#136,#137,#138,#139));
#796=EDGE_LOOP('',(#140,#141,#142,#143));
#797=EDGE_LOOP('',(#144,#145,#146));
#798=EDGE_LOOP('',(#147,#148,#149,#150,#151,#152,#153));
#799=EDGE_LOOP('',(#154,#155,#156,#157,#158,#159));
#800=EDGE_LOOP('',(#160,#161,#162,#163,#164,#165));
#801=EDGE_LOOP('',(#166,#167,#168,#169,#170));
#802=EDGE_LOOP('',(#171,#172,#173,#174,#175));
#803=EDGE_LOOP('',(#176,#177,#178,#179,#180,#181));
#804=EDGE_LOOP('',(#182,#183,#184,#185,#186));
#805=EDGE_LOOP('',(#187,#188,#189,#190));
#806=EDGE_LOOP('',(#191,#192,#193));
#807=EDGE_LOOP('',(#194,#195,#196,#197,#198));
#808=EDGE_LOOP('',(#199,#200,#201,#202,#203,#204));
#809=EDGE_LOOP('',(#205,#206,#207,#208,#209));
#810=EDGE_LOOP('',(#210,#211,#212,#213,#214,#215,#216));
#811=EDGE_LOOP('',(#217,#218,#219,#220,#221));
#812=EDGE_LOOP('',(#222,#223,#224,#225,#226));
#813=EDGE_LOOP('',(#227,#228,#229,#230,#231,#232,#233));
#814=EDGE_LOOP('',(#234,#235,#236,#237,#238));
#815=EDGE_LOOP('',(#239,#240,#241,#242,#243));
#816=EDGE_LOOP('',(#244,#245,#246,#247));
#817=EDGE_LOOP('',(#248,#249,#250,#251));
#818=EDGE_LOOP('',(#252,#253,#254,#255,#256,#257,#258));
#819=EDGE_LOOP('',(#259,#260,#261,#262));
#820=EDGE_LOOP('',(#263,#264,#265));
#821=EDGE_LOOP('',(#266,#267,#268,#269));
#822=EDGE_LOOP('',(#270,#271,#272,#273));
#823=EDGE_LOOP('',(#274,#275,#276,#277));
#824=EDGE_LOOP('',(#278,#279,#280,#281));
#825=EDGE_LOOP('',(#282,#283,#284,#285));
#826=EDGE_LOOP('',(#286,#287,#288,#289,#290,#291,#292,#293));
#827=EDGE_LOOP('',(#294,#295,#296,#297));
#828=EDGE_LOOP('',(#298,#299,#300,#301));
#829=EDGE_LOOP('',(#302,#303,#304,#305));
#830=EDGE_LOOP('',(#306,#307,#308,#309));
#831=EDGE_LOOP('',(#310,#311,#312));
#832=EDGE_LOOP('',(#313,#314,#315,#316));
#833=EDGE_LOOP('',(#317,#318,#319,#320));
#834=EDGE_LOOP('',(#321,#322,#323,#324,#325,#326,#327));
#835=EDGE_LOOP('',(#328,#329,#330,#331,#332,#333,#334,#335,#336,#337));
#836=EDGE_LOOP('',(#338,#339,#340,#341,#342,#343,#344));
#837=EDGE_LOOP('',(#345,#346,#347,#348));
#838=EDGE_LOOP('',(#349,#350,#351,#352));
#839=EDGE_LOOP('',(#353,#354,#355,#356));
#840=EDGE_LOOP('',(#357,#358,#359,#360));
#841=EDGE_LOOP('',(#361,#362,#363,#364));
#842=EDGE_LOOP('',(#365,#366,#367,#368));
#843=EDGE_LOOP('',(#369,#370,#371,#372));
#844=EDGE_LOOP('',(#373,#374,#375,#376));
#845=EDGE_LOOP('',(#377,#378,#379,#380));
#846=EDGE_LOOP('',(#381,#382,#383,#384));
#847=EDGE_LOOP('',(#385,#386,#387,#388));
#848=EDGE_LOOP('',(#389,#390,#391,#392));
#849=EDGE_LOOP('',(#393,#394,#395,#396,#397,#398,#399,#400,#401,#402,#403,
#404,#405,#406));
#850=EDGE_LOOP('',(#407,#408,#409,#410));
#851=EDGE_LOOP('',(#411,#412,#413,#414));
#852=EDGE_LOOP('',(#415,#416,#417,#418));
#853=FACE_BOUND('',#793,.T.);
#854=FACE_BOUND('',#794,.T.);
#855=FACE_BOUND('',#795,.T.);
#856=FACE_BOUND('',#796,.T.);
#857=FACE_BOUND('',#797,.T.);
#858=FACE_BOUND('',#798,.T.);
#859=FACE_BOUND('',#799,.T.);
#860=FACE_BOUND('',#800,.T.);
#861=FACE_BOUND('',#801,.T.);
#862=FACE_BOUND('',#802,.T.);
#863=FACE_BOUND('',#803,.T.);
#864=FACE_BOUND('',#804,.T.);
#865=FACE_BOUND('',#805,.T.);
#866=FACE_BOUND('',#806,.T.);
#867=FACE_BOUND('',#807,.T.);
#868=FACE_BOUND('',#808,.T.);
#869=FACE_BOUND('',#809,.T.);
#870=FACE_BOUND('',#810,.T.);
#871=FACE_BOUND('',#811,.T.);
#872=FACE_BOUND('',#812,.T.);
#873=FACE_BOUND('',#813,.T.);
#874=FACE_BOUND('',#814,.T.);
#875=FACE_BOUND('',#815,.T.);
#876=FACE_BOUND('',#816,.T.);
#877=FACE_BOUND('',#817,.T.);
#878=FACE_BOUND('',#818,.T.);
#879=FACE_BOUND('',#819,.T.);
#880=FACE_BOUND('',#820,.T.);
#881=FACE_BOUND('',#821,.T.);
#882=FACE_BOUND('',#822,.T.);
#883=FACE_BOUND('',#823,.T.);
#884=FACE_BOUND('',#824,.T.);
#885=FACE_BOUND('',#825,.T.);
#886=FACE_BOUND('',#826,.T.);
#887=FACE_BOUND('',#827,.T.);
#888=FACE_BOUND('',#828,.T.);
#889=FACE_BOUND('',#829,.T.);
#890=FACE_BOUND('',#830,.T.);
#891=FACE_BOUND('',#831,.T.);
#892=FACE_BOUND('',#832,.T.);
#893=FACE_BOUND('',#833,.T.);
#894=FACE_BOUND('',#834,.T.);
#895=FACE_BOUND('',#835,.T.);
#896=FACE_BOUND('',#836,.T.);
#897=FACE_BOUND('',#837,.T.);
#898=FACE_BOUND('',#838,.T.);
#899=FACE_BOUND('',#839,.T.);
#900=FACE_BOUND('',#840,.T.);
#901=FACE_BOUND('',#841,.T.);
#902=FACE_BOUND('',#842,.T.);
#903=FACE_BOUND('',#843,.T.);
#904=FACE_BOUND('',#844,.T.);
#905=FACE_BOUND('',#845,.T.);
#906=FACE_BOUND('',#846,.T.);
#907=FACE_BOUND('',#847,.T.);
#908=FACE_BOUND('',#848,.T.);
#909=FACE_BOUND('',#849,.T.);
#910=FACE_BOUND('',#850,.T.);
#911=FACE_BOUND('',#851,.T.);
#912=FACE_BOUND('',#852,.T.);
#913=PLANE('',#1007);
#914=PLANE('',#1008);
#915=PLANE('',#1012);
#916=PLANE('',#1013);
#917=PLANE('',#1014);
#918=PLANE('',#1016);
#919=PLANE('',#1020);
#920=PLANE('',#1022);
#921=PLANE('',#1024);
#922=PLANE('',#1028);
#923=PLANE('',#1030);
#924=PLANE('',#1033);
#925=PLANE('',#1035);
#926=PLANE('',#1036);
#927=PLANE('',#1038);
#928=PLANE('',#1040);
#929=PLANE('',#1043);
#930=PLANE('',#1061);
#931=PLANE('',#1117);
#932=PLANE('',#1118);
#933=PLANE('',#1119);
#934=ADVANCED_FACE('',(#853),#913,.T.);
#935=ADVANCED_FACE('',(#854),#914,.F.);
#936=ADVANCED_FACE('',(#855),#915,.F.);
#937=ADVANCED_FACE('',(#856),#916,.T.);
#938=ADVANCED_FACE('',(#857),#917,.T.);
#939=ADVANCED_FACE('',(#858),#918,.F.);
#940=ADVANCED_FACE('',(#859),#919,.T.);
#941=ADVANCED_FACE('',(#860),#920,.F.);
#942=ADVANCED_FACE('',(#861),#921,.F.);
#943=ADVANCED_FACE('',(#862),#922,.F.);
#944=ADVANCED_FACE('',(#863),#923,.F.);
#945=ADVANCED_FACE('',(#864),#924,.T.);
#946=ADVANCED_FACE('',(#865),#925,.T.);
#947=ADVANCED_FACE('',(#866),#926,.T.);
#948=ADVANCED_FACE('',(#867),#927,.T.);
#949=ADVANCED_FACE('',(#868),#928,.F.);
#950=ADVANCED_FACE('',(#869),#929,.F.);
#951=ADVANCED_FACE('',(#870),#36,.T.);
#952=ADVANCED_FACE('',(#871),#37,.F.);
#953=ADVANCED_FACE('',(#872),#38,.F.);
#954=ADVANCED_FACE('',(#873),#39,.T.);
#955=ADVANCED_FACE('',(#874),#40,.T.);
#956=ADVANCED_FACE('',(#875),#41,.T.);
#957=ADVANCED_FACE('',(#876),#42,.T.);
#958=ADVANCED_FACE('',(#877),#43,.T.);
#959=ADVANCED_FACE('',(#878),#930,.F.);
#960=ADVANCED_FACE('',(#879),#44,.T.);
#961=ADVANCED_FACE('',(#880),#22,.T.);
#962=ADVANCED_FACE('',(#881),#20,.T.);
#963=ADVANCED_FACE('',(#882),#45,.T.);
#964=ADVANCED_FACE('',(#883),#46,.T.);
#965=ADVANCED_FACE('',(#884),#16,.T.);
#966=ADVANCED_FACE('',(#885),#17,.T.);
#967=ADVANCED_FACE('',(#886),#47,.T.);
#968=ADVANCED_FACE('',(#887),#18,.T.);
#969=ADVANCED_FACE('',(#888),#19,.T.);
#970=ADVANCED_FACE('',(#889),#48,.T.);
#971=ADVANCED_FACE('',(#890),#49,.T.);
#972=ADVANCED_FACE('',(#891),#23,.T.);
#973=ADVANCED_FACE('',(#892),#21,.T.);
#974=ADVANCED_FACE('',(#893),#50,.T.);
#975=ADVANCED_FACE('',(#894),#51,.T.);
#976=ADVANCED_FACE('',(#895),#52,.T.);
#977=ADVANCED_FACE('',(#896),#53,.T.);
#978=ADVANCED_FACE('',(#897),#54,.T.);
#979=ADVANCED_FACE('',(#898),#12,.F.);
#980=ADVANCED_FACE('',(#899),#13,.F.);
#981=ADVANCED_FACE('',(#900),#55,.F.);
#982=ADVANCED_FACE('',(#901),#56,.F.);
#983=ADVANCED_FACE('',(#902),#57,.F.);
#984=ADVANCED_FACE('',(#903),#14,.F.);
#985=ADVANCED_FACE('',(#904),#15,.F.);
#986=ADVANCED_FACE('',(#905),#931,.T.);
#987=ADVANCED_FACE('',(#906),#932,.T.);
#988=ADVANCED_FACE('',(#907),#933,.F.);
#989=ADVANCED_FACE('',(#908),#58,.T.);
#990=ADVANCED_FACE('',(#909),#59,.T.);
#991=ADVANCED_FACE('',(#910),#60,.T.);
#992=ADVANCED_FACE('',(#911),#61,.T.);
#993=ADVANCED_FACE('',(#912),#62,.T.);
#994=CLOSED_SHELL('',(#934,#935,#936,#937,#938,#939,#940,#941,#942,#943,
#944,#945,#946,#947,#948,#949,#950,#951,#952,#953,#954,#955,#956,#957,#958,
#959,#960,#961,#962,#963,#964,#965,#966,#967,#968,#969,#970,#971,#972,#973,
#974,#975,#976,#977,#978,#979,#980,#981,#982,#983,#984,#985,#986,#987,#988,
#989,#990,#991,#992,#993));
#995=STYLED_ITEM('',(#996),#1003);
#996=PRESENTATION_STYLE_ASSIGNMENT((#997));
#997=SURFACE_STYLE_USAGE(.BOTH.,#998);
#998=SURFACE_SIDE_STYLE('',(#999));
#999=SURFACE_STYLE_FILL_AREA(#1000);
#1000=FILL_AREA_STYLE('',(#1001));
#1001=FILL_AREA_STYLE_COLOUR('',#1002);
#1002=DRAUGHTING_PRE_DEFINED_COLOUR('red');
#1003=MANIFOLD_SOLID_BREP('Part 1',#994);
#1004=SHAPE_DEFINITION_REPRESENTATION(#1834,#1005);
#1005=SHAPE_REPRESENTATION('Part 1',(#1006),#1829);
#1006=AXIS2_PLACEMENT_3D('',#1439,#1127,#1128);
#1007=AXIS2_PLACEMENT_3D('',#1440,#1129,#1130);
#1008=AXIS2_PLACEMENT_3D('',#1449,#1135,#1136);
#1009=AXIS2_PLACEMENT_3D('',#1453,#1138,#1139);
#1010=AXIS2_PLACEMENT_3D('',#1455,#1140,#1141);
#1011=AXIS2_PLACEMENT_3D('',#1459,#1143,#1144);
#1012=AXIS2_PLACEMENT_3D('',#1460,#1145,#1146);
#1013=AXIS2_PLACEMENT_3D('',#1469,#1151,#1152);
#1014=AXIS2_PLACEMENT_3D('',#1478,#1157,#1158);
#1015=AXIS2_PLACEMENT_3D('',#1484,#1161,#1162);
#1016=AXIS2_PLACEMENT_3D('',#1485,#1163,#1164);
#1017=AXIS2_PLACEMENT_3D('',#1486,#1165,#1166);
#1018=AXIS2_PLACEMENT_3D('',#1491,#1168,#1169);
#1019=AXIS2_PLACEMENT_3D('',#1495,#1171,#1172);
#1020=AXIS2_PLACEMENT_3D('',#1500,#1175,#1176);
#1021=AXIS2_PLACEMENT_3D('',#1501,#1177,#1178);
#1022=AXIS2_PLACEMENT_3D('',#1510,#1183,#1184);
#1023=AXIS2_PLACEMENT_3D('',#1516,#1187,#1188);
#1024=AXIS2_PLACEMENT_3D('',#1523,#1192,#1193);
#1025=AXIS2_PLACEMENT_3D('',#1524,#1194,#1195);
#1026=AXIS2_PLACEMENT_3D('',#1527,#1196,#1197);
#1027=AXIS2_PLACEMENT_3D('',#1528,#1198,#1199);
#1028=AXIS2_PLACEMENT_3D('',#1531,#1201,#1202);
#1029=AXIS2_PLACEMENT_3D('',#1539,#1206,#1207);
#1030=AXIS2_PLACEMENT_3D('',#1542,#1209,#1210);
#1031=AXIS2_PLACEMENT_3D('',#1546,#1212,#1213);
#1032=AXIS2_PLACEMENT_3D('',#1554,#1217,#1218);
#1033=AXIS2_PLACEMENT_3D('',#1555,#1219,#1220);
#1034=AXIS2_PLACEMENT_3D('',#1565,#1225,#1226);
#1035=AXIS2_PLACEMENT_3D('',#1566,#1227,#1228);
#1036=AXIS2_PLACEMENT_3D('',#1575,#1233,#1234);
#1037=AXIS2_PLACEMENT_3D('',#1576,#1235,#1236);
#1038=AXIS2_PLACEMENT_3D('',#1582,#1239,#1240);
#1039=AXIS2_PLACEMENT_3D('',#1589,#1244,#1245);
#1040=AXIS2_PLACEMENT_3D('',#1590,#1246,#1247);
#1041=AXIS2_PLACEMENT_3D('',#1595,#1250,#1251);
#1042=AXIS2_PLACEMENT_3D('',#1596,#1252,#1253);
#1043=AXIS2_PLACEMENT_3D('',#1597,#1254,#1255);
#1044=AXIS2_PLACEMENT_3D('',#1601,#1258,#1259);
#1045=AXIS2_PLACEMENT_3D('',#1602,#1260,#1261);
#1046=AXIS2_PLACEMENT_3D('',#1616,#1262,#1263);
#1047=AXIS2_PLACEMENT_3D('',#1617,#1264,#1265);
#1048=AXIS2_PLACEMENT_3D('',#1618,#1266,#1267);
#1049=AXIS2_PLACEMENT_3D('',#1619,#1268,#1269);
#1050=AXIS2_PLACEMENT_3D('',#1620,#1270,#1271);
#1051=AXIS2_PLACEMENT_3D('',#1621,#1272,#1273);
#1052=AXIS2_PLACEMENT_3D('',#1631,#1274,#1275);
#1053=AXIS2_PLACEMENT_3D('',#1636,#1276,#1277);
#1054=AXIS2_PLACEMENT_3D('',#1637,#1278,#1279);
#1055=AXIS2_PLACEMENT_3D('',#1639,#1281,#1282);
#1056=AXIS2_PLACEMENT_3D('',#1640,#1283,#1284);
#1057=AXIS2_PLACEMENT_3D('',#1642,#1286,#1287);
#1058=AXIS2_PLACEMENT_3D('',#1648,#1288,#1289);
#1059=AXIS2_PLACEMENT_3D('',#1649,#1290,#1291);
#1060=AXIS2_PLACEMENT_3D('',#1655,#1292,#1293);
#1061=AXIS2_PLACEMENT_3D('',#1656,#1294,#1295);
#1062=AXIS2_PLACEMENT_3D('',#1662,#1298,#1299);
#1063=AXIS2_PLACEMENT_3D('',#1666,#1301,#1302);
#1064=AXIS2_PLACEMENT_3D('',#1670,#1304,#1305);
#1065=AXIS2_PLACEMENT_3D('',#1671,#1306,#1307);
#1066=AXIS2_PLACEMENT_3D('',#1672,#1308,#1309);
#1067=AXIS2_PLACEMENT_3D('',#1673,#1310,#1311);
#1068=AXIS2_PLACEMENT_3D('',#1674,#1312,#1313);
#1069=AXIS2_PLACEMENT_3D('',#1675,#1314,#1315);
#1070=AXIS2_PLACEMENT_3D('',#1676,#1316,#1317);
#1071=AXIS2_PLACEMENT_3D('',#1677,#1318,#1319);
#1072=AXIS2_PLACEMENT_3D('',#1678,#1320,#1321);
#1073=AXIS2_PLACEMENT_3D('',#1679,#1322,#1323);
#1074=AXIS2_PLACEMENT_3D('',#1680,#1324,#1325);
#1075=AXIS2_PLACEMENT_3D('',#1681,#1326,#1327);
#1076=AXIS2_PLACEMENT_3D('',#1682,#1328,#1329);
#1077=AXIS2_PLACEMENT_3D('',#1683,#1330,#1331);
#1078=AXIS2_PLACEMENT_3D('',#1684,#1332,#1333);
#1079=AXIS2_PLACEMENT_3D('',#1685,#1334,#1335);
#1080=AXIS2_PLACEMENT_3D('',#1686,#1336,#1337);
#1081=AXIS2_PLACEMENT_3D('',#1687,#1338,#1339);
#1082=AXIS2_PLACEMENT_3D('',#1688,#1340,#1341);
#1083=AXIS2_PLACEMENT_3D('',#1689,#1342,#1343);
#1084=AXIS2_PLACEMENT_3D('',#1690,#1344,#1345);
#1085=AXIS2_PLACEMENT_3D('',#1691,#1346,#1347);
#1086=AXIS2_PLACEMENT_3D('',#1692,#1348,#1349);
#1087=AXIS2_PLACEMENT_3D('',#1693,#1350,#1351);
#1088=AXIS2_PLACEMENT_3D('',#1694,#1352,#1353);
#1089=AXIS2_PLACEMENT_3D('',#1695,#1354,#1355);
#1090=AXIS2_PLACEMENT_3D('',#1696,#1356,#1357);
#1091=AXIS2_PLACEMENT_3D('',#1697,#1358,#1359);
#1092=AXIS2_PLACEMENT_3D('',#1698,#1360,#1361);
#1093=AXIS2_PLACEMENT_3D('',#1699,#1362,#1363);
#1094=AXIS2_PLACEMENT_3D('',#1700,#1364,#1365);
#1095=AXIS2_PLACEMENT_3D('',#1701,#1366,#1367);
#1096=AXIS2_PLACEMENT_3D('',#1702,#1368,#1369);
#1097=AXIS2_PLACEMENT_3D('',#1703,#1370,#1371);
#1098=AXIS2_PLACEMENT_3D('',#1705,#1372,#1373);
#1099=AXIS2_PLACEMENT_3D('',#1707,#1374,#1375);
#1100=AXIS2_PLACEMENT_3D('',#1708,#1376,#1377);
#1101=AXIS2_PLACEMENT_3D('',#1722,#1380,#1381);
#1102=AXIS2_PLACEMENT_3D('',#1723,#1382,#1383);
#1103=AXIS2_PLACEMENT_3D('',#1724,#1384,#1385);
#1104=AXIS2_PLACEMENT_3D('',#1726,#1386,#1387);
#1105=AXIS2_PLACEMENT_3D('',#1727,#1388,#1389);
#1106=AXIS2_PLACEMENT_3D('',#1728,#1390,#1391);
#1107=AXIS2_PLACEMENT_3D('',#1729,#1392,#1393);
#1108=AXIS2_PLACEMENT_3D('',#1745,#1394,#1395);
#1109=AXIS2_PLACEMENT_3D('',#1758,#1396,#1397);
#1110=AXIS2_PLACEMENT_3D('',#1759,#1398,#1399);
#1111=AXIS2_PLACEMENT_3D('',#1760,#1400,#1401);
#1112=AXIS2_PLACEMENT_3D('',#1761,#1402,#1403);
#1113=AXIS2_PLACEMENT_3D('',#1762,#1404,#1405);
#1114=AXIS2_PLACEMENT_3D('',#1763,#1406,#1407);
#1115=AXIS2_PLACEMENT_3D('',#1764,#1408,#1409);
#1116=AXIS2_PLACEMENT_3D('',#1777,#1410,#1411);
#1117=AXIS2_PLACEMENT_3D('',#1793,#1412,#1413);
#1118=AXIS2_PLACEMENT_3D('',#1799,#1417,#1418);
#1119=AXIS2_PLACEMENT_3D('',#1801,#1420,#1421);
#1120=AXIS2_PLACEMENT_3D('',#1803,#1423,#1424);
#1121=AXIS2_PLACEMENT_3D('',#1806,#1426,#1427);
#1122=AXIS2_PLACEMENT_3D('',#1807,#1428,#1429);
#1123=AXIS2_PLACEMENT_3D('',#1816,#1430,#1431);
#1124=AXIS2_PLACEMENT_3D('',#1824,#1432,#1433);
#1125=AXIS2_PLACEMENT_3D('',#1826,#1435,#1436);
#1126=AXIS2_PLACEMENT_3D('',#1827,#1437,#1438);
#1127=DIRECTION('',(0.,0.,1.));
#1128=DIRECTION('',(1.,0.,0.));
#1129=DIRECTION('',(0.,0.,1.));
#1130=DIRECTION('',(0.,-1.,0.));
#1131=DIRECTION('',(0.,-1.,0.));
#1132=DIRECTION('',(1.,0.,0.));
#1133=DIRECTION('',(5.9818050895752E-17,-1.,0.));
#1134=DIRECTION('',(1.,0.,0.));
#1135=DIRECTION('',(0.,1.,0.));
#1136=DIRECTION('',(1.,0.,0.));
#1137=DIRECTION('',(0.,0.,1.));
#1138=DIRECTION('',(0.,1.,0.));
#1139=DIRECTION('',(1.,0.,0.));
#1140=DIRECTION('',(0.,1.,0.));
#1141=DIRECTION('',(1.,0.,0.));
#1142=DIRECTION('',(0.,0.,1.));
#1143=DIRECTION('',(0.,1.,0.));
#1144=DIRECTION('',(1.,0.,0.));
#1145=DIRECTION('',(0.,0.,1.));
#1146=DIRECTION('',(0.,-1.,0.));
#1147=DIRECTION('',(1.,0.,0.));
#1148=DIRECTION('',(0.,-1.,0.));
#1149=DIRECTION('',(-1.,0.,0.));
#1150=DIRECTION('',(0.,-1.,0.));
#1151=DIRECTION('',(0.,0.,1.));
#1152=DIRECTION('',(0.,-1.,0.));
#1153=DIRECTION('',(5.9818050895752E-17,-1.,0.));
#1154=DIRECTION('',(1.,0.,0.));
#1155=DIRECTION('',(0.,-1.,0.));
#1156=DIRECTION('',(1.,0.,0.));
#1157=DIRECTION('',(0.,0.707106781186547,0.707106781186548));
#1158=DIRECTION('',(-1.,0.,0.));
#1159=DIRECTION('',(-1.,0.,0.));
#1160=DIRECTION('',(0.577350269189627,-0.577350269189626,0.577350269189625));
#1161=DIRECTION('',(0.,0.707106781186547,0.707106781186548));
#1162=DIRECTION('',(-8.45954988514965E-17,0.707106781186548,-0.707106781186547));
#1163=DIRECTION('',(0.,-1.,0.));
#1164=DIRECTION('',(-1.,0.,0.));
#1165=DIRECTION('',(0.,-1.,0.));
#1166=DIRECTION('',(-1.,0.,0.));
#1167=DIRECTION('',(-1.,0.,0.));
#1168=DIRECTION('',(0.,-1.,0.));
#1169=DIRECTION('',(-1.,0.,0.));
#1170=DIRECTION('',(0.,0.,1.));
#1171=DIRECTION('',(0.,-1.,0.));
#1172=DIRECTION('',(-1.,0.,0.));
#1173=DIRECTION('',(1.,0.,0.));
#1174=DIRECTION('',(0.,0.,-1.));
#1175=DIRECTION('',(1.,0.,0.));
#1176=DIRECTION('',(0.,-1.,0.));
#1177=DIRECTION('',(1.,0.,0.));
#1178=DIRECTION('',(0.,-1.,0.));
#1179=DIRECTION('',(0.,-1.,0.));
#1180=DIRECTION('',(0.,-1.,0.));
#1181=DIRECTION('',(0.,0.,-1.));
#1182=DIRECTION('',(0.,-1.,0.));
#1183=DIRECTION('',(1.,0.,0.));
#1184=DIRECTION('',(0.,-1.,0.));
#1185=DIRECTION('',(0.,0.,1.));
#1186=DIRECTION('',(0.,-1.,0.));
#1187=DIRECTION('',(1.,0.,0.));
#1188=DIRECTION('',(0.,-1.,0.));
#1189=DIRECTION('',(0.,-1.,0.));
#1190=DIRECTION('',(0.,0.,-1.));
#1191=DIRECTION('',(0.,-1.,0.));
#1192=DIRECTION('',(0.,1.,0.));
#1193=DIRECTION('',(1.,0.,0.));
#1194=DIRECTION('',(0.,1.,0.));
#1195=DIRECTION('',(1.,0.,0.));
#1196=DIRECTION('',(0.,1.,0.));
#1197=DIRECTION('',(1.,0.,0.));
#1198=DIRECTION('',(0.,1.,0.));
#1199=DIRECTION('',(1.,0.,0.));
#1200=DIRECTION('',(0.,0.,1.));
#1201=DIRECTION('',(-1.,-5.9818050895752E-17,0.));
#1202=DIRECTION('',(-5.9818050895752E-17,1.,0.));
#1203=DIRECTION('',(5.9818050895752E-17,-1.,0.));
#1204=DIRECTION('',(0.,0.,1.));
#1205=DIRECTION('',(5.9818050895752E-17,-1.,0.));
#1206=DIRECTION('',(-1.,-5.9818050895752E-17,0.));
#1207=DIRECTION('',(-4.22977494257483E-17,0.707106781186548,-0.707106781186547));
#1208=DIRECTION('',(0.,0.,-1.));
#1209=DIRECTION('',(0.,-1.,0.));
#1210=DIRECTION('',(-1.,0.,0.));
#1211=DIRECTION('',(1.,0.,0.));
#1212=DIRECTION('',(0.,-1.,0.));
#1213=DIRECTION('',(0.707106781186549,0.,-0.707106781186547));
#1214=DIRECTION('',(0.,0.,-1.));
#1215=DIRECTION('',(-1.,0.,0.));
#1216=DIRECTION('',(0.,0.,-1.));
#1217=DIRECTION('',(0.,-1.,0.));
#1218=DIRECTION('',(-0.707106781186549,0.,-0.707106781186547));
#1219=DIRECTION('',(-1.,-5.9818050895752E-17,0.));
#1220=DIRECTION('',(-5.9818050895752E-17,1.,0.));
#1221=DIRECTION('',(5.9818050895752E-17,-1.,0.));
#1222=DIRECTION('',(0.,0.,1.));
#1223=DIRECTION('',(5.9818050895752E-17,-1.,0.));
#1224=DIRECTION('',(0.,0.,1.));
#1225=DIRECTION('',(-1.,-5.9818050895752E-17,0.));
#1226=DIRECTION('',(-4.22977494257483E-17,0.707106781186548,-0.707106781186547));
#1227=DIRECTION('',(0.,0.,1.));
#1228=DIRECTION('',(1.,0.,0.));
#1229=DIRECTION('',(5.9818050895752E-17,-1.,0.));
#1230=DIRECTION('',(1.,0.,0.));
#1231=DIRECTION('',(5.9818050895752E-17,-1.,0.));
#1232=DIRECTION('',(1.,0.,0.));
#1233=DIRECTION('',(0.,0.707106781186547,0.707106781186548));
#1234=DIRECTION('',(-1.,0.,0.));
#1235=DIRECTION('',(0.,0.707106781186547,0.707106781186548));
#1236=DIRECTION('',(8.45954988514965E-17,-0.707106781186548,0.707106781186547));
#1237=DIRECTION('',(-0.577350269189627,-0.577350269189626,0.577350269189625));
#1238=DIRECTION('',(-1.,0.,0.));
#1239=DIRECTION('',(0.707106781186547,0.707106781186548,0.));
#1240=DIRECTION('',(0.,0.,-1.));
#1241=DIRECTION('',(-0.577350269189627,0.577350269189626,-0.577350269189625));
#1242=DIRECTION('',(0.,0.,1.));
#1243=DIRECTION('',(0.577350269189626,-0.577350269189625,0.577350269189626));
#1244=DIRECTION('',(0.707106781186547,0.707106781186548,0.));
#1245=DIRECTION('',(0.707106781186548,-0.707106781186547,0.));
#1246=DIRECTION('',(0.,-0.707106781186548,-0.707106781186547));
#1247=DIRECTION('',(1.,0.,0.));
#1248=DIRECTION('',(-1.,0.,0.));
#1249=DIRECTION('',(0.577350269189626,0.577350269189625,-0.577350269189626));
#1250=DIRECTION('',(0.,-0.707106781186548,-0.707106781186547));
#1251=DIRECTION('',(-8.45954988514966E-17,0.707106781186547,-0.707106781186548));
#1252=DIRECTION('',(0.,-0.707106781186548,-0.707106781186547));
#1253=DIRECTION('',(8.45954988514966E-17,-0.707106781186547,0.707106781186548));
#1254=DIRECTION('',(0.707106781186547,-0.707106781186548,0.));
#1255=DIRECTION('',(0.,0.,1.));
#1256=DIRECTION('',(0.,0.,-1.));
#1257=DIRECTION('',(-0.577350269189627,-0.577350269189626,0.577350269189625));
#1258=DIRECTION('',(0.707106781186547,-0.707106781186548,0.));
#1259=DIRECTION('',(0.707106781186548,0.707106781186547,0.));
#1260=DIRECTION('',(-5.9818050895752E-17,1.,0.));
#1261=DIRECTION('',(1.,5.9818050895752E-17,0.));
#1262=DIRECTION('',(0.,-1.,0.));
#1263=DIRECTION('',(-1.,0.,0.));
#1264=DIRECTION('',(5.9818050895752E-17,-1.,0.));
#1265=DIRECTION('',(-1.,-5.9818050895752E-17,0.));
#1266=DIRECTION('',(0.,-1.,0.));
#1267=DIRECTION('',(-1.,0.,0.));
#1268=DIRECTION('',(-5.9818050895752E-17,1.,0.));
#1269=DIRECTION('',(1.,5.9818050895752E-17,0.));
#1270=DIRECTION('',(0.,-1.,0.));
#1271=DIRECTION('',(-1.,0.,0.));
#1272=DIRECTION('',(5.9818050895752E-17,-1.,0.));
#1273=DIRECTION('',(-1.,-5.9818050895752E-17,0.));
#1274=DIRECTION('',(0.,-1.,0.));
#1275=DIRECTION('',(-1.,0.,0.));
#1276=DIRECTION('',(0.,1.,0.));
#1277=DIRECTION('',(1.,0.,0.));
#1278=DIRECTION('',(0.,-1.,0.));
#1279=DIRECTION('',(-1.,0.,0.));
#1280=DIRECTION('',(0.,-1.,0.));
#1281=DIRECTION('',(0.,-1.,0.));
#1282=DIRECTION('',(-1.,0.,0.));
#1283=DIRECTION('',(0.,-1.,0.));
#1284=DIRECTION('',(-1.,0.,0.));
#1285=DIRECTION('',(0.,-1.,0.));
#1286=DIRECTION('',(0.,1.,0.));
#1287=DIRECTION('',(1.,0.,0.));
#1288=DIRECTION('',(0.,1.,0.));
#1289=DIRECTION('',(1.,0.,0.));
#1290=DIRECTION('',(0.,-1.,0.));
#1291=DIRECTION('',(-1.,0.,0.));
#1292=DIRECTION('',(0.,-1.,0.));
#1293=DIRECTION('',(-1.,0.,0.));
#1294=DIRECTION('',(0.,-1.,0.));
#1295=DIRECTION('',(-1.,0.,0.));
#1296=DIRECTION('',(0.,0.,-1.));
#1297=DIRECTION('',(1.,0.,0.));
#1298=DIRECTION('',(0.,-1.,0.));
#1299=DIRECTION('',(-1.,0.,0.));
#1300=DIRECTION('',(0.,0.,1.));
#1301=DIRECTION('',(0.,-1.,0.));
#1302=DIRECTION('',(-1.,0.,0.));
#1303=DIRECTION('',(-1.,0.,0.));
#1304=DIRECTION('',(0.,-1.,0.));
#1305=DIRECTION('',(-1.,0.,0.));
#1306=DIRECTION('',(-1.,0.,0.));
#1307=DIRECTION('',(0.,1.,0.));
#1308=DIRECTION('',(-1.,0.,0.));
#1309=DIRECTION('',(0.,1.,0.));
#1310=DIRECTION('',(1.,0.,0.));
#1311=DIRECTION('',(0.,-1.,0.));
#1312=DIRECTION('',(0.,-1.,0.));
#1313=DIRECTION('',(-1.,0.,0.));
#1314=DIRECTION('',(0.,0.,-1.));
#1315=DIRECTION('',(0.,1.,0.));
#1316=DIRECTION('',(0.,-1.,0.));
#1317=DIRECTION('',(-1.,0.,0.));
#1318=DIRECTION('',(0.,0.,-1.));
#1319=DIRECTION('',(0.,1.,0.));
#1320=DIRECTION('',(0.,0.,1.));
#1321=DIRECTION('',(0.,-1.,0.));
#1322=DIRECTION('',(0.,0.,-1.));
#1323=DIRECTION('',(0.,1.,0.));
#1324=DIRECTION('',(0.,0.,-1.));
#1325=DIRECTION('',(0.,1.,0.));
#1326=DIRECTION('',(0.,0.,-1.));
#1327=DIRECTION('',(0.,1.,0.));
#1328=DIRECTION('',(0.,-1.,0.));
#1329=DIRECTION('',(-1.,0.,0.));
#1330=DIRECTION('',(-1.,0.,0.));
#1331=DIRECTION('',(0.,1.,0.));
#1332=DIRECTION('',(0.,-1.,0.));
#1333=DIRECTION('',(-1.,0.,0.));
#1334=DIRECTION('',(-1.,0.,0.));
#1335=DIRECTION('',(0.,1.,0.));
#1336=DIRECTION('',(-1.,0.,0.));
#1337=DIRECTION('',(0.,1.,0.));
#1338=DIRECTION('',(-1.,0.,0.));
#1339=DIRECTION('',(0.,1.,0.));
#1340=DIRECTION('',(-1.,0.,0.));
#1341=DIRECTION('',(0.,1.,0.));
#1342=DIRECTION('',(0.,-1.,0.));
#1343=DIRECTION('',(-1.,0.,0.));
#1344=DIRECTION('',(0.,0.,1.));
#1345=DIRECTION('',(0.,-1.,0.));
#1346=DIRECTION('',(0.,-1.,0.));
#1347=DIRECTION('',(-1.,0.,0.));
#1348=DIRECTION('',(0.,0.,1.));
#1349=DIRECTION('',(0.,-1.,0.));
#1350=DIRECTION('',(0.,0.,-1.));
#1351=DIRECTION('',(0.,1.,0.));
#1352=DIRECTION('',(0.,0.,1.));
#1353=DIRECTION('',(0.,-1.,0.));
#1354=DIRECTION('',(0.,0.,1.));
#1355=DIRECTION('',(0.,-1.,0.));
#1356=DIRECTION('',(0.,0.,1.));
#1357=DIRECTION('',(0.,-1.,0.));
#1358=DIRECTION('',(0.,-1.,0.));
#1359=DIRECTION('',(-1.,0.,0.));
#1360=DIRECTION('',(1.,0.,0.));
#1361=DIRECTION('',(0.,-1.,0.));
#1362=DIRECTION('',(0.,-1.,0.));
#1363=DIRECTION('',(-1.,0.,0.));
#1364=DIRECTION('',(-1.,1.73472347597681E-15,1.73472347597681E-15));
#1365=DIRECTION('',(1.73472347597681E-15,0.,1.));
#1366=DIRECTION('',(-1.,0.,0.));
#1367=DIRECTION('',(0.,1.,0.));
#1368=DIRECTION('',(0.577350269189627,0.577350269189626,-0.577350269189625));
#1369=DIRECTION('',(0.707106781186547,-0.707106781186548,0.));
#1370=DIRECTION('',(-0.22325822887438,0.948847472716111,0.223258228874379));
#1371=DIRECTION('',(0.670936482269281,0.315734815185544,-0.670936482269279));
#1372=DIRECTION('',(0.997108449437051,0.0537342537923482,-0.0537342537923481));
#1373=DIRECTION('',(-0.0759917104771367,0.705062146175343,-0.705062146175342));
#1374=DIRECTION('',(-0.459700843380983,0.627963030199555,-0.627963030199554));
#1375=DIRECTION('',(0.888073833977116,0.325057583671868,-0.325057583671867));
#1376=DIRECTION('',(-1.,0.,0.));
#1377=DIRECTION('',(0.,1.,0.));
#1378=DIRECTION('',(1.,0.,0.));
#1379=DIRECTION('',(-1.,0.,0.));
#1380=DIRECTION('',(0.459700843380983,0.627963030199555,-0.627963030199554));
#1381=DIRECTION('',(-0.888073833977116,0.325057583671868,-0.325057583671867));
#1382=DIRECTION('',(-0.577350269189627,0.577350269189626,-0.577350269189625));
#1383=DIRECTION('',(0.707106781186547,0.707106781186548,0.));
#1384=DIRECTION('',(0.99710844943705,-0.0537342537923481,0.0537342537923481));
#1385=DIRECTION('',(-0.0759917104771366,-0.705062146175343,0.705062146175342));
#1386=DIRECTION('',(0.22325822887438,0.948847472716111,0.223258228874379));
#1387=DIRECTION('',(-0.670936482269281,0.315734815185544,-0.670936482269279));
#1388=DIRECTION('',(-1.,0.,0.));
#1389=DIRECTION('',(0.,1.,0.));
#1390=DIRECTION('',(0.637727803477164,0.544657345802016,-0.544657345802015));
#1391=DIRECTION('',(-0.770261805279342,0.450941654389905,-0.450941654389904));
#1392=DIRECTION('',(0.637727803477164,-0.544657345802015,0.544657345802015));
#1393=DIRECTION('',(-0.770261805279342,-0.450941654389905,0.450941654389904));
#1394=DIRECTION('',(-0.34372376933344,6.14095528945717E-17,0.939070801588044));
#1395=DIRECTION('',(0.939070801588044,0.,0.34372376933344));
#1396=DIRECTION('',(-1.26331418294385E-16,1.57992249134468E-31,1.));
#1397=DIRECTION('',(1.,0.,1.26331418294385E-16));
#1398=DIRECTION('',(0.,0.,1.));
#1399=DIRECTION('',(0.,-1.,0.));
#1400=DIRECTION('',(-0.707106781186548,0.,0.707106781186548));
#1401=DIRECTION('',(0.707106781186548,0.,0.707106781186548));
#1402=DIRECTION('',(1.,0.,0.));
#1403=DIRECTION('',(0.,-1.,0.));
#1404=DIRECTION('',(0.707106781186548,0.,0.707106781186548));
#1405=DIRECTION('',(-0.707106781186548,0.,0.707106781186548));
#1406=DIRECTION('',(0.,0.,1.));
#1407=DIRECTION('',(0.,-1.,0.));
#1408=DIRECTION('',(-2.67989407658622E-16,-2.67989407658622E-16,-1.));
#1409=DIRECTION('',(-1.,0.,2.67989407658622E-16));
#1410=DIRECTION('',(-0.34372376933344,-9.21143293418575E-17,-0.939070801588044));
#1411=DIRECTION('',(-0.939070801588044,0.,0.34372376933344));
#1412=DIRECTION('',(0.,-1.,0.));
#1413=DIRECTION('',(-1.,0.,0.));
#1414=DIRECTION('',(0.,0.,1.));
#1415=DIRECTION('',(1.,0.,0.));
#1416=DIRECTION('',(0.,0.,1.));
#1417=DIRECTION('',(1.,0.,0.));
#1418=DIRECTION('',(0.,-1.,0.));
#1419=DIRECTION('',(0.,1.,0.));
#1420=DIRECTION('',(1.,0.,0.));
#1421=DIRECTION('',(0.,-1.,0.));
#1422=DIRECTION('',(0.,1.,0.));
#1423=DIRECTION('',(0.,-1.,0.));
#1424=DIRECTION('',(-1.,0.,0.));
#1425=DIRECTION('',(0.,-1.,0.));
#1426=DIRECTION('',(0.707106781186548,-0.707106781186548,0.));
#1427=DIRECTION('',(0.707106781186548,0.707106781186548,0.));
#1428=DIRECTION('',(1.,0.,0.));
#1429=DIRECTION('',(0.,-1.,0.));
#1430=DIRECTION('',(0.707106781186548,0.707106781186548,0.));
#1431=DIRECTION('',(0.707106781186548,-0.707106781186548,0.));
#1432=DIRECTION('',(0.,1.,0.));
#1433=DIRECTION('',(1.,0.,0.));
#1434=DIRECTION('',(0.,1.,0.));
#1435=DIRECTION('',(0.,1.,0.));
#1436=DIRECTION('',(1.,0.,0.));
#1437=DIRECTION('',(0.,-1.,0.));
#1438=DIRECTION('',(-1.,0.,0.));
#1439=CARTESIAN_POINT('',(0.,0.,0.));
#1440=CARTESIAN_POINT('',(0.,0.045,0.009));
#1441=CARTESIAN_POINT('',(-0.009,0.,0.009));
#1442=CARTESIAN_POINT('',(-0.009,0.028,0.009));
#1443=CARTESIAN_POINT('',(-0.009,0.01485483,0.009));
#1444=CARTESIAN_POINT('',(0.,0.01485483,0.009));
#1445=CARTESIAN_POINT('',(-0.0083,0.01485483,0.009));
#1446=CARTESIAN_POINT('',(-0.0083,0.045,0.009));
#1447=CARTESIAN_POINT('',(-0.0083,0.028,0.009));
#1448=CARTESIAN_POINT('',(-0.009,0.028,0.009));
#1449=CARTESIAN_POINT('',(0.,0.,0.));
#1450=CARTESIAN_POINT('',(0.01,0.,0.));
#1451=CARTESIAN_POINT('',(0.01,0.,-0.0067));
#1452=CARTESIAN_POINT('',(0.01,0.,0.00700010012173679));
#1453=CARTESIAN_POINT('',(0.0094,0.,0.00700010012173679));
#1454=CARTESIAN_POINT('',(0.00895511783079465,0.,0.00740269154678598));
#1455=CARTESIAN_POINT('',(0.01255483,0.,0.00414517));
#1456=CARTESIAN_POINT('',(0.0077,0.,0.00414517));
#1457=CARTESIAN_POINT('',(0.0077,0.,-0.016));
#1458=CARTESIAN_POINT('',(0.0077,0.,-0.009));
#1459=CARTESIAN_POINT('',(0.0077,0.,-0.0067));
#1460=CARTESIAN_POINT('',(0.,0.045,-0.009));
#1461=CARTESIAN_POINT('',(0.,0.01,-0.009));
#1462=CARTESIAN_POINT('',(-0.0077,0.01,-0.009));
#1463=CARTESIAN_POINT('',(0.0077,0.01,-0.009));
#1464=CARTESIAN_POINT('',(-0.0077,0.045,-0.009));
#1465=CARTESIAN_POINT('',(-0.0077,0.028,-0.009));
#1466=CARTESIAN_POINT('',(0.,0.028,-0.009));
#1467=CARTESIAN_POINT('',(0.0077,0.028,-0.009));
#1468=CARTESIAN_POINT('',(0.0077,0.,-0.009));
#1469=CARTESIAN_POINT('',(0.,0.045,0.009));
#1470=CARTESIAN_POINT('',(0.0083,0.045,0.009));
#1471=CARTESIAN_POINT('',(0.0083,0.028,0.009));
#1472=CARTESIAN_POINT('',(0.0083,0.01485483,0.009));
#1473=CARTESIAN_POINT('',(0.,0.01485483,0.009));
#1474=CARTESIAN_POINT('',(0.009,0.01485483,0.009));
#1475=CARTESIAN_POINT('',(0.009,0.045,0.009));
#1476=CARTESIAN_POINT('',(0.009,0.028,0.009));
#1477=CARTESIAN_POINT('',(0.0083,0.028,0.009));
#1478=CARTESIAN_POINT('',(1.7347234759768E-18,0.016,0.007));
#1479=CARTESIAN_POINT('',(1.7347234759768E-18,0.0150664597538628,0.00793354024613727));
#1480=CARTESIAN_POINT('',(-0.00672246180505056,0.0150664597538628,0.00793354024613727));
#1481=CARTESIAN_POINT('',(-0.00624112135536322,0.0150664597538628,0.00793354024613727));
#1482=CARTESIAN_POINT('',(-0.00831644106766699,0.0171417794661665,0.0058582205338335));
#1483=CARTESIAN_POINT('',(-0.00661929019600233,0.0154446285945019,0.00755537140549817));
#1484=CARTESIAN_POINT('',(-0.0083,0.0157,0.0073));
#1485=CARTESIAN_POINT('',(0.000165983498330101,0.029,0.016));
#1486=CARTESIAN_POINT('',(0.0077,0.029,-0.0067));
#1487=CARTESIAN_POINT('',(0.009,0.029,-0.0067));
#1488=CARTESIAN_POINT('',(0.0077,0.029,-0.008));
#1489=CARTESIAN_POINT('',(0.000165983498330101,0.029,-0.008));
#1490=CARTESIAN_POINT('',(0.0049,0.029,-0.008));
#1491=CARTESIAN_POINT('',(0.0049,0.029,-0.0053));
#1492=CARTESIAN_POINT('',(0.0076,0.029,-0.0053));
#1493=CARTESIAN_POINT('',(0.0076,0.029,0.0073));
#1494=CARTESIAN_POINT('',(0.0076,0.029,0.0073));
#1495=CARTESIAN_POINT('',(0.0083,0.029,0.0073));
#1496=CARTESIAN_POINT('',(0.0083,0.029,0.008));
#1497=CARTESIAN_POINT('',(0.009,0.029,0.008));
#1498=CARTESIAN_POINT('',(0.009,0.029,0.008));
#1499=CARTESIAN_POINT('',(0.009,0.029,-0.0067));
#1500=CARTESIAN_POINT('',(0.01,0.045,0.));
#1501=CARTESIAN_POINT('',(0.01,0.01485483,0.00414517));
#1502=CARTESIAN_POINT('',(0.01,0.0119036166901899,0.008));
#1503=CARTESIAN_POINT('',(0.01,0.0109281585942289,0.00700010012173679));
#1504=CARTESIAN_POINT('',(0.01,0.045,0.00700010012173679));
#1505=CARTESIAN_POINT('',(0.01,0.0433,-0.0067));
#1506=CARTESIAN_POINT('',(0.01,0.028,-0.0067));
#1507=CARTESIAN_POINT('',(0.01,0.028,0.008));
#1508=CARTESIAN_POINT('',(0.01,0.028,0.008));
#1509=CARTESIAN_POINT('',(0.01,0.045,0.008));
#1510=CARTESIAN_POINT('',(-0.01,0.045,0.));
#1511=CARTESIAN_POINT('',(-0.01,0.,0.));
#1512=CARTESIAN_POINT('',(-0.01,0.,-0.0067));
#1513=CARTESIAN_POINT('',(-0.01,0.,0.00700010012173679));
#1514=CARTESIAN_POINT('',(-0.01,0.045,0.00700010012173679));
#1515=CARTESIAN_POINT('',(-0.01,0.0109281585942289,0.00700010012173679));
#1516=CARTESIAN_POINT('',(-0.01,0.01485483,0.00414517));
#1517=CARTESIAN_POINT('',(-0.01,0.0119036166901899,0.008));
#1518=CARTESIAN_POINT('',(-0.01,0.0433,0.008));
#1519=CARTESIAN_POINT('',(-0.01,0.028,0.008));
#1520=CARTESIAN_POINT('',(-0.01,0.028,0.));
#1521=CARTESIAN_POINT('',(-0.01,0.028,-0.0067));
#1522=CARTESIAN_POINT('',(-0.01,0.045,-0.0067));
#1523=CARTESIAN_POINT('',(0.,0.,0.));
#1524=CARTESIAN_POINT('',(-0.01255483,0.,0.00414517));
#1525=CARTESIAN_POINT('',(-0.0077,0.,0.00414517));
#1526=CARTESIAN_POINT('',(-0.00895511783079465,0.,0.00740269154678598));
#1527=CARTESIAN_POINT('',(-0.0094,0.,0.00700010012173679));
#1528=CARTESIAN_POINT('',(-0.0077,0.,-0.0067));
#1529=CARTESIAN_POINT('',(-0.0077,0.,-0.009));
#1530=CARTESIAN_POINT('',(-0.0077,0.,-0.016));
#1531=CARTESIAN_POINT('',(-0.0066,0.0305,-0.007));
#1532=CARTESIAN_POINT('',(-0.0066,0.0305,-0.0053));
#1533=CARTESIAN_POINT('',(-0.0066,0.018,-0.0053));
#1534=CARTESIAN_POINT('',(-0.0066,0.028,-0.0053));
#1535=CARTESIAN_POINT('',(-0.0066,0.028,-0.007));
#1536=CARTESIAN_POINT('',(-0.0066,0.028,0.0073));
#1537=CARTESIAN_POINT('',(-0.0066,0.014,0.0073));
#1538=CARTESIAN_POINT('',(-0.0066,0.0156905573825208,0.0073));
#1539=CARTESIAN_POINT('',(-0.0066,0.012850676796999,0.005));
#1540=CARTESIAN_POINT('',(-0.0066,0.018,0.00242533839849953));
#1541=CARTESIAN_POINT('',(-0.0066,0.018,-0.007));
#1542=CARTESIAN_POINT('',(1.7347234759768E-18,0.016,-0.007));
#1543=CARTESIAN_POINT('',(0.0046,0.016,0.00549179815236225));
#1544=CARTESIAN_POINT('',(-0.00299846838087949,0.016,0.00549179815236225));
#1545=CARTESIAN_POINT('',(0.00299846838087949,0.016,0.00549179815236225));
#1546=CARTESIAN_POINT('',(0.0146041516768186,0.016,-0.00300415167681861));
#1547=CARTESIAN_POINT('',(0.00258906420314966,0.016,0.00300339206001587));
#1548=CARTESIAN_POINT('',(0.00258906420314966,0.016,-0.005));
#1549=CARTESIAN_POINT('',(0.00258906420314966,0.016,-0.00298906420314966));
#1550=CARTESIAN_POINT('',(-0.0046,0.016,-0.00298906420314966));
#1551=CARTESIAN_POINT('',(-0.00258906420314966,0.016,-0.00298906420314966));
#1552=CARTESIAN_POINT('',(-0.00258906420314966,0.016,0.00442533839849952));
#1553=CARTESIAN_POINT('',(-0.00258906420314966,0.016,0.00300339206001587));
#1554=CARTESIAN_POINT('',(-0.0146041516768186,0.016,-0.00300415167681861));
#1555=CARTESIAN_POINT('',(0.0066,0.0305,-0.007));
#1556=CARTESIAN_POINT('',(0.0066,0.0305,0.0073));
#1557=CARTESIAN_POINT('',(0.0066,0.0156905573825208,0.0073));
#1558=CARTESIAN_POINT('',(0.0066,0.028,0.0073));
#1559=CARTESIAN_POINT('',(0.0066,0.028,-0.0053));
#1560=CARTESIAN_POINT('',(0.0066,0.028,-0.0053));
#1561=CARTESIAN_POINT('',(0.0066,0.018,-0.0053));
#1562=CARTESIAN_POINT('',(0.0066,0.018,-0.0053));
#1563=CARTESIAN_POINT('',(0.0066,0.018,-0.007));
#1564=CARTESIAN_POINT('',(0.0066,0.018,0.00242533839849952));
#1565=CARTESIAN_POINT('',(0.0066,0.012850676796999,0.005));
#1566=CARTESIAN_POINT('',(0.,0.0225,-0.007));
#1567=CARTESIAN_POINT('',(0.0049,0.045,-0.007));
#1568=CARTESIAN_POINT('',(0.0049,0.018,-0.007));
#1569=CARTESIAN_POINT('',(0.0049,0.028,-0.007));
#1570=CARTESIAN_POINT('',(-0.0049,0.028,-0.007));
#1571=CARTESIAN_POINT('',(-0.0049,0.028,-0.007));
#1572=CARTESIAN_POINT('',(-0.0049,0.0225,-0.007));
#1573=CARTESIAN_POINT('',(-0.0049,0.018,-0.007));
#1574=CARTESIAN_POINT('',(0.,0.018,-0.007));
#1575=CARTESIAN_POINT('',(1.7347234759768E-18,0.016,0.007));
#1576=CARTESIAN_POINT('',(0.0083,0.0157,0.0073));
#1577=CARTESIAN_POINT('',(0.00672246180505057,0.0150664597538628,0.00793354024613727));
#1578=CARTESIAN_POINT('',(0.00661929019600233,0.0154446285945019,0.00755537140549817));
#1579=CARTESIAN_POINT('',(0.006316441067667,0.0151417794661665,0.0078582205338335));
#1580=CARTESIAN_POINT('',(0.00624112135536323,0.0150664597538628,0.00793354024613727));
#1581=CARTESIAN_POINT('',(1.7347234759768E-18,0.0150664597538628,0.00793354024613727));
#1582=CARTESIAN_POINT('',(-0.0046,0.016,-0.007));
#1583=CARTESIAN_POINT('',(-0.0037417794661665,0.0151417794661665,0.00528355893233301));
#1584=CARTESIAN_POINT('',(-0.00602194633848365,0.0174219463384837,0.00300339206001587));
#1585=CARTESIAN_POINT('',(-0.00602194633848365,0.0174219463384837,-0.005));
#1586=CARTESIAN_POINT('',(-0.00602194633848365,0.0174219463384837,-0.00642194633848365));
#1587=CARTESIAN_POINT('',(-0.0044,0.0158,-0.0048));
#1588=CARTESIAN_POINT('',(-0.00610208152801713,0.0175020815280172,-0.00650208152801713));
#1589=CARTESIAN_POINT('',(-0.0049,0.0163,-0.0053));
#1590=CARTESIAN_POINT('',(0.,0.018,-0.007));
#1591=CARTESIAN_POINT('',(0.0046,0.0174219463384837,-0.00642194633848365));
#1592=CARTESIAN_POINT('',(0.00602194633848366,0.0174219463384837,-0.00642194633848365));
#1593=CARTESIAN_POINT('',(0.0066,0.018,-0.007));
#1594=CARTESIAN_POINT('',(0.00610208152801713,0.0175020815280172,-0.00650208152801713));
#1595=CARTESIAN_POINT('',(0.0049,0.0163,-0.0053));
#1596=CARTESIAN_POINT('',(-0.0049,0.0163,-0.0053));
#1597=CARTESIAN_POINT('',(0.0066,0.018,-0.007));
#1598=CARTESIAN_POINT('',(0.00602194633848366,0.0174219463384837,0.00442533839849952));
#1599=CARTESIAN_POINT('',(0.00602194633848366,0.0174219463384837,0.00300339206001587));
#1600=CARTESIAN_POINT('',(0.00574177946616651,0.0171417794661665,0.00328355893233301));
#1601=CARTESIAN_POINT('',(0.0049,0.0163,-0.0053));
#1602=CARTESIAN_POINT('',(-0.0083,0.0305,0.0073));
#1603=CARTESIAN_POINT('',(-0.00756201659136624,0.0135867497784425,0.00883146351199802));
#1604=CARTESIAN_POINT('',(-0.00779824229007753,0.0140074278199755,0.00894529622493965));
#1605=CARTESIAN_POINT('',(-0.00804928408465413,0.0144311431032862,0.009));
#1606=CARTESIAN_POINT('',(-0.0083,0.01485483,0.009));
#1607=CARTESIAN_POINT('',(-0.00756201659136624,0.0135867497784425,0.00883146351199802));
#1608=CARTESIAN_POINT('',(-0.00672246180505056,0.0150664597538628,0.00793354024613727));
#1609=CARTESIAN_POINT('',(-0.0069017225657776,0.0146200939568565,0.00837990604314351));
#1610=CARTESIAN_POINT('',(-0.00722067971249118,0.0141084020377816,0.00866697970197502));
#1611=CARTESIAN_POINT('',(-0.00756201659136625,0.0135867497784425,0.00883146351199802));
#1612=CARTESIAN_POINT('',(-0.00661929019600233,0.0154446285945019,0.00755537140549817));
#1613=CARTESIAN_POINT('',(-0.0066066273252641,0.0155279684302794,0.00747203156972063));
#1614=CARTESIAN_POINT('',(-0.0066,0.0156097185875412,0.00738670492353692));
#1615=CARTESIAN_POINT('',(-0.0066,0.0156905573825208,0.0073));
#1616=CARTESIAN_POINT('',(-0.0083,0.028,0.0073));
#1617=CARTESIAN_POINT('',(-0.0049,0.0225,-0.0053));
#1618=CARTESIAN_POINT('',(-0.0049,0.028,-0.0053));
#1619=CARTESIAN_POINT('',(0.0049,0.0305,-0.0053));
#1620=CARTESIAN_POINT('',(0.0049,0.028,-0.0053));
#1621=CARTESIAN_POINT('',(0.0083,0.045,0.0073));
#1622=CARTESIAN_POINT('',(0.00672246180505057,0.0150664597538628,0.00793354024613727));
#1623=CARTESIAN_POINT('',(0.00690172256577761,0.0146200939568565,0.00837990604314351));
#1624=CARTESIAN_POINT('',(0.00722067971249119,0.0141084020377816,0.00866697970197503));
#1625=CARTESIAN_POINT('',(0.00756201659136625,0.0135867497784425,0.00883146351199802));
#1626=CARTESIAN_POINT('',(0.00756201659136625,0.0135867497784425,0.00883146351199802));
#1627=CARTESIAN_POINT('',(0.00756201659136625,0.0135867497784425,0.00883146351199802));
#1628=CARTESIAN_POINT('',(0.00779824229007754,0.0140074278199755,0.00894529622493965));
#1629=CARTESIAN_POINT('',(0.00804928408465441,0.014431143103286,0.009));
#1630=CARTESIAN_POINT('',(0.0083,0.01485483,0.009));
#1631=CARTESIAN_POINT('',(0.0083,0.028,0.0073));
#1632=CARTESIAN_POINT('',(0.0066,0.0156905573825208,0.0073));
#1633=CARTESIAN_POINT('',(0.0066,0.0156097185875412,0.00738670492353692));
#1634=CARTESIAN_POINT('',(0.0066066273252641,0.0155279684302794,0.00747203156972063));
#1635=CARTESIAN_POINT('',(0.00661929019600233,0.0154446285945019,0.00755537140549817));
#1636=CARTESIAN_POINT('',(0.0077,0.045,-0.0067));
#1637=CARTESIAN_POINT('',(0.0077,0.028,-0.0067));
#1638=CARTESIAN_POINT('',(0.0077,0.,-0.009));
#1639=CARTESIAN_POINT('',(-0.0077,0.045,-0.0067));
#1640=CARTESIAN_POINT('',(-0.0077,0.028,-0.0067));
#1641=CARTESIAN_POINT('',(-0.0077,0.045,-0.009));
#1642=CARTESIAN_POINT('',(-0.009,0.045,0.008));
#1643=CARTESIAN_POINT('',(-0.01,0.0119036166901899,0.008));
#1644=CARTESIAN_POINT('',(-0.01,0.0123518176766682,0.00834313749679356));
#1645=CARTESIAN_POINT('',(-0.00968963522142317,0.0133321493368791,0.00884448799965592));
#1646=CARTESIAN_POINT('',(-0.00922961586106487,0.0143489001222303,0.009));
#1647=CARTESIAN_POINT('',(-0.009,0.01485483,0.009));
#1648=CARTESIAN_POINT('',(-0.009,0.028,0.008));
#1649=CARTESIAN_POINT('',(0.009,0.045,0.008));
#1650=CARTESIAN_POINT('',(0.01,0.0119036166901899,0.008));
#1651=CARTESIAN_POINT('',(0.01,0.0123518176766682,0.00834313749679356));
#1652=CARTESIAN_POINT('',(0.00968963522142883,0.0133321493368817,0.00884448799965592));
#1653=CARTESIAN_POINT('',(0.00922961586105356,0.0143489001222252,0.009));
#1654=CARTESIAN_POINT('',(0.009,0.01485483,0.009));
#1655=CARTESIAN_POINT('',(0.009,0.028,0.008));
#1656=CARTESIAN_POINT('',(0.000165983498330101,0.029,0.016));
#1657=CARTESIAN_POINT('',(-0.009,0.029,0.016));
#1658=CARTESIAN_POINT('',(-0.009,0.029,-0.0067));
#1659=CARTESIAN_POINT('',(-0.009,0.029,0.008));
#1660=CARTESIAN_POINT('',(-0.0083,0.029,0.008));
#1661=CARTESIAN_POINT('',(-0.0083,0.029,0.008));
#1662=CARTESIAN_POINT('',(-0.0083,0.029,0.0073));
#1663=CARTESIAN_POINT('',(-0.0076,0.029,0.0073));
#1664=CARTESIAN_POINT('',(-0.0076,0.029,0.016));
#1665=CARTESIAN_POINT('',(-0.0076,0.029,-0.0053));
#1666=CARTESIAN_POINT('',(-0.0049,0.029,-0.0053));
#1667=CARTESIAN_POINT('',(-0.0049,0.029,-0.008));
#1668=CARTESIAN_POINT('',(0.000165983498330101,0.029,-0.008));
#1669=CARTESIAN_POINT('',(-0.0077,0.029,-0.008));
#1670=CARTESIAN_POINT('',(-0.0077,0.029,-0.0067));
#1671=CARTESIAN_POINT('',(0.000165983498330101,0.028,0.008));
#1672=CARTESIAN_POINT('',(0.0083,0.028,0.008));
#1673=CARTESIAN_POINT('',(0.009,0.028,0.008));
#1674=CARTESIAN_POINT('',(0.009,0.028,0.008));
#1675=CARTESIAN_POINT('',(0.009,0.028,0.008));
#1676=CARTESIAN_POINT('',(0.0083,0.028,0.0073));
#1677=CARTESIAN_POINT('',(0.0076,0.028,0.0073));
#1678=CARTESIAN_POINT('',(0.009,0.028,0.016));
#1679=CARTESIAN_POINT('',(0.009,0.028,-0.0067));
#1680=CARTESIAN_POINT('',(0.0076,0.028,0.016));
#1681=CARTESIAN_POINT('',(0.0076,0.028,-0.0053));
#1682=CARTESIAN_POINT('',(0.0077,0.028,-0.0067));
#1683=CARTESIAN_POINT('',(0.0077,0.028,-0.008));
#1684=CARTESIAN_POINT('',(0.0049,0.028,-0.0053));
#1685=CARTESIAN_POINT('',(0.0049,0.028,-0.008));
#1686=CARTESIAN_POINT('',(0.000165983498330101,0.028,-0.008));
#1687=CARTESIAN_POINT('',(-0.0049,0.028,-0.008));
#1688=CARTESIAN_POINT('',(-0.0077,0.028,-0.008));
#1689=CARTESIAN_POINT('',(-0.0077,0.028,-0.0067));
#1690=CARTESIAN_POINT('',(-0.009,0.028,-0.0067));
#1691=CARTESIAN_POINT('',(-0.0049,0.028,-0.0053));
#1692=CARTESIAN_POINT('',(-0.0076,0.028,-0.0053));
#1693=CARTESIAN_POINT('',(-0.009,0.028,0.));
#1694=CARTESIAN_POINT('',(-0.009,0.028,0.008));
#1695=CARTESIAN_POINT('',(-0.0076,0.028,-0.007));
#1696=CARTESIAN_POINT('',(-0.0076,0.028,0.0073));
#1697=CARTESIAN_POINT('',(-0.009,0.028,0.008));
#1698=CARTESIAN_POINT('',(-0.009,0.028,0.008));
#1699=CARTESIAN_POINT('',(-0.0083,0.028,0.0073));
#1700=CARTESIAN_POINT('',(-0.0083,0.028,0.008));
#1701=CARTESIAN_POINT('',(0.000165983498330101,0.028,0.008));
#1702=CARTESIAN_POINT('',(0.00478310773433366,0.0110337845313327,0.00681689226566634));
#1703=CARTESIAN_POINT('',(0.0146041516768186,0.0208548284738177,-0.00300415167681861));
#1704=CARTESIAN_POINT('',(0.00580140490710758,0.0170259459737948,0.00446585217856747));
#1705=CARTESIAN_POINT('',(0.00610820184763776,0.0123588786446368,0.00549179815236225));
#1706=CARTESIAN_POINT('',(0.00609946417675559,0.0150140874799819,0.00798486822425403));
#1707=CARTESIAN_POINT('',(0.00624112135536323,0.0124917981523622,0.00535887864463678));
#1708=CARTESIAN_POINT('',(0.,0.0124917981523622,0.00535887864463678));
#1709=CARTESIAN_POINT('',(-0.00756201659136624,0.0135867497784425,0.00883146351199802));
#1710=CARTESIAN_POINT('',(0.00609946417675557,0.0150140874799819,0.007984868224254));
#1711=CARTESIAN_POINT('',(0.00606703853293677,0.0150019798047388,0.00799649776775443));
#1712=CARTESIAN_POINT('',(0.00603081627579001,0.014999142094062,0.0079991420940894));
#1713=CARTESIAN_POINT('',(0.00599468070917271,0.0149991420940632,0.00799914209408824));
#1714=CARTESIAN_POINT('',(0.00599468070917116,0.0149991420940749,0.00799914209407489));
#1715=CARTESIAN_POINT('',(3.46944695195361E-18,0.0149991420940749,0.00799914209407489));
#1716=CARTESIAN_POINT('',(-0.00599468070917038,0.0149991420940749,0.00799914209407489));
#1717=CARTESIAN_POINT('',(-0.00599468070917038,0.0149991420940749,0.00799914209407493));
#1718=CARTESIAN_POINT('',(-0.00603069682335212,0.0149991420940749,0.00799914209407493));
#1719=CARTESIAN_POINT('',(-0.00606728436928375,0.0150020715995747,0.00799640959789392));
#1720=CARTESIAN_POINT('',(-0.00609946417675553,0.0150140874799819,0.00798486822425397));
#1721=CARTESIAN_POINT('',(-0.00609946417675556,0.0150140874799819,0.00798486822425404));
#1722=CARTESIAN_POINT('',(-0.00624112135536322,0.0124917981523622,0.00535887864463678));
#1723=CARTESIAN_POINT('',(-0.00478310773433365,0.0110337845313327,0.00681689226566634));
#1724=CARTESIAN_POINT('',(-0.00610820184763775,0.0123588786446368,0.00549179815236225));
#1725=CARTESIAN_POINT('',(-0.00580140490710757,0.0170259459737948,0.00446585217856747));
#1726=CARTESIAN_POINT('',(-0.0146041516768186,0.0208548284738177,-0.00300415167681861));
#1727=CARTESIAN_POINT('',(1.7347234759768E-18,0.0123588786446368,0.00549179815236225));
#1728=CARTESIAN_POINT('',(0.00610820184763776,0.0123588786446368,0.00549179815236225));
#1729=CARTESIAN_POINT('',(-0.00610820184763775,0.0123588786446368,0.00549179815236225));
#1730=CARTESIAN_POINT('',(-0.00610145602261533,0.0149958177814838,0.00800355979713374));
#1731=CARTESIAN_POINT('',(-0.00607064223196602,0.0149843610699618,0.0080146657993594));
#1732=CARTESIAN_POINT('',(-0.00603982529278408,0.0149732593687118,0.00802611820990576));
#1733=CARTESIAN_POINT('',(-0.00604579281376454,0.0155071329082928,0.0074819722231593));
#1734=CARTESIAN_POINT('',(-0.00576061416427322,0.0153998339977558,0.00758312629523395));
#1735=CARTESIAN_POINT('',(-0.00547561580905343,0.0152984336399136,0.00769067149153857));
#1736=CARTESIAN_POINT('',(-0.00593482544099628,0.0163976973776806,0.00631339383313403));
#1737=CARTESIAN_POINT('',(-0.0051367649725447,0.016022337135483,0.00650124174372067));
#1738=CARTESIAN_POINT('',(-0.00435083616741302,0.0158179170642271,0.00689317414658714));
#1739=CARTESIAN_POINT('',(-0.00584076949773331,0.0168943086008911,0.00506467560402743));
#1740=CARTESIAN_POINT('',(-0.00471369772925568,0.0160724959329653,0.00539555933788237));
#1741=CARTESIAN_POINT('',(-0.0033974729624494,0.016,0.00595898420491942));
#1742=CARTESIAN_POINT('',(-0.00580140490710757,0.0170259459737948,0.00446585217856746));
#1743=CARTESIAN_POINT('',(-0.00456551455489757,0.016,0.00491821944376842));
#1744=CARTESIAN_POINT('',(-0.00299846838087948,0.016,0.00549179815236225));
#1745=CARTESIAN_POINT('',(-0.00299846838087949,0.0208548284738177,0.00549179815236225));
#1746=CARTESIAN_POINT('',(-0.00258906420314963,0.016,0.00300339206001588));
#1747=CARTESIAN_POINT('',(-0.00459999999999997,0.016,0.00300339206001588));
#1748=CARTESIAN_POINT('',(-0.00602194633848363,0.0174219463384837,0.00300339206001588));
#1749=CARTESIAN_POINT('',(-0.00258906420315042,0.016,0.00391143198035271));
#1750=CARTESIAN_POINT('',(-0.00445819495299579,0.016,0.00370151206531854));
#1751=CARTESIAN_POINT('',(-0.00584898635365837,0.0172489863536584,0.00356551201070062));
#1752=CARTESIAN_POINT('',(-0.00272709294050257,0.016,0.0047503866613246));
#1753=CARTESIAN_POINT('',(-0.00444643234888469,0.0160000000000004,0.00435479450041056));
#1754=CARTESIAN_POINT('',(-0.0057746318232609,0.0171154766501104,0.00405857372037737));
#1755=CARTESIAN_POINT('',(-0.00299846838087947,0.016,0.00549179815236228));
#1756=CARTESIAN_POINT('',(-0.00456551455489755,0.016,0.00491821944376845));
#1757=CARTESIAN_POINT('',(-0.00580140490710755,0.0170259459737948,0.00446585217856749));
#1758=CARTESIAN_POINT('',(-0.00258906420314965,0.0208548284738177,0.00300339206001587));
#1759=CARTESIAN_POINT('',(-0.00258906420314966,0.0208548284738177,-0.007));
#1760=CARTESIAN_POINT('',(-0.00258906420314966,0.0208548284738177,-0.00298906420314966));
#1761=CARTESIAN_POINT('',(1.7347234759768E-18,0.0208548284738177,-0.00298906420314966));
#1762=CARTESIAN_POINT('',(0.00258906420314966,0.0208548284738177,-0.00298906420314966));
#1763=CARTESIAN_POINT('',(0.00258906420314966,0.0208548284738177,-0.007));
#1764=CARTESIAN_POINT('',(0.00258906420314966,0.0208548284738177,0.00300339206001587));
#1765=CARTESIAN_POINT('',(0.00299846838087948,0.016,0.00549179815236226));
#1766=CARTESIAN_POINT('',(0.00456551455489756,0.016,0.00491821944376843));
#1767=CARTESIAN_POINT('',(0.00580140490710756,0.0170259459737948,0.00446585217856748));
#1768=CARTESIAN_POINT('',(0.00272709294050532,0.016,0.00475038666132664));
#1769=CARTESIAN_POINT('',(0.00444643234888278,0.0160000000000005,0.00435479450041297));
#1770=CARTESIAN_POINT('',(0.00577463182326481,0.0171154766501129,0.00405857372037862));
#1771=CARTESIAN_POINT('',(0.00258906420314807,0.016,0.00391143198035194));
#1772=CARTESIAN_POINT('',(0.00445819495299243,0.016,0.00370151206531834));
#1773=CARTESIAN_POINT('',(0.00584898635365681,0.0172489863536568,0.00356551201070043));
#1774=CARTESIAN_POINT('',(0.00258906420314965,0.016,0.00300339206001589));
#1775=CARTESIAN_POINT('',(0.00459999999999999,0.016,0.00300339206001589));
#1776=CARTESIAN_POINT('',(0.00602194633848364,0.0174219463384836,0.00300339206001589));
#1777=CARTESIAN_POINT('',(0.00299846838087949,0.0208548284738177,0.00549179815236225));
#1778=CARTESIAN_POINT('',(0.00603982529278409,0.0149732593687118,0.00802611820990576));
#1779=CARTESIAN_POINT('',(0.00607064223196603,0.0149843610699618,0.0080146657993594));
#1780=CARTESIAN_POINT('',(0.00610145602261534,0.0149958177814838,0.00800355979713375));
#1781=CARTESIAN_POINT('',(0.00547561580905331,0.0152984336399137,0.00769067149153844));
#1782=CARTESIAN_POINT('',(0.00576061416466773,0.0153998339978994,0.00758312629509456));
#1783=CARTESIAN_POINT('',(0.00604579281376653,0.0155071329082934,0.00748197222315874));
#1784=CARTESIAN_POINT('',(0.00435083616741291,0.015817917064227,0.00689317414658701));
#1785=CARTESIAN_POINT('',(0.00513676497234967,0.0160223371354102,0.0065012417437889));
#1786=CARTESIAN_POINT('',(0.00593482544099427,0.0163976973776796,0.00631339383313438));
#1787=CARTESIAN_POINT('',(0.00339747296244976,0.016,0.0059589842049198));
#1788=CARTESIAN_POINT('',(0.00471369772924622,0.0160724959329656,0.00539555933788693));
#1789=CARTESIAN_POINT('',(0.00584076949773537,0.0168943086008927,0.00506467560402728));
#1790=CARTESIAN_POINT('',(0.00299846838087951,0.016,0.00549179815236226));
#1791=CARTESIAN_POINT('',(0.00456551455489759,0.016,0.00491821944376843));
#1792=CARTESIAN_POINT('',(0.00580140490710758,0.0170259459737948,0.00446585217856748));
#1793=CARTESIAN_POINT('',(0.,0.01,-0.016));
#1794=CARTESIAN_POINT('',(0.0077,0.01,-0.016));
#1795=CARTESIAN_POINT('',(0.0077,0.01,0.00414517));
#1796=CARTESIAN_POINT('',(0.,0.01,0.00414517));
#1797=CARTESIAN_POINT('',(-0.0077,0.01,0.00414517));
#1798=CARTESIAN_POINT('',(-0.0077,0.01,-0.016));
#1799=CARTESIAN_POINT('',(-0.0077,0.005,-0.016));
#1800=CARTESIAN_POINT('',(-0.0077,0.005,0.00414517));
#1801=CARTESIAN_POINT('',(0.0077,0.005,-0.016));
#1802=CARTESIAN_POINT('',(0.0077,0.01,0.00414517));
#1803=CARTESIAN_POINT('',(0.01255483,0.005,0.00414517));
#1804=CARTESIAN_POINT('',(0.00895511783079465,0.005,0.00740269154678598));
#1805=CARTESIAN_POINT('',(0.00895511783079465,0.0112551178307946,0.00740269154678598));
#1806=CARTESIAN_POINT('',(0.01255483,0.01485483,0.00414517));
#1807=CARTESIAN_POINT('',(0.,0.01485483,0.00414517));
#1808=CARTESIAN_POINT('',(-0.00895511783079465,0.0112551178307946,0.00740269154678598));
#1809=CARTESIAN_POINT('',(-0.00903165915439045,0.0113316591543904,0.00748727325408635));
#1810=CARTESIAN_POINT('',(-0.00924853759202763,0.0114749968788039,0.00763065196230961));
#1811=CARTESIAN_POINT('',(-0.00969108665782437,0.0114159818974868,0.00757431154509135));
#1812=CARTESIAN_POINT('',(-0.00994025553799371,0.0111750935803618,0.00732043362368746));
#1813=CARTESIAN_POINT('',(-0.01,0.0110081853444687,0.00711016892848997));
#1814=CARTESIAN_POINT('',(-0.01,0.0109281585942289,0.00700010012173679));
#1815=CARTESIAN_POINT('',(-0.00895511783079465,0.0112551178307946,0.00740269154678598));
#1816=CARTESIAN_POINT('',(-0.01255483,0.01485483,0.00414517));
#1817=CARTESIAN_POINT('',(0.00895511783079465,0.0112551178307946,0.00740269154678598));
#1818=CARTESIAN_POINT('',(0.00903165915439045,0.0113316591543904,0.00748727325408634));
#1819=CARTESIAN_POINT('',(0.00924853759202763,0.0114749968788039,0.00763065196230961));
#1820=CARTESIAN_POINT('',(0.00969108665782437,0.0114159818974868,0.00757431154509136));
#1821=CARTESIAN_POINT('',(0.00994025553799371,0.0111750935803618,0.00732043362368746));
#1822=CARTESIAN_POINT('',(0.01,0.0110081853444687,0.00711016892848997));
#1823=CARTESIAN_POINT('',(0.01,0.0109281585942289,0.00700010012173679));
#1824=CARTESIAN_POINT('',(-0.01255483,0.045,0.00414517));
#1825=CARTESIAN_POINT('',(-0.00895511783079465,0.045,0.00740269154678598));
#1826=CARTESIAN_POINT('',(-0.0094,0.045,0.00700010012173679));
#1827=CARTESIAN_POINT('',(0.0094,0.005,0.00700010012173679));
#1828=MECHANICAL_DESIGN_GEOMETRIC_PRESENTATION_REPRESENTATION('',(#995),
#1829);
#1829=(
GEOMETRIC_REPRESENTATION_CONTEXT(3)
GLOBAL_UNCERTAINTY_ASSIGNED_CONTEXT((#1830))
GLOBAL_UNIT_ASSIGNED_CONTEXT((#1833,#1832,#1831))
REPRESENTATION_CONTEXT('Part 1','TOP_LEVEL_ASSEMBLY_PART')
);
#1830=UNCERTAINTY_MEASURE_WITH_UNIT(LENGTH_MEASURE(2.E-5),#1833,
'DISTANCE_ACCURACY_VALUE','Maximum Tolerance applied to model');
#1831=(
NAMED_UNIT(*)
SI_UNIT($,.STERADIAN.)
SOLID_ANGLE_UNIT()
);
#1832=(
NAMED_UNIT(*)
PLANE_ANGLE_UNIT()
SI_UNIT($,.RADIAN.)
);
#1833=(
LENGTH_UNIT()
NAMED_UNIT(*)
SI_UNIT($,.METRE.)
);
#1834=PRODUCT_DEFINITION_SHAPE('','',#1835);
#1835=PRODUCT_DEFINITION('','',#1837,#1836);
#1836=PRODUCT_DEFINITION_CONTEXT('',#1843,'design');
#1837=PRODUCT_DEFINITION_FORMATION_WITH_SPECIFIED_SOURCE('','',#1839,
 .NOT_KNOWN.);
#1838=PRODUCT_RELATED_PRODUCT_CATEGORY('','',(#1839));
#1839=PRODUCT('Part 1','Part 1','Part 1',(#1841));
#1840=PRODUCT_CATEGORY('','');
#1841=PRODUCT_CONTEXT('',#1843,'mechanical');
#1842=APPLICATION_PROTOCOL_DEFINITION('international standard',
'ap242_managed_model_based_3d_engineering',2020,#1843);
#1843=APPLICATION_CONTEXT('managed model based 3d engineering');
ENDSEC;
END-ISO-10303-21;
