ISO-10303-21;
HEADER;
/* Generated by software containing ST-Developer
 * from STEP Tools, Inc. (www.steptools.com) 
 */
/* OPTION: using custom renumber hook */

FILE_DESCRIPTION(
/* description */ ('STEP AP242 Edition 2',
'CAx-IF Rec.Pracs.---Representation and Presentation of Product Manufa
cturing Information (PMI)---4.0---2014-10-13',
'CAx-IF Rec.Pracs.---3D Tessellated Geometry---0.4---2014-09-14','2;1',
'CAx-IF Rec.Pracs.---User Defined Attributes---1.5---2016-08-15'),
/* implementation_level */ '2;1');

FILE_NAME(
/* name */ 'Couch',
/* time_stamp */ '2026-09-09T01:30:35Z',
/* author */ (''),
/* organization */ (''),
/* preprocessor_version */ 'ST-DEVELOPER v20',
/* originating_system */ 'ONSHAPE BY PTC INC, 1.220',
/* authorisation */ '  ');

FILE_SCHEMA (('AP242_MANAGED_MODEL_BASED_3D_ENGINEERING_MIM_LF { 1 0 10303 442 3 1 4 }'));
ENDSEC;

DATA;
#10=SHAPE_REPRESENTATION_RELATIONSHIP('','',#494,#11);
#11=ADVANCED_BREP_SHAPE_REPRESENTATION('',(#492),#834);
#12=TOROIDAL_SURFACE('',#517,0.003,0.002);
#13=TOROIDAL_SURFACE('',#522,0.003,0.002);
#14=CIRCLE('',#508,0.005);
#15=CIRCLE('',#511,0.005);
#16=CIRCLE('',#515,0.005);
#17=CIRCLE('',#516,0.005);
#18=CIRCLE('',#518,0.002);
#19=CIRCLE('',#523,0.002);
#20=PLANE('',#498);
#21=PLANE('',#499);
#22=PLANE('',#500);
#23=PLANE('',#501);
#24=PLANE('',#502);
#25=PLANE('',#503);
#26=PLANE('',#504);
#27=PLANE('',#505);
#28=PLANE('',#506);
#29=PLANE('',#507);
#30=PLANE('',#509);
#31=PLANE('',#510);
#32=PLANE('',#512);
#33=PLANE('',#513);
#34=ELLIPSE('',#497,0.00282842712474619,0.002);
#35=ELLIPSE('',#520,0.00282842712474619,0.002);
#36=ELLIPSE('',#526,0.00273137084989847,0.00193137084989848);
#37=ELLIPSE('',#527,0.00273137084989847,0.00193137084989848);
#38=ELLIPSE('',#529,0.00273137084989847,0.00193137084989848);
#39=ELLIPSE('',#531,0.00273137084989847,0.00193137084989848);
#40=ELLIPSE('',#533,0.00273137084989847,0.00193137084989848);
#41=ELLIPSE('',#535,0.00273137084989847,0.00193137084989848);
#42=ELLIPSE('',#537,0.00273137084989847,0.00193137084989848);
#43=ELLIPSE('',#539,0.00273137084989847,0.00193137084989848);
#44=B_SPLINE_CURVE_WITH_KNOTS('',3,(#685,#686,#687,#688),.UNSPECIFIED.,
 .F.,.F.,(4,4),(0.,0.0019343700854959),.UNSPECIFIED.);
#45=B_SPLINE_CURVE_WITH_KNOTS('',3,(#786,#787,#788,#789,#790,#791),
 .UNSPECIFIED.,.F.,.F.,(4,1,1,4),(0.,0.000701460225032376,0.00140292045006475,
0.0028058409001295),.UNSPECIFIED.);
#46=B_SPLINE_CURVE_WITH_KNOTS('',3,(#796,#797,#798,#799,#800,#801),
 .UNSPECIFIED.,.F.,.F.,(4,1,1,4),(0.,0.00139444523672253,0.0020916678550838,
0.00278889047344506),.UNSPECIFIED.);
#47=B_SPLINE_CURVE_WITH_KNOTS('',3,(#810,#811,#812,#813),.UNSPECIFIED.,
 .F.,.F.,(4,4),(0.,0.0019343700854959),.UNSPECIFIED.);
#48=ORIENTED_EDGE('',*,*,#182,.F.);
#49=ORIENTED_EDGE('',*,*,#183,.T.);
#50=ORIENTED_EDGE('',*,*,#184,.F.);
#51=ORIENTED_EDGE('',*,*,#185,.T.);
#52=ORIENTED_EDGE('',*,*,#184,.T.);
#53=ORIENTED_EDGE('',*,*,#186,.T.);
#54=ORIENTED_EDGE('',*,*,#187,.T.);
#55=ORIENTED_EDGE('',*,*,#188,.F.);
#56=ORIENTED_EDGE('',*,*,#189,.T.);
#57=ORIENTED_EDGE('',*,*,#190,.T.);
#58=ORIENTED_EDGE('',*,*,#191,.T.);
#59=ORIENTED_EDGE('',*,*,#192,.F.);
#60=ORIENTED_EDGE('',*,*,#193,.T.);
#61=ORIENTED_EDGE('',*,*,#194,.T.);
#62=ORIENTED_EDGE('',*,*,#195,.T.);
#63=ORIENTED_EDGE('',*,*,#196,.T.);
#64=ORIENTED_EDGE('',*,*,#197,.T.);
#65=ORIENTED_EDGE('',*,*,#198,.T.);
#66=ORIENTED_EDGE('',*,*,#199,.T.);
#67=ORIENTED_EDGE('',*,*,#200,.T.);
#68=ORIENTED_EDGE('',*,*,#201,.T.);
#69=ORIENTED_EDGE('',*,*,#202,.T.);
#70=ORIENTED_EDGE('',*,*,#192,.T.);
#71=ORIENTED_EDGE('',*,*,#203,.T.);
#72=ORIENTED_EDGE('',*,*,#204,.F.);
#73=ORIENTED_EDGE('',*,*,#205,.T.);
#74=ORIENTED_EDGE('',*,*,#206,.T.);
#75=ORIENTED_EDGE('',*,*,#207,.F.);
#76=ORIENTED_EDGE('',*,*,#208,.F.);
#77=ORIENTED_EDGE('',*,*,#209,.T.);
#78=ORIENTED_EDGE('',*,*,#210,.T.);
#79=ORIENTED_EDGE('',*,*,#211,.T.);
#80=ORIENTED_EDGE('',*,*,#212,.F.);
#81=ORIENTED_EDGE('',*,*,#213,.T.);
#82=ORIENTED_EDGE('',*,*,#208,.T.);
#83=ORIENTED_EDGE('',*,*,#214,.F.);
#84=ORIENTED_EDGE('',*,*,#215,.F.);
#85=ORIENTED_EDGE('',*,*,#216,.T.);
#86=ORIENTED_EDGE('',*,*,#212,.T.);
#87=ORIENTED_EDGE('',*,*,#217,.T.);
#88=ORIENTED_EDGE('',*,*,#206,.F.);
#89=ORIENTED_EDGE('',*,*,#218,.T.);
#90=ORIENTED_EDGE('',*,*,#215,.T.);
#91=ORIENTED_EDGE('',*,*,#219,.T.);
#92=ORIENTED_EDGE('',*,*,#214,.T.);
#93=ORIENTED_EDGE('',*,*,#207,.T.);
#94=ORIENTED_EDGE('',*,*,#219,.F.);
#95=ORIENTED_EDGE('',*,*,#217,.F.);
#96=ORIENTED_EDGE('',*,*,#191,.F.);
#97=ORIENTED_EDGE('',*,*,#220,.T.);
#98=ORIENTED_EDGE('',*,*,#204,.T.);
#99=ORIENTED_EDGE('',*,*,#221,.T.);
#100=ORIENTED_EDGE('',*,*,#203,.F.);
#101=ORIENTED_EDGE('',*,*,#222,.T.);
#102=ORIENTED_EDGE('',*,*,#223,.T.);
#103=ORIENTED_EDGE('',*,*,#224,.T.);
#104=ORIENTED_EDGE('',*,*,#225,.F.);
#105=ORIENTED_EDGE('',*,*,#210,.F.);
#106=ORIENTED_EDGE('',*,*,#226,.T.);
#107=ORIENTED_EDGE('',*,*,#227,.T.);
#108=ORIENTED_EDGE('',*,*,#225,.T.);
#109=ORIENTED_EDGE('',*,*,#228,.T.);
#110=ORIENTED_EDGE('',*,*,#227,.F.);
#111=ORIENTED_EDGE('',*,*,#229,.T.);
#112=ORIENTED_EDGE('',*,*,#182,.T.);
#113=ORIENTED_EDGE('',*,*,#222,.F.);
#114=ORIENTED_EDGE('',*,*,#230,.T.);
#115=ORIENTED_EDGE('',*,*,#231,.T.);
#116=ORIENTED_EDGE('',*,*,#232,.T.);
#117=ORIENTED_EDGE('',*,*,#188,.T.);
#118=ORIENTED_EDGE('',*,*,#233,.T.);
#119=ORIENTED_EDGE('',*,*,#234,.T.);
#120=ORIENTED_EDGE('',*,*,#230,.F.);
#121=ORIENTED_EDGE('',*,*,#235,.T.);
#122=ORIENTED_EDGE('',*,*,#201,.F.);
#123=ORIENTED_EDGE('',*,*,#221,.F.);
#124=ORIENTED_EDGE('',*,*,#211,.F.);
#125=ORIENTED_EDGE('',*,*,#228,.F.);
#126=ORIENTED_EDGE('',*,*,#224,.F.);
#127=ORIENTED_EDGE('',*,*,#236,.T.);
#128=ORIENTED_EDGE('',*,*,#235,.F.);
#129=ORIENTED_EDGE('',*,*,#234,.F.);
#130=ORIENTED_EDGE('',*,*,#237,.F.);
#131=ORIENTED_EDGE('',*,*,#237,.T.);
#132=ORIENTED_EDGE('',*,*,#233,.F.);
#133=ORIENTED_EDGE('',*,*,#238,.F.);
#134=ORIENTED_EDGE('',*,*,#202,.F.);
#135=ORIENTED_EDGE('',*,*,#187,.F.);
#136=ORIENTED_EDGE('',*,*,#239,.T.);
#137=ORIENTED_EDGE('',*,*,#189,.F.);
#138=ORIENTED_EDGE('',*,*,#238,.T.);
#139=ORIENTED_EDGE('',*,*,#231,.F.);
#140=ORIENTED_EDGE('',*,*,#236,.F.);
#141=ORIENTED_EDGE('',*,*,#240,.F.);
#142=ORIENTED_EDGE('',*,*,#240,.T.);
#143=ORIENTED_EDGE('',*,*,#223,.F.);
#144=ORIENTED_EDGE('',*,*,#185,.F.);
#145=ORIENTED_EDGE('',*,*,#232,.F.);
#146=ORIENTED_EDGE('',*,*,#241,.F.);
#147=ORIENTED_EDGE('',*,*,#194,.F.);
#148=ORIENTED_EDGE('',*,*,#242,.F.);
#149=ORIENTED_EDGE('',*,*,#190,.F.);
#150=ORIENTED_EDGE('',*,*,#239,.F.);
#151=ORIENTED_EDGE('',*,*,#186,.F.);
#152=ORIENTED_EDGE('',*,*,#183,.F.);
#153=ORIENTED_EDGE('',*,*,#229,.F.);
#154=ORIENTED_EDGE('',*,*,#241,.T.);
#155=ORIENTED_EDGE('',*,*,#226,.F.);
#156=ORIENTED_EDGE('',*,*,#243,.F.);
#157=ORIENTED_EDGE('',*,*,#195,.F.);
#158=ORIENTED_EDGE('',*,*,#242,.T.);
#159=ORIENTED_EDGE('',*,*,#193,.F.);
#160=ORIENTED_EDGE('',*,*,#244,.F.);
#161=ORIENTED_EDGE('',*,*,#220,.F.);
#162=ORIENTED_EDGE('',*,*,#243,.T.);
#163=ORIENTED_EDGE('',*,*,#209,.F.);
#164=ORIENTED_EDGE('',*,*,#245,.F.);
#165=ORIENTED_EDGE('',*,*,#196,.F.);
#166=ORIENTED_EDGE('',*,*,#244,.T.);
#167=ORIENTED_EDGE('',*,*,#200,.F.);
#168=ORIENTED_EDGE('',*,*,#246,.F.);
#169=ORIENTED_EDGE('',*,*,#205,.F.);
#170=ORIENTED_EDGE('',*,*,#245,.T.);
#171=ORIENTED_EDGE('',*,*,#213,.F.);
#172=ORIENTED_EDGE('',*,*,#247,.F.);
#173=ORIENTED_EDGE('',*,*,#197,.F.);
#174=ORIENTED_EDGE('',*,*,#246,.T.);
#175=ORIENTED_EDGE('',*,*,#199,.F.);
#176=ORIENTED_EDGE('',*,*,#248,.F.);
#177=ORIENTED_EDGE('',*,*,#218,.F.);
#178=ORIENTED_EDGE('',*,*,#247,.T.);
#179=ORIENTED_EDGE('',*,*,#216,.F.);
#180=ORIENTED_EDGE('',*,*,#248,.T.);
#181=ORIENTED_EDGE('',*,*,#198,.F.);
#182=EDGE_CURVE('',#249,#250,#289,.F.);
#183=EDGE_CURVE('',#249,#251,#44,.F.);
#184=EDGE_CURVE('',#252,#251,#290,.F.);
#185=EDGE_CURVE('',#252,#250,#34,.F.);
#186=EDGE_CURVE('',#251,#253,#291,.T.);
#187=EDGE_CURVE('',#253,#254,#292,.F.);
#188=EDGE_CURVE('',#252,#254,#293,.T.);
#189=EDGE_CURVE('',#255,#256,#294,.T.);
#190=EDGE_CURVE('',#256,#257,#295,.T.);
#191=EDGE_CURVE('',#257,#258,#296,.T.);
#192=EDGE_CURVE('',#255,#258,#297,.T.);
#193=EDGE_CURVE('',#259,#260,#298,.F.);
#194=EDGE_CURVE('',#260,#261,#299,.F.);
#195=EDGE_CURVE('',#261,#262,#300,.T.);
#196=EDGE_CURVE('',#262,#263,#301,.F.);
#197=EDGE_CURVE('',#263,#264,#302,.F.);
#198=EDGE_CURVE('',#264,#265,#303,.T.);
#199=EDGE_CURVE('',#265,#266,#304,.T.);
#200=EDGE_CURVE('',#266,#259,#305,.F.);
#201=EDGE_CURVE('',#267,#268,#306,.F.);
#202=EDGE_CURVE('',#268,#255,#307,.T.);
#203=EDGE_CURVE('',#258,#267,#308,.T.);
#204=EDGE_CURVE('',#269,#270,#309,.T.);
#205=EDGE_CURVE('',#269,#271,#310,.T.);
#206=EDGE_CURVE('',#271,#272,#311,.T.);
#207=EDGE_CURVE('',#273,#272,#312,.T.);
#208=EDGE_CURVE('',#274,#273,#313,.T.);
#209=EDGE_CURVE('',#274,#275,#314,.T.);
#210=EDGE_CURVE('',#275,#276,#315,.T.);
#211=EDGE_CURVE('',#276,#270,#316,.T.);
#212=EDGE_CURVE('',#277,#278,#317,.T.);
#213=EDGE_CURVE('',#277,#274,#318,.T.);
#214=EDGE_CURVE('',#278,#273,#319,.T.);
#215=EDGE_CURVE('',#279,#280,#320,.T.);
#216=EDGE_CURVE('',#279,#277,#321,.F.);
#217=EDGE_CURVE('',#278,#280,#322,.T.);
#218=EDGE_CURVE('',#271,#279,#323,.F.);
#219=EDGE_CURVE('',#280,#272,#324,.T.);
#220=EDGE_CURVE('',#257,#269,#325,.T.);
#221=EDGE_CURVE('',#270,#267,#14,.T.);
#222=EDGE_CURVE('',#281,#250,#326,.T.);
#223=EDGE_CURVE('',#250,#282,#327,.F.);
#224=EDGE_CURVE('',#282,#283,#328,.F.);
#225=EDGE_CURVE('',#281,#283,#329,.T.);
#226=EDGE_CURVE('',#275,#284,#330,.F.);
#227=EDGE_CURVE('',#284,#281,#331,.T.);
#228=EDGE_CURVE('',#283,#276,#15,.F.);
#229=EDGE_CURVE('',#284,#249,#332,.T.);
#230=EDGE_CURVE('',#285,#286,#333,.F.);
#231=EDGE_CURVE('',#286,#287,#45,.T.);
#232=EDGE_CURVE('',#287,#252,#334,.F.);
#233=EDGE_CURVE('',#254,#288,#335,.F.);
#234=EDGE_CURVE('',#288,#285,#46,.T.);
#235=EDGE_CURVE('',#285,#268,#16,.F.);
#236=EDGE_CURVE('',#282,#286,#17,.T.);
#237=EDGE_CURVE('',#268,#288,#18,.T.);
#238=EDGE_CURVE('',#255,#254,#35,.T.);
#239=EDGE_CURVE('',#253,#256,#47,.T.);
#240=EDGE_CURVE('',#287,#282,#19,.T.);
#241=EDGE_CURVE('',#261,#284,#36,.F.);
#242=EDGE_CURVE('',#257,#260,#37,.T.);
#243=EDGE_CURVE('',#262,#275,#38,.T.);
#244=EDGE_CURVE('',#269,#259,#39,.F.);
#245=EDGE_CURVE('',#263,#274,#40,.F.);
#246=EDGE_CURVE('',#271,#266,#41,.T.);
#247=EDGE_CURVE('',#264,#277,#42,.F.);
#248=EDGE_CURVE('',#279,#265,#43,.T.);
#249=VERTEX_POINT('',#683);
#250=VERTEX_POINT('',#684);
#251=VERTEX_POINT('',#689);
#252=VERTEX_POINT('',#691);
#253=VERTEX_POINT('',#695);
#254=VERTEX_POINT('',#697);
#255=VERTEX_POINT('',#701);
#256=VERTEX_POINT('',#702);
#257=VERTEX_POINT('',#704);
#258=VERTEX_POINT('',#706);
#259=VERTEX_POINT('',#710);
#260=VERTEX_POINT('',#711);
#261=VERTEX_POINT('',#713);
#262=VERTEX_POINT('',#715);
#263=VERTEX_POINT('',#717);
#264=VERTEX_POINT('',#719);
#265=VERTEX_POINT('',#721);
#266=VERTEX_POINT('',#723);
#267=VERTEX_POINT('',#727);
#268=VERTEX_POINT('',#728);
#269=VERTEX_POINT('',#733);
#270=VERTEX_POINT('',#734);
#271=VERTEX_POINT('',#736);
#272=VERTEX_POINT('',#738);
#273=VERTEX_POINT('',#740);
#274=VERTEX_POINT('',#742);
#275=VERTEX_POINT('',#744);
#276=VERTEX_POINT('',#746);
#277=VERTEX_POINT('',#750);
#278=VERTEX_POINT('',#751);
#279=VERTEX_POINT('',#756);
#280=VERTEX_POINT('',#757);
#281=VERTEX_POINT('',#769);
#282=VERTEX_POINT('',#771);
#283=VERTEX_POINT('',#773);
#284=VERTEX_POINT('',#777);
#285=VERTEX_POINT('',#784);
#286=VERTEX_POINT('',#785);
#287=VERTEX_POINT('',#792);
#288=VERTEX_POINT('',#795);
#289=LINE('',#682,#336);
#290=LINE('',#690,#337);
#291=LINE('',#694,#338);
#292=LINE('',#696,#339);
#293=LINE('',#698,#340);
#294=LINE('',#700,#341);
#295=LINE('',#703,#342);
#296=LINE('',#705,#343);
#297=LINE('',#707,#344);
#298=LINE('',#709,#345);
#299=LINE('',#712,#346);
#300=LINE('',#714,#347);
#301=LINE('',#716,#348);
#302=LINE('',#718,#349);
#303=LINE('',#720,#350);
#304=LINE('',#722,#351);
#305=LINE('',#724,#352);
#306=LINE('',#726,#353);
#307=LINE('',#729,#354);
#308=LINE('',#730,#355);
#309=LINE('',#732,#356);
#310=LINE('',#735,#357);
#311=LINE('',#737,#358);
#312=LINE('',#739,#359);
#313=LINE('',#741,#360);
#314=LINE('',#743,#361);
#315=LINE('',#745,#362);
#316=LINE('',#747,#363);
#317=LINE('',#749,#364);
#318=LINE('',#752,#365);
#319=LINE('',#753,#366);
#320=LINE('',#755,#367);
#321=LINE('',#758,#368);
#322=LINE('',#759,#369);
#323=LINE('',#761,#370);
#324=LINE('',#762,#371);
#325=LINE('',#765,#372);
#326=LINE('',#768,#373);
#327=LINE('',#770,#374);
#328=LINE('',#772,#375);
#329=LINE('',#774,#376);
#330=LINE('',#776,#377);
#331=LINE('',#778,#378);
#332=LINE('',#781,#379);
#333=LINE('',#783,#380);
#334=LINE('',#793,#381);
#335=LINE('',#794,#382);
#336=VECTOR('',#545,1.);
#337=VECTOR('',#546,1.);
#338=VECTOR('',#551,1.);
#339=VECTOR('',#552,1.);
#340=VECTOR('',#553,1.);
#341=VECTOR('',#556,1.);
#342=VECTOR('',#557,1.);
#343=VECTOR('',#558,1.);
#344=VECTOR('',#559,1.);
#345=VECTOR('',#562,1.);
#346=VECTOR('',#563,1.);
#347=VECTOR('',#564,1.);
#348=VECTOR('',#565,1.);
#349=VECTOR('',#566,1.);
#350=VECTOR('',#567,1.);
#351=VECTOR('',#568,1.);
#352=VECTOR('',#569,1.);
#353=VECTOR('',#572,1.);
#354=VECTOR('',#573,1.);
#355=VECTOR('',#574,1.);
#356=VECTOR('',#577,1.);
#357=VECTOR('',#578,1.);
#358=VECTOR('',#579,1.);
#359=VECTOR('',#580,1.);
#360=VECTOR('',#581,1.);
#361=VECTOR('',#582,1.);
#362=VECTOR('',#583,1.);
#363=VECTOR('',#584,1.);
#364=VECTOR('',#587,1.);
#365=VECTOR('',#588,1.);
#366=VECTOR('',#589,1.);
#367=VECTOR('',#592,1.);
#368=VECTOR('',#593,1.);
#369=VECTOR('',#594,1.);
#370=VECTOR('',#597,1.);
#371=VECTOR('',#598,1.);
#372=VECTOR('',#603,1.);
#373=VECTOR('',#608,1.);
#374=VECTOR('',#609,1.);
#375=VECTOR('',#610,1.);
#376=VECTOR('',#611,1.);
#377=VECTOR('',#614,1.);
#378=VECTOR('',#615,1.);
#379=VECTOR('',#620,1.);
#380=VECTOR('',#623,1.);
#381=VECTOR('',#624,1.);
#382=VECTOR('',#625,1.);
#383=EDGE_LOOP('',(#48,#49,#50,#51));
#384=EDGE_LOOP('',(#52,#53,#54,#55));
#385=EDGE_LOOP('',(#56,#57,#58,#59));
#386=EDGE_LOOP('',(#60,#61,#62,#63,#64,#65,#66,#67));
#387=EDGE_LOOP('',(#68,#69,#70,#71));
#388=EDGE_LOOP('',(#72,#73,#74,#75,#76,#77,#78,#79));
#389=EDGE_LOOP('',(#80,#81,#82,#83));
#390=EDGE_LOOP('',(#84,#85,#86,#87));
#391=EDGE_LOOP('',(#88,#89,#90,#91));
#392=EDGE_LOOP('',(#92,#93,#94,#95));
#393=EDGE_LOOP('',(#96,#97,#98,#99,#100));
#394=EDGE_LOOP('',(#101,#102,#103,#104));
#395=EDGE_LOOP('',(#105,#106,#107,#108,#109));
#396=EDGE_LOOP('',(#110,#111,#112,#113));
#397=EDGE_LOOP('',(#114,#115,#116,#117,#118,#119));
#398=EDGE_LOOP('',(#120,#121,#122,#123,#124,#125,#126,#127));
#399=EDGE_LOOP('',(#128,#129,#130));
#400=EDGE_LOOP('',(#131,#132,#133,#134));
#401=EDGE_LOOP('',(#135,#136,#137,#138));
#402=EDGE_LOOP('',(#139,#140,#141));
#403=EDGE_LOOP('',(#142,#143,#144,#145));
#404=EDGE_LOOP('',(#146,#147,#148,#149,#150,#151,#152,#153));
#405=EDGE_LOOP('',(#154,#155,#156,#157));
#406=EDGE_LOOP('',(#158,#159,#160,#161));
#407=EDGE_LOOP('',(#162,#163,#164,#165));
#408=EDGE_LOOP('',(#166,#167,#168,#169));
#409=EDGE_LOOP('',(#170,#171,#172,#173));
#410=EDGE_LOOP('',(#174,#175,#176,#177));
#411=EDGE_LOOP('',(#178,#179,#180,#181));
#412=FACE_BOUND('',#383,.T.);
#413=FACE_BOUND('',#384,.T.);
#414=FACE_BOUND('',#385,.T.);
#415=FACE_BOUND('',#386,.T.);
#416=FACE_BOUND('',#387,.T.);
#417=FACE_BOUND('',#388,.T.);
#418=FACE_BOUND('',#389,.T.);
#419=FACE_BOUND('',#390,.T.);
#420=FACE_BOUND('',#391,.T.);
#421=FACE_BOUND('',#392,.T.);
#422=FACE_BOUND('',#393,.T.);
#423=FACE_BOUND('',#394,.T.);
#424=FACE_BOUND('',#395,.T.);
#425=FACE_BOUND('',#396,.T.);
#426=FACE_BOUND('',#397,.T.);
#427=FACE_BOUND('',#398,.T.);
#428=FACE_BOUND('',#399,.T.);
#429=FACE_BOUND('',#400,.T.);
#430=FACE_BOUND('',#401,.T.);
#431=FACE_BOUND('',#402,.T.);
#432=FACE_BOUND('',#403,.T.);
#433=FACE_BOUND('',#404,.T.);
#434=FACE_BOUND('',#405,.T.);
#435=FACE_BOUND('',#406,.T.);
#436=FACE_BOUND('',#407,.T.);
#437=FACE_BOUND('',#408,.T.);
#438=FACE_BOUND('',#409,.T.);
#439=FACE_BOUND('',#410,.T.);
#440=FACE_BOUND('',#411,.T.);
#441=CYLINDRICAL_SURFACE('',#496,0.002);
#442=CYLINDRICAL_SURFACE('',#514,0.005);
#443=CYLINDRICAL_SURFACE('',#519,0.002);
#444=CYLINDRICAL_SURFACE('',#521,0.002);
#445=CYLINDRICAL_SURFACE('',#524,0.002);
#446=CYLINDRICAL_SURFACE('',#525,0.00193137084989848);
#447=CYLINDRICAL_SURFACE('',#528,0.00193137084989848);
#448=CYLINDRICAL_SURFACE('',#530,0.00193137084989848);
#449=CYLINDRICAL_SURFACE('',#532,0.00193137084989848);
#450=CYLINDRICAL_SURFACE('',#534,0.00193137084989848);
#451=CYLINDRICAL_SURFACE('',#536,0.00193137084989848);
#452=CYLINDRICAL_SURFACE('',#538,0.00193137084989848);
#453=CYLINDRICAL_SURFACE('',#540,0.00193137084989848);
#454=ADVANCED_FACE('',(#412),#441,.T.);
#455=ADVANCED_FACE('',(#413),#20,.T.);
#456=ADVANCED_FACE('',(#414),#21,.T.);
#457=ADVANCED_FACE('',(#415),#22,.T.);
#458=ADVANCED_FACE('',(#416),#23,.T.);
#459=ADVANCED_FACE('',(#417),#24,.T.);
#460=ADVANCED_FACE('',(#418),#25,.T.);
#461=ADVANCED_FACE('',(#419),#26,.F.);
#462=ADVANCED_FACE('',(#420),#27,.F.);
#463=ADVANCED_FACE('',(#421),#28,.F.);
#464=ADVANCED_FACE('',(#422),#29,.F.);
#465=ADVANCED_FACE('',(#423),#30,.T.);
#466=ADVANCED_FACE('',(#424),#31,.T.);
#467=ADVANCED_FACE('',(#425),#32,.T.);
#468=ADVANCED_FACE('',(#426),#33,.T.);
#469=ADVANCED_FACE('',(#427),#442,.T.);
#470=ADVANCED_FACE('',(#428),#12,.T.);
#471=ADVANCED_FACE('',(#429),#443,.T.);
#472=ADVANCED_FACE('',(#430),#444,.T.);
#473=ADVANCED_FACE('',(#431),#13,.T.);
#474=ADVANCED_FACE('',(#432),#445,.T.);
#475=ADVANCED_FACE('',(#433),#446,.T.);
#476=ADVANCED_FACE('',(#434),#447,.T.);
#477=ADVANCED_FACE('',(#435),#448,.T.);
#478=ADVANCED_FACE('',(#436),#449,.T.);
#479=ADVANCED_FACE('',(#437),#450,.T.);
#480=ADVANCED_FACE('',(#438),#451,.T.);
#481=ADVANCED_FACE('',(#439),#452,.T.);
#482=ADVANCED_FACE('',(#440),#453,.T.);
#483=CLOSED_SHELL('',(#454,#455,#456,#457,#458,#459,#460,#461,#462,#463,
#464,#465,#466,#467,#468,#469,#470,#471,#472,#473,#474,#475,#476,#477,#478,
#479,#480,#481,#482));
#484=STYLED_ITEM('',(#485),#492);
#485=PRESENTATION_STYLE_ASSIGNMENT((#486));
#486=SURFACE_STYLE_USAGE(.BOTH.,#487);
#487=SURFACE_SIDE_STYLE('',(#488));
#488=SURFACE_STYLE_FILL_AREA(#489);
#489=FILL_AREA_STYLE('',(#490));
#490=FILL_AREA_STYLE_COLOUR('',#491);
#491=DRAUGHTING_PRE_DEFINED_COLOUR('red');
#492=MANIFOLD_SOLID_BREP('Part 1',#483);
#493=SHAPE_DEFINITION_REPRESENTATION(#839,#494);
#494=SHAPE_REPRESENTATION('Part 1',(#495),#834);
#495=AXIS2_PLACEMENT_3D('',#680,#541,#542);
#496=AXIS2_PLACEMENT_3D('',#681,#543,#544);
#497=AXIS2_PLACEMENT_3D('',#692,#547,#548);
#498=AXIS2_PLACEMENT_3D('',#693,#549,#550);
#499=AXIS2_PLACEMENT_3D('',#699,#554,#555);
#500=AXIS2_PLACEMENT_3D('',#708,#560,#561);
#501=AXIS2_PLACEMENT_3D('',#725,#570,#571);
#502=AXIS2_PLACEMENT_3D('',#731,#575,#576);
#503=AXIS2_PLACEMENT_3D('',#748,#585,#586);
#504=AXIS2_PLACEMENT_3D('',#754,#590,#591);
#505=AXIS2_PLACEMENT_3D('',#760,#595,#596);
#506=AXIS2_PLACEMENT_3D('',#763,#599,#600);
#507=AXIS2_PLACEMENT_3D('',#764,#601,#602);
#508=AXIS2_PLACEMENT_3D('',#766,#604,#605);
#509=AXIS2_PLACEMENT_3D('',#767,#606,#607);
#510=AXIS2_PLACEMENT_3D('',#775,#612,#613);
#511=AXIS2_PLACEMENT_3D('',#779,#616,#617);
#512=AXIS2_PLACEMENT_3D('',#780,#618,#619);
#513=AXIS2_PLACEMENT_3D('',#782,#621,#622);
#514=AXIS2_PLACEMENT_3D('',#802,#626,#627);
#515=AXIS2_PLACEMENT_3D('',#803,#628,#629);
#516=AXIS2_PLACEMENT_3D('',#804,#630,#631);
#517=AXIS2_PLACEMENT_3D('',#805,#632,#633);
#518=AXIS2_PLACEMENT_3D('',#806,#634,#635);
#519=AXIS2_PLACEMENT_3D('',#807,#636,#637);
#520=AXIS2_PLACEMENT_3D('',#808,#638,#639);
#521=AXIS2_PLACEMENT_3D('',#809,#640,#641);
#522=AXIS2_PLACEMENT_3D('',#814,#642,#643);
#523=AXIS2_PLACEMENT_3D('',#815,#644,#645);
#524=AXIS2_PLACEMENT_3D('',#816,#646,#647);
#525=AXIS2_PLACEMENT_3D('',#817,#648,#649);
#526=AXIS2_PLACEMENT_3D('',#818,#650,#651);
#527=AXIS2_PLACEMENT_3D('',#819,#652,#653);
#528=AXIS2_PLACEMENT_3D('',#820,#654,#655);
#529=AXIS2_PLACEMENT_3D('',#821,#656,#657);
#530=AXIS2_PLACEMENT_3D('',#822,#658,#659);
#531=AXIS2_PLACEMENT_3D('',#823,#660,#661);
#532=AXIS2_PLACEMENT_3D('',#824,#662,#663);
#533=AXIS2_PLACEMENT_3D('',#825,#664,#665);
#534=AXIS2_PLACEMENT_3D('',#826,#666,#667);
#535=AXIS2_PLACEMENT_3D('',#827,#668,#669);
#536=AXIS2_PLACEMENT_3D('',#828,#670,#671);
#537=AXIS2_PLACEMENT_3D('',#829,#672,#673);
#538=AXIS2_PLACEMENT_3D('',#830,#674,#675);
#539=AXIS2_PLACEMENT_3D('',#831,#676,#677);
#540=AXIS2_PLACEMENT_3D('',#832,#678,#679);
#541=DIRECTION('',(0.,0.,1.));
#542=DIRECTION('',(1.,0.,0.));
#543=DIRECTION('',(1.15648231731787E-16,-1.,0.));
#544=DIRECTION('',(-1.,-1.15648231731787E-16,0.));
#545=DIRECTION('',(-1.15648231731787E-16,1.,0.));
#546=DIRECTION('',(1.15648231731787E-16,-1.,0.));
#547=DIRECTION('',(8.177564888978E-17,-0.707106781186548,0.707106781186548));
#548=DIRECTION('',(-8.177564888978E-17,0.707106781186548,0.707106781186548));
#549=DIRECTION('',(0.,0.,1.));
#550=DIRECTION('',(1.,0.,0.));
#551=DIRECTION('',(-1.,0.,0.));
#552=DIRECTION('',(-1.15648231731787E-16,1.,0.));
#553=DIRECTION('',(-1.,-1.15648231731787E-16,0.));
#554=DIRECTION('',(0.,0.,1.));
#555=DIRECTION('',(1.,0.,0.));
#556=DIRECTION('',(-1.15648231731787E-16,1.,0.));
#557=DIRECTION('',(-1.,0.,0.));
#558=DIRECTION('',(0.,-1.,0.));
#559=DIRECTION('',(-1.,-1.15648231731787E-16,0.));
#560=DIRECTION('',(0.,1.,0.));
#561=DIRECTION('',(1.,0.,0.));
#562=DIRECTION('',(0.,0.,1.));
#563=DIRECTION('',(-1.,0.,0.));
#564=DIRECTION('',(0.,0.,1.));
#565=DIRECTION('',(-1.,0.,0.));
#566=DIRECTION('',(0.,0.,1.));
#567=DIRECTION('',(-1.,0.,0.));
#568=DIRECTION('',(0.,0.,1.));
#569=DIRECTION('',(-1.,0.,0.));
#570=DIRECTION('',(-1.15648231731787E-16,1.,0.));
#571=DIRECTION('',(1.,1.15648231731787E-16,0.));
#572=DIRECTION('',(-1.,-1.15648231731787E-16,0.));
#573=DIRECTION('',(0.,0.,-1.));
#574=DIRECTION('',(0.,0.,1.));
#575=DIRECTION('',(0.,0.,1.));
#576=DIRECTION('',(0.,-1.,0.));
#577=DIRECTION('',(0.,-1.,0.));
#578=DIRECTION('',(-1.,0.,0.));
#579=DIRECTION('',(0.,-1.,0.));
#580=DIRECTION('',(-1.,0.,0.));
#581=DIRECTION('',(0.,-1.,0.));
#582=DIRECTION('',(-1.,0.,0.));
#583=DIRECTION('',(0.,-1.,0.));
#584=DIRECTION('',(-1.,-1.15648231731787E-16,0.));
#585=DIRECTION('',(1.,0.,0.));
#586=DIRECTION('',(0.,-1.,0.));
#587=DIRECTION('',(0.,-1.,0.));
#588=DIRECTION('',(0.,0.,1.));
#589=DIRECTION('',(0.,0.,1.));
#590=DIRECTION('',(0.,0.,1.));
#591=DIRECTION('',(0.,-1.,0.));
#592=DIRECTION('',(0.,-1.,0.));
#593=DIRECTION('',(-1.,0.,0.));
#594=DIRECTION('',(-1.,0.,0.));
#595=DIRECTION('',(1.,0.,0.));
#596=DIRECTION('',(0.,-1.,0.));
#597=DIRECTION('',(0.,0.,1.));
#598=DIRECTION('',(0.,0.,1.));
#599=DIRECTION('',(0.,1.,0.));
#600=DIRECTION('',(1.,0.,0.));
#601=DIRECTION('',(-1.,0.,0.));
#602=DIRECTION('',(0.,1.,0.));
#603=DIRECTION('',(0.,0.,1.));
#604=DIRECTION('',(-1.,0.,0.));
#605=DIRECTION('',(0.,1.,0.));
#606=DIRECTION('',(-1.15648231731787E-16,1.,0.));
#607=DIRECTION('',(1.,1.15648231731787E-16,0.));
#608=DIRECTION('',(-1.,-1.15648231731787E-16,0.));
#609=DIRECTION('',(0.,0.,-1.));
#610=DIRECTION('',(-1.,-1.15648231731787E-16,0.));
#611=DIRECTION('',(0.,0.,1.));
#612=DIRECTION('',(-1.,0.,0.));
#613=DIRECTION('',(0.,1.,0.));
#614=DIRECTION('',(0.,0.,1.));
#615=DIRECTION('',(0.,-1.,0.));
#616=DIRECTION('',(-1.,0.,0.));
#617=DIRECTION('',(0.,1.,0.));
#618=DIRECTION('',(0.,0.,1.));
#619=DIRECTION('',(1.,0.,0.));
#620=DIRECTION('',(-1.,0.,0.));
#621=DIRECTION('',(-1.15648231731787E-16,1.,0.));
#622=DIRECTION('',(1.,1.15648231731787E-16,0.));
#623=DIRECTION('',(-1.,-1.15648231731787E-16,0.));
#624=DIRECTION('',(0.,0.,1.));
#625=DIRECTION('',(0.,0.,-1.));
#626=DIRECTION('',(-1.,-1.15648231731787E-16,0.));
#627=DIRECTION('',(-1.15648231731787E-16,1.,0.));
#628=DIRECTION('',(1.,1.15648231731787E-16,0.));
#629=DIRECTION('',(1.15648231731787E-16,-1.,0.));
#630=DIRECTION('',(1.,1.15648231731787E-16,0.));
#631=DIRECTION('',(1.15648231731787E-16,-1.,0.));
#632=DIRECTION('',(1.,1.15648231731787E-16,0.));
#633=DIRECTION('',(1.15648231731787E-16,-1.,0.));
#634=DIRECTION('',(0.,0.,-1.));
#635=DIRECTION('',(0.,1.,0.));
#636=DIRECTION('',(0.,0.,-1.));
#637=DIRECTION('',(0.,1.,0.));
#638=DIRECTION('',(-8.177564888978E-17,0.707106781186548,-0.707106781186548));
#639=DIRECTION('',(8.177564888978E-17,-0.707106781186548,-0.707106781186548));
#640=DIRECTION('',(-1.15648231731787E-16,1.,0.));
#641=DIRECTION('',(1.,1.15648231731787E-16,0.));
#642=DIRECTION('',(1.,1.15648231731787E-16,0.));
#643=DIRECTION('',(1.15648231731787E-16,-1.,0.));
#644=DIRECTION('',(0.,0.,-1.));
#645=DIRECTION('',(0.,1.,0.));
#646=DIRECTION('',(0.,0.,1.));
#647=DIRECTION('',(0.,-1.,0.));
#648=DIRECTION('',(-1.,0.,0.));
#649=DIRECTION('',(0.,1.,0.));
#650=DIRECTION('',(-0.707106781186548,0.,-0.707106781186548));
#651=DIRECTION('',(-0.707106781186548,0.,0.707106781186548));
#652=DIRECTION('',(-0.707106781186548,0.,0.707106781186548));
#653=DIRECTION('',(-0.707106781186548,0.,-0.707106781186548));
#654=DIRECTION('',(0.,0.,1.));
#655=DIRECTION('',(0.,-1.,0.));
#656=DIRECTION('',(0.707106781186548,0.,0.707106781186548));
#657=DIRECTION('',(-0.707106781186548,0.,0.707106781186548));
#658=DIRECTION('',(0.,0.,-1.));
#659=DIRECTION('',(0.,1.,0.));
#660=DIRECTION('',(0.707106781186548,0.,-0.707106781186548));
#661=DIRECTION('',(-0.707106781186548,0.,-0.707106781186548));
#662=DIRECTION('',(-1.,0.,0.));
#663=DIRECTION('',(0.,1.,0.));
#664=DIRECTION('',(-0.707106781186548,0.,0.707106781186548));
#665=DIRECTION('',(0.707106781186548,0.,0.707106781186548));
#666=DIRECTION('',(-1.,0.,0.));
#667=DIRECTION('',(0.,1.,0.));
#668=DIRECTION('',(-0.707106781186548,0.,-0.707106781186548));
#669=DIRECTION('',(0.707106781186548,0.,-0.707106781186548));
#670=DIRECTION('',(0.,0.,1.));
#671=DIRECTION('',(0.,-1.,0.));
#672=DIRECTION('',(0.707106781186548,0.,0.707106781186548));
#673=DIRECTION('',(-0.707106781186548,0.,0.707106781186548));
#674=DIRECTION('',(0.,0.,-1.));
#675=DIRECTION('',(0.,1.,0.));
#676=DIRECTION('',(0.707106781186548,0.,-0.707106781186548));
#677=DIRECTION('',(-0.707106781186548,0.,-0.707106781186548));
#678=DIRECTION('',(1.,0.,0.));
#679=DIRECTION('',(0.,-1.,0.));
#680=CARTESIAN_POINT('',(0.,0.,0.));
#681=CARTESIAN_POINT('',(0.0025,0.0095,-0.0082));
#682=CARTESIAN_POINT('',(0.0025,0.01,-0.0062));
#683=CARTESIAN_POINT('',(0.0025,0.0230686291501016,-0.0062));
#684=CARTESIAN_POINT('',(0.0025,0.01,-0.0062));
#685=CARTESIAN_POINT('',(0.0011771243444677,0.0243653059987799,-0.0067));
#686=CARTESIAN_POINT('',(0.00157295379533972,0.0239799551847316,-0.00635091123713245));
#687=CARTESIAN_POINT('',(0.00204010192226305,0.0235205677266176,-0.0062));
#688=CARTESIAN_POINT('',(0.0025,0.0230686291501016,-0.0062));
#689=CARTESIAN_POINT('',(0.0011771243444677,0.0243653059987799,-0.0067));
#690=CARTESIAN_POINT('',(0.0011771243444677,0.0095,-0.0067));
#691=CARTESIAN_POINT('',(0.0011771243444677,0.0095,-0.0067));
#692=CARTESIAN_POINT('',(0.0025,0.008,-0.0082));
#693=CARTESIAN_POINT('',(0.,0.0125,-0.0067));
#694=CARTESIAN_POINT('',(0.0011771243444677,0.0243653059987799,-0.0067));
#695=CARTESIAN_POINT('',(-0.00117712434446771,0.0243653059987799,-0.0067));
#696=CARTESIAN_POINT('',(-0.00117712434446771,0.0245,-0.0067));
#697=CARTESIAN_POINT('',(-0.0011771243444677,0.0095,-0.0067));
#698=CARTESIAN_POINT('',(5.78241158658936E-20,0.0095,-0.0067));
#699=CARTESIAN_POINT('',(0.,0.0125,-0.0062));
#700=CARTESIAN_POINT('',(-0.0025,0.0125,-0.0062));
#701=CARTESIAN_POINT('',(-0.0025,0.01,-0.0062));
#702=CARTESIAN_POINT('',(-0.0025,0.0230686291501016,-0.0062));
#703=CARTESIAN_POINT('',(0.,0.0230686291501016,-0.0062));
#704=CARTESIAN_POINT('',(-0.03,0.0230686291501016,-0.0062));
#705=CARTESIAN_POINT('',(-0.03,0.0175,-0.0062));
#706=CARTESIAN_POINT('',(-0.03,0.01,-0.0062));
#707=CARTESIAN_POINT('',(0.,0.01,-0.0062));
#708=CARTESIAN_POINT('',(0.,0.025,0.));
#709=CARTESIAN_POINT('',(-0.0319313708498985,0.025,-0.0062));
#710=CARTESIAN_POINT('',(-0.0319313708498985,0.025,0.0120686291501015));
#711=CARTESIAN_POINT('',(-0.0319313708498985,0.025,-0.00813137084989847));
#712=CARTESIAN_POINT('',(0.,0.025,-0.00813137084989847));
#713=CARTESIAN_POINT('',(0.0319313708498985,0.025,-0.00813137084989847));
#714=CARTESIAN_POINT('',(0.0319313708498985,0.025,0.));
#715=CARTESIAN_POINT('',(0.0319313708498985,0.025,0.0120686291501015));
#716=CARTESIAN_POINT('',(0.,0.025,0.0120686291501015));
#717=CARTESIAN_POINT('',(0.0380686291501015,0.025,0.0120686291501015));
#718=CARTESIAN_POINT('',(0.0380686291501015,0.025,0.));
#719=CARTESIAN_POINT('',(0.0380686291501015,0.025,-0.0120686291501015));
#720=CARTESIAN_POINT('',(-0.04,0.025,-0.0120686291501015));
#721=CARTESIAN_POINT('',(-0.0380686291501015,0.025,-0.0120686291501015));
#722=CARTESIAN_POINT('',(-0.0380686291501015,0.025,0.014));
#723=CARTESIAN_POINT('',(-0.0380686291501015,0.025,0.0120686291501015));
#724=CARTESIAN_POINT('',(0.,0.025,0.0120686291501015));
#725=CARTESIAN_POINT('',(0.,0.01,-0.0062));
#726=CARTESIAN_POINT('',(0.,0.01,0.009));
#727=CARTESIAN_POINT('',(-0.03,0.01,0.009));
#728=CARTESIAN_POINT('',(-0.0025,0.01,0.009));
#729=CARTESIAN_POINT('',(-0.0025,0.01,-0.0062));
#730=CARTESIAN_POINT('',(-0.03,0.01,-0.0062));
#731=CARTESIAN_POINT('',(0.,0.025,0.014));
#732=CARTESIAN_POINT('',(-0.03,0.0175,0.014));
#733=CARTESIAN_POINT('',(-0.03,0.0230686291501016,0.014));
#734=CARTESIAN_POINT('',(-0.03,0.005,0.014));
#735=CARTESIAN_POINT('',(0.,0.0230686291501016,0.014));
#736=CARTESIAN_POINT('',(-0.04,0.0230686291501016,0.014));
#737=CARTESIAN_POINT('',(-0.04,0.025,0.014));
#738=CARTESIAN_POINT('',(-0.04,0.,0.014));
#739=CARTESIAN_POINT('',(0.,0.,0.014));
#740=CARTESIAN_POINT('',(0.04,0.,0.014));
#741=CARTESIAN_POINT('',(0.04,0.025,0.014));
#742=CARTESIAN_POINT('',(0.04,0.0230686291501016,0.014));
#743=CARTESIAN_POINT('',(0.,0.0230686291501016,0.014));
#744=CARTESIAN_POINT('',(0.03,0.0230686291501016,0.014));
#745=CARTESIAN_POINT('',(0.03,0.0175,0.014));
#746=CARTESIAN_POINT('',(0.03,0.005,0.014));
#747=CARTESIAN_POINT('',(2.31296463463574E-18,0.005,0.014));
#748=CARTESIAN_POINT('',(0.04,0.025,0.));
#749=CARTESIAN_POINT('',(0.04,0.025,-0.014));
#750=CARTESIAN_POINT('',(0.04,0.0230686291501016,-0.014));
#751=CARTESIAN_POINT('',(0.04,0.,-0.014));
#752=CARTESIAN_POINT('',(0.04,0.0230686291501016,0.));
#753=CARTESIAN_POINT('',(0.04,0.,0.));
#754=CARTESIAN_POINT('',(0.,0.025,-0.014));
#755=CARTESIAN_POINT('',(-0.04,0.025,-0.014));
#756=CARTESIAN_POINT('',(-0.04,0.0230686291501016,-0.014));
#757=CARTESIAN_POINT('',(-0.04,0.,-0.014));
#758=CARTESIAN_POINT('',(0.04,0.0230686291501016,-0.014));
#759=CARTESIAN_POINT('',(0.,0.,-0.014));
#760=CARTESIAN_POINT('',(-0.04,0.025,0.));
#761=CARTESIAN_POINT('',(-0.04,0.0230686291501016,-0.014));
#762=CARTESIAN_POINT('',(-0.04,0.,0.));
#763=CARTESIAN_POINT('',(0.,0.,0.));
#764=CARTESIAN_POINT('',(-0.03,0.0175,-0.0062));
#765=CARTESIAN_POINT('',(-0.03,0.0230686291501016,0.014));
#766=CARTESIAN_POINT('',(-0.03,0.005,0.009));
#767=CARTESIAN_POINT('',(0.,0.01,-0.0062));
#768=CARTESIAN_POINT('',(0.,0.01,-0.0062));
#769=CARTESIAN_POINT('',(0.03,0.01,-0.0062));
#770=CARTESIAN_POINT('',(0.0025,0.01,0.009));
#771=CARTESIAN_POINT('',(0.0025,0.01,0.009));
#772=CARTESIAN_POINT('',(0.,0.01,0.009));
#773=CARTESIAN_POINT('',(0.03,0.01,0.009));
#774=CARTESIAN_POINT('',(0.03,0.01,-0.0062));
#775=CARTESIAN_POINT('',(0.03,0.0175,-0.0062));
#776=CARTESIAN_POINT('',(0.03,0.0230686291501016,-0.0062));
#777=CARTESIAN_POINT('',(0.03,0.0230686291501016,-0.0062));
#778=CARTESIAN_POINT('',(0.03,0.0175,-0.0062));
#779=CARTESIAN_POINT('',(0.03,0.005,0.009));
#780=CARTESIAN_POINT('',(0.,0.0125,-0.0062));
#781=CARTESIAN_POINT('',(0.,0.0230686291501016,-0.0062));
#782=CARTESIAN_POINT('',(-1.09865820145198E-18,0.0095,0.0039));
#783=CARTESIAN_POINT('',(-0.0005,0.0095,0.0111794494717703));
#784=CARTESIAN_POINT('',(-0.0025,0.0095,0.0111794494717703));
#785=CARTESIAN_POINT('',(0.0025,0.0095,0.0111794494717703));
#786=CARTESIAN_POINT('',(0.0025,0.0095,0.0111794494717703));
#787=CARTESIAN_POINT('',(0.00226260197497865,0.0095,0.0111794494717703));
#788=CARTESIAN_POINT('',(0.00181107001901868,0.0095,0.0109728700833717));
#789=CARTESIAN_POINT('',(0.00128546299296581,0.0095,0.0101725892980908));
#790=CARTESIAN_POINT('',(0.0011771243444677,0.0095,0.00946889291945193));
#791=CARTESIAN_POINT('',(0.0011771243444677,0.0095,0.009));
#792=CARTESIAN_POINT('',(0.0011771243444677,0.0095,0.009));
#793=CARTESIAN_POINT('',(0.0011771243444677,0.0095,0.00115));
#794=CARTESIAN_POINT('',(-0.00117712434446771,0.0095,0.00115));
#795=CARTESIAN_POINT('',(-0.00117712434446771,0.0095,0.009));
#796=CARTESIAN_POINT('',(-0.00117712434446771,0.0095,0.009));
#797=CARTESIAN_POINT('',(-0.00117712434446771,0.0095,0.00946909506116543));
#798=CARTESIAN_POINT('',(-0.00128499107261621,0.0095,0.0101738813396388));
#799=CARTESIAN_POINT('',(-0.00181388666452577,0.0095,0.0109749783312069));
#800=CARTESIAN_POINT('',(-0.00226267594181565,0.0095,0.0111794494717704));
#801=CARTESIAN_POINT('',(-0.0025,0.0095,0.0111794494717704));
#802=CARTESIAN_POINT('',(2.31296463463574E-18,0.005,0.009));
#803=CARTESIAN_POINT('',(-0.0025,0.005,0.009));
#804=CARTESIAN_POINT('',(0.0025,0.005,0.009));
#805=CARTESIAN_POINT('',(-0.0025,0.005,0.009));
#806=CARTESIAN_POINT('',(-0.0025,0.008,0.009));
#807=CARTESIAN_POINT('',(-0.0025,0.008,-0.0062));
#808=CARTESIAN_POINT('',(-0.0025,0.008,-0.0082));
#809=CARTESIAN_POINT('',(-0.0025,0.0125,-0.0082));
#810=CARTESIAN_POINT('',(-0.00117712434446771,0.0243653059987799,-0.0067));
#811=CARTESIAN_POINT('',(-0.00157295379533973,0.0239799551847317,-0.00635091123713246));
#812=CARTESIAN_POINT('',(-0.0020401019222627,0.0235205677266172,-0.0062));
#813=CARTESIAN_POINT('',(-0.0025,0.0230686291501016,-0.0062));
#814=CARTESIAN_POINT('',(0.0025,0.005,0.009));
#815=CARTESIAN_POINT('',(0.0025,0.008,0.009));
#816=CARTESIAN_POINT('',(0.0025,0.008,0.0039));
#817=CARTESIAN_POINT('',(0.,0.0230686291501016,-0.00813137084989847));
#818=CARTESIAN_POINT('',(0.0319313708498985,0.0230686291501016,-0.00813137084989847));
#819=CARTESIAN_POINT('',(-0.0319313708498985,0.0230686291501016,-0.00813137084989847));
#820=CARTESIAN_POINT('',(0.0319313708498985,0.0230686291501016,0.));
#821=CARTESIAN_POINT('',(0.0319313708498985,0.0230686291501016,0.0120686291501015));
#822=CARTESIAN_POINT('',(-0.0319313708498985,0.0230686291501016,-0.0062));
#823=CARTESIAN_POINT('',(-0.0319313708498985,0.0230686291501016,0.0120686291501015));
#824=CARTESIAN_POINT('',(0.,0.0230686291501016,0.0120686291501015));
#825=CARTESIAN_POINT('',(0.0380686291501015,0.0230686291501016,0.0120686291501015));
#826=CARTESIAN_POINT('',(0.,0.0230686291501016,0.0120686291501015));
#827=CARTESIAN_POINT('',(-0.0380686291501015,0.0230686291501016,0.0120686291501015));
#828=CARTESIAN_POINT('',(0.0380686291501015,0.0230686291501016,0.));
#829=CARTESIAN_POINT('',(0.0380686291501015,0.0230686291501016,-0.0120686291501015));
#830=CARTESIAN_POINT('',(-0.0380686291501015,0.0230686291501016,0.));
#831=CARTESIAN_POINT('',(-0.0380686291501015,0.0230686291501016,-0.0120686291501015));
#832=CARTESIAN_POINT('',(0.,0.0230686291501016,-0.0120686291501015));
#833=MECHANICAL_DESIGN_GEOMETRIC_PRESENTATION_REPRESENTATION('',(#484),
#834);
#834=(
GEOMETRIC_REPRESENTATION_CONTEXT(3)
GLOBAL_UNCERTAINTY_ASSIGNED_CONTEXT((#835))
GLOBAL_UNIT_ASSIGNED_CONTEXT((#838,#837,#836))
REPRESENTATION_CONTEXT('Part 1','TOP_LEVEL_ASSEMBLY_PART')
);
#835=UNCERTAINTY_MEASURE_WITH_UNIT(LENGTH_MEASURE(2.E-5),#838,
'DISTANCE_ACCURACY_VALUE','Maximum Tolerance applied to model');
#836=(
NAMED_UNIT(*)
SI_UNIT($,.STERADIAN.)
SOLID_ANGLE_UNIT()
);
#837=(
NAMED_UNIT(*)
PLANE_ANGLE_UNIT()
SI_UNIT($,.RADIAN.)
);
#838=(
LENGTH_UNIT()
NAMED_UNIT(*)
SI_UNIT($,.METRE.)
);
#839=PRODUCT_DEFINITION_SHAPE('','',#840);
#840=PRODUCT_DEFINITION('','',#842,#841);
#841=PRODUCT_DEFINITION_CONTEXT('',#848,'design');
#842=PRODUCT_DEFINITION_FORMATION_WITH_SPECIFIED_SOURCE('','',#844,
 .NOT_KNOWN.);
#843=PRODUCT_RELATED_PRODUCT_CATEGORY('','',(#844));
#844=PRODUCT('Part 1','Part 1','Part 1',(#846));
#845=PRODUCT_CATEGORY('','');
#846=PRODUCT_CONTEXT('',#848,'mechanical');
#847=APPLICATION_PROTOCOL_DEFINITION('international standard',
'ap242_managed_model_based_3d_engineering',2020,#848);
#848=APPLICATION_CONTEXT('managed model based 3d engineering');
ENDSEC;
END-ISO-10303-21;
