ISO-10303-21;
HEADER;
/* Generated by software containing ST-Developer
 * from STEP Tools, Inc. (www.steptools.com) 
 */
/* OPTION: using custom renumber hook */

FILE_DESCRIPTION(
/* description */ ('STEP AP242 Edition 2',
'CAx-IF Rec.Pracs.---Representation and Presentation of Product Manufa
cturing Information (PMI)---4.0---2014-10-13',
'CAx-IF Rec.Pracs.---3D Tessellated Geometry---0.4---2014-09-14','2;1',
'CAx-IF Rec.Pracs.---User Defined Attributes---1.5---2016-08-15'),
/* implementation_level */ '2;1');

FILE_NAME(
/* name */ 'Floor',
/* time_stamp */ '2026-09-09T01:30:44Z',
/* author */ (''),
/* organization */ (''),
/* preprocessor_version */ 'ST-DEVELOPER v20',
/* originating_system */ 'ONSHAPE BY PTC INC, 1.220',
/* authorisation */ '  ');

FILE_SCHEMA (('AP242_MANAGED_MODEL_BASED_3D_ENGINEERING_MIM_LF { 1 0 10303 442 3 1 4 }'));
ENDSEC;

DATA;
#10=SHAPE_REPRESENTATION_RELATIONSHIP('','',#289,#11);
#11=ADVANCED_BREP_SHAPE_REPRESENTATION('',(#287),#451);
#12=ORIENTED_EDGE('',*,*,#84,.F.);
#13=ORIENTED_EDGE('',*,*,#85,.T.);
#14=ORIENTED_EDGE('',*,*,#86,.T.);
#15=ORIENTED_EDGE('',*,*,#87,.F.);
#16=ORIENTED_EDGE('',*,*,#88,.F.);
#17=ORIENTED_EDGE('',*,*,#84,.T.);
#18=ORIENTED_EDGE('',*,*,#89,.T.);
#19=ORIENTED_EDGE('',*,*,#90,.F.);
#20=ORIENTED_EDGE('',*,*,#91,.F.);
#21=ORIENTED_EDGE('',*,*,#90,.T.);
#22=ORIENTED_EDGE('',*,*,#92,.T.);
#23=ORIENTED_EDGE('',*,*,#93,.F.);
#24=ORIENTED_EDGE('',*,*,#94,.F.);
#25=ORIENTED_EDGE('',*,*,#95,.T.);
#26=ORIENTED_EDGE('',*,*,#93,.T.);
#27=ORIENTED_EDGE('',*,*,#96,.F.);
#28=ORIENTED_EDGE('',*,*,#86,.F.);
#29=ORIENTED_EDGE('',*,*,#97,.T.);
#30=ORIENTED_EDGE('',*,*,#98,.T.);
#31=ORIENTED_EDGE('',*,*,#99,.T.);
#32=ORIENTED_EDGE('',*,*,#100,.F.);
#33=ORIENTED_EDGE('',*,*,#101,.T.);
#34=ORIENTED_EDGE('',*,*,#102,.T.);
#35=ORIENTED_EDGE('',*,*,#103,.F.);
#36=ORIENTED_EDGE('',*,*,#104,.F.);
#37=ORIENTED_EDGE('',*,*,#99,.F.);
#38=ORIENTED_EDGE('',*,*,#105,.T.);
#39=ORIENTED_EDGE('',*,*,#106,.F.);
#40=ORIENTED_EDGE('',*,*,#87,.T.);
#41=ORIENTED_EDGE('',*,*,#96,.T.);
#42=ORIENTED_EDGE('',*,*,#92,.F.);
#43=ORIENTED_EDGE('',*,*,#89,.F.);
#44=ORIENTED_EDGE('',*,*,#104,.T.);
#45=ORIENTED_EDGE('',*,*,#107,.F.);
#46=ORIENTED_EDGE('',*,*,#108,.F.);
#47=ORIENTED_EDGE('',*,*,#94,.T.);
#48=ORIENTED_EDGE('',*,*,#106,.T.);
#49=ORIENTED_EDGE('',*,*,#109,.F.);
#50=ORIENTED_EDGE('',*,*,#110,.F.);
#51=ORIENTED_EDGE('',*,*,#107,.T.);
#52=ORIENTED_EDGE('',*,*,#105,.F.);
#53=ORIENTED_EDGE('',*,*,#98,.F.);
#54=ORIENTED_EDGE('',*,*,#111,.T.);
#55=ORIENTED_EDGE('',*,*,#109,.T.);
#56=ORIENTED_EDGE('',*,*,#95,.F.);
#57=ORIENTED_EDGE('',*,*,#108,.T.);
#58=ORIENTED_EDGE('',*,*,#110,.T.);
#59=ORIENTED_EDGE('',*,*,#111,.F.);
#60=ORIENTED_EDGE('',*,*,#97,.F.);
#61=ORIENTED_EDGE('',*,*,#85,.F.);
#62=ORIENTED_EDGE('',*,*,#88,.T.);
#63=ORIENTED_EDGE('',*,*,#91,.T.);
#64=ORIENTED_EDGE('',*,*,#100,.T.);
#65=ORIENTED_EDGE('',*,*,#112,.F.);
#66=ORIENTED_EDGE('',*,*,#113,.F.);
#67=ORIENTED_EDGE('',*,*,#114,.T.);
#68=ORIENTED_EDGE('',*,*,#103,.T.);
#69=ORIENTED_EDGE('',*,*,#115,.F.);
#70=ORIENTED_EDGE('',*,*,#116,.F.);
#71=ORIENTED_EDGE('',*,*,#112,.T.);
#72=ORIENTED_EDGE('',*,*,#102,.F.);
#73=ORIENTED_EDGE('',*,*,#117,.F.);
#74=ORIENTED_EDGE('',*,*,#118,.T.);
#75=ORIENTED_EDGE('',*,*,#115,.T.);
#76=ORIENTED_EDGE('',*,*,#101,.F.);
#77=ORIENTED_EDGE('',*,*,#114,.F.);
#78=ORIENTED_EDGE('',*,*,#119,.T.);
#79=ORIENTED_EDGE('',*,*,#117,.T.);
#80=ORIENTED_EDGE('',*,*,#113,.T.);
#81=ORIENTED_EDGE('',*,*,#116,.T.);
#82=ORIENTED_EDGE('',*,*,#118,.F.);
#83=ORIENTED_EDGE('',*,*,#119,.F.);
#84=EDGE_CURVE('',#120,#121,#144,.T.);
#85=EDGE_CURVE('',#120,#122,#145,.T.);
#86=EDGE_CURVE('',#122,#123,#146,.T.);
#87=EDGE_CURVE('',#121,#123,#147,.T.);
#88=EDGE_CURVE('',#120,#124,#148,.T.);
#89=EDGE_CURVE('',#121,#125,#149,.T.);
#90=EDGE_CURVE('',#124,#125,#150,.T.);
#91=EDGE_CURVE('',#124,#126,#151,.T.);
#92=EDGE_CURVE('',#125,#127,#152,.T.);
#93=EDGE_CURVE('',#126,#127,#153,.T.);
#94=EDGE_CURVE('',#128,#129,#154,.T.);
#95=EDGE_CURVE('',#128,#126,#155,.T.);
#96=EDGE_CURVE('',#123,#127,#156,.T.);
#97=EDGE_CURVE('',#122,#130,#157,.T.);
#98=EDGE_CURVE('',#130,#131,#158,.T.);
#99=EDGE_CURVE('',#131,#129,#159,.T.);
#100=EDGE_CURVE('',#132,#133,#160,.T.);
#101=EDGE_CURVE('',#132,#134,#161,.T.);
#102=EDGE_CURVE('',#134,#135,#162,.T.);
#103=EDGE_CURVE('',#133,#135,#163,.T.);
#104=EDGE_CURVE('',#129,#136,#164,.T.);
#105=EDGE_CURVE('',#131,#137,#165,.T.);
#106=EDGE_CURVE('',#136,#137,#166,.T.);
#107=EDGE_CURVE('',#138,#136,#167,.T.);
#108=EDGE_CURVE('',#128,#138,#168,.T.);
#109=EDGE_CURVE('',#139,#137,#169,.T.);
#110=EDGE_CURVE('',#138,#139,#170,.T.);
#111=EDGE_CURVE('',#130,#139,#171,.T.);
#112=EDGE_CURVE('',#140,#133,#172,.T.);
#113=EDGE_CURVE('',#141,#140,#173,.T.);
#114=EDGE_CURVE('',#141,#132,#174,.T.);
#115=EDGE_CURVE('',#142,#135,#175,.T.);
#116=EDGE_CURVE('',#140,#142,#176,.T.);
#117=EDGE_CURVE('',#143,#134,#177,.T.);
#118=EDGE_CURVE('',#143,#142,#178,.T.);
#119=EDGE_CURVE('',#141,#143,#179,.T.);
#120=VERTEX_POINT('',#377);
#121=VERTEX_POINT('',#378);
#122=VERTEX_POINT('',#380);
#123=VERTEX_POINT('',#382);
#124=VERTEX_POINT('',#386);
#125=VERTEX_POINT('',#388);
#126=VERTEX_POINT('',#392);
#127=VERTEX_POINT('',#394);
#128=VERTEX_POINT('',#398);
#129=VERTEX_POINT('',#399);
#130=VERTEX_POINT('',#403);
#131=VERTEX_POINT('',#405);
#132=VERTEX_POINT('',#409);
#133=VERTEX_POINT('',#410);
#134=VERTEX_POINT('',#412);
#135=VERTEX_POINT('',#414);
#136=VERTEX_POINT('',#417);
#137=VERTEX_POINT('',#419);
#138=VERTEX_POINT('',#424);
#139=VERTEX_POINT('',#428);
#140=VERTEX_POINT('',#435);
#141=VERTEX_POINT('',#437);
#142=VERTEX_POINT('',#441);
#143=VERTEX_POINT('',#445);
#144=LINE('',#376,#180);
#145=LINE('',#379,#181);
#146=LINE('',#381,#182);
#147=LINE('',#383,#183);
#148=LINE('',#385,#184);
#149=LINE('',#387,#185);
#150=LINE('',#389,#186);
#151=LINE('',#391,#187);
#152=LINE('',#393,#188);
#153=LINE('',#395,#189);
#154=LINE('',#397,#190);
#155=LINE('',#400,#191);
#156=LINE('',#401,#192);
#157=LINE('',#402,#193);
#158=LINE('',#404,#194);
#159=LINE('',#406,#195);
#160=LINE('',#408,#196);
#161=LINE('',#411,#197);
#162=LINE('',#413,#198);
#163=LINE('',#415,#199);
#164=LINE('',#416,#200);
#165=LINE('',#418,#201);
#166=LINE('',#420,#202);
#167=LINE('',#423,#203);
#168=LINE('',#425,#204);
#169=LINE('',#427,#205);
#170=LINE('',#429,#206);
#171=LINE('',#431,#207);
#172=LINE('',#434,#208);
#173=LINE('',#436,#209);
#174=LINE('',#438,#210);
#175=LINE('',#440,#211);
#176=LINE('',#442,#212);
#177=LINE('',#444,#213);
#178=LINE('',#446,#214);
#179=LINE('',#448,#215);
#180=VECTOR('',#310,1.);
#181=VECTOR('',#311,1.);
#182=VECTOR('',#312,1.);
#183=VECTOR('',#313,1.);
#184=VECTOR('',#316,1.);
#185=VECTOR('',#317,1.);
#186=VECTOR('',#318,1.);
#187=VECTOR('',#321,1.);
#188=VECTOR('',#322,1.);
#189=VECTOR('',#323,1.);
#190=VECTOR('',#326,1.);
#191=VECTOR('',#327,1.);
#192=VECTOR('',#328,1.);
#193=VECTOR('',#329,1.);
#194=VECTOR('',#330,1.);
#195=VECTOR('',#331,1.);
#196=VECTOR('',#334,1.);
#197=VECTOR('',#335,1.);
#198=VECTOR('',#336,1.);
#199=VECTOR('',#337,1.);
#200=VECTOR('',#338,1.);
#201=VECTOR('',#339,1.);
#202=VECTOR('',#340,1.);
#203=VECTOR('',#345,1.);
#204=VECTOR('',#346,1.);
#205=VECTOR('',#349,1.);
#206=VECTOR('',#350,1.);
#207=VECTOR('',#353,1.);
#208=VECTOR('',#358,1.);
#209=VECTOR('',#359,1.);
#210=VECTOR('',#360,1.);
#211=VECTOR('',#363,1.);
#212=VECTOR('',#364,1.);
#213=VECTOR('',#367,1.);
#214=VECTOR('',#368,1.);
#215=VECTOR('',#371,1.);
#216=EDGE_LOOP('',(#12,#13,#14,#15));
#217=EDGE_LOOP('',(#16,#17,#18,#19));
#218=EDGE_LOOP('',(#20,#21,#22,#23));
#219=EDGE_LOOP('',(#24,#25,#26,#27,#28,#29,#30,#31));
#220=EDGE_LOOP('',(#32,#33,#34,#35));
#221=EDGE_LOOP('',(#36,#37,#38,#39));
#222=EDGE_LOOP('',(#40,#41,#42,#43));
#223=EDGE_LOOP('',(#44,#45,#46,#47));
#224=EDGE_LOOP('',(#48,#49,#50,#51));
#225=EDGE_LOOP('',(#52,#53,#54,#55));
#226=EDGE_LOOP('',(#56,#57,#58,#59,#60,#61,#62,#63));
#227=EDGE_LOOP('',(#64,#65,#66,#67));
#228=EDGE_LOOP('',(#68,#69,#70,#71));
#229=EDGE_LOOP('',(#72,#73,#74,#75));
#230=EDGE_LOOP('',(#76,#77,#78,#79));
#231=EDGE_LOOP('',(#80,#81,#82,#83));
#232=FACE_BOUND('',#216,.T.);
#233=FACE_BOUND('',#217,.T.);
#234=FACE_BOUND('',#218,.T.);
#235=FACE_BOUND('',#219,.T.);
#236=FACE_BOUND('',#220,.T.);
#237=FACE_BOUND('',#221,.T.);
#238=FACE_BOUND('',#222,.T.);
#239=FACE_BOUND('',#223,.T.);
#240=FACE_BOUND('',#224,.T.);
#241=FACE_BOUND('',#225,.T.);
#242=FACE_BOUND('',#226,.T.);
#243=FACE_BOUND('',#227,.T.);
#244=FACE_BOUND('',#228,.T.);
#245=FACE_BOUND('',#229,.T.);
#246=FACE_BOUND('',#230,.T.);
#247=FACE_BOUND('',#231,.T.);
#248=PLANE('',#291);
#249=PLANE('',#292);
#250=PLANE('',#293);
#251=PLANE('',#294);
#252=PLANE('',#295);
#253=PLANE('',#296);
#254=PLANE('',#297);
#255=PLANE('',#298);
#256=PLANE('',#299);
#257=PLANE('',#300);
#258=PLANE('',#301);
#259=PLANE('',#302);
#260=PLANE('',#303);
#261=PLANE('',#304);
#262=PLANE('',#305);
#263=ADVANCED_FACE('',(#232),#248,.T.);
#264=ADVANCED_FACE('',(#233),#249,.F.);
#265=ADVANCED_FACE('',(#234),#250,.F.);
#266=ADVANCED_FACE('',(#235),#251,.T.);
#267=ADVANCED_FACE('',(#236,#237),#252,.T.);
#268=ADVANCED_FACE('',(#238),#253,.F.);
#269=ADVANCED_FACE('',(#239),#254,.F.);
#270=ADVANCED_FACE('',(#240),#255,.F.);
#271=ADVANCED_FACE('',(#241),#256,.T.);
#272=ADVANCED_FACE('',(#242),#257,.T.);
#273=ADVANCED_FACE('',(#243),#258,.F.);
#274=ADVANCED_FACE('',(#244),#259,.F.);
#275=ADVANCED_FACE('',(#245),#260,.T.);
#276=ADVANCED_FACE('',(#246),#261,.T.);
#277=ADVANCED_FACE('',(#247),#262,.T.);
#278=CLOSED_SHELL('',(#263,#264,#265,#266,#267,#268,#269,#270,#271,#272,
#273,#274,#275,#276,#277));
#279=STYLED_ITEM('',(#280),#287);
#280=PRESENTATION_STYLE_ASSIGNMENT((#281));
#281=SURFACE_STYLE_USAGE(.BOTH.,#282);
#282=SURFACE_SIDE_STYLE('',(#283));
#283=SURFACE_STYLE_FILL_AREA(#284);
#284=FILL_AREA_STYLE('',(#285));
#285=FILL_AREA_STYLE_COLOUR('',#286);
#286=COLOUR_RGB('',0.796078431372549,0.905882352941176,0.745098039215686);
#287=MANIFOLD_SOLID_BREP('Part 1',#278);
#288=SHAPE_DEFINITION_REPRESENTATION(#456,#289);
#289=SHAPE_REPRESENTATION('Part 1',(#290),#451);
#290=AXIS2_PLACEMENT_3D('',#374,#306,#307);
#291=AXIS2_PLACEMENT_3D('',#375,#308,#309);
#292=AXIS2_PLACEMENT_3D('',#384,#314,#315);
#293=AXIS2_PLACEMENT_3D('',#390,#319,#320);
#294=AXIS2_PLACEMENT_3D('',#396,#324,#325);
#295=AXIS2_PLACEMENT_3D('',#407,#332,#333);
#296=AXIS2_PLACEMENT_3D('',#421,#341,#342);
#297=AXIS2_PLACEMENT_3D('',#422,#343,#344);
#298=AXIS2_PLACEMENT_3D('',#426,#347,#348);
#299=AXIS2_PLACEMENT_3D('',#430,#351,#352);
#300=AXIS2_PLACEMENT_3D('',#432,#354,#355);
#301=AXIS2_PLACEMENT_3D('',#433,#356,#357);
#302=AXIS2_PLACEMENT_3D('',#439,#361,#362);
#303=AXIS2_PLACEMENT_3D('',#443,#365,#366);
#304=AXIS2_PLACEMENT_3D('',#447,#369,#370);
#305=AXIS2_PLACEMENT_3D('',#449,#372,#373);
#306=DIRECTION('',(0.,0.,1.));
#307=DIRECTION('',(1.,0.,0.));
#308=DIRECTION('',(1.,0.,9.91270557701033E-17));
#309=DIRECTION('',(9.91270557701033E-17,0.,-1.));
#310=DIRECTION('',(0.,-1.,0.));
#311=DIRECTION('',(-9.91270557701033E-17,0.,1.));
#312=DIRECTION('',(0.,-1.,0.));
#313=DIRECTION('',(-9.91270557701033E-17,0.,1.));
#314=DIRECTION('',(0.,0.,1.));
#315=DIRECTION('',(0.,-1.,0.));
#316=DIRECTION('',(-1.,0.,0.));
#317=DIRECTION('',(-1.,0.,0.));
#318=DIRECTION('',(0.,-1.,0.));
#319=DIRECTION('',(1.,0.,9.91270557701032E-17));
#320=DIRECTION('',(9.91270557701032E-17,0.,-1.));
#321=DIRECTION('',(-9.91270557701032E-17,0.,1.));
#322=DIRECTION('',(-9.91270557701032E-17,0.,1.));
#323=DIRECTION('',(0.,-1.,0.));
#324=DIRECTION('',(0.,0.,1.));
#325=DIRECTION('',(0.,-1.,0.));
#326=DIRECTION('',(0.,1.,0.));
#327=DIRECTION('',(-1.,0.,0.));
#328=DIRECTION('',(-1.,0.,0.));
#329=DIRECTION('',(-1.,0.,0.));
#330=DIRECTION('',(0.,1.,0.));
#331=DIRECTION('',(-1.,0.,0.));
#332=DIRECTION('',(0.,1.,0.));
#333=DIRECTION('',(1.,0.,0.));
#334=DIRECTION('',(0.,0.,1.));
#335=DIRECTION('',(1.,0.,-1.25767452008318E-16));
#336=DIRECTION('',(2.04085114820801E-16,0.,1.));
#337=DIRECTION('',(1.,0.,0.));
#338=DIRECTION('',(0.,0.,-1.));
#339=DIRECTION('',(0.,0.,-1.));
#340=DIRECTION('',(1.,0.,0.));
#341=DIRECTION('',(0.,1.,0.));
#342=DIRECTION('',(1.,0.,0.));
#343=DIRECTION('',(1.,0.,0.));
#344=DIRECTION('',(0.,-1.,0.));
#345=DIRECTION('',(0.,1.,0.));
#346=DIRECTION('',(0.,0.,-1.));
#347=DIRECTION('',(0.,0.,1.));
#348=DIRECTION('',(0.,-1.,0.));
#349=DIRECTION('',(0.,1.,0.));
#350=DIRECTION('',(1.,0.,0.));
#351=DIRECTION('',(1.,0.,0.));
#352=DIRECTION('',(0.,-1.,0.));
#353=DIRECTION('',(0.,0.,-1.));
#354=DIRECTION('',(0.,1.,0.));
#355=DIRECTION('',(1.,0.,0.));
#356=DIRECTION('',(1.,0.,0.));
#357=DIRECTION('',(0.,-1.,0.));
#358=DIRECTION('',(0.,-1.,0.));
#359=DIRECTION('',(0.,0.,1.));
#360=DIRECTION('',(0.,-1.,0.));
#361=DIRECTION('',(0.,0.,-1.));
#362=DIRECTION('',(0.,1.,0.));
#363=DIRECTION('',(0.,-1.,0.));
#364=DIRECTION('',(1.,0.,0.));
#365=DIRECTION('',(1.,0.,-2.04085114820801E-16));
#366=DIRECTION('',(-2.04085114820801E-16,0.,-1.));
#367=DIRECTION('',(0.,-1.,0.));
#368=DIRECTION('',(2.04085114820801E-16,0.,1.));
#369=DIRECTION('',(-1.25767452008318E-16,0.,-1.));
#370=DIRECTION('',(-1.,0.,1.25767452008318E-16));
#371=DIRECTION('',(1.,0.,-1.25767452008318E-16));
#372=DIRECTION('',(0.,1.,0.));
#373=DIRECTION('',(1.,0.,0.));
#374=CARTESIAN_POINT('',(0.,0.,0.));
#375=CARTESIAN_POINT('',(0.07,0.0025,-2.77555756156289E-17));
#376=CARTESIAN_POINT('',(0.07,0.0025,-0.07));
#377=CARTESIAN_POINT('',(0.07,0.001,-0.07));
#378=CARTESIAN_POINT('',(0.07,0.,-0.07));
#379=CARTESIAN_POINT('',(0.07,0.001,-2.77555756156289E-17));
#380=CARTESIAN_POINT('',(0.07,0.001,0.07));
#381=CARTESIAN_POINT('',(0.07,0.0025,0.07));
#382=CARTESIAN_POINT('',(0.07,0.,0.07));
#383=CARTESIAN_POINT('',(0.07,0.,-2.77555756156289E-17));
#384=CARTESIAN_POINT('',(-1.38777878078145E-17,0.0025,-0.07));
#385=CARTESIAN_POINT('',(-1.38777878078145E-17,0.001,-0.07));
#386=CARTESIAN_POINT('',(-0.07,0.001,-0.07));
#387=CARTESIAN_POINT('',(-1.38777878078145E-17,0.,-0.07));
#388=CARTESIAN_POINT('',(-0.07,0.,-0.07));
#389=CARTESIAN_POINT('',(-0.07,0.0025,-0.07));
#390=CARTESIAN_POINT('',(-0.07,0.0025,-1.38777878078145E-17));
#391=CARTESIAN_POINT('',(-0.07,0.001,-1.38777878078145E-17));
#392=CARTESIAN_POINT('',(-0.07,0.001,0.07));
#393=CARTESIAN_POINT('',(-0.07,0.,-1.38777878078145E-17));
#394=CARTESIAN_POINT('',(-0.07,0.,0.07));
#395=CARTESIAN_POINT('',(-0.07,0.0025,0.07));
#396=CARTESIAN_POINT('',(0.,0.0025,0.07));
#397=CARTESIAN_POINT('',(-0.0675,0.001,0.07));
#398=CARTESIAN_POINT('',(-0.0675,0.001,0.07));
#399=CARTESIAN_POINT('',(-0.0675,0.0025,0.07));
#400=CARTESIAN_POINT('',(0.,0.001,0.07));
#401=CARTESIAN_POINT('',(0.,0.,0.07));
#402=CARTESIAN_POINT('',(0.,0.001,0.07));
#403=CARTESIAN_POINT('',(0.0675,0.001,0.07));
#404=CARTESIAN_POINT('',(0.0675,0.001,0.07));
#405=CARTESIAN_POINT('',(0.0675,0.0025,0.07));
#406=CARTESIAN_POINT('',(0.,0.0025,0.07));
#407=CARTESIAN_POINT('',(0.,0.0025,-2.77555756156289E-17));
#408=CARTESIAN_POINT('',(-0.0625,0.0025,0.0310977038666606));
#409=CARTESIAN_POINT('',(-0.0625,0.0025,-0.003));
#410=CARTESIAN_POINT('',(-0.0625,0.0025,0.065));
#411=CARTESIAN_POINT('',(-0.0125,0.0025,-0.003));
#412=CARTESIAN_POINT('',(0.0375,0.0025,-0.003));
#413=CARTESIAN_POINT('',(0.0375,0.0025,0.031));
#414=CARTESIAN_POINT('',(0.0375,0.0025,0.065));
#415=CARTESIAN_POINT('',(-0.0125,0.0025,0.065));
#416=CARTESIAN_POINT('',(-0.0675,0.0025,0.00125));
#417=CARTESIAN_POINT('',(-0.0675,0.0025,-0.0675));
#418=CARTESIAN_POINT('',(0.0675,0.0025,0.00124999999999997));
#419=CARTESIAN_POINT('',(0.0675,0.0025,-0.0675));
#420=CARTESIAN_POINT('',(-3.46944695195361E-17,0.0025,-0.0675));
#421=CARTESIAN_POINT('',(0.,0.,-2.77555756156289E-17));
#422=CARTESIAN_POINT('',(-0.0675,0.001,0.00125));
#423=CARTESIAN_POINT('',(-0.0675,0.001,-0.0675));
#424=CARTESIAN_POINT('',(-0.0675,0.001,-0.0675));
#425=CARTESIAN_POINT('',(-0.0675,0.001,0.00125));
#426=CARTESIAN_POINT('',(-3.46944695195361E-17,0.001,-0.0675));
#427=CARTESIAN_POINT('',(0.0675,0.001,-0.0675));
#428=CARTESIAN_POINT('',(0.0675,0.001,-0.0675));
#429=CARTESIAN_POINT('',(-3.46944695195361E-17,0.001,-0.0675));
#430=CARTESIAN_POINT('',(0.0675,0.001,0.00124999999999997));
#431=CARTESIAN_POINT('',(0.0675,0.001,0.00124999999999997));
#432=CARTESIAN_POINT('',(0.,0.001,-1.38777878078145E-17));
#433=CARTESIAN_POINT('',(-0.0625,0.004,0.0310977038666606));
#434=CARTESIAN_POINT('',(-0.0625,0.004,0.065));
#435=CARTESIAN_POINT('',(-0.0625,0.004,0.065));
#436=CARTESIAN_POINT('',(-0.0625,0.004,0.0310977038666606));
#437=CARTESIAN_POINT('',(-0.0625,0.004,-0.003));
#438=CARTESIAN_POINT('',(-0.0625,0.004,-0.003));
#439=CARTESIAN_POINT('',(-0.0125,0.004,0.065));
#440=CARTESIAN_POINT('',(0.0375,0.004,0.065));
#441=CARTESIAN_POINT('',(0.0375,0.004,0.065));
#442=CARTESIAN_POINT('',(-0.0125,0.004,0.065));
#443=CARTESIAN_POINT('',(0.0375,0.004,0.031));
#444=CARTESIAN_POINT('',(0.0375,0.004,-0.003));
#445=CARTESIAN_POINT('',(0.0375,0.004,-0.003));
#446=CARTESIAN_POINT('',(0.0375,0.004,0.031));
#447=CARTESIAN_POINT('',(-0.0125,0.004,-0.003));
#448=CARTESIAN_POINT('',(-0.0125,0.004,-0.003));
#449=CARTESIAN_POINT('',(-1.38777878078145E-17,0.004,0.00124999999999997));
#450=MECHANICAL_DESIGN_GEOMETRIC_PRESENTATION_REPRESENTATION('',(#279),
#451);
#451=(
GEOMETRIC_REPRESENTATION_CONTEXT(3)
GLOBAL_UNCERTAINTY_ASSIGNED_CONTEXT((#452))
GLOBAL_UNIT_ASSIGNED_CONTEXT((#455,#454,#453))
REPRESENTATION_CONTEXT('Part 1','TOP_LEVEL_ASSEMBLY_PART')
);
#452=UNCERTAINTY_MEASURE_WITH_UNIT(LENGTH_MEASURE(1.E-8),#455,
'DISTANCE_ACCURACY_VALUE','Maximum Tolerance applied to model');
#453=(
NAMED_UNIT(*)
SI_UNIT($,.STERADIAN.)
SOLID_ANGLE_UNIT()
);
#454=(
NAMED_UNIT(*)
PLANE_ANGLE_UNIT()
SI_UNIT($,.RADIAN.)
);
#455=(
LENGTH_UNIT()
NAMED_UNIT(*)
SI_UNIT($,.METRE.)
);
#456=PRODUCT_DEFINITION_SHAPE('','',#457);
#457=PRODUCT_DEFINITION('','',#459,#458);
#458=PRODUCT_DEFINITION_CONTEXT('',#465,'design');
#459=PRODUCT_DEFINITION_FORMATION_WITH_SPECIFIED_SOURCE('','',#461,
 .NOT_KNOWN.);
#460=PRODUCT_RELATED_PRODUCT_CATEGORY('','',(#461));
#461=PRODUCT('Part 1','Part 1','Part 1',(#463));
#462=PRODUCT_CATEGORY('','');
#463=PRODUCT_CONTEXT('',#465,'mechanical');
#464=APPLICATION_PROTOCOL_DEFINITION('international standard',
'ap242_managed_model_based_3d_engineering',2020,#465);
#465=APPLICATION_CONTEXT('managed model based 3d engineering');
ENDSEC;
END-ISO-10303-21;
