ISO-10303-21;
HEADER;
/* Generated by software containing ST-Developer
 * from STEP Tools, Inc. (www.steptools.com) 
 */
/* OPTION: using custom renumber hook */

FILE_DESCRIPTION(
/* description */ ('STEP AP242 Edition 2',
'CAx-IF Rec.Pracs.---Representation and Presentation of Product Manufa
cturing Information (PMI)---4.0---2014-10-13',
'CAx-IF Rec.Pracs.---3D Tessellated Geometry---0.4---2014-09-14','2;1',
'CAx-IF Rec.Pracs.---User Defined Attributes---1.5---2016-08-15'),
/* implementation_level */ '2;1');

FILE_NAME(
/* name */ 'Lamp',
/* time_stamp */ '2026-09-09T01:30:50Z',
/* author */ (''),
/* organization */ (''),
/* preprocessor_version */ 'ST-DEVELOPER v20',
/* originating_system */ 'ONSHAPE BY PTC INC, 1.220',
/* authorisation */ '  ');

FILE_SCHEMA (('AP242_MANAGED_MODEL_BASED_3D_ENGINEERING_MIM_LF { 1 0 10303 442 3 1 4 }'));
ENDSEC;

DATA;
#10=SHAPE_REPRESENTATION_RELATIONSHIP('','',#124,#11);
#11=ADVANCED_BREP_SHAPE_REPRESENTATION('',(#122),#391);
#12=TOROIDAL_SURFACE('',#140,0.0045647407502198,0.00025);
#13=DEGENERATE_TOROIDAL_SURFACE('',#138,0.000945339185504014,0.000965685,
 .T.);
#14=CONICAL_SURFACE('',#133,0.0015,0.528074448426359);
#15=PLANE('',#131);
#16=PLANE('',#132);
#17=PLANE('',#136);
#18=PLANE('',#143);
#19=B_SPLINE_SURFACE_WITH_KNOTS('',3,3,((#188,#189,#190,#191,#192,#193,
#194,#195,#196,#197),(#198,#199,#200,#201,#202,#203,#204,#205,#206,#207),
(#208,#209,#210,#211,#212,#213,#214,#215,#216,#217),(#218,#219,#220,#221,
#222,#223,#224,#225,#226,#227),(#228,#229,#230,#231,#232,#233,#234,#235,
#236,#237),(#238,#239,#240,#241,#242,#243,#244,#245,#246,#247),(#248,#249,
#250,#251,#252,#253,#254,#255,#256,#257),(#258,#259,#260,#261,#262,#263,
#264,#265,#266,#267),(#268,#269,#270,#271,#272,#273,#274,#275,#276,#277),
(#278,#279,#280,#281,#282,#283,#284,#285,#286,#287),(#288,#289,#290,#291,
#292,#293,#294,#295,#296,#297),(#298,#299,#300,#301,#302,#303,#304,#305,
#306,#307),(#308,#309,#310,#311,#312,#313,#314,#315,#316,#317),(#318,#319,
#320,#321,#322,#323,#324,#325,#326,#327),(#328,#329,#330,#331,#332,#333,
#334,#335,#336,#337),(#338,#339,#340,#341,#342,#343,#344,#345,#346,#347),
(#348,#349,#350,#351,#352,#353,#354,#355,#356,#357),(#358,#359,#360,#361,
#362,#363,#364,#365,#366,#367)),.UNSPECIFIED.,.T.,.F.,.F.,(4,2,2,2,2,2,
2,2,4),(4,2,2,2,4),(0.,0.125,0.25,0.375,0.5,0.625,0.75,0.875,1.),(-0.00600015601743228,
0.500000017761943,0.626500061206787,0.753000104651631,1.00600019154132),
 .UNSPECIFIED.);
#20=ORIENTED_EDGE('',*,*,#38,.T.);
#21=ORIENTED_EDGE('',*,*,#39,.F.);
#22=ORIENTED_EDGE('',*,*,#40,.F.);
#23=ORIENTED_EDGE('',*,*,#41,.T.);
#24=ORIENTED_EDGE('',*,*,#38,.F.);
#25=ORIENTED_EDGE('',*,*,#40,.T.);
#26=ORIENTED_EDGE('',*,*,#41,.F.);
#27=ORIENTED_EDGE('',*,*,#42,.T.);
#28=ORIENTED_EDGE('',*,*,#43,.T.);
#29=ORIENTED_EDGE('',*,*,#44,.T.);
#30=ORIENTED_EDGE('',*,*,#39,.T.);
#31=ORIENTED_EDGE('',*,*,#45,.F.);
#32=ORIENTED_EDGE('',*,*,#43,.F.);
#33=ORIENTED_EDGE('',*,*,#42,.F.);
#34=ORIENTED_EDGE('',*,*,#44,.F.);
#35=ORIENTED_EDGE('',*,*,#46,.F.);
#36=ORIENTED_EDGE('',*,*,#45,.T.);
#37=ORIENTED_EDGE('',*,*,#46,.T.);
#38=EDGE_CURVE('',#47,#47,#56,.T.);
#39=EDGE_CURVE('',#48,#48,#57,.T.);
#40=EDGE_CURVE('',#49,#49,#58,.T.);
#41=EDGE_CURVE('',#50,#50,#59,.T.);
#42=EDGE_CURVE('',#51,#51,#60,.F.);
#43=EDGE_CURVE('',#52,#52,#61,.F.);
#44=EDGE_CURVE('',#53,#53,#62,.F.);
#45=EDGE_CURVE('',#54,#54,#63,.T.);
#46=EDGE_CURVE('',#55,#55,#64,.T.);
#47=VERTEX_POINT('',#185);
#48=VERTEX_POINT('',#187);
#49=VERTEX_POINT('',#369);
#50=VERTEX_POINT('',#371);
#51=VERTEX_POINT('',#376);
#52=VERTEX_POINT('',#378);
#53=VERTEX_POINT('',#381);
#54=VERTEX_POINT('',#384);
#55=VERTEX_POINT('',#388);
#56=CIRCLE('',#127,0.00075);
#57=CIRCLE('',#128,0.00075);
#58=CIRCLE('',#129,0.0025);
#59=CIRCLE('',#130,0.0025);
#60=CIRCLE('',#134,0.0047806854754444);
#61=CIRCLE('',#135,0.00177947751341811);
#62=CIRCLE('',#137,0.0045647407502198);
#63=CIRCLE('',#139,0.000945339185504014);
#64=CIRCLE('',#142,0.000945339185504014);
#65=EDGE_LOOP('',(#20));
#66=EDGE_LOOP('',(#21));
#67=EDGE_LOOP('',(#22));
#68=EDGE_LOOP('',(#23));
#69=EDGE_LOOP('',(#24));
#70=EDGE_LOOP('',(#25));
#71=EDGE_LOOP('',(#26));
#72=EDGE_LOOP('',(#27));
#73=EDGE_LOOP('',(#28));
#74=EDGE_LOOP('',(#29));
#75=EDGE_LOOP('',(#30));
#76=EDGE_LOOP('',(#31));
#77=EDGE_LOOP('',(#32));
#78=EDGE_LOOP('',(#33));
#79=EDGE_LOOP('',(#34));
#80=EDGE_LOOP('',(#35));
#81=EDGE_LOOP('',(#36));
#82=EDGE_LOOP('',(#37));
#83=FACE_BOUND('',#65,.T.);
#84=FACE_BOUND('',#66,.T.);
#85=FACE_BOUND('',#67,.T.);
#86=FACE_BOUND('',#68,.T.);
#87=FACE_BOUND('',#69,.T.);
#88=FACE_BOUND('',#70,.T.);
#89=FACE_BOUND('',#71,.T.);
#90=FACE_BOUND('',#72,.T.);
#91=FACE_BOUND('',#73,.T.);
#92=FACE_BOUND('',#74,.T.);
#93=FACE_BOUND('',#75,.T.);
#94=FACE_BOUND('',#76,.T.);
#95=FACE_BOUND('',#77,.T.);
#96=FACE_BOUND('',#78,.T.);
#97=FACE_BOUND('',#79,.T.);
#98=FACE_BOUND('',#80,.T.);
#99=FACE_BOUND('',#81,.T.);
#100=FACE_BOUND('',#82,.T.);
#101=CYLINDRICAL_SURFACE('',#126,0.00075);
#102=CYLINDRICAL_SURFACE('',#141,0.000945339185504014);
#103=ADVANCED_FACE('',(#83,#84),#101,.T.);
#104=ADVANCED_FACE('',(#85,#86),#19,.T.);
#105=ADVANCED_FACE('',(#87,#88),#15,.T.);
#106=ADVANCED_FACE('',(#89),#16,.F.);
#107=ADVANCED_FACE('',(#90,#91),#14,.T.);
#108=ADVANCED_FACE('',(#92,#93),#17,.F.);
#109=ADVANCED_FACE('',(#94,#95),#13,.T.);
#110=ADVANCED_FACE('',(#96,#97),#12,.T.);
#111=ADVANCED_FACE('',(#98,#99),#102,.F.);
#112=ADVANCED_FACE('',(#100),#18,.T.);
#113=CLOSED_SHELL('',(#103,#104,#105,#106,#107,#108,#109,#110,#111,#112));
#114=STYLED_ITEM('',(#115),#122);
#115=PRESENTATION_STYLE_ASSIGNMENT((#116));
#116=SURFACE_STYLE_USAGE(.BOTH.,#117);
#117=SURFACE_SIDE_STYLE('',(#118));
#118=SURFACE_STYLE_FILL_AREA(#119);
#119=FILL_AREA_STYLE('',(#120));
#120=FILL_AREA_STYLE_COLOUR('',#121);
#121=COLOUR_RGB('',0.980392156862745,0.713725490196078,0.00392156862745098);
#122=MANIFOLD_SOLID_BREP('Part 1',#113);
#123=SHAPE_DEFINITION_REPRESENTATION(#396,#124);
#124=SHAPE_REPRESENTATION('Part 1',(#125),#391);
#125=AXIS2_PLACEMENT_3D('',#182,#144,#145);
#126=AXIS2_PLACEMENT_3D('',#183,#146,#147);
#127=AXIS2_PLACEMENT_3D('',#184,#148,#149);
#128=AXIS2_PLACEMENT_3D('',#186,#150,#151);
#129=AXIS2_PLACEMENT_3D('',#368,#152,#153);
#130=AXIS2_PLACEMENT_3D('',#370,#154,#155);
#131=AXIS2_PLACEMENT_3D('',#372,#156,#157);
#132=AXIS2_PLACEMENT_3D('',#373,#158,#159);
#133=AXIS2_PLACEMENT_3D('',#374,#160,#161);
#134=AXIS2_PLACEMENT_3D('',#375,#162,#163);
#135=AXIS2_PLACEMENT_3D('',#377,#164,#165);
#136=AXIS2_PLACEMENT_3D('',#379,#166,#167);
#137=AXIS2_PLACEMENT_3D('',#380,#168,#169);
#138=AXIS2_PLACEMENT_3D('',#382,#170,#171);
#139=AXIS2_PLACEMENT_3D('',#383,#172,#173);
#140=AXIS2_PLACEMENT_3D('',#385,#174,#175);
#141=AXIS2_PLACEMENT_3D('',#386,#176,#177);
#142=AXIS2_PLACEMENT_3D('',#387,#178,#179);
#143=AXIS2_PLACEMENT_3D('',#389,#180,#181);
#144=DIRECTION('',(0.,0.,1.));
#145=DIRECTION('',(1.,0.,0.));
#146=DIRECTION('',(0.,-1.,0.));
#147=DIRECTION('',(-1.,0.,0.));
#148=DIRECTION('',(0.,1.,0.));
#149=DIRECTION('',(1.,0.,0.));
#150=DIRECTION('',(0.,1.,0.));
#151=DIRECTION('',(1.,0.,0.));
#152=DIRECTION('',(0.,1.,0.));
#153=DIRECTION('',(1.,0.,0.));
#154=DIRECTION('',(0.,1.,0.));
#155=DIRECTION('',(1.,0.,0.));
#156=DIRECTION('',(0.,1.,0.));
#157=DIRECTION('',(1.,0.,0.));
#158=DIRECTION('',(0.,1.,0.));
#159=DIRECTION('',(1.,0.,0.));
#160=DIRECTION('',(0.,-1.,0.));
#161=DIRECTION('',(-1.,0.,0.));
#162=DIRECTION('',(0.,-1.,0.));
#163=DIRECTION('',(-1.,0.,0.));
#164=DIRECTION('',(0.,1.,0.));
#165=DIRECTION('',(1.,0.,0.));
#166=DIRECTION('',(0.,1.,0.));
#167=DIRECTION('',(1.,0.,0.));
#168=DIRECTION('',(0.,1.,0.));
#169=DIRECTION('',(1.,0.,0.));
#170=DIRECTION('',(0.,1.,0.));
#171=DIRECTION('',(1.,0.,0.));
#172=DIRECTION('',(0.,1.,0.));
#173=DIRECTION('',(1.,0.,0.));
#174=DIRECTION('',(0.,1.,0.));
#175=DIRECTION('',(1.,0.,0.));
#176=DIRECTION('',(0.,1.,0.));
#177=DIRECTION('',(1.,0.,0.));
#178=DIRECTION('',(0.,1.,0.));
#179=DIRECTION('',(1.,0.,0.));
#180=DIRECTION('',(0.,1.,0.));
#181=DIRECTION('',(1.,0.,0.));
#182=CARTESIAN_POINT('',(0.,0.,0.));
#183=CARTESIAN_POINT('',(0.,0.01475,-1.99005104861445E-19));
#184=CARTESIAN_POINT('',(0.,0.0065,-1.99005104861445E-19));
#185=CARTESIAN_POINT('',(0.00075,0.0065,-1.99005104861445E-19));
#186=CARTESIAN_POINT('',(0.,0.00875,-1.99005104861445E-19));
#187=CARTESIAN_POINT('',(0.00075,0.00875,-1.99005104861445E-19));
#188=CARTESIAN_POINT('',(0.00245624963901005,-4.39836561609165E-5,-1.54360257181821E-19));
#189=CARTESIAN_POINT('',(0.00368608934092823,0.00119241406395482,-1.96351701213147E-19));
#190=CARTESIAN_POINT('',(0.00492932544068352,0.00243033747331379,-2.20292373160322E-19));
#191=CARTESIAN_POINT('',(0.00505445769820346,0.00381500567585212,-2.23932786768944E-19));
#192=CARTESIAN_POINT('',(0.00500352800857298,0.00408328882173467,-2.23152413238558E-19));
#193=CARTESIAN_POINT('',(0.00474750809862871,0.00460229807568605,-2.20194297538916E-19));
#194=CARTESIAN_POINT('',(0.00454828382242631,0.00485369224452324,-2.18305621022219E-19));
#195=CARTESIAN_POINT('',(0.00380932639322707,0.00559178412742253,-2.17571957698259E-19));
#196=CARTESIAN_POINT('',(0.00312841459488147,0.00606240328490541,-2.24702961794503E-19));
#197=CARTESIAN_POINT('',(0.00245186447962856,0.00653351918584559,-2.52714748786179E-19));
#198=CARTESIAN_POINT('',(0.00245624963901005,-4.39836561609165E-5,-0.000643044651774714));
#199=CARTESIAN_POINT('',(0.00368608934092823,0.00119241406395482,-0.00096501593282798));
#200=CARTESIAN_POINT('',(0.00492932544068352,0.00243033747331379,-0.00129049438263372));
#201=CARTESIAN_POINT('',(0.00505445769820346,0.00381500567585212,-0.00132325393104636));
#202=CARTESIAN_POINT('',(0.00500352800857298,0.00408328882173467,-0.0013099205694803));
#203=CARTESIAN_POINT('',(0.00474750809862871,0.00460229807568605,-0.0012428947137925));
#204=CARTESIAN_POINT('',(0.00454828382242631,0.00485369224452324,-0.00119073792024798));
#205=CARTESIAN_POINT('',(0.00380932639322707,0.00559178412742253,-0.000997279317673988));
#206=CARTESIAN_POINT('',(0.00312841459488147,0.00606240328490541,-0.000819017025721893));
#207=CARTESIAN_POINT('',(0.00245186447962856,0.00653351918584559,-0.000641896619733237));
#208=CARTESIAN_POINT('',(0.00219153200990666,-4.39836561609165E-5,-0.00128212954215538));
#209=CARTESIAN_POINT('',(0.00328882807908553,0.00119241406395482,-0.00192408945897408));
#210=CARTESIAN_POINT('',(0.00439807677482613,0.00243033747331379,-0.00257304211673924));
#211=CARTESIAN_POINT('',(0.00450972314149484,0.00381500567585212,-0.00263835948574559));
#212=CARTESIAN_POINT('',(0.00446428230221404,0.00408328882173467,-0.00261177486722352));
#213=CARTESIAN_POINT('',(0.00423585445070201,0.00460229807568605,-0.00247813588985484));
#214=CARTESIAN_POINT('',(0.00405810119162203,0.00485369224452324,-0.00237414347557541));
#215=CARTESIAN_POINT('',(0.00339878349266812,0.00559178412742253,-0.00198841755613939));
#216=CARTESIAN_POINT('',(0.00279125566719884,0.00606240328490541,-0.00163299068160847));
#217=CARTESIAN_POINT('',(0.00218761945272987,0.00653351918584559,-0.00127984054746169));
#218=CARTESIAN_POINT('',(0.00128212954215538,-4.39836561609165E-5,-0.00219153200990666));
#219=CARTESIAN_POINT('',(0.00192408945897408,0.00119241406395482,-0.00328882807908553));
#220=CARTESIAN_POINT('',(0.00257304211673924,0.00243033747331379,-0.00439807677482613));
#221=CARTESIAN_POINT('',(0.00263835948574559,0.00381500567585212,-0.00450972314149484));
#222=CARTESIAN_POINT('',(0.00261177486722351,0.00408328882173467,-0.00446428230221403));
#223=CARTESIAN_POINT('',(0.00247813588985482,0.00460229807568605,-0.00423585445070199));
#224=CARTESIAN_POINT('',(0.0023741434755754,0.00485369224452324,-0.00405810119162201));
#225=CARTESIAN_POINT('',(0.00198841755613938,0.00559178412742253,-0.00339878349266811));
#226=CARTESIAN_POINT('',(0.00163299068160847,0.00606240328490541,-0.00279125566719883));
#227=CARTESIAN_POINT('',(0.00127984054746169,0.00653351918584559,-0.00218761945272987));
#228=CARTESIAN_POINT('',(0.000643044651774714,-4.39836561609165E-5,-0.00245624963901005));
#229=CARTESIAN_POINT('',(0.00096501593282798,0.00119241406395482,-0.00368608934092823));
#230=CARTESIAN_POINT('',(0.00129049438263372,0.00243033747331379,-0.00492932544068352));
#231=CARTESIAN_POINT('',(0.00132325393104636,0.00381500567585212,-0.00505445769820346));
#232=CARTESIAN_POINT('',(0.0013099205694803,0.00408328882173467,-0.00500352800857298));
#233=CARTESIAN_POINT('',(0.0012428947137925,0.00460229807568605,-0.00474750809862871));
#234=CARTESIAN_POINT('',(0.00119073792024798,0.00485369224452324,-0.00454828382242631));
#235=CARTESIAN_POINT('',(0.000997279317673988,0.00559178412742253,-0.00380932639322707));
#236=CARTESIAN_POINT('',(0.000819017025721893,0.00606240328490541,-0.00312841459488147));
#237=CARTESIAN_POINT('',(0.000641896619733237,0.00653351918584559,-0.00245186447962856));
#238=CARTESIAN_POINT('',(-0.000643044651774714,-4.39836561609165E-5,-0.00245624963901005));
#239=CARTESIAN_POINT('',(-0.00096501593282798,0.00119241406395482,-0.00368608934092823));
#240=CARTESIAN_POINT('',(-0.00129049438263372,0.00243033747331379,-0.00492932544068352));
#241=CARTESIAN_POINT('',(-0.00132325393104636,0.00381500567585212,-0.00505445769820346));
#242=CARTESIAN_POINT('',(-0.0013099205694803,0.00408328882173467,-0.00500352800857298));
#243=CARTESIAN_POINT('',(-0.0012428947137925,0.00460229807568605,-0.00474750809862871));
#244=CARTESIAN_POINT('',(-0.00119073792024798,0.00485369224452324,-0.00454828382242631));
#245=CARTESIAN_POINT('',(-0.000997279317673988,0.00559178412742253,-0.00380932639322707));
#246=CARTESIAN_POINT('',(-0.000819017025721893,0.00606240328490541,-0.00312841459488147));
#247=CARTESIAN_POINT('',(-0.000641896619733237,0.00653351918584559,-0.00245186447962856));
#248=CARTESIAN_POINT('',(-0.00128212954215538,-4.39836561609165E-5,-0.00219153200990666));
#249=CARTESIAN_POINT('',(-0.00192408945897408,0.00119241406395482,-0.00328882807908553));
#250=CARTESIAN_POINT('',(-0.00257304211673924,0.00243033747331379,-0.00439807677482613));
#251=CARTESIAN_POINT('',(-0.00263835948574559,0.00381500567585212,-0.00450972314149484));
#252=CARTESIAN_POINT('',(-0.00261177486722352,0.00408328882173467,-0.00446428230221404));
#253=CARTESIAN_POINT('',(-0.00247813588985484,0.00460229807568605,-0.00423585445070201));
#254=CARTESIAN_POINT('',(-0.00237414347557541,0.00485369224452324,-0.00405810119162203));
#255=CARTESIAN_POINT('',(-0.00198841755613939,0.00559178412742253,-0.00339878349266812));
#256=CARTESIAN_POINT('',(-0.00163299068160847,0.00606240328490541,-0.00279125566719884));
#257=CARTESIAN_POINT('',(-0.00127984054746169,0.00653351918584559,-0.00218761945272987));
#258=CARTESIAN_POINT('',(-0.00219153200990666,-4.39836561609165E-5,-0.00128212954215538));
#259=CARTESIAN_POINT('',(-0.00328882807908553,0.00119241406395482,-0.00192408945897408));
#260=CARTESIAN_POINT('',(-0.00439807677482613,0.00243033747331379,-0.00257304211673924));
#261=CARTESIAN_POINT('',(-0.00450972314149484,0.00381500567585212,-0.00263835948574559));
#262=CARTESIAN_POINT('',(-0.00446428230221403,0.00408328882173467,-0.00261177486722351));
#263=CARTESIAN_POINT('',(-0.00423585445070199,0.00460229807568605,-0.00247813588985482));
#264=CARTESIAN_POINT('',(-0.00405810119162201,0.00485369224452324,-0.0023741434755754));
#265=CARTESIAN_POINT('',(-0.00339878349266811,0.00559178412742253,-0.00198841755613938));
#266=CARTESIAN_POINT('',(-0.00279125566719883,0.00606240328490541,-0.00163299068160847));
#267=CARTESIAN_POINT('',(-0.00218761945272987,0.00653351918584559,-0.00127984054746169));
#268=CARTESIAN_POINT('',(-0.00245624963901005,-4.39836561609165E-5,-0.000643044651774714));
#269=CARTESIAN_POINT('',(-0.00368608934092823,0.00119241406395482,-0.000965015932827982));
#270=CARTESIAN_POINT('',(-0.00492932544068352,0.00243033747331379,-0.00129049438263372));
#271=CARTESIAN_POINT('',(-0.00505445769820346,0.00381500567585212,-0.00132325393104637));
#272=CARTESIAN_POINT('',(-0.00500352800857298,0.00408328882173467,-0.0013099205694803));
#273=CARTESIAN_POINT('',(-0.00474750809862871,0.00460229807568605,-0.0012428947137925));
#274=CARTESIAN_POINT('',(-0.00454828382242631,0.00485369224452324,-0.00119073792024798));
#275=CARTESIAN_POINT('',(-0.00380932639322707,0.00559178412742253,-0.000997279317673989));
#276=CARTESIAN_POINT('',(-0.00312841459488147,0.00606240328490541,-0.000819017025721894));
#277=CARTESIAN_POINT('',(-0.00245186447962856,0.00653351918584559,-0.000641896619733237));
#278=CARTESIAN_POINT('',(-0.00245624963901005,-4.39836561609165E-5,0.000643044651774713));
#279=CARTESIAN_POINT('',(-0.00368608934092823,0.00119241406395482,0.00096501593282798));
#280=CARTESIAN_POINT('',(-0.00492932544068352,0.00243033747331379,0.00129049438263372));
#281=CARTESIAN_POINT('',(-0.00505445769820346,0.00381500567585212,0.00132325393104636));
#282=CARTESIAN_POINT('',(-0.00500352800857298,0.00408328882173467,0.0013099205694803));
#283=CARTESIAN_POINT('',(-0.00474750809862871,0.00460229807568605,0.0012428947137925));
#284=CARTESIAN_POINT('',(-0.00454828382242631,0.00485369224452324,0.00119073792024798));
#285=CARTESIAN_POINT('',(-0.00380932639322707,0.00559178412742253,0.000997279317673987));
#286=CARTESIAN_POINT('',(-0.00312841459488147,0.00606240328490541,0.000819017025721892));
#287=CARTESIAN_POINT('',(-0.00245186447962856,0.00653351918584559,0.000641896619733236));
#288=CARTESIAN_POINT('',(-0.00219153200990666,-4.39836561609165E-5,0.00128212954215538));
#289=CARTESIAN_POINT('',(-0.00328882807908553,0.00119241406395482,0.00192408945897407));
#290=CARTESIAN_POINT('',(-0.00439807677482613,0.00243033747331379,0.00257304211673923));
#291=CARTESIAN_POINT('',(-0.00450972314149484,0.00381500567585212,0.00263835948574557));
#292=CARTESIAN_POINT('',(-0.00446428230221404,0.00408328882173467,0.0026117748672235));
#293=CARTESIAN_POINT('',(-0.00423585445070201,0.00460229807568605,0.00247813588985482));
#294=CARTESIAN_POINT('',(-0.00405810119162203,0.00485369224452324,0.00237414347557539));
#295=CARTESIAN_POINT('',(-0.00339878349266812,0.00559178412742253,0.00198841755613937));
#296=CARTESIAN_POINT('',(-0.00279125566719884,0.00606240328490541,0.00163299068160846));
#297=CARTESIAN_POINT('',(-0.00218761945272987,0.00653351918584559,0.00127984054746169));
#298=CARTESIAN_POINT('',(-0.00128212954215538,-4.39836561609165E-5,0.00219153200990666));
#299=CARTESIAN_POINT('',(-0.00192408945897408,0.00119241406395482,0.00328882807908553));
#300=CARTESIAN_POINT('',(-0.00257304211673924,0.00243033747331379,0.00439807677482613));
#301=CARTESIAN_POINT('',(-0.00263835948574559,0.00381500567585212,0.00450972314149486));
#302=CARTESIAN_POINT('',(-0.00261177486722351,0.00408328882173467,0.00446428230221404));
#303=CARTESIAN_POINT('',(-0.00247813588985482,0.00460229807568605,0.00423585445070201));
#304=CARTESIAN_POINT('',(-0.0023741434755754,0.00485369224452324,0.00405810119162203));
#305=CARTESIAN_POINT('',(-0.00198841755613938,0.00559178412742253,0.00339878349266812));
#306=CARTESIAN_POINT('',(-0.00163299068160847,0.00606240328490541,0.00279125566719884));
#307=CARTESIAN_POINT('',(-0.00127984054746169,0.00653351918584559,0.00218761945272987));
#308=CARTESIAN_POINT('',(-0.000643044651774714,-4.39836561609165E-5,0.00245624963901005));
#309=CARTESIAN_POINT('',(-0.000965015932827982,0.00119241406395482,0.00368608934092823));
#310=CARTESIAN_POINT('',(-0.00129049438263372,0.00243033747331379,0.00492932544068352));
#311=CARTESIAN_POINT('',(-0.00132325393104637,0.00381500567585212,0.00505445769820346));
#312=CARTESIAN_POINT('',(-0.0013099205694803,0.00408328882173467,0.00500352800857298));
#313=CARTESIAN_POINT('',(-0.0012428947137925,0.00460229807568605,0.00474750809862871));
#314=CARTESIAN_POINT('',(-0.00119073792024798,0.00485369224452324,0.00454828382242631));
#315=CARTESIAN_POINT('',(-0.000997279317673989,0.00559178412742253,0.00380932639322707));
#316=CARTESIAN_POINT('',(-0.000819017025721894,0.00606240328490541,0.00312841459488147));
#317=CARTESIAN_POINT('',(-0.000641896619733237,0.00653351918584559,0.00245186447962856));
#318=CARTESIAN_POINT('',(0.000643044651774713,-4.39836561609165E-5,0.00245624963901005));
#319=CARTESIAN_POINT('',(0.00096501593282798,0.00119241406395482,0.00368608934092823));
#320=CARTESIAN_POINT('',(0.00129049438263372,0.00243033747331379,0.00492932544068352));
#321=CARTESIAN_POINT('',(0.00132325393104636,0.00381500567585212,0.00505445769820346));
#322=CARTESIAN_POINT('',(0.0013099205694803,0.00408328882173467,0.00500352800857298));
#323=CARTESIAN_POINT('',(0.0012428947137925,0.00460229807568605,0.00474750809862871));
#324=CARTESIAN_POINT('',(0.00119073792024798,0.00485369224452324,0.00454828382242631));
#325=CARTESIAN_POINT('',(0.000997279317673987,0.00559178412742253,0.00380932639322707));
#326=CARTESIAN_POINT('',(0.000819017025721892,0.00606240328490541,0.00312841459488147));
#327=CARTESIAN_POINT('',(0.000641896619733236,0.00653351918584559,0.00245186447962856));
#328=CARTESIAN_POINT('',(0.00128212954215538,-4.39836561609165E-5,0.00219153200990666));
#329=CARTESIAN_POINT('',(0.00192408945897409,0.00119241406395482,0.00328882807908553));
#330=CARTESIAN_POINT('',(0.00257304211673926,0.00243033747331379,0.00439807677482613));
#331=CARTESIAN_POINT('',(0.00263835948574559,0.00381500567585212,0.00450972314149484));
#332=CARTESIAN_POINT('',(0.00261177486722352,0.00408328882173467,0.00446428230221404));
#333=CARTESIAN_POINT('',(0.00247813588985484,0.00460229807568605,0.00423585445070201));
#334=CARTESIAN_POINT('',(0.00237414347557541,0.00485369224452324,0.00405810119162203));
#335=CARTESIAN_POINT('',(0.00198841755613939,0.00559178412742253,0.00339878349266812));
#336=CARTESIAN_POINT('',(0.00163299068160847,0.00606240328490541,0.00279125566719884));
#337=CARTESIAN_POINT('',(0.00127984054746169,0.00653351918584559,0.00218761945272987));
#338=CARTESIAN_POINT('',(0.00219153200990666,-4.39836561609165E-5,0.00128212954215538));
#339=CARTESIAN_POINT('',(0.00328882807908551,0.00119241406395482,0.00192408945897408));
#340=CARTESIAN_POINT('',(0.00439807677482611,0.00243033747331379,0.00257304211673924));
#341=CARTESIAN_POINT('',(0.00450972314149484,0.00381500567585212,0.00263835948574559));
#342=CARTESIAN_POINT('',(0.00446428230221403,0.00408328882173467,0.00261177486722351));
#343=CARTESIAN_POINT('',(0.00423585445070199,0.00460229807568605,0.00247813588985482));
#344=CARTESIAN_POINT('',(0.00405810119162201,0.00485369224452324,0.0023741434755754));
#345=CARTESIAN_POINT('',(0.00339878349266811,0.00559178412742253,0.00198841755613938));
#346=CARTESIAN_POINT('',(0.00279125566719883,0.00606240328490541,0.00163299068160847));
#347=CARTESIAN_POINT('',(0.00218761945272987,0.00653351918584559,0.00127984054746169));
#348=CARTESIAN_POINT('',(0.00245624963901005,-4.39836561609165E-5,0.000643044651774714));
#349=CARTESIAN_POINT('',(0.00368608934092823,0.00119241406395482,0.00096501593282798));
#350=CARTESIAN_POINT('',(0.00492932544068352,0.00243033747331379,0.00129049438263372));
#351=CARTESIAN_POINT('',(0.00505445769820346,0.00381500567585212,0.00132325393104636));
#352=CARTESIAN_POINT('',(0.00500352800857298,0.00408328882173467,0.0013099205694803));
#353=CARTESIAN_POINT('',(0.00474750809862871,0.00460229807568605,0.0012428947137925));
#354=CARTESIAN_POINT('',(0.00454828382242631,0.00485369224452324,0.00119073792024798));
#355=CARTESIAN_POINT('',(0.00380932639322707,0.00559178412742253,0.000997279317673988));
#356=CARTESIAN_POINT('',(0.00312841459488147,0.00606240328490541,0.000819017025721893));
#357=CARTESIAN_POINT('',(0.00245186447962856,0.00653351918584559,0.000641896619733236));
#358=CARTESIAN_POINT('',(0.00245624963901005,-4.39836561609165E-5,-1.54360257181821E-19));
#359=CARTESIAN_POINT('',(0.00368608934092823,0.00119241406395482,-1.96351701213147E-19));
#360=CARTESIAN_POINT('',(0.00492932544068352,0.00243033747331379,-2.20292373160322E-19));
#361=CARTESIAN_POINT('',(0.00505445769820346,0.00381500567585212,-2.23932786768944E-19));
#362=CARTESIAN_POINT('',(0.00500352800857298,0.00408328882173467,-2.23152413238558E-19));
#363=CARTESIAN_POINT('',(0.00474750809862871,0.00460229807568605,-2.20194297538916E-19));
#364=CARTESIAN_POINT('',(0.00454828382242631,0.00485369224452324,-2.18305621022219E-19));
#365=CARTESIAN_POINT('',(0.00380932639322707,0.00559178412742253,-2.17571957698259E-19));
#366=CARTESIAN_POINT('',(0.00312841459488147,0.00606240328490541,-2.24702961794503E-19));
#367=CARTESIAN_POINT('',(0.00245186447962856,0.00653351918584559,-2.52714748786179E-19));
#368=CARTESIAN_POINT('',(0.,0.0065,-1.53080849893419E-19));
#369=CARTESIAN_POINT('',(0.0025,0.0065,-1.53080849893419E-19));
#370=CARTESIAN_POINT('',(0.,0.,-1.53080849893419E-19));
#371=CARTESIAN_POINT('',(0.0025,0.,-1.53080849893419E-19));
#372=CARTESIAN_POINT('',(0.,0.0065,0.));
#373=CARTESIAN_POINT('',(0.,0.,0.));
#374=CARTESIAN_POINT('',(0.,0.01475,-2.90853614797496E-19));
#375=CARTESIAN_POINT('',(0.,0.00912596775638102,-2.90853614797496E-19));
#376=CARTESIAN_POINT('',(-0.0047806854754444,0.00912596775638102,-2.90853614797496E-19));
#377=CARTESIAN_POINT('',(0.,0.0142708956912832,-2.90853614797496E-19));
#378=CARTESIAN_POINT('',(0.00177947751341811,0.0142708956912832,-2.90853614797496E-19));
#379=CARTESIAN_POINT('',(0.,0.00875,0.));
#380=CARTESIAN_POINT('',(0.,0.00875,-2.90853614797496E-19));
#381=CARTESIAN_POINT('',(0.0045647407502198,0.00875,-2.90853614797496E-19));
#382=CARTESIAN_POINT('',(0.,0.013784315,-2.90853614797496E-19));
#383=CARTESIAN_POINT('',(0.,0.01475,-2.90853614797496E-19));
#384=CARTESIAN_POINT('',(0.000945339185504014,0.01475,-2.90853614797496E-19));
#385=CARTESIAN_POINT('',(0.,0.009,-2.90853614797496E-19));
#386=CARTESIAN_POINT('',(0.,0.00945,-2.90853614797496E-19));
#387=CARTESIAN_POINT('',(0.,0.00945,-2.90853614797496E-19));
#388=CARTESIAN_POINT('',(0.000945339185504014,0.00945,-2.90853614797496E-19));
#389=CARTESIAN_POINT('',(0.,0.00945,0.));
#390=MECHANICAL_DESIGN_GEOMETRIC_PRESENTATION_REPRESENTATION('',(#114),
#391);
#391=(
GEOMETRIC_REPRESENTATION_CONTEXT(3)
GLOBAL_UNCERTAINTY_ASSIGNED_CONTEXT((#392))
GLOBAL_UNIT_ASSIGNED_CONTEXT((#395,#394,#393))
REPRESENTATION_CONTEXT('Part 1','TOP_LEVEL_ASSEMBLY_PART')
);
#392=UNCERTAINTY_MEASURE_WITH_UNIT(LENGTH_MEASURE(1.E-8),#395,
'DISTANCE_ACCURACY_VALUE','Maximum Tolerance applied to model');
#393=(
NAMED_UNIT(*)
SI_UNIT($,.STERADIAN.)
SOLID_ANGLE_UNIT()
);
#394=(
NAMED_UNIT(*)
PLANE_ANGLE_UNIT()
SI_UNIT($,.RADIAN.)
);
#395=(
LENGTH_UNIT()
NAMED_UNIT(*)
SI_UNIT($,.METRE.)
);
#396=PRODUCT_DEFINITION_SHAPE('','',#397);
#397=PRODUCT_DEFINITION('','',#399,#398);
#398=PRODUCT_DEFINITION_CONTEXT('',#405,'design');
#399=PRODUCT_DEFINITION_FORMATION_WITH_SPECIFIED_SOURCE('','',#401,
 .NOT_KNOWN.);
#400=PRODUCT_RELATED_PRODUCT_CATEGORY('','',(#401));
#401=PRODUCT('Part 1','Part 1','Part 1',(#403));
#402=PRODUCT_CATEGORY('','');
#403=PRODUCT_CONTEXT('',#405,'mechanical');
#404=APPLICATION_PROTOCOL_DEFINITION('international standard',
'ap242_managed_model_based_3d_engineering',2020,#405);
#405=APPLICATION_CONTEXT('managed model based 3d engineering');
ENDSEC;
END-ISO-10303-21;
