ISO-10303-21;
HEADER;
/* Generated by software containing ST-Developer
 * from STEP Tools, Inc. (www.steptools.com) 
 */
/* OPTION: using custom renumber hook */

FILE_DESCRIPTION(
/* description */ ('STEP AP242 Edition 2',
'CAx-IF Rec.Pracs.---Representation and Presentation of Product Manufa
cturing Information (PMI)---4.0---2014-10-13',
'CAx-IF Rec.Pracs.---3D Tessellated Geometry---0.4---2014-09-14','2;1',
'CAx-IF Rec.Pracs.---User Defined Attributes---1.5---2016-08-15'),
/* implementation_level */ '2;1');

FILE_NAME(
/* name */ 'Laptop',
/* time_stamp */ '2026-09-09T01:30:42Z',
/* author */ (''),
/* organization */ (''),
/* preprocessor_version */ 'ST-DEVELOPER v20',
/* originating_system */ 'ONSHAPE BY PTC INC, 1.220',
/* authorisation */ '  ');

FILE_SCHEMA (('AP242_MANAGED_MODEL_BASED_3D_ENGINEERING_MIM_LF { 1 0 10303 442 3 1 4 }'));
ENDSEC;

DATA;
#10=SHAPE_REPRESENTATION_RELATIONSHIP('','',#448,#11);
#11=ADVANCED_BREP_SHAPE_REPRESENTATION('',(#446),#702);
#12=ORIENTED_EDGE('',*,*,#130,.T.);
#13=ORIENTED_EDGE('',*,*,#131,.T.);
#14=ORIENTED_EDGE('',*,*,#132,.F.);
#15=ORIENTED_EDGE('',*,*,#133,.F.);
#16=ORIENTED_EDGE('',*,*,#134,.T.);
#17=ORIENTED_EDGE('',*,*,#135,.F.);
#18=ORIENTED_EDGE('',*,*,#136,.F.);
#19=ORIENTED_EDGE('',*,*,#137,.F.);
#20=ORIENTED_EDGE('',*,*,#138,.T.);
#21=ORIENTED_EDGE('',*,*,#139,.F.);
#22=ORIENTED_EDGE('',*,*,#140,.T.);
#23=ORIENTED_EDGE('',*,*,#141,.F.);
#24=ORIENTED_EDGE('',*,*,#142,.F.);
#25=ORIENTED_EDGE('',*,*,#143,.F.);
#26=ORIENTED_EDGE('',*,*,#144,.F.);
#27=ORIENTED_EDGE('',*,*,#145,.F.);
#28=ORIENTED_EDGE('',*,*,#146,.F.);
#29=ORIENTED_EDGE('',*,*,#147,.T.);
#30=ORIENTED_EDGE('',*,*,#148,.F.);
#31=ORIENTED_EDGE('',*,*,#149,.F.);
#32=ORIENTED_EDGE('',*,*,#136,.T.);
#33=ORIENTED_EDGE('',*,*,#150,.T.);
#34=ORIENTED_EDGE('',*,*,#151,.T.);
#35=ORIENTED_EDGE('',*,*,#152,.F.);
#36=ORIENTED_EDGE('',*,*,#134,.F.);
#37=ORIENTED_EDGE('',*,*,#153,.T.);
#38=ORIENTED_EDGE('',*,*,#154,.F.);
#39=ORIENTED_EDGE('',*,*,#155,.F.);
#40=ORIENTED_EDGE('',*,*,#156,.T.);
#41=ORIENTED_EDGE('',*,*,#157,.F.);
#42=ORIENTED_EDGE('',*,*,#150,.F.);
#43=ORIENTED_EDGE('',*,*,#135,.T.);
#44=ORIENTED_EDGE('',*,*,#152,.T.);
#45=ORIENTED_EDGE('',*,*,#145,.T.);
#46=ORIENTED_EDGE('',*,*,#157,.T.);
#47=ORIENTED_EDGE('',*,*,#151,.F.);
#48=ORIENTED_EDGE('',*,*,#158,.F.);
#49=ORIENTED_EDGE('',*,*,#159,.T.);
#50=ORIENTED_EDGE('',*,*,#160,.T.);
#51=ORIENTED_EDGE('',*,*,#139,.T.);
#52=ORIENTED_EDGE('',*,*,#161,.F.);
#53=ORIENTED_EDGE('',*,*,#162,.F.);
#54=ORIENTED_EDGE('',*,*,#163,.T.);
#55=ORIENTED_EDGE('',*,*,#143,.T.);
#56=ORIENTED_EDGE('',*,*,#164,.F.);
#57=ORIENTED_EDGE('',*,*,#165,.F.);
#58=ORIENTED_EDGE('',*,*,#166,.T.);
#59=ORIENTED_EDGE('',*,*,#161,.T.);
#60=ORIENTED_EDGE('',*,*,#138,.F.);
#61=ORIENTED_EDGE('',*,*,#167,.T.);
#62=ORIENTED_EDGE('',*,*,#168,.F.);
#63=ORIENTED_EDGE('',*,*,#169,.T.);
#64=ORIENTED_EDGE('',*,*,#170,.F.);
#65=ORIENTED_EDGE('',*,*,#144,.T.);
#66=ORIENTED_EDGE('',*,*,#163,.F.);
#67=ORIENTED_EDGE('',*,*,#171,.F.);
#68=ORIENTED_EDGE('',*,*,#168,.T.);
#69=ORIENTED_EDGE('',*,*,#162,.T.);
#70=ORIENTED_EDGE('',*,*,#166,.F.);
#71=ORIENTED_EDGE('',*,*,#142,.T.);
#72=ORIENTED_EDGE('',*,*,#172,.F.);
#73=ORIENTED_EDGE('',*,*,#173,.F.);
#74=ORIENTED_EDGE('',*,*,#164,.T.);
#75=ORIENTED_EDGE('',*,*,#141,.T.);
#76=ORIENTED_EDGE('',*,*,#174,.F.);
#77=ORIENTED_EDGE('',*,*,#175,.F.);
#78=ORIENTED_EDGE('',*,*,#172,.T.);
#79=ORIENTED_EDGE('',*,*,#140,.F.);
#80=ORIENTED_EDGE('',*,*,#160,.F.);
#81=ORIENTED_EDGE('',*,*,#176,.T.);
#82=ORIENTED_EDGE('',*,*,#174,.T.);
#83=ORIENTED_EDGE('',*,*,#159,.F.);
#84=ORIENTED_EDGE('',*,*,#173,.T.);
#85=ORIENTED_EDGE('',*,*,#175,.T.);
#86=ORIENTED_EDGE('',*,*,#176,.F.);
#87=ORIENTED_EDGE('',*,*,#177,.F.);
#88=ORIENTED_EDGE('',*,*,#178,.T.);
#89=ORIENTED_EDGE('',*,*,#179,.F.);
#90=ORIENTED_EDGE('',*,*,#146,.T.);
#91=ORIENTED_EDGE('',*,*,#158,.T.);
#92=ORIENTED_EDGE('',*,*,#156,.F.);
#93=ORIENTED_EDGE('',*,*,#180,.F.);
#94=ORIENTED_EDGE('',*,*,#130,.F.);
#95=ORIENTED_EDGE('',*,*,#181,.F.);
#96=ORIENTED_EDGE('',*,*,#178,.F.);
#97=ORIENTED_EDGE('',*,*,#182,.T.);
#98=ORIENTED_EDGE('',*,*,#165,.T.);
#99=ORIENTED_EDGE('',*,*,#183,.F.);
#100=ORIENTED_EDGE('',*,*,#169,.F.);
#101=ORIENTED_EDGE('',*,*,#171,.T.);
#102=ORIENTED_EDGE('',*,*,#132,.T.);
#103=ORIENTED_EDGE('',*,*,#184,.F.);
#104=ORIENTED_EDGE('',*,*,#182,.F.);
#105=ORIENTED_EDGE('',*,*,#177,.T.);
#106=ORIENTED_EDGE('',*,*,#183,.T.);
#107=ORIENTED_EDGE('',*,*,#185,.T.);
#108=ORIENTED_EDGE('',*,*,#148,.T.);
#109=ORIENTED_EDGE('',*,*,#186,.T.);
#110=ORIENTED_EDGE('',*,*,#184,.T.);
#111=ORIENTED_EDGE('',*,*,#187,.T.);
#112=ORIENTED_EDGE('',*,*,#154,.T.);
#113=ORIENTED_EDGE('',*,*,#188,.T.);
#114=ORIENTED_EDGE('',*,*,#149,.T.);
#115=ORIENTED_EDGE('',*,*,#185,.F.);
#116=ORIENTED_EDGE('',*,*,#167,.F.);
#117=ORIENTED_EDGE('',*,*,#137,.T.);
#118=ORIENTED_EDGE('',*,*,#181,.T.);
#119=ORIENTED_EDGE('',*,*,#186,.F.);
#120=ORIENTED_EDGE('',*,*,#147,.F.);
#121=ORIENTED_EDGE('',*,*,#179,.T.);
#122=ORIENTED_EDGE('',*,*,#187,.F.);
#123=ORIENTED_EDGE('',*,*,#131,.F.);
#124=ORIENTED_EDGE('',*,*,#180,.T.);
#125=ORIENTED_EDGE('',*,*,#155,.T.);
#126=ORIENTED_EDGE('',*,*,#170,.T.);
#127=ORIENTED_EDGE('',*,*,#188,.F.);
#128=ORIENTED_EDGE('',*,*,#153,.F.);
#129=ORIENTED_EDGE('',*,*,#133,.T.);
#130=EDGE_CURVE('',#189,#190,#227,.T.);
#131=EDGE_CURVE('',#190,#191,#228,.T.);
#132=EDGE_CURVE('',#189,#191,#229,.T.);
#133=EDGE_CURVE('',#192,#193,#230,.F.);
#134=EDGE_CURVE('',#192,#194,#231,.T.);
#135=EDGE_CURVE('',#195,#194,#232,.T.);
#136=EDGE_CURVE('',#196,#195,#233,.T.);
#137=EDGE_CURVE('',#197,#196,#234,.F.);
#138=EDGE_CURVE('',#197,#198,#235,.T.);
#139=EDGE_CURVE('',#199,#198,#236,.T.);
#140=EDGE_CURVE('',#199,#200,#237,.T.);
#141=EDGE_CURVE('',#201,#200,#238,.T.);
#142=EDGE_CURVE('',#202,#201,#239,.T.);
#143=EDGE_CURVE('',#203,#202,#240,.T.);
#144=EDGE_CURVE('',#193,#203,#241,.T.);
#145=EDGE_CURVE('',#204,#205,#242,.T.);
#146=EDGE_CURVE('',#206,#204,#243,.T.);
#147=EDGE_CURVE('',#206,#207,#244,.T.);
#148=EDGE_CURVE('',#208,#207,#245,.T.);
#149=EDGE_CURVE('',#196,#208,#246,.T.);
#150=EDGE_CURVE('',#195,#205,#247,.T.);
#151=EDGE_CURVE('',#209,#210,#248,.T.);
#152=EDGE_CURVE('',#194,#210,#249,.T.);
#153=EDGE_CURVE('',#192,#211,#250,.T.);
#154=EDGE_CURVE('',#212,#211,#251,.F.);
#155=EDGE_CURVE('',#213,#212,#252,.T.);
#156=EDGE_CURVE('',#213,#209,#253,.T.);
#157=EDGE_CURVE('',#205,#210,#254,.T.);
#158=EDGE_CURVE('',#204,#209,#255,.T.);
#159=EDGE_CURVE('',#214,#215,#256,.T.);
#160=EDGE_CURVE('',#215,#199,#257,.T.);
#161=EDGE_CURVE('',#216,#198,#258,.T.);
#162=EDGE_CURVE('',#217,#216,#259,.T.);
#163=EDGE_CURVE('',#217,#203,#260,.T.);
#164=EDGE_CURVE('',#214,#202,#261,.T.);
#165=EDGE_CURVE('',#218,#219,#262,.T.);
#166=EDGE_CURVE('',#218,#216,#263,.T.);
#167=EDGE_CURVE('',#197,#219,#264,.T.);
#168=EDGE_CURVE('',#220,#217,#265,.T.);
#169=EDGE_CURVE('',#220,#221,#266,.T.);
#170=EDGE_CURVE('',#193,#221,#267,.T.);
#171=EDGE_CURVE('',#220,#218,#268,.T.);
#172=EDGE_CURVE('',#222,#201,#269,.T.);
#173=EDGE_CURVE('',#214,#222,#270,.T.);
#174=EDGE_CURVE('',#223,#200,#271,.T.);
#175=EDGE_CURVE('',#222,#223,#272,.T.);
#176=EDGE_CURVE('',#215,#223,#273,.T.);
#177=EDGE_CURVE('',#224,#189,#274,.T.);
#178=EDGE_CURVE('',#224,#225,#275,.T.);
#179=EDGE_CURVE('',#206,#225,#276,.T.);
#180=EDGE_CURVE('',#190,#213,#277,.T.);
#181=EDGE_CURVE('',#225,#226,#278,.T.);
#182=EDGE_CURVE('',#224,#226,#279,.T.);
#183=EDGE_CURVE('',#221,#219,#280,.T.);
#184=EDGE_CURVE('',#226,#191,#281,.F.);
#185=EDGE_CURVE('',#219,#208,#282,.T.);
#186=EDGE_CURVE('',#207,#226,#283,.T.);
#187=EDGE_CURVE('',#191,#212,#284,.F.);
#188=EDGE_CURVE('',#211,#221,#285,.F.);
#189=VERTEX_POINT('',#583);
#190=VERTEX_POINT('',#584);
#191=VERTEX_POINT('',#586);
#192=VERTEX_POINT('',#590);
#193=VERTEX_POINT('',#591);
#194=VERTEX_POINT('',#593);
#195=VERTEX_POINT('',#595);
#196=VERTEX_POINT('',#597);
#197=VERTEX_POINT('',#599);
#198=VERTEX_POINT('',#601);
#199=VERTEX_POINT('',#603);
#200=VERTEX_POINT('',#605);
#201=VERTEX_POINT('',#607);
#202=VERTEX_POINT('',#609);
#203=VERTEX_POINT('',#611);
#204=VERTEX_POINT('',#615);
#205=VERTEX_POINT('',#616);
#206=VERTEX_POINT('',#618);
#207=VERTEX_POINT('',#620);
#208=VERTEX_POINT('',#622);
#209=VERTEX_POINT('',#627);
#210=VERTEX_POINT('',#628);
#211=VERTEX_POINT('',#631);
#212=VERTEX_POINT('',#633);
#213=VERTEX_POINT('',#635);
#214=VERTEX_POINT('',#643);
#215=VERTEX_POINT('',#644);
#216=VERTEX_POINT('',#647);
#217=VERTEX_POINT('',#649);
#218=VERTEX_POINT('',#654);
#219=VERTEX_POINT('',#655);
#220=VERTEX_POINT('',#660);
#221=VERTEX_POINT('',#662);
#222=VERTEX_POINT('',#668);
#223=VERTEX_POINT('',#672);
#224=VERTEX_POINT('',#679);
#225=VERTEX_POINT('',#681);
#226=VERTEX_POINT('',#686);
#227=LINE('',#582,#286);
#228=LINE('',#585,#287);
#229=LINE('',#587,#288);
#230=LINE('',#589,#289);
#231=LINE('',#592,#290);
#232=LINE('',#594,#291);
#233=LINE('',#596,#292);
#234=LINE('',#598,#293);
#235=LINE('',#600,#294);
#236=LINE('',#602,#295);
#237=LINE('',#604,#296);
#238=LINE('',#606,#297);
#239=LINE('',#608,#298);
#240=LINE('',#610,#299);
#241=LINE('',#612,#300);
#242=LINE('',#614,#301);
#243=LINE('',#617,#302);
#244=LINE('',#619,#303);
#245=LINE('',#621,#304);
#246=LINE('',#623,#305);
#247=LINE('',#624,#306);
#248=LINE('',#626,#307);
#249=LINE('',#629,#308);
#250=LINE('',#630,#309);
#251=LINE('',#632,#310);
#252=LINE('',#634,#311);
#253=LINE('',#636,#312);
#254=LINE('',#638,#313);
#255=LINE('',#640,#314);
#256=LINE('',#642,#315);
#257=LINE('',#645,#316);
#258=LINE('',#646,#317);
#259=LINE('',#648,#318);
#260=LINE('',#650,#319);
#261=LINE('',#651,#320);
#262=LINE('',#653,#321);
#263=LINE('',#656,#322);
#264=LINE('',#657,#323);
#265=LINE('',#659,#324);
#266=LINE('',#661,#325);
#267=LINE('',#663,#326);
#268=LINE('',#665,#327);
#269=LINE('',#667,#328);
#270=LINE('',#669,#329);
#271=LINE('',#671,#330);
#272=LINE('',#673,#331);
#273=LINE('',#675,#332);
#274=LINE('',#678,#333);
#275=LINE('',#680,#334);
#276=LINE('',#682,#335);
#277=LINE('',#683,#336);
#278=LINE('',#685,#337);
#279=LINE('',#687,#338);
#280=LINE('',#689,#339);
#281=LINE('',#691,#340);
#282=LINE('',#693,#341);
#283=LINE('',#694,#342);
#284=LINE('',#695,#343);
#285=LINE('',#696,#344);
#286=VECTOR('',#477,1.);
#287=VECTOR('',#478,1.);
#288=VECTOR('',#479,1.);
#289=VECTOR('',#482,1.);
#290=VECTOR('',#483,1.);
#291=VECTOR('',#484,1.);
#292=VECTOR('',#485,1.);
#293=VECTOR('',#486,1.);
#294=VECTOR('',#487,1.);
#295=VECTOR('',#488,1.);
#296=VECTOR('',#489,1.);
#297=VECTOR('',#490,1.);
#298=VECTOR('',#491,1.);
#299=VECTOR('',#492,1.);
#300=VECTOR('',#493,1.);
#301=VECTOR('',#496,1.);
#302=VECTOR('',#497,1.);
#303=VECTOR('',#498,1.);
#304=VECTOR('',#499,1.);
#305=VECTOR('',#500,1.);
#306=VECTOR('',#501,1.);
#307=VECTOR('',#504,1.);
#308=VECTOR('',#505,1.);
#309=VECTOR('',#506,1.);
#310=VECTOR('',#507,1.);
#311=VECTOR('',#508,1.);
#312=VECTOR('',#509,1.);
#313=VECTOR('',#512,1.);
#314=VECTOR('',#515,1.);
#315=VECTOR('',#518,1.);
#316=VECTOR('',#519,1.);
#317=VECTOR('',#520,1.);
#318=VECTOR('',#521,1.);
#319=VECTOR('',#522,1.);
#320=VECTOR('',#523,1.);
#321=VECTOR('',#526,1.);
#322=VECTOR('',#527,1.);
#323=VECTOR('',#528,1.);
#324=VECTOR('',#531,1.);
#325=VECTOR('',#532,1.);
#326=VECTOR('',#533,1.);
#327=VECTOR('',#536,1.);
#328=VECTOR('',#539,1.);
#329=VECTOR('',#540,1.);
#330=VECTOR('',#543,1.);
#331=VECTOR('',#544,1.);
#332=VECTOR('',#547,1.);
#333=VECTOR('',#552,1.);
#334=VECTOR('',#553,1.);
#335=VECTOR('',#554,1.);
#336=VECTOR('',#555,1.);
#337=VECTOR('',#558,1.);
#338=VECTOR('',#559,1.);
#339=VECTOR('',#562,1.);
#340=VECTOR('',#565,1.);
#341=VECTOR('',#568,1.);
#342=VECTOR('',#569,1.);
#343=VECTOR('',#570,1.);
#344=VECTOR('',#571,1.);
#345=EDGE_LOOP('',(#12,#13,#14));
#346=EDGE_LOOP('',(#15,#16,#17,#18,#19,#20,#21,#22,#23,#24,#25,#26));
#347=EDGE_LOOP('',(#27,#28,#29,#30,#31,#32,#33));
#348=EDGE_LOOP('',(#34,#35,#36,#37,#38,#39,#40));
#349=EDGE_LOOP('',(#41,#42,#43,#44));
#350=EDGE_LOOP('',(#45,#46,#47,#48));
#351=EDGE_LOOP('',(#49,#50,#51,#52,#53,#54,#55,#56));
#352=EDGE_LOOP('',(#57,#58,#59,#60,#61));
#353=EDGE_LOOP('',(#62,#63,#64,#65,#66));
#354=EDGE_LOOP('',(#67,#68,#69,#70));
#355=EDGE_LOOP('',(#71,#72,#73,#74));
#356=EDGE_LOOP('',(#75,#76,#77,#78));
#357=EDGE_LOOP('',(#79,#80,#81,#82));
#358=EDGE_LOOP('',(#83,#84,#85,#86));
#359=EDGE_LOOP('',(#87,#88,#89,#90,#91,#92,#93,#94));
#360=EDGE_LOOP('',(#95,#96,#97));
#361=EDGE_LOOP('',(#98,#99,#100,#101));
#362=EDGE_LOOP('',(#102,#103,#104,#105));
#363=EDGE_LOOP('',(#106,#107,#108,#109,#110,#111,#112,#113));
#364=EDGE_LOOP('',(#114,#115,#116,#117));
#365=EDGE_LOOP('',(#118,#119,#120,#121));
#366=EDGE_LOOP('',(#122,#123,#124,#125));
#367=EDGE_LOOP('',(#126,#127,#128,#129));
#368=FACE_BOUND('',#345,.T.);
#369=FACE_BOUND('',#346,.T.);
#370=FACE_BOUND('',#347,.T.);
#371=FACE_BOUND('',#348,.T.);
#372=FACE_BOUND('',#349,.T.);
#373=FACE_BOUND('',#350,.T.);
#374=FACE_BOUND('',#351,.T.);
#375=FACE_BOUND('',#352,.T.);
#376=FACE_BOUND('',#353,.T.);
#377=FACE_BOUND('',#354,.T.);
#378=FACE_BOUND('',#355,.T.);
#379=FACE_BOUND('',#356,.T.);
#380=FACE_BOUND('',#357,.T.);
#381=FACE_BOUND('',#358,.T.);
#382=FACE_BOUND('',#359,.T.);
#383=FACE_BOUND('',#360,.T.);
#384=FACE_BOUND('',#361,.T.);
#385=FACE_BOUND('',#362,.T.);
#386=FACE_BOUND('',#363,.T.);
#387=FACE_BOUND('',#364,.T.);
#388=FACE_BOUND('',#365,.T.);
#389=FACE_BOUND('',#366,.T.);
#390=FACE_BOUND('',#367,.T.);
#391=PLANE('',#450);
#392=PLANE('',#451);
#393=PLANE('',#452);
#394=PLANE('',#453);
#395=PLANE('',#454);
#396=PLANE('',#455);
#397=PLANE('',#456);
#398=PLANE('',#457);
#399=PLANE('',#458);
#400=PLANE('',#459);
#401=PLANE('',#460);
#402=PLANE('',#461);
#403=PLANE('',#462);
#404=PLANE('',#463);
#405=PLANE('',#464);
#406=PLANE('',#465);
#407=PLANE('',#466);
#408=PLANE('',#467);
#409=PLANE('',#468);
#410=PLANE('',#469);
#411=PLANE('',#470);
#412=PLANE('',#471);
#413=PLANE('',#472);
#414=ADVANCED_FACE('',(#368),#391,.T.);
#415=ADVANCED_FACE('',(#369),#392,.T.);
#416=ADVANCED_FACE('',(#370),#393,.T.);
#417=ADVANCED_FACE('',(#371),#394,.F.);
#418=ADVANCED_FACE('',(#372),#395,.T.);
#419=ADVANCED_FACE('',(#373),#396,.F.);
#420=ADVANCED_FACE('',(#374),#397,.F.);
#421=ADVANCED_FACE('',(#375),#398,.T.);
#422=ADVANCED_FACE('',(#376),#399,.F.);
#423=ADVANCED_FACE('',(#377),#400,.T.);
#424=ADVANCED_FACE('',(#378),#401,.F.);
#425=ADVANCED_FACE('',(#379),#402,.F.);
#426=ADVANCED_FACE('',(#380),#403,.T.);
#427=ADVANCED_FACE('',(#381),#404,.T.);
#428=ADVANCED_FACE('',(#382),#405,.F.);
#429=ADVANCED_FACE('',(#383),#406,.F.);
#430=ADVANCED_FACE('',(#384),#407,.T.);
#431=ADVANCED_FACE('',(#385),#408,.T.);
#432=ADVANCED_FACE('',(#386),#409,.F.);
#433=ADVANCED_FACE('',(#387),#410,.F.);
#434=ADVANCED_FACE('',(#388),#411,.T.);
#435=ADVANCED_FACE('',(#389),#412,.T.);
#436=ADVANCED_FACE('',(#390),#413,.F.);
#437=CLOSED_SHELL('',(#414,#415,#416,#417,#418,#419,#420,#421,#422,#423,
#424,#425,#426,#427,#428,#429,#430,#431,#432,#433,#434,#435,#436));
#438=STYLED_ITEM('',(#439),#446);
#439=PRESENTATION_STYLE_ASSIGNMENT((#440));
#440=SURFACE_STYLE_USAGE(.BOTH.,#441);
#441=SURFACE_SIDE_STYLE('',(#442));
#442=SURFACE_STYLE_FILL_AREA(#443);
#443=FILL_AREA_STYLE('',(#444));
#444=FILL_AREA_STYLE_COLOUR('',#445);
#445=DRAUGHTING_PRE_DEFINED_COLOUR('white');
#446=MANIFOLD_SOLID_BREP('Part 1',#437);
#447=SHAPE_DEFINITION_REPRESENTATION(#707,#448);
#448=SHAPE_REPRESENTATION('Part 1',(#449),#702);
#449=AXIS2_PLACEMENT_3D('',#580,#473,#474);
#450=AXIS2_PLACEMENT_3D('',#581,#475,#476);
#451=AXIS2_PLACEMENT_3D('',#588,#480,#481);
#452=AXIS2_PLACEMENT_3D('',#613,#494,#495);
#453=AXIS2_PLACEMENT_3D('',#625,#502,#503);
#454=AXIS2_PLACEMENT_3D('',#637,#510,#511);
#455=AXIS2_PLACEMENT_3D('',#639,#513,#514);
#456=AXIS2_PLACEMENT_3D('',#641,#516,#517);
#457=AXIS2_PLACEMENT_3D('',#652,#524,#525);
#458=AXIS2_PLACEMENT_3D('',#658,#529,#530);
#459=AXIS2_PLACEMENT_3D('',#664,#534,#535);
#460=AXIS2_PLACEMENT_3D('',#666,#537,#538);
#461=AXIS2_PLACEMENT_3D('',#670,#541,#542);
#462=AXIS2_PLACEMENT_3D('',#674,#545,#546);
#463=AXIS2_PLACEMENT_3D('',#676,#548,#549);
#464=AXIS2_PLACEMENT_3D('',#677,#550,#551);
#465=AXIS2_PLACEMENT_3D('',#684,#556,#557);
#466=AXIS2_PLACEMENT_3D('',#688,#560,#561);
#467=AXIS2_PLACEMENT_3D('',#690,#563,#564);
#468=AXIS2_PLACEMENT_3D('',#692,#566,#567);
#469=AXIS2_PLACEMENT_3D('',#697,#572,#573);
#470=AXIS2_PLACEMENT_3D('',#698,#574,#575);
#471=AXIS2_PLACEMENT_3D('',#699,#576,#577);
#472=AXIS2_PLACEMENT_3D('',#700,#578,#579);
#473=DIRECTION('',(0.,0.,1.));
#474=DIRECTION('',(1.,0.,0.));
#475=DIRECTION('',(-1.,0.,0.));
#476=DIRECTION('',(0.,1.,0.));
#477=DIRECTION('',(0.,1.,0.));
#478=DIRECTION('',(0.,0.970810619299264,-0.239847329473936));
#479=DIRECTION('',(0.,0.973841209741793,-0.227229615606418));
#480=DIRECTION('',(0.,1.,0.));
#481=DIRECTION('',(1.,0.,0.));
#482=DIRECTION('',(-1.,0.,0.));
#483=DIRECTION('',(0.,0.,1.));
#484=DIRECTION('',(-1.,0.,0.));
#485=DIRECTION('',(0.,0.,1.));
#486=DIRECTION('',(-1.,0.,0.));
#487=DIRECTION('',(0.,0.,1.));
#488=DIRECTION('',(1.,0.,0.));
#489=DIRECTION('',(0.,0.,1.));
#490=DIRECTION('',(1.,0.,0.));
#491=DIRECTION('',(0.,0.,1.));
#492=DIRECTION('',(1.,0.,0.));
#493=DIRECTION('',(0.,0.,1.));
#494=DIRECTION('',(1.,0.,0.));
#495=DIRECTION('',(0.,-1.,0.));
#496=DIRECTION('',(0.,0.,1.));
#497=DIRECTION('',(0.,-1.,0.));
#498=DIRECTION('',(-1.98127996708943E-16,0.970810619299264,-0.239847329473936));
#499=DIRECTION('',(0.,0.,-1.));
#500=DIRECTION('',(-1.98127996708943E-16,0.970810619299264,-0.239847329473936));
#501=DIRECTION('',(0.,-1.,0.));
#502=DIRECTION('',(1.,0.,0.));
#503=DIRECTION('',(0.,-1.,0.));
#504=DIRECTION('',(0.,0.,1.));
#505=DIRECTION('',(0.,-1.,0.));
#506=DIRECTION('',(-1.98127996708943E-16,0.970810619299264,-0.239847329473936));
#507=DIRECTION('',(0.,0.,-1.));
#508=DIRECTION('',(-1.98127996708943E-16,0.970810619299264,-0.239847329473936));
#509=DIRECTION('',(0.,-1.,0.));
#510=DIRECTION('',(0.,0.,1.));
#511=DIRECTION('',(0.,-1.,0.));
#512=DIRECTION('',(-1.,0.,0.));
#513=DIRECTION('',(0.,1.,0.));
#514=DIRECTION('',(1.,0.,0.));
#515=DIRECTION('',(-1.,0.,0.));
#516=DIRECTION('',(0.,0.,1.));
#517=DIRECTION('',(0.,-1.,0.));
#518=DIRECTION('',(1.,0.,0.));
#519=DIRECTION('',(0.,1.,0.));
#520=DIRECTION('',(0.,1.,0.));
#521=DIRECTION('',(1.,0.,0.));
#522=DIRECTION('',(0.,1.,0.));
#523=DIRECTION('',(0.,1.,0.));
#524=DIRECTION('',(-1.,0.,0.));
#525=DIRECTION('',(0.,1.,0.));
#526=DIRECTION('',(0.,0.973841209741793,-0.227229615606418));
#527=DIRECTION('',(0.,0.,1.));
#528=DIRECTION('',(0.,0.970810619299264,-0.239847329473936));
#529=DIRECTION('',(-1.,0.,0.));
#530=DIRECTION('',(0.,1.,0.));
#531=DIRECTION('',(0.,0.,1.));
#532=DIRECTION('',(0.,0.973841209741793,-0.227229615606418));
#533=DIRECTION('',(0.,0.970810619299264,-0.239847329473936));
#534=DIRECTION('',(0.,1.,0.));
#535=DIRECTION('',(1.,0.,0.));
#536=DIRECTION('',(1.,0.,0.));
#537=DIRECTION('',(-1.,0.,0.));
#538=DIRECTION('',(0.,1.,0.));
#539=DIRECTION('',(0.,1.,0.));
#540=DIRECTION('',(0.,0.,1.));
#541=DIRECTION('',(0.,0.,1.));
#542=DIRECTION('',(0.,-1.,0.));
#543=DIRECTION('',(0.,1.,0.));
#544=DIRECTION('',(1.,0.,0.));
#545=DIRECTION('',(-1.,0.,0.));
#546=DIRECTION('',(0.,1.,0.));
#547=DIRECTION('',(0.,0.,1.));
#548=DIRECTION('',(0.,1.,0.));
#549=DIRECTION('',(1.,0.,0.));
#550=DIRECTION('',(0.,0.,1.));
#551=DIRECTION('',(0.,-1.,0.));
#552=DIRECTION('',(-1.,0.,0.));
#553=DIRECTION('',(0.,1.,0.));
#554=DIRECTION('',(-1.,0.,0.));
#555=DIRECTION('',(-1.,0.,0.));
#556=DIRECTION('',(-1.,0.,0.));
#557=DIRECTION('',(0.,1.,0.));
#558=DIRECTION('',(0.,0.970810619299264,-0.239847329473936));
#559=DIRECTION('',(0.,0.973841209741793,-0.227229615606418));
#560=DIRECTION('',(0.,0.227229615606418,0.973841209741793));
#561=DIRECTION('',(0.,-0.973841209741793,0.227229615606418));
#562=DIRECTION('',(1.,0.,0.));
#563=DIRECTION('',(0.,-0.227229615606418,-0.973841209741793));
#564=DIRECTION('',(0.,0.973841209741793,-0.227229615606418));
#565=DIRECTION('',(1.,0.,0.));
#566=DIRECTION('',(0.,-1.,0.));
#567=DIRECTION('',(1.,0.,0.));
#568=DIRECTION('',(1.,0.,0.));
#569=DIRECTION('',(-1.,0.,0.));
#570=DIRECTION('',(1.,0.,0.));
#571=DIRECTION('',(-1.,0.,0.));
#572=DIRECTION('',(0.,-0.239847329473936,-0.970810619299264));
#573=DIRECTION('',(0.,0.970810619299264,-0.239847329473936));
#574=DIRECTION('',(0.,-0.239847329473936,-0.970810619299264));
#575=DIRECTION('',(0.,0.970810619299264,-0.239847329473936));
#576=DIRECTION('',(0.,-0.239847329473936,-0.970810619299264));
#577=DIRECTION('',(0.,0.970810619299264,-0.239847329473936));
#578=DIRECTION('',(0.,-0.239847329473936,-0.970810619299264));
#579=DIRECTION('',(0.,0.970810619299264,-0.239847329473936));
#580=CARTESIAN_POINT('',(0.,0.,0.));
#581=CARTESIAN_POINT('',(-0.008,0.,0.));
#582=CARTESIAN_POINT('',(-0.008,0.0015,-0.0055));
#583=CARTESIAN_POINT('',(-0.008,0.0015,-0.0055));
#584=CARTESIAN_POINT('',(-0.008,0.002,-0.0055));
#585=CARTESIAN_POINT('',(-0.008,0.002,-0.0055));
#586=CARTESIAN_POINT('',(-0.008,0.0105,-0.0076));
#587=CARTESIAN_POINT('',(-0.008,0.0015,-0.0055));
#588=CARTESIAN_POINT('',(0.,0.002,1.7347234759768E-18));
#589=CARTESIAN_POINT('',(-0.009,0.002,-0.005));
#590=CARTESIAN_POINT('',(-0.01,0.002,-0.005));
#591=CARTESIAN_POINT('',(-0.008,0.002,-0.005));
#592=CARTESIAN_POINT('',(-0.01,0.002,8.67361737988404E-19));
#593=CARTESIAN_POINT('',(-0.01,0.002,0.005));
#594=CARTESIAN_POINT('',(0.,0.002,0.005));
#595=CARTESIAN_POINT('',(0.01,0.002,0.005));
#596=CARTESIAN_POINT('',(0.01,0.002,1.3010426069826E-18));
#597=CARTESIAN_POINT('',(0.01,0.002,-0.005));
#598=CARTESIAN_POINT('',(0.009,0.002,-0.005));
#599=CARTESIAN_POINT('',(0.008,0.002,-0.005));
#600=CARTESIAN_POINT('',(0.008,0.002,-0.0015));
#601=CARTESIAN_POINT('',(0.008,0.002,0.002));
#602=CARTESIAN_POINT('',(0.,0.002,0.002));
#603=CARTESIAN_POINT('',(0.002,0.002,0.002));
#604=CARTESIAN_POINT('',(0.002,0.002,0.003));
#605=CARTESIAN_POINT('',(0.002,0.002,0.004));
#606=CARTESIAN_POINT('',(0.,0.002,0.004));
#607=CARTESIAN_POINT('',(-0.002,0.002,0.004));
#608=CARTESIAN_POINT('',(-0.002,0.002,0.003));
#609=CARTESIAN_POINT('',(-0.002,0.002,0.002));
#610=CARTESIAN_POINT('',(0.,0.002,0.002));
#611=CARTESIAN_POINT('',(-0.008,0.002,0.002));
#612=CARTESIAN_POINT('',(-0.008,0.002,-0.0015));
#613=CARTESIAN_POINT('',(0.01,0.002,1.3010426069826E-18));
#614=CARTESIAN_POINT('',(0.01,0.,1.3010426069826E-18));
#615=CARTESIAN_POINT('',(0.01,0.,-0.0055));
#616=CARTESIAN_POINT('',(0.01,0.,0.005));
#617=CARTESIAN_POINT('',(0.01,0.002,-0.0055));
#618=CARTESIAN_POINT('',(0.01,0.002,-0.0055));
#619=CARTESIAN_POINT('',(0.01,0.002,-0.0055));
#620=CARTESIAN_POINT('',(0.01,0.0105,-0.0076));
#621=CARTESIAN_POINT('',(0.01,0.0105,-0.00735));
#622=CARTESIAN_POINT('',(0.01,0.0105,-0.0071));
#623=CARTESIAN_POINT('',(0.01,0.002,-0.005));
#624=CARTESIAN_POINT('',(0.01,0.002,0.005));
#625=CARTESIAN_POINT('',(-0.01,0.002,8.67361737988404E-19));
#626=CARTESIAN_POINT('',(-0.01,0.,8.67361737988404E-19));
#627=CARTESIAN_POINT('',(-0.01,0.,-0.0055));
#628=CARTESIAN_POINT('',(-0.01,0.,0.005));
#629=CARTESIAN_POINT('',(-0.01,0.002,0.005));
#630=CARTESIAN_POINT('',(-0.01,0.002,-0.005));
#631=CARTESIAN_POINT('',(-0.01,0.0105,-0.0071));
#632=CARTESIAN_POINT('',(-0.01,0.0105,-0.00735));
#633=CARTESIAN_POINT('',(-0.01,0.0105,-0.0076));
#634=CARTESIAN_POINT('',(-0.01,0.002,-0.0055));
#635=CARTESIAN_POINT('',(-0.01,0.002,-0.0055));
#636=CARTESIAN_POINT('',(-0.01,0.002,-0.0055));
#637=CARTESIAN_POINT('',(0.,0.002,0.005));
#638=CARTESIAN_POINT('',(0.,0.,0.005));
#639=CARTESIAN_POINT('',(0.,0.,1.7347234759768E-18));
#640=CARTESIAN_POINT('',(8.67361737988404E-19,0.,-0.0055));
#641=CARTESIAN_POINT('',(0.,0.0015,0.002));
#642=CARTESIAN_POINT('',(0.,0.0017,0.002));
#643=CARTESIAN_POINT('',(-0.002,0.0017,0.002));
#644=CARTESIAN_POINT('',(0.002,0.0017,0.002));
#645=CARTESIAN_POINT('',(0.002,0.0017,0.002));
#646=CARTESIAN_POINT('',(0.008,0.0015,0.002));
#647=CARTESIAN_POINT('',(0.008,0.0015,0.002));
#648=CARTESIAN_POINT('',(0.,0.0015,0.002));
#649=CARTESIAN_POINT('',(-0.008,0.0015,0.002));
#650=CARTESIAN_POINT('',(-0.008,0.0015,0.002));
#651=CARTESIAN_POINT('',(-0.002,0.0017,0.002));
#652=CARTESIAN_POINT('',(0.008,0.0015,-0.0015));
#653=CARTESIAN_POINT('',(0.008,0.0015,-0.005));
#654=CARTESIAN_POINT('',(0.008,0.0015,-0.005));
#655=CARTESIAN_POINT('',(0.008,0.0105,-0.0071));
#656=CARTESIAN_POINT('',(0.008,0.0015,-0.0015));
#657=CARTESIAN_POINT('',(0.008,0.002,-0.005));
#658=CARTESIAN_POINT('',(-0.008,0.0015,-0.0015));
#659=CARTESIAN_POINT('',(-0.008,0.0015,-0.0015));
#660=CARTESIAN_POINT('',(-0.008,0.0015,-0.005));
#661=CARTESIAN_POINT('',(-0.008,0.0015,-0.005));
#662=CARTESIAN_POINT('',(-0.008,0.0105,-0.0071));
#663=CARTESIAN_POINT('',(-0.008,0.002,-0.005));
#664=CARTESIAN_POINT('',(0.,0.0015,8.67361737988404E-19));
#665=CARTESIAN_POINT('',(0.,0.0015,-0.005));
#666=CARTESIAN_POINT('',(-0.002,0.0017,0.003));
#667=CARTESIAN_POINT('',(-0.002,0.0017,0.004));
#668=CARTESIAN_POINT('',(-0.002,0.0017,0.004));
#669=CARTESIAN_POINT('',(-0.002,0.0017,0.003));
#670=CARTESIAN_POINT('',(0.,0.0017,0.004));
#671=CARTESIAN_POINT('',(0.002,0.0017,0.004));
#672=CARTESIAN_POINT('',(0.002,0.0017,0.004));
#673=CARTESIAN_POINT('',(0.,0.0017,0.004));
#674=CARTESIAN_POINT('',(0.002,0.0017,0.003));
#675=CARTESIAN_POINT('',(0.002,0.0017,0.003));
#676=CARTESIAN_POINT('',(0.,0.0017,8.67361737988404E-19));
#677=CARTESIAN_POINT('',(8.67361737988404E-19,0.002,-0.0055));
#678=CARTESIAN_POINT('',(8.67361737988404E-19,0.0015,-0.0055));
#679=CARTESIAN_POINT('',(0.008,0.0015,-0.0055));
#680=CARTESIAN_POINT('',(0.008,0.0015,-0.0055));
#681=CARTESIAN_POINT('',(0.008,0.002,-0.0055));
#682=CARTESIAN_POINT('',(8.67361737988404E-19,0.002,-0.0055));
#683=CARTESIAN_POINT('',(8.67361737988404E-19,0.002,-0.0055));
#684=CARTESIAN_POINT('',(0.008,0.,0.));
#685=CARTESIAN_POINT('',(0.008,0.002,-0.0055));
#686=CARTESIAN_POINT('',(0.008,0.0105,-0.0076));
#687=CARTESIAN_POINT('',(0.008,0.0015,-0.0055));
#688=CARTESIAN_POINT('',(0.,-0.00102897787144362,-0.00440990516332982));
#689=CARTESIAN_POINT('',(0.,0.0105,-0.0071));
#690=CARTESIAN_POINT('',(0.,-0.00113962065331928,-0.0048840885142255));
#691=CARTESIAN_POINT('',(0.,0.0105,-0.0076));
#692=CARTESIAN_POINT('',(-3.46944695195361E-18,0.0105,-0.00655));
#693=CARTESIAN_POINT('',(0.009,0.0105,-0.0071));
#694=CARTESIAN_POINT('',(0.009,0.0105,-0.0076));
#695=CARTESIAN_POINT('',(-0.009,0.0105,-0.0076));
#696=CARTESIAN_POINT('',(-0.009,0.0105,-0.0071));
#697=CARTESIAN_POINT('',(0.,-0.00104917818940777,-0.00424667362379338));
#698=CARTESIAN_POINT('',(0.,-0.00116560135663971,-0.00471791025306549));
#699=CARTESIAN_POINT('',(0.,-0.00116560135663971,-0.00471791025306549));
#700=CARTESIAN_POINT('',(0.,-0.00104917818940777,-0.00424667362379338));
#701=MECHANICAL_DESIGN_GEOMETRIC_PRESENTATION_REPRESENTATION('',(#438),
#702);
#702=(
GEOMETRIC_REPRESENTATION_CONTEXT(3)
GLOBAL_UNCERTAINTY_ASSIGNED_CONTEXT((#703))
GLOBAL_UNIT_ASSIGNED_CONTEXT((#706,#705,#704))
REPRESENTATION_CONTEXT('Part 1','TOP_LEVEL_ASSEMBLY_PART')
);
#703=UNCERTAINTY_MEASURE_WITH_UNIT(LENGTH_MEASURE(1.E-8),#706,
'DISTANCE_ACCURACY_VALUE','Maximum Tolerance applied to model');
#704=(
NAMED_UNIT(*)
SI_UNIT($,.STERADIAN.)
SOLID_ANGLE_UNIT()
);
#705=(
NAMED_UNIT(*)
PLANE_ANGLE_UNIT()
SI_UNIT($,.RADIAN.)
);
#706=(
LENGTH_UNIT()
NAMED_UNIT(*)
SI_UNIT($,.METRE.)
);
#707=PRODUCT_DEFINITION_SHAPE('','',#708);
#708=PRODUCT_DEFINITION('','',#710,#709);
#709=PRODUCT_DEFINITION_CONTEXT('',#716,'design');
#710=PRODUCT_DEFINITION_FORMATION_WITH_SPECIFIED_SOURCE('','',#712,
 .NOT_KNOWN.);
#711=PRODUCT_RELATED_PRODUCT_CATEGORY('','',(#712));
#712=PRODUCT('Part 1','Part 1','Part 1',(#714));
#713=PRODUCT_CATEGORY('','');
#714=PRODUCT_CONTEXT('',#716,'mechanical');
#715=APPLICATION_PROTOCOL_DEFINITION('international standard',
'ap242_managed_model_based_3d_engineering',2020,#716);
#716=APPLICATION_CONTEXT('managed model based 3d engineering');
ENDSEC;
END-ISO-10303-21;
