ISO-10303-21;
HEADER;
/* Generated by software containing ST-Developer
 * from STEP Tools, Inc. (www.steptools.com) 
 */
/* OPTION: using custom renumber hook */

FILE_DESCRIPTION(
/* description */ ('STEP AP242 Edition 2',
'CAx-IF Rec.Pracs.---Representation and Presentation of Product Manufa
cturing Information (PMI)---4.0---2014-10-13',
'CAx-IF Rec.Pracs.---3D Tessellated Geometry---0.4---2014-09-14','2;1',
'CAx-IF Rec.Pracs.---User Defined Attributes---1.5---2016-08-15'),
/* implementation_level */ '2;1');

FILE_NAME(
/* name */ 'Top',
/* time_stamp */ '2026-09-09T01:30:46Z',
/* author */ (''),
/* organization */ (''),
/* preprocessor_version */ 'ST-DEVELOPER v20',
/* originating_system */ 'ONSHAPE BY PTC INC, 1.220',
/* authorisation */ '  ');

FILE_SCHEMA (('AP242_MANAGED_MODEL_BASED_3D_ENGINEERING_MIM_LF { 1 0 10303 442 3 1 4 }'));
ENDSEC;

DATA;
#10=SHAPE_REPRESENTATION_RELATIONSHIP('','',#583,#11);
#11=ADVANCED_BREP_SHAPE_REPRESENTATION('',(#581),#905);
#12=ORIENTED_EDGE('',*,*,#168,.T.);
#13=ORIENTED_EDGE('',*,*,#169,.T.);
#14=ORIENTED_EDGE('',*,*,#170,.F.);
#15=ORIENTED_EDGE('',*,*,#171,.F.);
#16=ORIENTED_EDGE('',*,*,#172,.F.);
#17=ORIENTED_EDGE('',*,*,#173,.T.);
#18=ORIENTED_EDGE('',*,*,#174,.T.);
#19=ORIENTED_EDGE('',*,*,#175,.F.);
#20=ORIENTED_EDGE('',*,*,#176,.T.);
#21=ORIENTED_EDGE('',*,*,#177,.T.);
#22=ORIENTED_EDGE('',*,*,#178,.F.);
#23=ORIENTED_EDGE('',*,*,#179,.F.);
#24=ORIENTED_EDGE('',*,*,#180,.F.);
#25=ORIENTED_EDGE('',*,*,#181,.T.);
#26=ORIENTED_EDGE('',*,*,#182,.F.);
#27=ORIENTED_EDGE('',*,*,#183,.T.);
#28=ORIENTED_EDGE('',*,*,#172,.T.);
#29=ORIENTED_EDGE('',*,*,#184,.F.);
#30=ORIENTED_EDGE('',*,*,#185,.F.);
#31=ORIENTED_EDGE('',*,*,#186,.F.);
#32=ORIENTED_EDGE('',*,*,#187,.F.);
#33=ORIENTED_EDGE('',*,*,#182,.T.);
#34=ORIENTED_EDGE('',*,*,#188,.F.);
#35=ORIENTED_EDGE('',*,*,#189,.T.);
#36=ORIENTED_EDGE('',*,*,#190,.F.);
#37=ORIENTED_EDGE('',*,*,#191,.F.);
#38=ORIENTED_EDGE('',*,*,#173,.F.);
#39=ORIENTED_EDGE('',*,*,#183,.F.);
#40=ORIENTED_EDGE('',*,*,#187,.T.);
#41=ORIENTED_EDGE('',*,*,#192,.T.);
#42=ORIENTED_EDGE('',*,*,#193,.F.);
#43=ORIENTED_EDGE('',*,*,#194,.T.);
#44=ORIENTED_EDGE('',*,*,#195,.T.);
#45=ORIENTED_EDGE('',*,*,#174,.F.);
#46=ORIENTED_EDGE('',*,*,#192,.F.);
#47=ORIENTED_EDGE('',*,*,#186,.T.);
#48=ORIENTED_EDGE('',*,*,#196,.T.);
#49=ORIENTED_EDGE('',*,*,#197,.T.);
#50=ORIENTED_EDGE('',*,*,#198,.F.);
#51=ORIENTED_EDGE('',*,*,#199,.F.);
#52=ORIENTED_EDGE('',*,*,#200,.T.);
#53=ORIENTED_EDGE('',*,*,#201,.T.);
#54=ORIENTED_EDGE('',*,*,#191,.T.);
#55=ORIENTED_EDGE('',*,*,#202,.F.);
#56=ORIENTED_EDGE('',*,*,#203,.T.);
#57=ORIENTED_EDGE('',*,*,#204,.F.);
#58=ORIENTED_EDGE('',*,*,#205,.F.);
#59=ORIENTED_EDGE('',*,*,#206,.F.);
#60=ORIENTED_EDGE('',*,*,#170,.T.);
#61=ORIENTED_EDGE('',*,*,#207,.T.);
#62=ORIENTED_EDGE('',*,*,#208,.F.);
#63=ORIENTED_EDGE('',*,*,#209,.T.);
#64=ORIENTED_EDGE('',*,*,#210,.T.);
#65=ORIENTED_EDGE('',*,*,#211,.T.);
#66=ORIENTED_EDGE('',*,*,#212,.F.);
#67=ORIENTED_EDGE('',*,*,#213,.F.);
#68=ORIENTED_EDGE('',*,*,#214,.F.);
#69=ORIENTED_EDGE('',*,*,#215,.F.);
#70=ORIENTED_EDGE('',*,*,#216,.F.);
#71=ORIENTED_EDGE('',*,*,#217,.T.);
#72=ORIENTED_EDGE('',*,*,#218,.F.);
#73=ORIENTED_EDGE('',*,*,#168,.F.);
#74=ORIENTED_EDGE('',*,*,#219,.T.);
#75=ORIENTED_EDGE('',*,*,#220,.T.);
#76=ORIENTED_EDGE('',*,*,#221,.T.);
#77=ORIENTED_EDGE('',*,*,#222,.F.);
#78=ORIENTED_EDGE('',*,*,#223,.T.);
#79=ORIENTED_EDGE('',*,*,#189,.F.);
#80=ORIENTED_EDGE('',*,*,#224,.F.);
#81=ORIENTED_EDGE('',*,*,#225,.F.);
#82=ORIENTED_EDGE('',*,*,#226,.T.);
#83=ORIENTED_EDGE('',*,*,#227,.T.);
#84=ORIENTED_EDGE('',*,*,#208,.T.);
#85=ORIENTED_EDGE('',*,*,#228,.T.);
#86=ORIENTED_EDGE('',*,*,#217,.F.);
#87=ORIENTED_EDGE('',*,*,#229,.T.);
#88=ORIENTED_EDGE('',*,*,#230,.F.);
#89=ORIENTED_EDGE('',*,*,#205,.T.);
#90=ORIENTED_EDGE('',*,*,#231,.F.);
#91=ORIENTED_EDGE('',*,*,#220,.F.);
#92=ORIENTED_EDGE('',*,*,#203,.F.);
#93=ORIENTED_EDGE('',*,*,#232,.T.);
#94=ORIENTED_EDGE('',*,*,#222,.T.);
#95=ORIENTED_EDGE('',*,*,#233,.T.);
#96=ORIENTED_EDGE('',*,*,#234,.F.);
#97=ORIENTED_EDGE('',*,*,#184,.T.);
#98=ORIENTED_EDGE('',*,*,#175,.T.);
#99=ORIENTED_EDGE('',*,*,#195,.F.);
#100=ORIENTED_EDGE('',*,*,#235,.F.);
#101=ORIENTED_EDGE('',*,*,#209,.F.);
#102=ORIENTED_EDGE('',*,*,#229,.F.);
#103=ORIENTED_EDGE('',*,*,#216,.T.);
#104=ORIENTED_EDGE('',*,*,#231,.T.);
#105=ORIENTED_EDGE('',*,*,#204,.T.);
#106=ORIENTED_EDGE('',*,*,#233,.F.);
#107=ORIENTED_EDGE('',*,*,#221,.F.);
#108=ORIENTED_EDGE('',*,*,#202,.T.);
#109=ORIENTED_EDGE('',*,*,#190,.T.);
#110=ORIENTED_EDGE('',*,*,#223,.F.);
#111=ORIENTED_EDGE('',*,*,#232,.F.);
#112=ORIENTED_EDGE('',*,*,#218,.T.);
#113=ORIENTED_EDGE('',*,*,#228,.F.);
#114=ORIENTED_EDGE('',*,*,#207,.F.);
#115=ORIENTED_EDGE('',*,*,#169,.F.);
#116=ORIENTED_EDGE('',*,*,#171,.T.);
#117=ORIENTED_EDGE('',*,*,#206,.T.);
#118=ORIENTED_EDGE('',*,*,#230,.T.);
#119=ORIENTED_EDGE('',*,*,#219,.F.);
#120=ORIENTED_EDGE('',*,*,#236,.T.);
#121=ORIENTED_EDGE('',*,*,#225,.T.);
#122=ORIENTED_EDGE('',*,*,#237,.F.);
#123=ORIENTED_EDGE('',*,*,#176,.F.);
#124=ORIENTED_EDGE('',*,*,#179,.T.);
#125=ORIENTED_EDGE('',*,*,#238,.T.);
#126=ORIENTED_EDGE('',*,*,#226,.F.);
#127=ORIENTED_EDGE('',*,*,#236,.F.);
#128=ORIENTED_EDGE('',*,*,#178,.T.);
#129=ORIENTED_EDGE('',*,*,#239,.T.);
#130=ORIENTED_EDGE('',*,*,#227,.F.);
#131=ORIENTED_EDGE('',*,*,#238,.F.);
#132=ORIENTED_EDGE('',*,*,#237,.T.);
#133=ORIENTED_EDGE('',*,*,#224,.T.);
#134=ORIENTED_EDGE('',*,*,#239,.F.);
#135=ORIENTED_EDGE('',*,*,#177,.F.);
#136=ORIENTED_EDGE('',*,*,#240,.T.);
#137=ORIENTED_EDGE('',*,*,#196,.F.);
#138=ORIENTED_EDGE('',*,*,#241,.F.);
#139=ORIENTED_EDGE('',*,*,#211,.F.);
#140=ORIENTED_EDGE('',*,*,#212,.T.);
#141=ORIENTED_EDGE('',*,*,#241,.T.);
#142=ORIENTED_EDGE('',*,*,#199,.T.);
#143=ORIENTED_EDGE('',*,*,#242,.F.);
#144=ORIENTED_EDGE('',*,*,#213,.T.);
#145=ORIENTED_EDGE('',*,*,#242,.T.);
#146=ORIENTED_EDGE('',*,*,#198,.T.);
#147=ORIENTED_EDGE('',*,*,#243,.F.);
#148=ORIENTED_EDGE('',*,*,#243,.T.);
#149=ORIENTED_EDGE('',*,*,#197,.F.);
#150=ORIENTED_EDGE('',*,*,#240,.F.);
#151=ORIENTED_EDGE('',*,*,#210,.F.);
#152=ORIENTED_EDGE('',*,*,#215,.T.);
#153=ORIENTED_EDGE('',*,*,#244,.T.);
#154=ORIENTED_EDGE('',*,*,#180,.T.);
#155=ORIENTED_EDGE('',*,*,#234,.T.);
#156=ORIENTED_EDGE('',*,*,#188,.T.);
#157=ORIENTED_EDGE('',*,*,#181,.F.);
#158=ORIENTED_EDGE('',*,*,#244,.F.);
#159=ORIENTED_EDGE('',*,*,#214,.T.);
#160=ORIENTED_EDGE('',*,*,#201,.F.);
#161=ORIENTED_EDGE('',*,*,#245,.F.);
#162=ORIENTED_EDGE('',*,*,#193,.T.);
#163=ORIENTED_EDGE('',*,*,#185,.T.);
#164=ORIENTED_EDGE('',*,*,#235,.T.);
#165=ORIENTED_EDGE('',*,*,#194,.F.);
#166=ORIENTED_EDGE('',*,*,#245,.T.);
#167=ORIENTED_EDGE('',*,*,#200,.F.);
#168=EDGE_CURVE('',#246,#247,#298,.T.);
#169=EDGE_CURVE('',#247,#248,#299,.T.);
#170=EDGE_CURVE('',#249,#248,#300,.T.);
#171=EDGE_CURVE('',#246,#249,#301,.T.);
#172=EDGE_CURVE('',#250,#251,#302,.T.);
#173=EDGE_CURVE('',#250,#252,#303,.T.);
#174=EDGE_CURVE('',#252,#253,#304,.T.);
#175=EDGE_CURVE('',#251,#253,#305,.T.);
#176=EDGE_CURVE('',#254,#255,#306,.T.);
#177=EDGE_CURVE('',#255,#256,#307,.T.);
#178=EDGE_CURVE('',#257,#256,#308,.T.);
#179=EDGE_CURVE('',#254,#257,#309,.T.);
#180=EDGE_CURVE('',#258,#259,#310,.T.);
#181=EDGE_CURVE('',#258,#260,#311,.T.);
#182=EDGE_CURVE('',#261,#260,#312,.T.);
#183=EDGE_CURVE('',#261,#250,#313,.T.);
#184=EDGE_CURVE('',#259,#251,#314,.T.);
#185=EDGE_CURVE('',#262,#263,#315,.T.);
#186=EDGE_CURVE('',#264,#262,#316,.T.);
#187=EDGE_CURVE('',#261,#264,#317,.T.);
#188=EDGE_CURVE('',#265,#260,#318,.T.);
#189=EDGE_CURVE('',#265,#266,#319,.T.);
#190=EDGE_CURVE('',#267,#266,#320,.T.);
#191=EDGE_CURVE('',#263,#267,#321,.T.);
#192=EDGE_CURVE('',#264,#252,#322,.T.);
#193=EDGE_CURVE('',#268,#262,#323,.T.);
#194=EDGE_CURVE('',#268,#269,#324,.T.);
#195=EDGE_CURVE('',#269,#253,#325,.T.);
#196=EDGE_CURVE('',#270,#271,#326,.T.);
#197=EDGE_CURVE('',#271,#272,#327,.T.);
#198=EDGE_CURVE('',#273,#272,#328,.T.);
#199=EDGE_CURVE('',#270,#273,#329,.T.);
#200=EDGE_CURVE('',#274,#275,#330,.T.);
#201=EDGE_CURVE('',#275,#263,#331,.T.);
#202=EDGE_CURVE('',#276,#267,#332,.T.);
#203=EDGE_CURVE('',#276,#277,#333,.T.);
#204=EDGE_CURVE('',#278,#277,#334,.T.);
#205=EDGE_CURVE('',#279,#278,#335,.T.);
#206=EDGE_CURVE('',#249,#279,#336,.T.);
#207=EDGE_CURVE('',#248,#280,#337,.T.);
#208=EDGE_CURVE('',#281,#280,#338,.T.);
#209=EDGE_CURVE('',#281,#274,#339,.T.);
#210=EDGE_CURVE('',#282,#283,#340,.T.);
#211=EDGE_CURVE('',#283,#284,#341,.T.);
#212=EDGE_CURVE('',#285,#284,#342,.T.);
#213=EDGE_CURVE('',#282,#285,#343,.T.);
#214=EDGE_CURVE('',#286,#265,#344,.T.);
#215=EDGE_CURVE('',#287,#286,#345,.T.);
#216=EDGE_CURVE('',#288,#287,#346,.T.);
#217=EDGE_CURVE('',#288,#289,#347,.T.);
#218=EDGE_CURVE('',#247,#289,#348,.T.);
#219=EDGE_CURVE('',#246,#290,#349,.T.);
#220=EDGE_CURVE('',#290,#291,#350,.T.);
#221=EDGE_CURVE('',#291,#292,#351,.T.);
#222=EDGE_CURVE('',#293,#292,#352,.T.);
#223=EDGE_CURVE('',#293,#266,#353,.T.);
#224=EDGE_CURVE('',#294,#295,#354,.T.);
#225=EDGE_CURVE('',#296,#294,#355,.T.);
#226=EDGE_CURVE('',#296,#297,#356,.T.);
#227=EDGE_CURVE('',#297,#295,#357,.T.);
#228=EDGE_CURVE('',#280,#289,#358,.T.);
#229=EDGE_CURVE('',#288,#281,#359,.T.);
#230=EDGE_CURVE('',#279,#290,#360,.T.);
#231=EDGE_CURVE('',#291,#278,#361,.T.);
#232=EDGE_CURVE('',#276,#293,#362,.T.);
#233=EDGE_CURVE('',#292,#277,#363,.T.);
#234=EDGE_CURVE('',#259,#287,#364,.T.);
#235=EDGE_CURVE('',#274,#269,#365,.T.);
#236=EDGE_CURVE('',#254,#296,#366,.T.);
#237=EDGE_CURVE('',#255,#294,#367,.T.);
#238=EDGE_CURVE('',#257,#297,#368,.T.);
#239=EDGE_CURVE('',#256,#295,#369,.T.);
#240=EDGE_CURVE('',#283,#271,#370,.T.);
#241=EDGE_CURVE('',#284,#270,#371,.T.);
#242=EDGE_CURVE('',#285,#273,#372,.T.);
#243=EDGE_CURVE('',#282,#272,#373,.T.);
#244=EDGE_CURVE('',#286,#258,#374,.T.);
#245=EDGE_CURVE('',#268,#275,#375,.T.);
#246=VERTEX_POINT('',#749);
#247=VERTEX_POINT('',#750);
#248=VERTEX_POINT('',#752);
#249=VERTEX_POINT('',#754);
#250=VERTEX_POINT('',#757);
#251=VERTEX_POINT('',#758);
#252=VERTEX_POINT('',#760);
#253=VERTEX_POINT('',#762);
#254=VERTEX_POINT('',#766);
#255=VERTEX_POINT('',#767);
#256=VERTEX_POINT('',#769);
#257=VERTEX_POINT('',#771);
#258=VERTEX_POINT('',#774);
#259=VERTEX_POINT('',#775);
#260=VERTEX_POINT('',#777);
#261=VERTEX_POINT('',#779);
#262=VERTEX_POINT('',#784);
#263=VERTEX_POINT('',#785);
#264=VERTEX_POINT('',#787);
#265=VERTEX_POINT('',#790);
#266=VERTEX_POINT('',#792);
#267=VERTEX_POINT('',#794);
#268=VERTEX_POINT('',#800);
#269=VERTEX_POINT('',#802);
#270=VERTEX_POINT('',#805);
#271=VERTEX_POINT('',#806);
#272=VERTEX_POINT('',#808);
#273=VERTEX_POINT('',#810);
#274=VERTEX_POINT('',#814);
#275=VERTEX_POINT('',#815);
#276=VERTEX_POINT('',#818);
#277=VERTEX_POINT('',#820);
#278=VERTEX_POINT('',#822);
#279=VERTEX_POINT('',#824);
#280=VERTEX_POINT('',#827);
#281=VERTEX_POINT('',#829);
#282=VERTEX_POINT('',#832);
#283=VERTEX_POINT('',#833);
#284=VERTEX_POINT('',#835);
#285=VERTEX_POINT('',#837);
#286=VERTEX_POINT('',#841);
#287=VERTEX_POINT('',#843);
#288=VERTEX_POINT('',#845);
#289=VERTEX_POINT('',#847);
#290=VERTEX_POINT('',#850);
#291=VERTEX_POINT('',#852);
#292=VERTEX_POINT('',#854);
#293=VERTEX_POINT('',#856);
#294=VERTEX_POINT('',#859);
#295=VERTEX_POINT('',#860);
#296=VERTEX_POINT('',#862);
#297=VERTEX_POINT('',#864);
#298=LINE('',#748,#376);
#299=LINE('',#751,#377);
#300=LINE('',#753,#378);
#301=LINE('',#755,#379);
#302=LINE('',#756,#380);
#303=LINE('',#759,#381);
#304=LINE('',#761,#382);
#305=LINE('',#763,#383);
#306=LINE('',#765,#384);
#307=LINE('',#768,#385);
#308=LINE('',#770,#386);
#309=LINE('',#772,#387);
#310=LINE('',#773,#388);
#311=LINE('',#776,#389);
#312=LINE('',#778,#390);
#313=LINE('',#780,#391);
#314=LINE('',#781,#392);
#315=LINE('',#783,#393);
#316=LINE('',#786,#394);
#317=LINE('',#788,#395);
#318=LINE('',#789,#396);
#319=LINE('',#791,#397);
#320=LINE('',#793,#398);
#321=LINE('',#795,#399);
#322=LINE('',#797,#400);
#323=LINE('',#799,#401);
#324=LINE('',#801,#402);
#325=LINE('',#803,#403);
#326=LINE('',#804,#404);
#327=LINE('',#807,#405);
#328=LINE('',#809,#406);
#329=LINE('',#811,#407);
#330=LINE('',#813,#408);
#331=LINE('',#816,#409);
#332=LINE('',#817,#410);
#333=LINE('',#819,#411);
#334=LINE('',#821,#412);
#335=LINE('',#823,#413);
#336=LINE('',#825,#414);
#337=LINE('',#826,#415);
#338=LINE('',#828,#416);
#339=LINE('',#830,#417);
#340=LINE('',#831,#418);
#341=LINE('',#834,#419);
#342=LINE('',#836,#420);
#343=LINE('',#838,#421);
#344=LINE('',#840,#422);
#345=LINE('',#842,#423);
#346=LINE('',#844,#424);
#347=LINE('',#846,#425);
#348=LINE('',#848,#426);
#349=LINE('',#849,#427);
#350=LINE('',#851,#428);
#351=LINE('',#853,#429);
#352=LINE('',#855,#430);
#353=LINE('',#857,#431);
#354=LINE('',#858,#432);
#355=LINE('',#861,#433);
#356=LINE('',#863,#434);
#357=LINE('',#865,#435);
#358=LINE('',#867,#436);
#359=LINE('',#868,#437);
#360=LINE('',#870,#438);
#361=LINE('',#871,#439);
#362=LINE('',#873,#440);
#363=LINE('',#874,#441);
#364=LINE('',#876,#442);
#365=LINE('',#877,#443);
#366=LINE('',#883,#444);
#367=LINE('',#884,#445);
#368=LINE('',#886,#446);
#369=LINE('',#888,#447);
#370=LINE('',#891,#448);
#371=LINE('',#892,#449);
#372=LINE('',#894,#450);
#373=LINE('',#896,#451);
#374=LINE('',#899,#452);
#375=LINE('',#902,#453);
#376=VECTOR('',#616,1.);
#377=VECTOR('',#617,1.);
#378=VECTOR('',#618,1.);
#379=VECTOR('',#619,1.);
#380=VECTOR('',#620,1.);
#381=VECTOR('',#621,1.);
#382=VECTOR('',#622,1.);
#383=VECTOR('',#623,1.);
#384=VECTOR('',#626,1.);
#385=VECTOR('',#627,1.);
#386=VECTOR('',#628,1.);
#387=VECTOR('',#629,1.);
#388=VECTOR('',#630,1.);
#389=VECTOR('',#631,1.);
#390=VECTOR('',#632,1.);
#391=VECTOR('',#633,1.);
#392=VECTOR('',#634,1.);
#393=VECTOR('',#637,1.);
#394=VECTOR('',#638,1.);
#395=VECTOR('',#639,1.);
#396=VECTOR('',#640,1.);
#397=VECTOR('',#641,1.);
#398=VECTOR('',#642,1.);
#399=VECTOR('',#643,1.);
#400=VECTOR('',#646,1.);
#401=VECTOR('',#649,1.);
#402=VECTOR('',#650,1.);
#403=VECTOR('',#651,1.);
#404=VECTOR('',#652,1.);
#405=VECTOR('',#653,1.);
#406=VECTOR('',#654,1.);
#407=VECTOR('',#655,1.);
#408=VECTOR('',#658,1.);
#409=VECTOR('',#659,1.);
#410=VECTOR('',#660,1.);
#411=VECTOR('',#661,1.);
#412=VECTOR('',#662,1.);
#413=VECTOR('',#663,1.);
#414=VECTOR('',#664,1.);
#415=VECTOR('',#665,1.);
#416=VECTOR('',#666,1.);
#417=VECTOR('',#667,1.);
#418=VECTOR('',#668,1.);
#419=VECTOR('',#669,1.);
#420=VECTOR('',#670,1.);
#421=VECTOR('',#671,1.);
#422=VECTOR('',#674,1.);
#423=VECTOR('',#675,1.);
#424=VECTOR('',#676,1.);
#425=VECTOR('',#677,1.);
#426=VECTOR('',#678,1.);
#427=VECTOR('',#679,1.);
#428=VECTOR('',#680,1.);
#429=VECTOR('',#681,1.);
#430=VECTOR('',#682,1.);
#431=VECTOR('',#683,1.);
#432=VECTOR('',#684,1.);
#433=VECTOR('',#685,1.);
#434=VECTOR('',#686,1.);
#435=VECTOR('',#687,1.);
#436=VECTOR('',#690,1.);
#437=VECTOR('',#691,1.);
#438=VECTOR('',#694,1.);
#439=VECTOR('',#695,1.);
#440=VECTOR('',#698,1.);
#441=VECTOR('',#699,1.);
#442=VECTOR('',#702,1.);
#443=VECTOR('',#703,1.);
#444=VECTOR('',#714,1.);
#445=VECTOR('',#715,1.);
#446=VECTOR('',#718,1.);
#447=VECTOR('',#721,1.);
#448=VECTOR('',#726,1.);
#449=VECTOR('',#727,1.);
#450=VECTOR('',#730,1.);
#451=VECTOR('',#733,1.);
#452=VECTOR('',#738,1.);
#453=VECTOR('',#743,1.);
#454=EDGE_LOOP('',(#12,#13,#14,#15));
#455=EDGE_LOOP('',(#16,#17,#18,#19));
#456=EDGE_LOOP('',(#20,#21,#22,#23));
#457=EDGE_LOOP('',(#24,#25,#26,#27,#28,#29));
#458=EDGE_LOOP('',(#30,#31,#32,#33,#34,#35,#36,#37));
#459=EDGE_LOOP('',(#38,#39,#40,#41));
#460=EDGE_LOOP('',(#42,#43,#44,#45,#46,#47));
#461=EDGE_LOOP('',(#48,#49,#50,#51));
#462=EDGE_LOOP('',(#52,#53,#54,#55,#56,#57,#58,#59,#60,#61,#62,#63));
#463=EDGE_LOOP('',(#64,#65,#66,#67));
#464=EDGE_LOOP('',(#68,#69,#70,#71,#72,#73,#74,#75,#76,#77,#78,#79));
#465=EDGE_LOOP('',(#80,#81,#82,#83));
#466=EDGE_LOOP('',(#84,#85,#86,#87));
#467=EDGE_LOOP('',(#88,#89,#90,#91));
#468=EDGE_LOOP('',(#92,#93,#94,#95));
#469=EDGE_LOOP('',(#96,#97,#98,#99,#100,#101,#102,#103));
#470=EDGE_LOOP('',(#104,#105,#106,#107));
#471=EDGE_LOOP('',(#108,#109,#110,#111));
#472=EDGE_LOOP('',(#112,#113,#114,#115));
#473=EDGE_LOOP('',(#116,#117,#118,#119));
#474=EDGE_LOOP('',(#120,#121,#122,#123));
#475=EDGE_LOOP('',(#124,#125,#126,#127));
#476=EDGE_LOOP('',(#128,#129,#130,#131));
#477=EDGE_LOOP('',(#132,#133,#134,#135));
#478=EDGE_LOOP('',(#136,#137,#138,#139));
#479=EDGE_LOOP('',(#140,#141,#142,#143));
#480=EDGE_LOOP('',(#144,#145,#146,#147));
#481=EDGE_LOOP('',(#148,#149,#150,#151));
#482=EDGE_LOOP('',(#152,#153,#154,#155));
#483=EDGE_LOOP('',(#156,#157,#158,#159));
#484=EDGE_LOOP('',(#160,#161,#162,#163));
#485=EDGE_LOOP('',(#164,#165,#166,#167));
#486=FACE_BOUND('',#454,.T.);
#487=FACE_BOUND('',#455,.T.);
#488=FACE_BOUND('',#456,.T.);
#489=FACE_BOUND('',#457,.T.);
#490=FACE_BOUND('',#458,.T.);
#491=FACE_BOUND('',#459,.T.);
#492=FACE_BOUND('',#460,.T.);
#493=FACE_BOUND('',#461,.T.);
#494=FACE_BOUND('',#462,.T.);
#495=FACE_BOUND('',#463,.T.);
#496=FACE_BOUND('',#464,.T.);
#497=FACE_BOUND('',#465,.T.);
#498=FACE_BOUND('',#466,.T.);
#499=FACE_BOUND('',#467,.T.);
#500=FACE_BOUND('',#468,.T.);
#501=FACE_BOUND('',#469,.T.);
#502=FACE_BOUND('',#470,.T.);
#503=FACE_BOUND('',#471,.T.);
#504=FACE_BOUND('',#472,.T.);
#505=FACE_BOUND('',#473,.T.);
#506=FACE_BOUND('',#474,.T.);
#507=FACE_BOUND('',#475,.T.);
#508=FACE_BOUND('',#476,.T.);
#509=FACE_BOUND('',#477,.T.);
#510=FACE_BOUND('',#478,.T.);
#511=FACE_BOUND('',#479,.T.);
#512=FACE_BOUND('',#480,.T.);
#513=FACE_BOUND('',#481,.T.);
#514=FACE_BOUND('',#482,.T.);
#515=FACE_BOUND('',#483,.T.);
#516=FACE_BOUND('',#484,.T.);
#517=FACE_BOUND('',#485,.T.);
#518=PLANE('',#585);
#519=PLANE('',#586);
#520=PLANE('',#587);
#521=PLANE('',#588);
#522=PLANE('',#589);
#523=PLANE('',#590);
#524=PLANE('',#591);
#525=PLANE('',#592);
#526=PLANE('',#593);
#527=PLANE('',#594);
#528=PLANE('',#595);
#529=PLANE('',#596);
#530=PLANE('',#597);
#531=PLANE('',#598);
#532=PLANE('',#599);
#533=PLANE('',#600);
#534=PLANE('',#601);
#535=PLANE('',#602);
#536=PLANE('',#603);
#537=PLANE('',#604);
#538=PLANE('',#605);
#539=PLANE('',#606);
#540=PLANE('',#607);
#541=PLANE('',#608);
#542=PLANE('',#609);
#543=PLANE('',#610);
#544=PLANE('',#611);
#545=ADVANCED_FACE('',(#486,#487),#518,.T.);
#546=ADVANCED_FACE('',(#488,#489),#519,.T.);
#547=ADVANCED_FACE('',(#490),#520,.F.);
#548=ADVANCED_FACE('',(#491),#521,.T.);
#549=ADVANCED_FACE('',(#492,#493),#522,.F.);
#550=ADVANCED_FACE('',(#494,#495),#523,.T.);
#551=ADVANCED_FACE('',(#496,#497),#524,.F.);
#552=ADVANCED_FACE('',(#498),#525,.T.);
#553=ADVANCED_FACE('',(#499),#526,.T.);
#554=ADVANCED_FACE('',(#500),#527,.F.);
#555=ADVANCED_FACE('',(#501),#528,.T.);
#556=ADVANCED_FACE('',(#502),#529,.F.);
#557=ADVANCED_FACE('',(#503),#530,.F.);
#558=ADVANCED_FACE('',(#504),#531,.T.);
#559=ADVANCED_FACE('',(#505),#532,.F.);
#560=ADVANCED_FACE('',(#506),#533,.T.);
#561=ADVANCED_FACE('',(#507),#534,.F.);
#562=ADVANCED_FACE('',(#508),#535,.F.);
#563=ADVANCED_FACE('',(#509),#536,.T.);
#564=ADVANCED_FACE('',(#510),#537,.T.);
#565=ADVANCED_FACE('',(#511),#538,.F.);
#566=ADVANCED_FACE('',(#512),#539,.F.);
#567=ADVANCED_FACE('',(#513),#540,.T.);
#568=ADVANCED_FACE('',(#514),#541,.T.);
#569=ADVANCED_FACE('',(#515),#542,.F.);
#570=ADVANCED_FACE('',(#516),#543,.F.);
#571=ADVANCED_FACE('',(#517),#544,.T.);
#572=CLOSED_SHELL('',(#545,#546,#547,#548,#549,#550,#551,#552,#553,#554,
#555,#556,#557,#558,#559,#560,#561,#562,#563,#564,#565,#566,#567,#568,#569,
#570,#571));
#573=STYLED_ITEM('',(#574),#581);
#574=PRESENTATION_STYLE_ASSIGNMENT((#575));
#575=SURFACE_STYLE_USAGE(.BOTH.,#576);
#576=SURFACE_SIDE_STYLE('',(#577));
#577=SURFACE_STYLE_FILL_AREA(#578);
#578=FILL_AREA_STYLE('',(#579));
#579=FILL_AREA_STYLE_COLOUR('',#580);
#580=DRAUGHTING_PRE_DEFINED_COLOUR('red');
#581=MANIFOLD_SOLID_BREP('Part 1',#572);
#582=SHAPE_DEFINITION_REPRESENTATION(#910,#583);
#583=SHAPE_REPRESENTATION('Part 1',(#584),#905);
#584=AXIS2_PLACEMENT_3D('',#746,#612,#613);
#585=AXIS2_PLACEMENT_3D('',#747,#614,#615);
#586=AXIS2_PLACEMENT_3D('',#764,#624,#625);
#587=AXIS2_PLACEMENT_3D('',#782,#635,#636);
#588=AXIS2_PLACEMENT_3D('',#796,#644,#645);
#589=AXIS2_PLACEMENT_3D('',#798,#647,#648);
#590=AXIS2_PLACEMENT_3D('',#812,#656,#657);
#591=AXIS2_PLACEMENT_3D('',#839,#672,#673);
#592=AXIS2_PLACEMENT_3D('',#866,#688,#689);
#593=AXIS2_PLACEMENT_3D('',#869,#692,#693);
#594=AXIS2_PLACEMENT_3D('',#872,#696,#697);
#595=AXIS2_PLACEMENT_3D('',#875,#700,#701);
#596=AXIS2_PLACEMENT_3D('',#878,#704,#705);
#597=AXIS2_PLACEMENT_3D('',#879,#706,#707);
#598=AXIS2_PLACEMENT_3D('',#880,#708,#709);
#599=AXIS2_PLACEMENT_3D('',#881,#710,#711);
#600=AXIS2_PLACEMENT_3D('',#882,#712,#713);
#601=AXIS2_PLACEMENT_3D('',#885,#716,#717);
#602=AXIS2_PLACEMENT_3D('',#887,#719,#720);
#603=AXIS2_PLACEMENT_3D('',#889,#722,#723);
#604=AXIS2_PLACEMENT_3D('',#890,#724,#725);
#605=AXIS2_PLACEMENT_3D('',#893,#728,#729);
#606=AXIS2_PLACEMENT_3D('',#895,#731,#732);
#607=AXIS2_PLACEMENT_3D('',#897,#734,#735);
#608=AXIS2_PLACEMENT_3D('',#898,#736,#737);
#609=AXIS2_PLACEMENT_3D('',#900,#739,#740);
#610=AXIS2_PLACEMENT_3D('',#901,#741,#742);
#611=AXIS2_PLACEMENT_3D('',#903,#744,#745);
#612=DIRECTION('',(0.,0.,1.));
#613=DIRECTION('',(1.,0.,0.));
#614=DIRECTION('',(0.,0.,1.));
#615=DIRECTION('',(0.,-1.,0.));
#616=DIRECTION('',(0.,-1.,0.));
#617=DIRECTION('',(-1.,0.,0.));
#618=DIRECTION('',(0.,-1.,0.));
#619=DIRECTION('',(-1.,0.,0.));
#620=DIRECTION('',(0.,-1.,0.));
#621=DIRECTION('',(-1.,0.,0.));
#622=DIRECTION('',(0.,-1.,0.));
#623=DIRECTION('',(-1.,0.,0.));
#624=DIRECTION('',(1.,0.,9.91270557701033E-17));
#625=DIRECTION('',(9.91270557701033E-17,0.,-1.));
#626=DIRECTION('',(0.,-1.,0.));
#627=DIRECTION('',(-9.91270557701033E-17,0.,1.));
#628=DIRECTION('',(0.,-1.,0.));
#629=DIRECTION('',(-9.91270557701033E-17,0.,1.));
#630=DIRECTION('',(0.,-1.,0.));
#631=DIRECTION('',(0.,0.,-1.));
#632=DIRECTION('',(0.,-1.,0.));
#633=DIRECTION('',(-9.91270557701033E-17,0.,1.));
#634=DIRECTION('',(-9.91270557701033E-17,0.,1.));
#635=DIRECTION('',(0.,0.,1.));
#636=DIRECTION('',(0.,-1.,0.));
#637=DIRECTION('',(1.,0.,0.));
#638=DIRECTION('',(0.,-1.,0.));
#639=DIRECTION('',(-1.,0.,0.));
#640=DIRECTION('',(1.,0.,0.));
#641=DIRECTION('',(0.,1.,0.));
#642=DIRECTION('',(1.,0.,0.));
#643=DIRECTION('',(0.,1.,0.));
#644=DIRECTION('',(0.,1.,0.));
#645=DIRECTION('',(1.,0.,0.));
#646=DIRECTION('',(-9.91270557701032E-17,0.,1.));
#647=DIRECTION('',(1.,0.,9.91270557701032E-17));
#648=DIRECTION('',(9.91270557701032E-17,0.,-1.));
#649=DIRECTION('',(0.,0.,-1.));
#650=DIRECTION('',(0.,-1.,0.));
#651=DIRECTION('',(-9.91270557701032E-17,0.,1.));
#652=DIRECTION('',(9.91270557701032E-17,0.,-1.));
#653=DIRECTION('',(0.,1.,0.));
#654=DIRECTION('',(9.91270557701032E-17,0.,-1.));
#655=DIRECTION('',(0.,1.,0.));
#656=DIRECTION('',(1.,0.,0.));
#657=DIRECTION('',(0.,-1.,0.));
#658=DIRECTION('',(0.,1.,0.));
#659=DIRECTION('',(0.,0.,-1.));
#660=DIRECTION('',(0.,0.,-1.));
#661=DIRECTION('',(0.,1.,0.));
#662=DIRECTION('',(0.,0.,-1.));
#663=DIRECTION('',(0.,1.,0.));
#664=DIRECTION('',(0.,0.,-1.));
#665=DIRECTION('',(0.,0.,-1.));
#666=DIRECTION('',(0.,1.,0.));
#667=DIRECTION('',(0.,0.,-1.));
#668=DIRECTION('',(0.,-1.,0.));
#669=DIRECTION('',(0.,0.,1.));
#670=DIRECTION('',(0.,-1.,0.));
#671=DIRECTION('',(0.,0.,1.));
#672=DIRECTION('',(1.,0.,0.));
#673=DIRECTION('',(0.,-1.,0.));
#674=DIRECTION('',(0.,0.,-1.));
#675=DIRECTION('',(0.,1.,0.));
#676=DIRECTION('',(0.,0.,-1.));
#677=DIRECTION('',(0.,1.,0.));
#678=DIRECTION('',(0.,0.,-1.));
#679=DIRECTION('',(0.,0.,-1.));
#680=DIRECTION('',(0.,1.,0.));
#681=DIRECTION('',(0.,0.,-1.));
#682=DIRECTION('',(0.,1.,0.));
#683=DIRECTION('',(0.,0.,-1.));
#684=DIRECTION('',(0.,0.,1.));
#685=DIRECTION('',(0.,-1.,0.));
#686=DIRECTION('',(0.,0.,1.));
#687=DIRECTION('',(0.,-1.,0.));
#688=DIRECTION('',(0.,0.,-1.));
#689=DIRECTION('',(0.,1.,0.));
#690=DIRECTION('',(1.,0.,0.));
#691=DIRECTION('',(-1.,0.,0.));
#692=DIRECTION('',(0.,0.,-1.));
#693=DIRECTION('',(0.,1.,0.));
#694=DIRECTION('',(1.,0.,0.));
#695=DIRECTION('',(-1.,0.,0.));
#696=DIRECTION('',(0.,0.,-1.));
#697=DIRECTION('',(0.,1.,0.));
#698=DIRECTION('',(1.,0.,0.));
#699=DIRECTION('',(-1.,0.,0.));
#700=DIRECTION('',(0.,-1.,0.));
#701=DIRECTION('',(1.,0.,0.));
#702=DIRECTION('',(-1.,0.,0.));
#703=DIRECTION('',(-1.,0.,0.));
#704=DIRECTION('',(0.,1.,0.));
#705=DIRECTION('',(1.,0.,0.));
#706=DIRECTION('',(0.,1.,0.));
#707=DIRECTION('',(1.,0.,0.));
#708=DIRECTION('',(0.,1.,0.));
#709=DIRECTION('',(1.,0.,0.));
#710=DIRECTION('',(0.,1.,0.));
#711=DIRECTION('',(1.,0.,0.));
#712=DIRECTION('',(-9.91270557701032E-17,0.,1.));
#713=DIRECTION('',(1.,0.,9.91270557701032E-17));
#714=DIRECTION('',(-1.,0.,-9.91270557701032E-17));
#715=DIRECTION('',(-1.,0.,-9.91270557701032E-17));
#716=DIRECTION('',(0.,1.,0.));
#717=DIRECTION('',(1.,0.,0.));
#718=DIRECTION('',(-1.,0.,-9.91270557701032E-17));
#719=DIRECTION('',(-9.91270557701032E-17,0.,1.));
#720=DIRECTION('',(1.,0.,9.91270557701032E-17));
#721=DIRECTION('',(-1.,0.,-9.91270557701032E-17));
#722=DIRECTION('',(0.,1.,0.));
#723=DIRECTION('',(1.,0.,0.));
#724=DIRECTION('',(0.,1.,0.));
#725=DIRECTION('',(1.,0.,0.));
#726=DIRECTION('',(-1.,0.,-9.91270557701032E-17));
#727=DIRECTION('',(-1.,0.,-9.91270557701032E-17));
#728=DIRECTION('',(-9.91270557701032E-17,0.,1.));
#729=DIRECTION('',(1.,0.,9.91270557701032E-17));
#730=DIRECTION('',(-1.,0.,-9.91270557701032E-17));
#731=DIRECTION('',(0.,1.,0.));
#732=DIRECTION('',(1.,0.,0.));
#733=DIRECTION('',(-1.,0.,-9.91270557701032E-17));
#734=DIRECTION('',(-9.91270557701032E-17,0.,1.));
#735=DIRECTION('',(1.,0.,9.91270557701032E-17));
#736=DIRECTION('',(0.,0.,-1.));
#737=DIRECTION('',(-1.,0.,0.));
#738=DIRECTION('',(1.,0.,0.));
#739=DIRECTION('',(0.,1.,0.));
#740=DIRECTION('',(1.,0.,0.));
#741=DIRECTION('',(0.,1.,0.));
#742=DIRECTION('',(1.,0.,0.));
#743=DIRECTION('',(1.,0.,0.));
#744=DIRECTION('',(0.,0.,-1.));
#745=DIRECTION('',(-1.,0.,0.));
#746=CARTESIAN_POINT('',(0.,0.,0.));
#747=CARTESIAN_POINT('',(0.,0.0025,0.07));
#748=CARTESIAN_POINT('',(0.0648320317268372,0.0025,0.07));
#749=CARTESIAN_POINT('',(0.0648320317268372,-0.00309540538214615,0.07));
#750=CARTESIAN_POINT('',(0.0648320317268372,-0.0184802318358377,0.07));
#751=CARTESIAN_POINT('',(0.,-0.0184802318358377,0.07));
#752=CARTESIAN_POINT('',(-0.0648320317268372,-0.0184802318358377,0.07));
#753=CARTESIAN_POINT('',(-0.0648320317268372,0.0025,0.07));
#754=CARTESIAN_POINT('',(-0.0648320317268372,-0.00309540538214615,0.07));
#755=CARTESIAN_POINT('',(0.,-0.00309540538214615,0.07));
#756=CARTESIAN_POINT('',(0.07,0.0025,0.07));
#757=CARTESIAN_POINT('',(0.07,0.001,0.07));
#758=CARTESIAN_POINT('',(0.07,-0.025,0.07));
#759=CARTESIAN_POINT('',(0.,0.001,0.07));
#760=CARTESIAN_POINT('',(-0.07,0.001,0.07));
#761=CARTESIAN_POINT('',(-0.07,0.0025,0.07));
#762=CARTESIAN_POINT('',(-0.07,-0.025,0.07));
#763=CARTESIAN_POINT('',(0.,-0.025,0.07));
#764=CARTESIAN_POINT('',(0.07,0.0025,-2.77555756156289E-17));
#765=CARTESIAN_POINT('',(0.07,0.0025,-0.0648320317268372));
#766=CARTESIAN_POINT('',(0.07,-0.00218970822259418,-0.0648320317268372));
#767=CARTESIAN_POINT('',(0.07,-0.0175745346762857,-0.0648320317268372));
#768=CARTESIAN_POINT('',(0.07,-0.0175745346762857,-2.77555756156289E-17));
#769=CARTESIAN_POINT('',(0.07,-0.0175745346762857,0.0648320317268372));
#770=CARTESIAN_POINT('',(0.07,0.0025,0.0648320317268372));
#771=CARTESIAN_POINT('',(0.07,-0.00218970822259418,0.0648320317268372));
#772=CARTESIAN_POINT('',(0.07,-0.00218970822259418,-2.77555756156289E-17));
#773=CARTESIAN_POINT('',(0.07,0.0025,-0.0653));
#774=CARTESIAN_POINT('',(0.07,-0.0184802318358377,-0.0653));
#775=CARTESIAN_POINT('',(0.07,-0.025,-0.0653));
#776=CARTESIAN_POINT('',(0.07,-0.0184802318358377,-0.0653));
#777=CARTESIAN_POINT('',(0.07,-0.0184802318358377,-0.0659));
#778=CARTESIAN_POINT('',(0.07,0.0025,-0.0659));
#779=CARTESIAN_POINT('',(0.07,0.001,-0.0659));
#780=CARTESIAN_POINT('',(0.07,0.001,-2.77555756156289E-17));
#781=CARTESIAN_POINT('',(0.07,-0.025,-2.77555756156289E-17));
#782=CARTESIAN_POINT('',(-1.38777878078145E-17,0.0025,-0.0659));
#783=CARTESIAN_POINT('',(0.,-0.0184802318358377,-0.0659));
#784=CARTESIAN_POINT('',(-0.07,-0.0184802318358377,-0.0659));
#785=CARTESIAN_POINT('',(-0.0648320317268372,-0.0184802318358377,-0.0659));
#786=CARTESIAN_POINT('',(-0.07,0.0025,-0.0659));
#787=CARTESIAN_POINT('',(-0.07,0.001,-0.0659));
#788=CARTESIAN_POINT('',(-1.38777878078145E-17,0.001,-0.0659));
#789=CARTESIAN_POINT('',(0.,-0.0184802318358377,-0.0659));
#790=CARTESIAN_POINT('',(0.0648320317268372,-0.0184802318358377,-0.0659));
#791=CARTESIAN_POINT('',(0.0648320317268372,-0.0107878186089919,-0.0659));
#792=CARTESIAN_POINT('',(0.0648320317268372,-0.00309540538214615,-0.0659));
#793=CARTESIAN_POINT('',(0.,-0.00309540538214615,-0.0659));
#794=CARTESIAN_POINT('',(-0.0648320317268372,-0.00309540538214615,-0.0659));
#795=CARTESIAN_POINT('',(-0.0648320317268372,-0.0107878186089919,-0.0659));
#796=CARTESIAN_POINT('',(0.,0.001,-1.38777878078145E-17));
#797=CARTESIAN_POINT('',(-0.07,0.001,-1.38777878078145E-17));
#798=CARTESIAN_POINT('',(-0.07,0.0025,-1.38777878078145E-17));
#799=CARTESIAN_POINT('',(-0.07,-0.0184802318358377,-0.0653));
#800=CARTESIAN_POINT('',(-0.07,-0.0184802318358377,-0.0653));
#801=CARTESIAN_POINT('',(-0.07,0.0025,-0.0653));
#802=CARTESIAN_POINT('',(-0.07,-0.025,-0.0653));
#803=CARTESIAN_POINT('',(-0.07,-0.025,-1.38777878078145E-17));
#804=CARTESIAN_POINT('',(-0.07,-0.0175745346762857,-1.38777878078145E-17));
#805=CARTESIAN_POINT('',(-0.07,-0.0175745346762857,0.0648320317268371));
#806=CARTESIAN_POINT('',(-0.07,-0.0175745346762857,-0.0648320317268372));
#807=CARTESIAN_POINT('',(-0.07,-0.00988212144943997,-0.0648320317268372));
#808=CARTESIAN_POINT('',(-0.07,-0.00218970822259417,-0.0648320317268372));
#809=CARTESIAN_POINT('',(-0.07,-0.00218970822259418,-1.38777878078145E-17));
#810=CARTESIAN_POINT('',(-0.07,-0.00218970822259418,0.0648320317268371));
#811=CARTESIAN_POINT('',(-0.07,-0.00988212144943997,0.0648320317268371));
#812=CARTESIAN_POINT('',(-0.0648320317268372,-0.025,0.));
#813=CARTESIAN_POINT('',(-0.0648320317268372,-0.025,-0.0653));
#814=CARTESIAN_POINT('',(-0.0648320317268372,-0.025,-0.0653));
#815=CARTESIAN_POINT('',(-0.0648320317268372,-0.0184802318358377,-0.0653));
#816=CARTESIAN_POINT('',(-0.0648320317268372,-0.0184802318358377,0.1413));
#817=CARTESIAN_POINT('',(-0.0648320317268372,-0.00309540538214615,0.1413));
#818=CARTESIAN_POINT('',(-0.0648320317268372,-0.00309540538214615,-0.0658890008926392));
#819=CARTESIAN_POINT('',(-0.0648320317268372,-0.025,-0.0658890008926392));
#820=CARTESIAN_POINT('',(-0.0648320317268372,0.,-0.0658890008926392));
#821=CARTESIAN_POINT('',(-0.0648320317268372,0.,0.));
#822=CARTESIAN_POINT('',(-0.0648320317268372,0.,0.0658890008926392));
#823=CARTESIAN_POINT('',(-0.0648320317268372,-0.025,0.0658890008926392));
#824=CARTESIAN_POINT('',(-0.0648320317268372,-0.00309540538214615,0.0658890008926392));
#825=CARTESIAN_POINT('',(-0.0648320317268372,-0.00309540538214615,0.1413));
#826=CARTESIAN_POINT('',(-0.0648320317268372,-0.0184802318358377,0.1413));
#827=CARTESIAN_POINT('',(-0.0648320317268372,-0.0184802318358377,0.0658890008926392));
#828=CARTESIAN_POINT('',(-0.0648320317268372,-0.025,0.0658890008926392));
#829=CARTESIAN_POINT('',(-0.0648320317268372,-0.025,0.0658890008926392));
#830=CARTESIAN_POINT('',(-0.0648320317268372,-0.025,0.));
#831=CARTESIAN_POINT('',(-0.0648320317268372,-0.025,-0.0648320317268372));
#832=CARTESIAN_POINT('',(-0.0648320317268371,-0.00218970822259418,-0.0648320317268372));
#833=CARTESIAN_POINT('',(-0.0648320317268372,-0.0175745346762857,-0.0648320317268372));
#834=CARTESIAN_POINT('',(-0.0648320317268372,-0.0175745346762857,0.));
#835=CARTESIAN_POINT('',(-0.0648320317268371,-0.0175745346762857,0.0648320317268371));
#836=CARTESIAN_POINT('',(-0.0648320317268372,-0.025,0.0648320317268371));
#837=CARTESIAN_POINT('',(-0.0648320317268371,-0.00218970822259418,0.0648320317268371));
#838=CARTESIAN_POINT('',(-0.0648320317268372,-0.00218970822259418,0.));
#839=CARTESIAN_POINT('',(0.0648320317268372,-0.025,0.));
#840=CARTESIAN_POINT('',(0.0648320317268372,-0.0184802318358377,0.1413));
#841=CARTESIAN_POINT('',(0.0648320317268372,-0.0184802318358377,-0.0653));
#842=CARTESIAN_POINT('',(0.0648320317268372,-0.025,-0.0653));
#843=CARTESIAN_POINT('',(0.0648320317268372,-0.025,-0.0653));
#844=CARTESIAN_POINT('',(0.0648320317268372,-0.025,0.));
#845=CARTESIAN_POINT('',(0.0648320317268372,-0.025,0.0658890008926392));
#846=CARTESIAN_POINT('',(0.0648320317268372,-0.025,0.0658890008926392));
#847=CARTESIAN_POINT('',(0.0648320317268372,-0.0184802318358377,0.0658890008926392));
#848=CARTESIAN_POINT('',(0.0648320317268372,-0.0184802318358377,0.1413));
#849=CARTESIAN_POINT('',(0.0648320317268372,-0.00309540538214615,0.1413));
#850=CARTESIAN_POINT('',(0.0648320317268372,-0.00309540538214615,0.0658890008926392));
#851=CARTESIAN_POINT('',(0.0648320317268372,-0.025,0.0658890008926392));
#852=CARTESIAN_POINT('',(0.0648320317268372,0.,0.0658890008926392));
#853=CARTESIAN_POINT('',(0.0648320317268372,0.,0.));
#854=CARTESIAN_POINT('',(0.0648320317268372,0.,-0.0658890008926392));
#855=CARTESIAN_POINT('',(0.0648320317268372,-0.025,-0.0658890008926392));
#856=CARTESIAN_POINT('',(0.0648320317268372,-0.00309540538214615,-0.0658890008926392));
#857=CARTESIAN_POINT('',(0.0648320317268372,-0.00309540538214615,0.1413));
#858=CARTESIAN_POINT('',(0.0648320317268372,-0.0175745346762857,0.));
#859=CARTESIAN_POINT('',(0.0648320317268372,-0.0175745346762857,-0.0648320317268372));
#860=CARTESIAN_POINT('',(0.0648320317268372,-0.0175745346762857,0.0648320317268372));
#861=CARTESIAN_POINT('',(0.0648320317268372,-0.025,-0.0648320317268372));
#862=CARTESIAN_POINT('',(0.0648320317268372,-0.00218970822259418,-0.0648320317268372));
#863=CARTESIAN_POINT('',(0.0648320317268372,-0.00218970822259418,0.));
#864=CARTESIAN_POINT('',(0.0648320317268372,-0.00218970822259418,0.0648320317268372));
#865=CARTESIAN_POINT('',(0.0648320317268372,-0.025,0.0648320317268372));
#866=CARTESIAN_POINT('',(0.,-0.025,0.0658890008926392));
#867=CARTESIAN_POINT('',(0.,-0.0184802318358377,0.0658890008926392));
#868=CARTESIAN_POINT('',(0.,-0.025,0.0658890008926392));
#869=CARTESIAN_POINT('',(0.,-0.025,0.0658890008926392));
#870=CARTESIAN_POINT('',(0.,-0.00309540538214615,0.0658890008926392));
#871=CARTESIAN_POINT('',(0.,0.,0.0658890008926392));
#872=CARTESIAN_POINT('',(0.,-0.025,-0.0658890008926392));
#873=CARTESIAN_POINT('',(0.,-0.00309540538214615,-0.0658890008926392));
#874=CARTESIAN_POINT('',(0.,0.,-0.0658890008926392));
#875=CARTESIAN_POINT('',(0.,-0.025,-1.38777878078145E-17));
#876=CARTESIAN_POINT('',(-1.38777878078145E-17,-0.025,-0.0653));
#877=CARTESIAN_POINT('',(-1.38777878078145E-17,-0.025,-0.0653));
#878=CARTESIAN_POINT('',(0.,0.,-2.77555756156289E-17));
#879=CARTESIAN_POINT('',(0.,-0.00309540538214615,0.1413));
#880=CARTESIAN_POINT('',(0.,-0.0184802318358377,0.1413));
#881=CARTESIAN_POINT('',(0.,-0.00309540538214615,0.1413));
#882=CARTESIAN_POINT('',(0.4363,-0.00988212144943997,-0.0648320317268371));
#883=CARTESIAN_POINT('',(0.4363,-0.00218970822259418,-0.0648320317268371));
#884=CARTESIAN_POINT('',(0.4363,-0.0175745346762857,-0.0648320317268371));
#885=CARTESIAN_POINT('',(0.4363,-0.00218970822259418,3.63102405285888E-17));
#886=CARTESIAN_POINT('',(0.4363,-0.00218970822259418,0.0648320317268372));
#887=CARTESIAN_POINT('',(0.4363,-0.00988212144943997,0.0648320317268372));
#888=CARTESIAN_POINT('',(0.4363,-0.0175745346762857,0.0648320317268372));
#889=CARTESIAN_POINT('',(0.4363,-0.0175745346762857,3.63102405285888E-17));
#890=CARTESIAN_POINT('',(0.4363,-0.0175745346762857,3.63102405285888E-17));
#891=CARTESIAN_POINT('',(0.4363,-0.0175745346762857,-0.0648320317268371));
#892=CARTESIAN_POINT('',(0.4363,-0.0175745346762857,0.0648320317268372));
#893=CARTESIAN_POINT('',(0.4363,-0.00988212144943997,0.0648320317268372));
#894=CARTESIAN_POINT('',(0.4363,-0.00218970822259418,0.0648320317268372));
#895=CARTESIAN_POINT('',(0.4363,-0.00218970822259418,3.63102405285888E-17));
#896=CARTESIAN_POINT('',(0.4363,-0.00218970822259418,-0.0648320317268371));
#897=CARTESIAN_POINT('',(0.4363,-0.00988212144943997,-0.0648320317268371));
#898=CARTESIAN_POINT('',(0.,-0.012,-0.0653));
#899=CARTESIAN_POINT('',(0.,-0.0184802318358377,-0.0653));
#900=CARTESIAN_POINT('',(0.,-0.0184802318358377,-0.0653));
#901=CARTESIAN_POINT('',(0.,-0.0184802318358377,-0.0653));
#902=CARTESIAN_POINT('',(0.,-0.0184802318358377,-0.0653));
#903=CARTESIAN_POINT('',(0.,-0.012,-0.0653));
#904=MECHANICAL_DESIGN_GEOMETRIC_PRESENTATION_REPRESENTATION('',(#573),
#905);
#905=(
GEOMETRIC_REPRESENTATION_CONTEXT(3)
GLOBAL_UNCERTAINTY_ASSIGNED_CONTEXT((#906))
GLOBAL_UNIT_ASSIGNED_CONTEXT((#909,#908,#907))
REPRESENTATION_CONTEXT('Part 1','TOP_LEVEL_ASSEMBLY_PART')
);
#906=UNCERTAINTY_MEASURE_WITH_UNIT(LENGTH_MEASURE(1.E-8),#909,
'DISTANCE_ACCURACY_VALUE','Maximum Tolerance applied to model');
#907=(
NAMED_UNIT(*)
SI_UNIT($,.STERADIAN.)
SOLID_ANGLE_UNIT()
);
#908=(
NAMED_UNIT(*)
PLANE_ANGLE_UNIT()
SI_UNIT($,.RADIAN.)
);
#909=(
LENGTH_UNIT()
NAMED_UNIT(*)
SI_UNIT($,.METRE.)
);
#910=PRODUCT_DEFINITION_SHAPE('','',#911);
#911=PRODUCT_DEFINITION('','',#913,#912);
#912=PRODUCT_DEFINITION_CONTEXT('',#919,'design');
#913=PRODUCT_DEFINITION_FORMATION_WITH_SPECIFIED_SOURCE('','',#915,
 .NOT_KNOWN.);
#914=PRODUCT_RELATED_PRODUCT_CATEGORY('','',(#915));
#915=PRODUCT('Part 1','Part 1','Part 1',(#917));
#916=PRODUCT_CATEGORY('','');
#917=PRODUCT_CONTEXT('',#919,'mechanical');
#918=APPLICATION_PROTOCOL_DEFINITION('international standard',
'ap242_managed_model_based_3d_engineering',2020,#919);
#919=APPLICATION_CONTEXT('managed model based 3d engineering');
ENDSEC;
END-ISO-10303-21;
