ISO-10303-21;
HEADER;
/* Generated by software containing ST-Developer
 * from STEP Tools, Inc. (www.steptools.com) 
 */
/* OPTION: using custom renumber hook */

FILE_DESCRIPTION(
/* description */ ('STEP AP242 Edition 2',
'CAx-IF Rec.Pracs.---Representation and Presentation of Product Manufa
cturing Information (PMI)---4.0---2014-10-13',
'CAx-IF Rec.Pracs.---3D Tessellated Geometry---0.4---2014-09-14','2;1',
'CAx-IF Rec.Pracs.---User Defined Attributes---1.5---2016-08-15'),
/* implementation_level */ '2;1');

FILE_NAME(
/* name */ 'Wall1',
/* time_stamp */ '2026-09-09T01:30:40Z',
/* author */ (''),
/* organization */ (''),
/* preprocessor_version */ 'ST-DEVELOPER v20',
/* originating_system */ 'ONSHAPE BY PTC INC, 1.220',
/* authorisation */ '  ');

FILE_SCHEMA (('AP242_MANAGED_MODEL_BASED_3D_ENGINEERING_MIM_LF { 1 0 10303 442 3 1 4 }'));
ENDSEC;

DATA;
#10=SHAPE_REPRESENTATION_RELATIONSHIP('','',#557,#11);
#11=ADVANCED_BREP_SHAPE_REPRESENTATION('',(#555),#863);
#12=ORIENTED_EDGE('',*,*,#156,.F.);
#13=ORIENTED_EDGE('',*,*,#157,.T.);
#14=ORIENTED_EDGE('',*,*,#158,.T.);
#15=ORIENTED_EDGE('',*,*,#159,.F.);
#16=ORIENTED_EDGE('',*,*,#160,.T.);
#17=ORIENTED_EDGE('',*,*,#161,.T.);
#18=ORIENTED_EDGE('',*,*,#162,.F.);
#19=ORIENTED_EDGE('',*,*,#163,.F.);
#20=ORIENTED_EDGE('',*,*,#164,.F.);
#21=ORIENTED_EDGE('',*,*,#165,.T.);
#22=ORIENTED_EDGE('',*,*,#166,.T.);
#23=ORIENTED_EDGE('',*,*,#167,.F.);
#24=ORIENTED_EDGE('',*,*,#168,.T.);
#25=ORIENTED_EDGE('',*,*,#169,.T.);
#26=ORIENTED_EDGE('',*,*,#170,.F.);
#27=ORIENTED_EDGE('',*,*,#171,.F.);
#28=ORIENTED_EDGE('',*,*,#172,.F.);
#29=ORIENTED_EDGE('',*,*,#173,.F.);
#30=ORIENTED_EDGE('',*,*,#174,.T.);
#31=ORIENTED_EDGE('',*,*,#175,.T.);
#32=ORIENTED_EDGE('',*,*,#176,.F.);
#33=ORIENTED_EDGE('',*,*,#177,.T.);
#34=ORIENTED_EDGE('',*,*,#178,.T.);
#35=ORIENTED_EDGE('',*,*,#179,.F.);
#36=ORIENTED_EDGE('',*,*,#180,.F.);
#37=ORIENTED_EDGE('',*,*,#181,.T.);
#38=ORIENTED_EDGE('',*,*,#182,.T.);
#39=ORIENTED_EDGE('',*,*,#183,.F.);
#40=ORIENTED_EDGE('',*,*,#168,.F.);
#41=ORIENTED_EDGE('',*,*,#184,.F.);
#42=ORIENTED_EDGE('',*,*,#156,.T.);
#43=ORIENTED_EDGE('',*,*,#185,.T.);
#44=ORIENTED_EDGE('',*,*,#171,.T.);
#45=ORIENTED_EDGE('',*,*,#186,.F.);
#46=ORIENTED_EDGE('',*,*,#157,.F.);
#47=ORIENTED_EDGE('',*,*,#184,.T.);
#48=ORIENTED_EDGE('',*,*,#170,.T.);
#49=ORIENTED_EDGE('',*,*,#187,.F.);
#50=ORIENTED_EDGE('',*,*,#158,.F.);
#51=ORIENTED_EDGE('',*,*,#186,.T.);
#52=ORIENTED_EDGE('',*,*,#169,.F.);
#53=ORIENTED_EDGE('',*,*,#185,.F.);
#54=ORIENTED_EDGE('',*,*,#159,.T.);
#55=ORIENTED_EDGE('',*,*,#187,.T.);
#56=ORIENTED_EDGE('',*,*,#172,.T.);
#57=ORIENTED_EDGE('',*,*,#188,.T.);
#58=ORIENTED_EDGE('',*,*,#189,.F.);
#59=ORIENTED_EDGE('',*,*,#190,.F.);
#60=ORIENTED_EDGE('',*,*,#173,.T.);
#61=ORIENTED_EDGE('',*,*,#190,.T.);
#62=ORIENTED_EDGE('',*,*,#191,.F.);
#63=ORIENTED_EDGE('',*,*,#192,.F.);
#64=ORIENTED_EDGE('',*,*,#192,.T.);
#65=ORIENTED_EDGE('',*,*,#193,.T.);
#66=ORIENTED_EDGE('',*,*,#194,.F.);
#67=ORIENTED_EDGE('',*,*,#174,.F.);
#68=ORIENTED_EDGE('',*,*,#194,.T.);
#69=ORIENTED_EDGE('',*,*,#195,.T.);
#70=ORIENTED_EDGE('',*,*,#188,.F.);
#71=ORIENTED_EDGE('',*,*,#175,.F.);
#72=ORIENTED_EDGE('',*,*,#164,.T.);
#73=ORIENTED_EDGE('',*,*,#196,.T.);
#74=ORIENTED_EDGE('',*,*,#197,.F.);
#75=ORIENTED_EDGE('',*,*,#198,.F.);
#76=ORIENTED_EDGE('',*,*,#198,.T.);
#77=ORIENTED_EDGE('',*,*,#199,.T.);
#78=ORIENTED_EDGE('',*,*,#200,.F.);
#79=ORIENTED_EDGE('',*,*,#165,.F.);
#80=ORIENTED_EDGE('',*,*,#200,.T.);
#81=ORIENTED_EDGE('',*,*,#201,.T.);
#82=ORIENTED_EDGE('',*,*,#202,.F.);
#83=ORIENTED_EDGE('',*,*,#166,.F.);
#84=ORIENTED_EDGE('',*,*,#167,.T.);
#85=ORIENTED_EDGE('',*,*,#202,.T.);
#86=ORIENTED_EDGE('',*,*,#203,.F.);
#87=ORIENTED_EDGE('',*,*,#196,.F.);
#88=ORIENTED_EDGE('',*,*,#204,.T.);
#89=ORIENTED_EDGE('',*,*,#205,.T.);
#90=ORIENTED_EDGE('',*,*,#206,.F.);
#91=ORIENTED_EDGE('',*,*,#177,.F.);
#92=ORIENTED_EDGE('',*,*,#206,.T.);
#93=ORIENTED_EDGE('',*,*,#207,.T.);
#94=ORIENTED_EDGE('',*,*,#208,.F.);
#95=ORIENTED_EDGE('',*,*,#178,.F.);
#96=ORIENTED_EDGE('',*,*,#179,.T.);
#97=ORIENTED_EDGE('',*,*,#208,.T.);
#98=ORIENTED_EDGE('',*,*,#209,.F.);
#99=ORIENTED_EDGE('',*,*,#210,.F.);
#100=ORIENTED_EDGE('',*,*,#176,.T.);
#101=ORIENTED_EDGE('',*,*,#210,.T.);
#102=ORIENTED_EDGE('',*,*,#211,.F.);
#103=ORIENTED_EDGE('',*,*,#204,.F.);
#104=ORIENTED_EDGE('',*,*,#180,.T.);
#105=ORIENTED_EDGE('',*,*,#212,.T.);
#106=ORIENTED_EDGE('',*,*,#213,.F.);
#107=ORIENTED_EDGE('',*,*,#214,.F.);
#108=ORIENTED_EDGE('',*,*,#214,.T.);
#109=ORIENTED_EDGE('',*,*,#215,.T.);
#110=ORIENTED_EDGE('',*,*,#216,.F.);
#111=ORIENTED_EDGE('',*,*,#181,.F.);
#112=ORIENTED_EDGE('',*,*,#216,.T.);
#113=ORIENTED_EDGE('',*,*,#217,.T.);
#114=ORIENTED_EDGE('',*,*,#218,.F.);
#115=ORIENTED_EDGE('',*,*,#182,.F.);
#116=ORIENTED_EDGE('',*,*,#183,.T.);
#117=ORIENTED_EDGE('',*,*,#218,.T.);
#118=ORIENTED_EDGE('',*,*,#219,.F.);
#119=ORIENTED_EDGE('',*,*,#212,.F.);
#120=ORIENTED_EDGE('',*,*,#161,.F.);
#121=ORIENTED_EDGE('',*,*,#220,.F.);
#122=ORIENTED_EDGE('',*,*,#221,.T.);
#123=ORIENTED_EDGE('',*,*,#222,.T.);
#124=ORIENTED_EDGE('',*,*,#160,.F.);
#125=ORIENTED_EDGE('',*,*,#223,.F.);
#126=ORIENTED_EDGE('',*,*,#224,.T.);
#127=ORIENTED_EDGE('',*,*,#220,.T.);
#128=ORIENTED_EDGE('',*,*,#163,.T.);
#129=ORIENTED_EDGE('',*,*,#225,.F.);
#130=ORIENTED_EDGE('',*,*,#226,.F.);
#131=ORIENTED_EDGE('',*,*,#223,.T.);
#132=ORIENTED_EDGE('',*,*,#162,.T.);
#133=ORIENTED_EDGE('',*,*,#222,.F.);
#134=ORIENTED_EDGE('',*,*,#227,.F.);
#135=ORIENTED_EDGE('',*,*,#225,.T.);
#136=ORIENTED_EDGE('',*,*,#199,.F.);
#137=ORIENTED_EDGE('',*,*,#197,.T.);
#138=ORIENTED_EDGE('',*,*,#203,.T.);
#139=ORIENTED_EDGE('',*,*,#201,.F.);
#140=ORIENTED_EDGE('',*,*,#221,.F.);
#141=ORIENTED_EDGE('',*,*,#224,.F.);
#142=ORIENTED_EDGE('',*,*,#226,.T.);
#143=ORIENTED_EDGE('',*,*,#227,.T.);
#144=ORIENTED_EDGE('',*,*,#207,.F.);
#145=ORIENTED_EDGE('',*,*,#205,.F.);
#146=ORIENTED_EDGE('',*,*,#211,.T.);
#147=ORIENTED_EDGE('',*,*,#209,.T.);
#148=ORIENTED_EDGE('',*,*,#215,.F.);
#149=ORIENTED_EDGE('',*,*,#213,.T.);
#150=ORIENTED_EDGE('',*,*,#219,.T.);
#151=ORIENTED_EDGE('',*,*,#217,.F.);
#152=ORIENTED_EDGE('',*,*,#191,.T.);
#153=ORIENTED_EDGE('',*,*,#189,.T.);
#154=ORIENTED_EDGE('',*,*,#195,.F.);
#155=ORIENTED_EDGE('',*,*,#193,.F.);
#156=EDGE_CURVE('',#228,#229,#276,.T.);
#157=EDGE_CURVE('',#228,#230,#277,.T.);
#158=EDGE_CURVE('',#230,#231,#278,.T.);
#159=EDGE_CURVE('',#229,#231,#279,.T.);
#160=EDGE_CURVE('',#232,#233,#280,.T.);
#161=EDGE_CURVE('',#233,#234,#281,.T.);
#162=EDGE_CURVE('',#235,#234,#282,.T.);
#163=EDGE_CURVE('',#232,#235,#283,.T.);
#164=EDGE_CURVE('',#236,#237,#284,.T.);
#165=EDGE_CURVE('',#236,#238,#285,.T.);
#166=EDGE_CURVE('',#238,#239,#286,.T.);
#167=EDGE_CURVE('',#237,#239,#287,.T.);
#168=EDGE_CURVE('',#240,#241,#288,.T.);
#169=EDGE_CURVE('',#241,#242,#289,.T.);
#170=EDGE_CURVE('',#243,#242,#290,.T.);
#171=EDGE_CURVE('',#240,#243,#291,.T.);
#172=EDGE_CURVE('',#244,#245,#292,.T.);
#173=EDGE_CURVE('',#246,#244,#293,.T.);
#174=EDGE_CURVE('',#246,#247,#294,.T.);
#175=EDGE_CURVE('',#247,#245,#295,.T.);
#176=EDGE_CURVE('',#248,#249,#296,.T.);
#177=EDGE_CURVE('',#248,#250,#297,.T.);
#178=EDGE_CURVE('',#250,#251,#298,.T.);
#179=EDGE_CURVE('',#249,#251,#299,.T.);
#180=EDGE_CURVE('',#252,#253,#300,.T.);
#181=EDGE_CURVE('',#252,#254,#301,.T.);
#182=EDGE_CURVE('',#254,#255,#302,.T.);
#183=EDGE_CURVE('',#253,#255,#303,.T.);
#184=EDGE_CURVE('',#228,#240,#304,.T.);
#185=EDGE_CURVE('',#229,#241,#305,.T.);
#186=EDGE_CURVE('',#230,#243,#306,.T.);
#187=EDGE_CURVE('',#231,#242,#307,.T.);
#188=EDGE_CURVE('',#245,#256,#308,.T.);
#189=EDGE_CURVE('',#257,#256,#309,.T.);
#190=EDGE_CURVE('',#244,#257,#310,.T.);
#191=EDGE_CURVE('',#258,#257,#311,.T.);
#192=EDGE_CURVE('',#246,#258,#312,.T.);
#193=EDGE_CURVE('',#258,#259,#313,.T.);
#194=EDGE_CURVE('',#247,#259,#314,.T.);
#195=EDGE_CURVE('',#259,#256,#315,.T.);
#196=EDGE_CURVE('',#237,#260,#316,.T.);
#197=EDGE_CURVE('',#261,#260,#317,.T.);
#198=EDGE_CURVE('',#236,#261,#318,.T.);
#199=EDGE_CURVE('',#261,#262,#319,.T.);
#200=EDGE_CURVE('',#238,#262,#320,.T.);
#201=EDGE_CURVE('',#262,#263,#321,.T.);
#202=EDGE_CURVE('',#239,#263,#322,.T.);
#203=EDGE_CURVE('',#260,#263,#323,.T.);
#204=EDGE_CURVE('',#248,#264,#324,.T.);
#205=EDGE_CURVE('',#264,#265,#325,.T.);
#206=EDGE_CURVE('',#250,#265,#326,.T.);
#207=EDGE_CURVE('',#265,#266,#327,.T.);
#208=EDGE_CURVE('',#251,#266,#328,.T.);
#209=EDGE_CURVE('',#267,#266,#329,.T.);
#210=EDGE_CURVE('',#249,#267,#330,.T.);
#211=EDGE_CURVE('',#264,#267,#331,.T.);
#212=EDGE_CURVE('',#253,#268,#332,.T.);
#213=EDGE_CURVE('',#269,#268,#333,.T.);
#214=EDGE_CURVE('',#252,#269,#334,.T.);
#215=EDGE_CURVE('',#269,#270,#335,.T.);
#216=EDGE_CURVE('',#254,#270,#336,.T.);
#217=EDGE_CURVE('',#270,#271,#337,.T.);
#218=EDGE_CURVE('',#255,#271,#338,.T.);
#219=EDGE_CURVE('',#268,#271,#339,.T.);
#220=EDGE_CURVE('',#272,#233,#340,.T.);
#221=EDGE_CURVE('',#272,#273,#341,.T.);
#222=EDGE_CURVE('',#273,#234,#342,.T.);
#223=EDGE_CURVE('',#274,#232,#343,.T.);
#224=EDGE_CURVE('',#274,#272,#344,.T.);
#225=EDGE_CURVE('',#275,#235,#345,.T.);
#226=EDGE_CURVE('',#274,#275,#346,.T.);
#227=EDGE_CURVE('',#275,#273,#347,.T.);
#228=VERTEX_POINT('',#717);
#229=VERTEX_POINT('',#718);
#230=VERTEX_POINT('',#720);
#231=VERTEX_POINT('',#722);
#232=VERTEX_POINT('',#725);
#233=VERTEX_POINT('',#726);
#234=VERTEX_POINT('',#728);
#235=VERTEX_POINT('',#730);
#236=VERTEX_POINT('',#734);
#237=VERTEX_POINT('',#735);
#238=VERTEX_POINT('',#737);
#239=VERTEX_POINT('',#739);
#240=VERTEX_POINT('',#742);
#241=VERTEX_POINT('',#743);
#242=VERTEX_POINT('',#745);
#243=VERTEX_POINT('',#747);
#244=VERTEX_POINT('',#750);
#245=VERTEX_POINT('',#751);
#246=VERTEX_POINT('',#753);
#247=VERTEX_POINT('',#755);
#248=VERTEX_POINT('',#758);
#249=VERTEX_POINT('',#759);
#250=VERTEX_POINT('',#761);
#251=VERTEX_POINT('',#763);
#252=VERTEX_POINT('',#766);
#253=VERTEX_POINT('',#767);
#254=VERTEX_POINT('',#769);
#255=VERTEX_POINT('',#771);
#256=VERTEX_POINT('',#783);
#257=VERTEX_POINT('',#785);
#258=VERTEX_POINT('',#789);
#259=VERTEX_POINT('',#793);
#260=VERTEX_POINT('',#799);
#261=VERTEX_POINT('',#801);
#262=VERTEX_POINT('',#805);
#263=VERTEX_POINT('',#809);
#264=VERTEX_POINT('',#815);
#265=VERTEX_POINT('',#817);
#266=VERTEX_POINT('',#821);
#267=VERTEX_POINT('',#825);
#268=VERTEX_POINT('',#831);
#269=VERTEX_POINT('',#833);
#270=VERTEX_POINT('',#837);
#271=VERTEX_POINT('',#841);
#272=VERTEX_POINT('',#847);
#273=VERTEX_POINT('',#849);
#274=VERTEX_POINT('',#853);
#275=VERTEX_POINT('',#857);
#276=LINE('',#716,#348);
#277=LINE('',#719,#349);
#278=LINE('',#721,#350);
#279=LINE('',#723,#351);
#280=LINE('',#724,#352);
#281=LINE('',#727,#353);
#282=LINE('',#729,#354);
#283=LINE('',#731,#355);
#284=LINE('',#733,#356);
#285=LINE('',#736,#357);
#286=LINE('',#738,#358);
#287=LINE('',#740,#359);
#288=LINE('',#741,#360);
#289=LINE('',#744,#361);
#290=LINE('',#746,#362);
#291=LINE('',#748,#363);
#292=LINE('',#749,#364);
#293=LINE('',#752,#365);
#294=LINE('',#754,#366);
#295=LINE('',#756,#367);
#296=LINE('',#757,#368);
#297=LINE('',#760,#369);
#298=LINE('',#762,#370);
#299=LINE('',#764,#371);
#300=LINE('',#765,#372);
#301=LINE('',#768,#373);
#302=LINE('',#770,#374);
#303=LINE('',#772,#375);
#304=LINE('',#774,#376);
#305=LINE('',#775,#377);
#306=LINE('',#777,#378);
#307=LINE('',#779,#379);
#308=LINE('',#782,#380);
#309=LINE('',#784,#381);
#310=LINE('',#786,#382);
#311=LINE('',#788,#383);
#312=LINE('',#790,#384);
#313=LINE('',#792,#385);
#314=LINE('',#794,#386);
#315=LINE('',#796,#387);
#316=LINE('',#798,#388);
#317=LINE('',#800,#389);
#318=LINE('',#802,#390);
#319=LINE('',#804,#391);
#320=LINE('',#806,#392);
#321=LINE('',#808,#393);
#322=LINE('',#810,#394);
#323=LINE('',#812,#395);
#324=LINE('',#814,#396);
#325=LINE('',#816,#397);
#326=LINE('',#818,#398);
#327=LINE('',#820,#399);
#328=LINE('',#822,#400);
#329=LINE('',#824,#401);
#330=LINE('',#826,#402);
#331=LINE('',#828,#403);
#332=LINE('',#830,#404);
#333=LINE('',#832,#405);
#334=LINE('',#834,#406);
#335=LINE('',#836,#407);
#336=LINE('',#838,#408);
#337=LINE('',#840,#409);
#338=LINE('',#842,#410);
#339=LINE('',#844,#411);
#340=LINE('',#846,#412);
#341=LINE('',#848,#413);
#342=LINE('',#850,#414);
#343=LINE('',#852,#415);
#344=LINE('',#854,#416);
#345=LINE('',#856,#417);
#346=LINE('',#858,#418);
#347=LINE('',#860,#419);
#348=VECTOR('',#590,1.);
#349=VECTOR('',#591,1.);
#350=VECTOR('',#592,1.);
#351=VECTOR('',#593,1.);
#352=VECTOR('',#594,1.);
#353=VECTOR('',#595,1.);
#354=VECTOR('',#596,1.);
#355=VECTOR('',#597,1.);
#356=VECTOR('',#600,1.);
#357=VECTOR('',#601,1.);
#358=VECTOR('',#602,1.);
#359=VECTOR('',#603,1.);
#360=VECTOR('',#604,1.);
#361=VECTOR('',#605,1.);
#362=VECTOR('',#606,1.);
#363=VECTOR('',#607,1.);
#364=VECTOR('',#608,1.);
#365=VECTOR('',#609,1.);
#366=VECTOR('',#610,1.);
#367=VECTOR('',#611,1.);
#368=VECTOR('',#612,1.);
#369=VECTOR('',#613,1.);
#370=VECTOR('',#614,1.);
#371=VECTOR('',#615,1.);
#372=VECTOR('',#616,1.);
#373=VECTOR('',#617,1.);
#374=VECTOR('',#618,1.);
#375=VECTOR('',#619,1.);
#376=VECTOR('',#622,1.);
#377=VECTOR('',#623,1.);
#378=VECTOR('',#626,1.);
#379=VECTOR('',#629,1.);
#380=VECTOR('',#634,1.);
#381=VECTOR('',#635,1.);
#382=VECTOR('',#636,1.);
#383=VECTOR('',#639,1.);
#384=VECTOR('',#640,1.);
#385=VECTOR('',#643,1.);
#386=VECTOR('',#644,1.);
#387=VECTOR('',#647,1.);
#388=VECTOR('',#650,1.);
#389=VECTOR('',#651,1.);
#390=VECTOR('',#652,1.);
#391=VECTOR('',#655,1.);
#392=VECTOR('',#656,1.);
#393=VECTOR('',#659,1.);
#394=VECTOR('',#660,1.);
#395=VECTOR('',#663,1.);
#396=VECTOR('',#666,1.);
#397=VECTOR('',#667,1.);
#398=VECTOR('',#668,1.);
#399=VECTOR('',#671,1.);
#400=VECTOR('',#672,1.);
#401=VECTOR('',#675,1.);
#402=VECTOR('',#676,1.);
#403=VECTOR('',#679,1.);
#404=VECTOR('',#682,1.);
#405=VECTOR('',#683,1.);
#406=VECTOR('',#684,1.);
#407=VECTOR('',#687,1.);
#408=VECTOR('',#688,1.);
#409=VECTOR('',#691,1.);
#410=VECTOR('',#692,1.);
#411=VECTOR('',#695,1.);
#412=VECTOR('',#698,1.);
#413=VECTOR('',#699,1.);
#414=VECTOR('',#700,1.);
#415=VECTOR('',#703,1.);
#416=VECTOR('',#704,1.);
#417=VECTOR('',#707,1.);
#418=VECTOR('',#708,1.);
#419=VECTOR('',#711,1.);
#420=EDGE_LOOP('',(#12,#13,#14,#15));
#421=EDGE_LOOP('',(#16,#17,#18,#19));
#422=EDGE_LOOP('',(#20,#21,#22,#23));
#423=EDGE_LOOP('',(#24,#25,#26,#27));
#424=EDGE_LOOP('',(#28,#29,#30,#31));
#425=EDGE_LOOP('',(#32,#33,#34,#35));
#426=EDGE_LOOP('',(#36,#37,#38,#39));
#427=EDGE_LOOP('',(#40,#41,#42,#43));
#428=EDGE_LOOP('',(#44,#45,#46,#47));
#429=EDGE_LOOP('',(#48,#49,#50,#51));
#430=EDGE_LOOP('',(#52,#53,#54,#55));
#431=EDGE_LOOP('',(#56,#57,#58,#59));
#432=EDGE_LOOP('',(#60,#61,#62,#63));
#433=EDGE_LOOP('',(#64,#65,#66,#67));
#434=EDGE_LOOP('',(#68,#69,#70,#71));
#435=EDGE_LOOP('',(#72,#73,#74,#75));
#436=EDGE_LOOP('',(#76,#77,#78,#79));
#437=EDGE_LOOP('',(#80,#81,#82,#83));
#438=EDGE_LOOP('',(#84,#85,#86,#87));
#439=EDGE_LOOP('',(#88,#89,#90,#91));
#440=EDGE_LOOP('',(#92,#93,#94,#95));
#441=EDGE_LOOP('',(#96,#97,#98,#99));
#442=EDGE_LOOP('',(#100,#101,#102,#103));
#443=EDGE_LOOP('',(#104,#105,#106,#107));
#444=EDGE_LOOP('',(#108,#109,#110,#111));
#445=EDGE_LOOP('',(#112,#113,#114,#115));
#446=EDGE_LOOP('',(#116,#117,#118,#119));
#447=EDGE_LOOP('',(#120,#121,#122,#123));
#448=EDGE_LOOP('',(#124,#125,#126,#127));
#449=EDGE_LOOP('',(#128,#129,#130,#131));
#450=EDGE_LOOP('',(#132,#133,#134,#135));
#451=EDGE_LOOP('',(#136,#137,#138,#139));
#452=EDGE_LOOP('',(#140,#141,#142,#143));
#453=EDGE_LOOP('',(#144,#145,#146,#147));
#454=EDGE_LOOP('',(#148,#149,#150,#151));
#455=EDGE_LOOP('',(#152,#153,#154,#155));
#456=FACE_BOUND('',#420,.T.);
#457=FACE_BOUND('',#421,.T.);
#458=FACE_BOUND('',#422,.T.);
#459=FACE_BOUND('',#423,.T.);
#460=FACE_BOUND('',#424,.T.);
#461=FACE_BOUND('',#425,.T.);
#462=FACE_BOUND('',#426,.T.);
#463=FACE_BOUND('',#427,.T.);
#464=FACE_BOUND('',#428,.T.);
#465=FACE_BOUND('',#429,.T.);
#466=FACE_BOUND('',#430,.T.);
#467=FACE_BOUND('',#431,.T.);
#468=FACE_BOUND('',#432,.T.);
#469=FACE_BOUND('',#433,.T.);
#470=FACE_BOUND('',#434,.T.);
#471=FACE_BOUND('',#435,.T.);
#472=FACE_BOUND('',#436,.T.);
#473=FACE_BOUND('',#437,.T.);
#474=FACE_BOUND('',#438,.T.);
#475=FACE_BOUND('',#439,.T.);
#476=FACE_BOUND('',#440,.T.);
#477=FACE_BOUND('',#441,.T.);
#478=FACE_BOUND('',#442,.T.);
#479=FACE_BOUND('',#443,.T.);
#480=FACE_BOUND('',#444,.T.);
#481=FACE_BOUND('',#445,.T.);
#482=FACE_BOUND('',#446,.T.);
#483=FACE_BOUND('',#447,.T.);
#484=FACE_BOUND('',#448,.T.);
#485=FACE_BOUND('',#449,.T.);
#486=FACE_BOUND('',#450,.T.);
#487=FACE_BOUND('',#451,.T.);
#488=FACE_BOUND('',#452,.T.);
#489=FACE_BOUND('',#453,.T.);
#490=FACE_BOUND('',#454,.T.);
#491=FACE_BOUND('',#455,.T.);
#492=PLANE('',#559);
#493=PLANE('',#560);
#494=PLANE('',#561);
#495=PLANE('',#562);
#496=PLANE('',#563);
#497=PLANE('',#564);
#498=PLANE('',#565);
#499=PLANE('',#566);
#500=PLANE('',#567);
#501=PLANE('',#568);
#502=PLANE('',#569);
#503=PLANE('',#570);
#504=PLANE('',#571);
#505=PLANE('',#572);
#506=PLANE('',#573);
#507=PLANE('',#574);
#508=PLANE('',#575);
#509=PLANE('',#576);
#510=PLANE('',#577);
#511=PLANE('',#578);
#512=PLANE('',#579);
#513=PLANE('',#580);
#514=PLANE('',#581);
#515=PLANE('',#582);
#516=PLANE('',#583);
#517=PLANE('',#584);
#518=PLANE('',#585);
#519=ADVANCED_FACE('',(#456,#457),#492,.T.);
#520=ADVANCED_FACE('',(#458,#459,#460,#461,#462),#493,.F.);
#521=ADVANCED_FACE('',(#463),#494,.T.);
#522=ADVANCED_FACE('',(#464),#495,.F.);
#523=ADVANCED_FACE('',(#465),#496,.F.);
#524=ADVANCED_FACE('',(#466),#497,.T.);
#525=ADVANCED_FACE('',(#467),#498,.T.);
#526=ADVANCED_FACE('',(#468),#499,.T.);
#527=ADVANCED_FACE('',(#469),#500,.F.);
#528=ADVANCED_FACE('',(#470),#501,.F.);
#529=ADVANCED_FACE('',(#471),#502,.T.);
#530=ADVANCED_FACE('',(#472),#503,.F.);
#531=ADVANCED_FACE('',(#473),#504,.F.);
#532=ADVANCED_FACE('',(#474),#505,.T.);
#533=ADVANCED_FACE('',(#475),#506,.F.);
#534=ADVANCED_FACE('',(#476),#507,.F.);
#535=ADVANCED_FACE('',(#477),#508,.T.);
#536=ADVANCED_FACE('',(#478),#509,.T.);
#537=ADVANCED_FACE('',(#479),#510,.T.);
#538=ADVANCED_FACE('',(#480),#511,.F.);
#539=ADVANCED_FACE('',(#481),#512,.F.);
#540=ADVANCED_FACE('',(#482),#513,.T.);
#541=ADVANCED_FACE('',(#483),#514,.T.);
#542=ADVANCED_FACE('',(#484),#515,.T.);
#543=ADVANCED_FACE('',(#485),#516,.F.);
#544=ADVANCED_FACE('',(#486),#517,.F.);
#545=ADVANCED_FACE('',(#487,#488,#489,#490,#491),#518,.T.);
#546=CLOSED_SHELL('',(#519,#520,#521,#522,#523,#524,#525,#526,#527,#528,
#529,#530,#531,#532,#533,#534,#535,#536,#537,#538,#539,#540,#541,#542,#543,
#544,#545));
#547=STYLED_ITEM('',(#548),#555);
#548=PRESENTATION_STYLE_ASSIGNMENT((#549));
#549=SURFACE_STYLE_USAGE(.BOTH.,#550);
#550=SURFACE_SIDE_STYLE('',(#551));
#551=SURFACE_STYLE_FILL_AREA(#552);
#552=FILL_AREA_STYLE('',(#553));
#553=FILL_AREA_STYLE_COLOUR('',#554);
#554=COLOUR_RGB('',0.796078431372549,0.905882352941176,0.745098039215686);
#555=MANIFOLD_SOLID_BREP('Part 1',#546);
#556=SHAPE_DEFINITION_REPRESENTATION(#868,#557);
#557=SHAPE_REPRESENTATION('Part 1',(#558),#863);
#558=AXIS2_PLACEMENT_3D('',#714,#586,#587);
#559=AXIS2_PLACEMENT_3D('',#715,#588,#589);
#560=AXIS2_PLACEMENT_3D('',#732,#598,#599);
#561=AXIS2_PLACEMENT_3D('',#773,#620,#621);
#562=AXIS2_PLACEMENT_3D('',#776,#624,#625);
#563=AXIS2_PLACEMENT_3D('',#778,#627,#628);
#564=AXIS2_PLACEMENT_3D('',#780,#630,#631);
#565=AXIS2_PLACEMENT_3D('',#781,#632,#633);
#566=AXIS2_PLACEMENT_3D('',#787,#637,#638);
#567=AXIS2_PLACEMENT_3D('',#791,#641,#642);
#568=AXIS2_PLACEMENT_3D('',#795,#645,#646);
#569=AXIS2_PLACEMENT_3D('',#797,#648,#649);
#570=AXIS2_PLACEMENT_3D('',#803,#653,#654);
#571=AXIS2_PLACEMENT_3D('',#807,#657,#658);
#572=AXIS2_PLACEMENT_3D('',#811,#661,#662);
#573=AXIS2_PLACEMENT_3D('',#813,#664,#665);
#574=AXIS2_PLACEMENT_3D('',#819,#669,#670);
#575=AXIS2_PLACEMENT_3D('',#823,#673,#674);
#576=AXIS2_PLACEMENT_3D('',#827,#677,#678);
#577=AXIS2_PLACEMENT_3D('',#829,#680,#681);
#578=AXIS2_PLACEMENT_3D('',#835,#685,#686);
#579=AXIS2_PLACEMENT_3D('',#839,#689,#690);
#580=AXIS2_PLACEMENT_3D('',#843,#693,#694);
#581=AXIS2_PLACEMENT_3D('',#845,#696,#697);
#582=AXIS2_PLACEMENT_3D('',#851,#701,#702);
#583=AXIS2_PLACEMENT_3D('',#855,#705,#706);
#584=AXIS2_PLACEMENT_3D('',#859,#709,#710);
#585=AXIS2_PLACEMENT_3D('',#861,#712,#713);
#586=DIRECTION('',(0.,0.,1.));
#587=DIRECTION('',(1.,0.,0.));
#588=DIRECTION('',(0.,0.,1.));
#589=DIRECTION('',(1.,0.,0.));
#590=DIRECTION('',(0.,-1.,0.));
#591=DIRECTION('',(-1.,0.,0.));
#592=DIRECTION('',(0.,-1.,0.));
#593=DIRECTION('',(-1.,0.,0.));
#594=DIRECTION('',(0.,-1.,0.));
#595=DIRECTION('',(-1.,0.,0.));
#596=DIRECTION('',(0.,-1.,0.));
#597=DIRECTION('',(-1.,0.,0.));
#598=DIRECTION('',(0.,0.,1.));
#599=DIRECTION('',(1.,0.,0.));
#600=DIRECTION('',(0.,-1.,0.));
#601=DIRECTION('',(-1.,0.,0.));
#602=DIRECTION('',(0.,-1.,0.));
#603=DIRECTION('',(-1.,0.,0.));
#604=DIRECTION('',(0.,-1.,0.));
#605=DIRECTION('',(-1.,0.,0.));
#606=DIRECTION('',(0.,-1.,0.));
#607=DIRECTION('',(-1.,0.,0.));
#608=DIRECTION('',(-1.,0.,0.));
#609=DIRECTION('',(0.,-1.,0.));
#610=DIRECTION('',(-1.,0.,0.));
#611=DIRECTION('',(0.,-1.,0.));
#612=DIRECTION('',(0.,-1.,0.));
#613=DIRECTION('',(-1.,0.,0.));
#614=DIRECTION('',(0.,-1.,0.));
#615=DIRECTION('',(-1.,0.,0.));
#616=DIRECTION('',(0.,-1.,0.));
#617=DIRECTION('',(-1.,0.,0.));
#618=DIRECTION('',(0.,-1.,0.));
#619=DIRECTION('',(-1.,0.,0.));
#620=DIRECTION('',(1.,0.,0.));
#621=DIRECTION('',(0.,-1.,0.));
#622=DIRECTION('',(0.,0.,-1.));
#623=DIRECTION('',(0.,0.,-1.));
#624=DIRECTION('',(0.,-1.,0.));
#625=DIRECTION('',(-1.,0.,0.));
#626=DIRECTION('',(0.,0.,-1.));
#627=DIRECTION('',(1.,0.,0.));
#628=DIRECTION('',(0.,-1.,0.));
#629=DIRECTION('',(0.,0.,-1.));
#630=DIRECTION('',(0.,-1.,0.));
#631=DIRECTION('',(-1.,0.,0.));
#632=DIRECTION('',(0.,1.,0.));
#633=DIRECTION('',(1.,0.,0.));
#634=DIRECTION('',(0.,0.,1.));
#635=DIRECTION('',(-1.,0.,0.));
#636=DIRECTION('',(0.,0.,1.));
#637=DIRECTION('',(-1.,0.,0.));
#638=DIRECTION('',(0.,1.,0.));
#639=DIRECTION('',(0.,-1.,0.));
#640=DIRECTION('',(0.,0.,1.));
#641=DIRECTION('',(0.,1.,0.));
#642=DIRECTION('',(1.,0.,0.));
#643=DIRECTION('',(-1.,0.,0.));
#644=DIRECTION('',(0.,0.,1.));
#645=DIRECTION('',(-1.,0.,0.));
#646=DIRECTION('',(0.,1.,0.));
#647=DIRECTION('',(0.,-1.,0.));
#648=DIRECTION('',(-1.,0.,0.));
#649=DIRECTION('',(0.,1.,0.));
#650=DIRECTION('',(0.,0.,1.));
#651=DIRECTION('',(0.,-1.,0.));
#652=DIRECTION('',(0.,0.,1.));
#653=DIRECTION('',(0.,1.,0.));
#654=DIRECTION('',(1.,0.,0.));
#655=DIRECTION('',(-1.,0.,0.));
#656=DIRECTION('',(0.,0.,1.));
#657=DIRECTION('',(-1.,0.,0.));
#658=DIRECTION('',(0.,1.,0.));
#659=DIRECTION('',(0.,-1.,0.));
#660=DIRECTION('',(0.,0.,1.));
#661=DIRECTION('',(0.,1.,0.));
#662=DIRECTION('',(1.,0.,0.));
#663=DIRECTION('',(-1.,0.,0.));
#664=DIRECTION('',(0.,1.,0.));
#665=DIRECTION('',(1.,0.,0.));
#666=DIRECTION('',(0.,0.,1.));
#667=DIRECTION('',(-1.,0.,0.));
#668=DIRECTION('',(0.,0.,1.));
#669=DIRECTION('',(-1.,0.,0.));
#670=DIRECTION('',(0.,1.,0.));
#671=DIRECTION('',(0.,-1.,0.));
#672=DIRECTION('',(0.,0.,1.));
#673=DIRECTION('',(0.,1.,0.));
#674=DIRECTION('',(1.,0.,0.));
#675=DIRECTION('',(-1.,0.,0.));
#676=DIRECTION('',(0.,0.,1.));
#677=DIRECTION('',(-1.,0.,0.));
#678=DIRECTION('',(0.,1.,0.));
#679=DIRECTION('',(0.,-1.,0.));
#680=DIRECTION('',(-1.,0.,0.));
#681=DIRECTION('',(0.,1.,0.));
#682=DIRECTION('',(0.,0.,1.));
#683=DIRECTION('',(0.,-1.,0.));
#684=DIRECTION('',(0.,0.,1.));
#685=DIRECTION('',(0.,1.,0.));
#686=DIRECTION('',(1.,0.,0.));
#687=DIRECTION('',(-1.,0.,0.));
#688=DIRECTION('',(0.,0.,1.));
#689=DIRECTION('',(-1.,0.,0.));
#690=DIRECTION('',(0.,1.,0.));
#691=DIRECTION('',(0.,-1.,0.));
#692=DIRECTION('',(0.,0.,1.));
#693=DIRECTION('',(0.,1.,0.));
#694=DIRECTION('',(1.,0.,0.));
#695=DIRECTION('',(-1.,0.,0.));
#696=DIRECTION('',(0.,-1.,0.));
#697=DIRECTION('',(-1.,0.,0.));
#698=DIRECTION('',(0.,0.,-1.));
#699=DIRECTION('',(-1.,0.,0.));
#700=DIRECTION('',(0.,0.,-1.));
#701=DIRECTION('',(1.,0.,0.));
#702=DIRECTION('',(0.,-1.,0.));
#703=DIRECTION('',(0.,0.,-1.));
#704=DIRECTION('',(0.,-1.,0.));
#705=DIRECTION('',(0.,-1.,0.));
#706=DIRECTION('',(-1.,0.,0.));
#707=DIRECTION('',(0.,0.,-1.));
#708=DIRECTION('',(-1.,0.,0.));
#709=DIRECTION('',(1.,0.,0.));
#710=DIRECTION('',(0.,-1.,0.));
#711=DIRECTION('',(0.,-1.,0.));
#712=DIRECTION('',(0.,0.,1.));
#713=DIRECTION('',(1.,0.,0.));
#714=CARTESIAN_POINT('',(0.,0.,0.));
#715=CARTESIAN_POINT('',(0.,0.,0.0025));
#716=CARTESIAN_POINT('',(0.06875,0.,0.0025));
#717=CARTESIAN_POINT('',(0.06875,0.06875,0.0025));
#718=CARTESIAN_POINT('',(0.06875,-0.06875,0.0025));
#719=CARTESIAN_POINT('',(0.,0.06875,0.0025));
#720=CARTESIAN_POINT('',(-0.06875,0.06875,0.0025));
#721=CARTESIAN_POINT('',(-0.06875,0.,0.0025));
#722=CARTESIAN_POINT('',(-0.06875,-0.06875,0.0025));
#723=CARTESIAN_POINT('',(0.,-0.06875,0.0025));
#724=CARTESIAN_POINT('',(0.0510671474039555,-0.0142820379137993,0.0025));
#725=CARTESIAN_POINT('',(0.0510671474039555,0.0234980957210064,0.0025));
#726=CARTESIAN_POINT('',(0.0510671474039555,-0.0247480957210064,0.0025));
#727=CARTESIAN_POINT('',(0.024848832115531,-0.0247480957210064,0.0025));
#728=CARTESIAN_POINT('',(0.00143285259604455,-0.0247480957210064,0.0025));
#729=CARTESIAN_POINT('',(0.00143285259604455,0.0130320379137993,0.0025));
#730=CARTESIAN_POINT('',(0.00143285259604455,0.0234980957210064,0.0025));
#731=CARTESIAN_POINT('',(0.0400597415864468,0.0234980957210064,0.0025));
#732=CARTESIAN_POINT('',(0.,0.,0.));
#733=CARTESIAN_POINT('',(0.046736367046833,0.,0.));
#734=CARTESIAN_POINT('',(0.046736367046833,0.019528210312128,0.));
#735=CARTESIAN_POINT('',(0.046736367046833,0.00256598010659216,0.));
#736=CARTESIAN_POINT('',(0.,0.019528210312128,0.));
#737=CARTESIAN_POINT('',(0.0290523357689381,0.019528210312128,0.));
#738=CARTESIAN_POINT('',(0.0290523357689381,0.,0.));
#739=CARTESIAN_POINT('',(0.0290523357689381,0.00256598010659216,0.));
#740=CARTESIAN_POINT('',(0.,0.00256598010659216,0.));
#741=CARTESIAN_POINT('',(0.06875,0.,0.));
#742=CARTESIAN_POINT('',(0.06875,0.06875,0.));
#743=CARTESIAN_POINT('',(0.06875,-0.06875,0.));
#744=CARTESIAN_POINT('',(0.,-0.06875,0.));
#745=CARTESIAN_POINT('',(-0.06875,-0.06875,0.));
#746=CARTESIAN_POINT('',(-0.06875,0.,0.));
#747=CARTESIAN_POINT('',(-0.06875,0.06875,0.));
#748=CARTESIAN_POINT('',(0.,0.06875,0.));
#749=CARTESIAN_POINT('',(0.,0.00256598010659216,0.));
#750=CARTESIAN_POINT('',(0.023447664231062,0.00256598010659216,0.));
#751=CARTESIAN_POINT('',(0.00576363295316697,0.00256598010659216,0.));
#752=CARTESIAN_POINT('',(0.023447664231062,0.,0.));
#753=CARTESIAN_POINT('',(0.023447664231062,0.019528210312128,0.));
#754=CARTESIAN_POINT('',(0.,0.019528210312128,0.));
#755=CARTESIAN_POINT('',(0.00576363295316697,0.019528210312128,0.));
#756=CARTESIAN_POINT('',(0.00576363295316697,0.,0.));
#757=CARTESIAN_POINT('',(0.046736367046833,0.,0.));
#758=CARTESIAN_POINT('',(0.046736367046833,-0.00381598010659219,0.));
#759=CARTESIAN_POINT('',(0.046736367046833,-0.0207782103121281,0.));
#760=CARTESIAN_POINT('',(0.,-0.00381598010659219,0.));
#761=CARTESIAN_POINT('',(0.0290523357689381,-0.00381598010659219,0.));
#762=CARTESIAN_POINT('',(0.0290523357689381,0.,0.));
#763=CARTESIAN_POINT('',(0.0290523357689381,-0.0207782103121281,0.));
#764=CARTESIAN_POINT('',(0.,-0.0207782103121281,0.));
#765=CARTESIAN_POINT('',(0.023447664231062,0.,0.));
#766=CARTESIAN_POINT('',(0.023447664231062,-0.00381598010659219,0.));
#767=CARTESIAN_POINT('',(0.023447664231062,-0.0207782103121281,0.));
#768=CARTESIAN_POINT('',(0.,-0.00381598010659219,0.));
#769=CARTESIAN_POINT('',(0.00576363295316697,-0.00381598010659219,0.));
#770=CARTESIAN_POINT('',(0.00576363295316697,0.,0.));
#771=CARTESIAN_POINT('',(0.00576363295316697,-0.0207782103121281,0.));
#772=CARTESIAN_POINT('',(0.,-0.0207782103121281,0.));
#773=CARTESIAN_POINT('',(0.06875,0.,0.0025));
#774=CARTESIAN_POINT('',(0.06875,0.06875,0.0025));
#775=CARTESIAN_POINT('',(0.06875,-0.06875,0.0025));
#776=CARTESIAN_POINT('',(0.,0.06875,0.0025));
#777=CARTESIAN_POINT('',(-0.06875,0.06875,0.0025));
#778=CARTESIAN_POINT('',(-0.06875,0.,0.0025));
#779=CARTESIAN_POINT('',(-0.06875,-0.06875,0.0025));
#780=CARTESIAN_POINT('',(0.,-0.06875,0.0025));
#781=CARTESIAN_POINT('',(0.0146056485921145,0.00256598010659216,-0.0225));
#782=CARTESIAN_POINT('',(0.00576363295316697,0.00256598010659216,-0.0225));
#783=CARTESIAN_POINT('',(0.00576363295316697,0.00256598010659216,0.0045));
#784=CARTESIAN_POINT('',(0.0146056485921145,0.00256598010659216,0.0045));
#785=CARTESIAN_POINT('',(0.023447664231062,0.00256598010659216,0.0045));
#786=CARTESIAN_POINT('',(0.023447664231062,0.00256598010659216,-0.0225));
#787=CARTESIAN_POINT('',(0.023447664231062,0.0110470952093601,-0.0225));
#788=CARTESIAN_POINT('',(0.023447664231062,0.0110470952093601,0.0045));
#789=CARTESIAN_POINT('',(0.023447664231062,0.019528210312128,0.0045));
#790=CARTESIAN_POINT('',(0.023447664231062,0.019528210312128,-0.0225));
#791=CARTESIAN_POINT('',(0.0146056485921145,0.019528210312128,-0.0225));
#792=CARTESIAN_POINT('',(0.0146056485921145,0.019528210312128,0.0045));
#793=CARTESIAN_POINT('',(0.00576363295316697,0.019528210312128,0.0045));
#794=CARTESIAN_POINT('',(0.00576363295316697,0.019528210312128,-0.0225));
#795=CARTESIAN_POINT('',(0.00576363295316697,0.0110470952093601,-0.0225));
#796=CARTESIAN_POINT('',(0.00576363295316697,0.0110470952093601,0.0045));
#797=CARTESIAN_POINT('',(0.046736367046833,0.0110470952093601,-0.0225));
#798=CARTESIAN_POINT('',(0.046736367046833,0.00256598010659216,-0.0225));
#799=CARTESIAN_POINT('',(0.046736367046833,0.00256598010659216,0.0045));
#800=CARTESIAN_POINT('',(0.046736367046833,0.0110470952093601,0.0045));
#801=CARTESIAN_POINT('',(0.046736367046833,0.019528210312128,0.0045));
#802=CARTESIAN_POINT('',(0.046736367046833,0.019528210312128,-0.0225));
#803=CARTESIAN_POINT('',(0.0378943514078856,0.019528210312128,-0.0225));
#804=CARTESIAN_POINT('',(0.0378943514078856,0.019528210312128,0.0045));
#805=CARTESIAN_POINT('',(0.0290523357689381,0.019528210312128,0.0045));
#806=CARTESIAN_POINT('',(0.0290523357689381,0.019528210312128,-0.0225));
#807=CARTESIAN_POINT('',(0.0290523357689381,0.0110470952093601,-0.0225));
#808=CARTESIAN_POINT('',(0.0290523357689381,0.0110470952093601,0.0045));
#809=CARTESIAN_POINT('',(0.0290523357689381,0.00256598010659216,0.0045));
#810=CARTESIAN_POINT('',(0.0290523357689381,0.00256598010659216,-0.0225));
#811=CARTESIAN_POINT('',(0.0378943514078856,0.00256598010659216,-0.0225));
#812=CARTESIAN_POINT('',(0.0378943514078856,0.00256598010659216,0.0045));
#813=CARTESIAN_POINT('',(0.0378943514078856,-0.00381598010659219,-0.0225));
#814=CARTESIAN_POINT('',(0.046736367046833,-0.00381598010659219,-0.0225));
#815=CARTESIAN_POINT('',(0.046736367046833,-0.00381598010659219,0.0045));
#816=CARTESIAN_POINT('',(0.0378943514078856,-0.00381598010659219,0.0045));
#817=CARTESIAN_POINT('',(0.0290523357689381,-0.00381598010659219,0.0045));
#818=CARTESIAN_POINT('',(0.0290523357689381,-0.00381598010659219,-0.0225));
#819=CARTESIAN_POINT('',(0.0290523357689381,-0.0122970952093601,-0.0225));
#820=CARTESIAN_POINT('',(0.0290523357689381,-0.0122970952093601,0.0045));
#821=CARTESIAN_POINT('',(0.0290523357689381,-0.0207782103121281,0.0045));
#822=CARTESIAN_POINT('',(0.0290523357689381,-0.0207782103121281,-0.0225));
#823=CARTESIAN_POINT('',(0.0378943514078856,-0.0207782103121281,-0.0225));
#824=CARTESIAN_POINT('',(0.0378943514078856,-0.0207782103121281,0.0045));
#825=CARTESIAN_POINT('',(0.046736367046833,-0.0207782103121281,0.0045));
#826=CARTESIAN_POINT('',(0.046736367046833,-0.0207782103121281,-0.0225));
#827=CARTESIAN_POINT('',(0.046736367046833,-0.0122970952093601,-0.0225));
#828=CARTESIAN_POINT('',(0.046736367046833,-0.0122970952093601,0.0045));
#829=CARTESIAN_POINT('',(0.023447664231062,-0.0122970952093601,-0.0225));
#830=CARTESIAN_POINT('',(0.023447664231062,-0.0207782103121281,-0.0225));
#831=CARTESIAN_POINT('',(0.023447664231062,-0.0207782103121281,0.0045));
#832=CARTESIAN_POINT('',(0.023447664231062,-0.0122970952093601,0.0045));
#833=CARTESIAN_POINT('',(0.023447664231062,-0.00381598010659219,0.0045));
#834=CARTESIAN_POINT('',(0.023447664231062,-0.00381598010659219,-0.0225));
#835=CARTESIAN_POINT('',(0.0146056485921145,-0.00381598010659219,-0.0225));
#836=CARTESIAN_POINT('',(0.0146056485921145,-0.00381598010659219,0.0045));
#837=CARTESIAN_POINT('',(0.00576363295316697,-0.00381598010659219,0.0045));
#838=CARTESIAN_POINT('',(0.00576363295316697,-0.00381598010659219,-0.0225));
#839=CARTESIAN_POINT('',(0.00576363295316697,-0.0122970952093601,-0.0225));
#840=CARTESIAN_POINT('',(0.00576363295316697,-0.0122970952093601,0.0045));
#841=CARTESIAN_POINT('',(0.00576363295316697,-0.0207782103121281,0.0045));
#842=CARTESIAN_POINT('',(0.00576363295316697,-0.0207782103121281,-0.0225));
#843=CARTESIAN_POINT('',(0.0146056485921145,-0.0207782103121281,-0.0225));
#844=CARTESIAN_POINT('',(0.0146056485921145,-0.0207782103121281,0.0045));
#845=CARTESIAN_POINT('',(0.024848832115531,-0.0247480957210064,0.0045));
#846=CARTESIAN_POINT('',(0.0510671474039555,-0.0247480957210064,0.0045));
#847=CARTESIAN_POINT('',(0.0510671474039555,-0.0247480957210064,0.0045));
#848=CARTESIAN_POINT('',(0.024848832115531,-0.0247480957210064,0.0045));
#849=CARTESIAN_POINT('',(0.00143285259604455,-0.0247480957210064,0.0045));
#850=CARTESIAN_POINT('',(0.00143285259604455,-0.0247480957210064,0.0045));
#851=CARTESIAN_POINT('',(0.0510671474039555,-0.0142820379137993,0.0045));
#852=CARTESIAN_POINT('',(0.0510671474039555,0.0234980957210064,0.0045));
#853=CARTESIAN_POINT('',(0.0510671474039555,0.0234980957210064,0.0045));
#854=CARTESIAN_POINT('',(0.0510671474039555,-0.0142820379137993,0.0045));
#855=CARTESIAN_POINT('',(0.0400597415864468,0.0234980957210064,0.0045));
#856=CARTESIAN_POINT('',(0.00143285259604455,0.0234980957210064,0.0045));
#857=CARTESIAN_POINT('',(0.00143285259604455,0.0234980957210064,0.0045));
#858=CARTESIAN_POINT('',(0.0400597415864468,0.0234980957210064,0.0045));
#859=CARTESIAN_POINT('',(0.00143285259604455,0.0130320379137993,0.0045));
#860=CARTESIAN_POINT('',(0.00143285259604455,0.0130320379137993,0.0045));
#861=CARTESIAN_POINT('',(0.,0.,0.0045));
#862=MECHANICAL_DESIGN_GEOMETRIC_PRESENTATION_REPRESENTATION('',(#547),
#863);
#863=(
GEOMETRIC_REPRESENTATION_CONTEXT(3)
GLOBAL_UNCERTAINTY_ASSIGNED_CONTEXT((#864))
GLOBAL_UNIT_ASSIGNED_CONTEXT((#867,#866,#865))
REPRESENTATION_CONTEXT('Part 1','TOP_LEVEL_ASSEMBLY_PART')
);
#864=UNCERTAINTY_MEASURE_WITH_UNIT(LENGTH_MEASURE(1.E-8),#867,
'DISTANCE_ACCURACY_VALUE','Maximum Tolerance applied to model');
#865=(
NAMED_UNIT(*)
SI_UNIT($,.STERADIAN.)
SOLID_ANGLE_UNIT()
);
#866=(
NAMED_UNIT(*)
PLANE_ANGLE_UNIT()
SI_UNIT($,.RADIAN.)
);
#867=(
LENGTH_UNIT()
NAMED_UNIT(*)
SI_UNIT($,.METRE.)
);
#868=PRODUCT_DEFINITION_SHAPE('','',#869);
#869=PRODUCT_DEFINITION('','',#871,#870);
#870=PRODUCT_DEFINITION_CONTEXT('',#877,'design');
#871=PRODUCT_DEFINITION_FORMATION_WITH_SPECIFIED_SOURCE('','',#873,
 .NOT_KNOWN.);
#872=PRODUCT_RELATED_PRODUCT_CATEGORY('','',(#873));
#873=PRODUCT('Part 1','Part 1','Part 1',(#875));
#874=PRODUCT_CATEGORY('','');
#875=PRODUCT_CONTEXT('',#877,'mechanical');
#876=APPLICATION_PROTOCOL_DEFINITION('international standard',
'ap242_managed_model_based_3d_engineering',2020,#877);
#877=APPLICATION_CONTEXT('managed model based 3d engineering');
ENDSEC;
END-ISO-10303-21;
